<?xml version="1.0" standalone="no"?>
<!DOCTYPE svg PUBLIC "-//W3C//DTD SVG 20010904//EN"
 "http://www.w3.org/TR/2001/REC-SVG-20010904/DTD/svg10.dtd">
<svg version="1.0" xmlns="http://www.w3.org/2000/svg"
 width="800.000000pt" height="744.000000pt" viewBox="0 0 800.000000 744.000000"
 preserveAspectRatio="xMidYMid meet">
<metadata>
Created by potrace 1.16, written by Peter Selinger 2001-2019
</metadata>
<g transform="translate(0.000000,744.000000) scale(0.100000,-0.100000)"
fill="#000000" stroke="none">
<path d="M2579 6563 c0 -191 -3 -342 -6 -335 -2 6 -10 12 -17 12 -7 0 -23 9
-36 20 -14 13 -37 20 -62 20 -21 0 -38 5 -38 10 0 6 -20 10 -45 10 -25 0 -45
-4 -45 -9 0 -5 -18 -11 -40 -15 -22 -3 -40 -10 -40 -15 0 -5 -11 -12 -25 -15
-14 -4 -25 -11 -25 -16 0 -6 -6 -10 -13 -10 -13 0 -47 -34 -47 -48 0 -4 -9
-15 -20 -25 -11 -9 -20 -24 -20 -32 0 -11 -11 -15 -39 -15 -54 0 -145 -18
-149 -30 -2 -6 -10 -10 -18 -10 -8 0 -22 -9 -31 -20 -10 -11 -23 -20 -30 -20
-7 0 -13 -6 -13 -14 0 -8 -14 -28 -31 -45 -17 -18 -33 -45 -36 -66 -3 -19 -10
-35 -14 -35 -5 0 -9 -20 -9 -45 0 -25 -5 -45 -10 -45 -6 0 -21 -11 -34 -25
-13 -14 -27 -25 -32 -25 -12 0 -49 -41 -57 -62 -3 -10 -11 -18 -16 -18 -5 0
-12 -12 -16 -27 -3 -15 -11 -31 -17 -34 -7 -4 -11 -57 -12 -134 -2 -108 -5
-128 -19 -137 -9 -5 -17 -16 -17 -23 0 -8 -4 -15 -10 -15 -5 0 -13 -18 -16
-40 -4 -22 -10 -40 -15 -40 -5 0 -9 -43 -9 -95 0 -52 4 -95 9 -95 5 0 13 -14
16 -32 4 -18 20 -43 36 -57 16 -14 29 -31 29 -38 0 -7 5 -13 10 -13 6 0 10 -7
10 -15 0 -8 -4 -15 -10 -15 -6 0 -10 -42 -10 -105 0 -63 4 -105 10 -105 6 0
10 -9 10 -19 0 -11 7 -26 15 -35 8 -8 15 -18 15 -22 0 -11 103 -109 123 -117
12 -5 17 -18 17 -47 0 -22 5 -40 10 -40 6 0 10 -13 10 -29 0 -20 12 -42 40
-72 22 -24 40 -46 40 -50 0 -4 10 -11 22 -14 11 -4 31 -18 43 -31 15 -16 38
-26 69 -30 25 -4 46 -10 46 -14 0 -4 19 -10 42 -13 24 -3 44 -11 46 -17 6 -18
108 -120 119 -120 6 0 13 -5 15 -11 2 -5 22 -13 46 -16 23 -3 42 -10 42 -14 0
-5 27 -9 60 -9 33 0 60 4 60 10 0 6 13 10 28 10 16 0 39 9 52 20 13 11 29 20
36 20 7 0 15 6 17 13 3 6 6 -297 6 -675 l1 -688 280 0 280 0 0 969 c0 533 -3
976 -6 985 -7 17 -34 22 -34 6 0 -6 -33 -10 -80 -10 -44 0 -80 4 -80 9 0 5
-18 11 -40 15 -22 3 -40 10 -40 15 0 5 -11 12 -25 15 -29 7 -145 122 -145 144
0 5 -7 12 -15 16 -8 3 -15 12 -15 21 0 8 -4 15 -10 15 -5 0 -12 16 -16 36 -6
31 -34 74 -48 74 -3 0 -6 -178 -8 -396 -3 -364 -4 -396 -20 -405 -10 -6 -18
-14 -18 -19 0 -15 -42 -60 -56 -60 -7 0 -14 -5 -16 -12 -6 -16 -160 -17 -165
-1 -3 7 -20 17 -38 23 -20 7 -37 20 -41 33 -4 12 -12 25 -18 29 -6 4 -11 32
-10 62 0 47 4 59 29 82 24 23 35 26 74 21 24 -3 50 -12 56 -21 16 -21 81 -22
89 0 12 32 5 70 -18 92 -13 12 -27 22 -31 22 -18 0 -35 33 -35 68 0 60 -8 72
-46 72 -24 0 -34 -5 -34 -15 0 -8 -4 -15 -10 -15 -5 0 -10 -17 -10 -38 0 -42
-22 -67 -66 -78 -33 -8 -64 -34 -64 -51 0 -7 -4 -13 -9 -13 -5 0 -12 -13 -16
-30 -4 -16 -11 -30 -16 -30 -5 0 -9 -7 -9 -15 0 -10 -11 -15 -35 -15 -19 0
-35 4 -35 9 0 5 -16 12 -35 15 -19 4 -35 10 -35 15 0 4 -11 14 -25 21 -13 7
-28 23 -31 34 -4 12 -11 24 -16 27 -14 9 -13 152 1 157 6 2 11 10 11 18 0 8 7
17 15 20 10 4 15 20 15 44 0 42 -21 57 -62 45 -26 -9 -68 -53 -68 -71 0 -8 -7
-14 -15 -14 -8 0 -15 5 -15 10 0 6 -6 10 -14 10 -27 0 -68 50 -73 90 -3 22
-10 40 -14 40 -5 0 -9 20 -9 44 0 31 5 46 16 50 20 8 67 -4 76 -18 10 -15 206
-15 216 0 4 6 24 14 44 17 55 8 80 36 76 83 l-3 39 -53 0 c-29 -1 -56 -6 -60
-12 -4 -6 -20 -15 -35 -18 -15 -4 -27 -11 -27 -16 0 -5 -22 -9 -50 -9 -27 0
-50 4 -50 9 0 5 -16 12 -35 15 -19 4 -35 11 -35 15 0 5 -12 12 -27 16 -35 8
-90 67 -98 105 -4 16 -11 30 -16 30 -5 0 -9 34 -9 75 0 41 4 75 9 75 4 0 14
20 21 44 7 25 18 47 26 50 8 3 14 12 14 21 0 8 5 15 10 15 6 0 10 20 10 45 0
25 -4 45 -10 45 -5 0 -10 20 -10 45 0 25 4 45 9 45 4 0 11 18 14 39 4 30 16
50 53 85 26 25 53 46 60 46 7 0 14 6 16 12 7 21 140 17 162 -4 10 -10 23 -18
31 -18 7 0 16 -13 20 -30 4 -16 10 -30 15 -30 4 0 11 -16 14 -35 4 -21 13 -35
21 -35 8 0 15 -4 15 -10 0 -5 7 -10 15 -10 8 0 15 5 15 10 0 6 6 10 14 10 7 0
16 9 19 20 7 26 -3 100 -14 100 -4 0 -11 9 -14 21 -4 12 -14 30 -24 41 -46 56
-64 70 -96 75 -19 3 -35 10 -35 14 0 5 -23 9 -51 9 l-51 0 7 38 c4 20 11 39
16 40 5 2 9 9 9 16 0 16 45 66 59 66 5 0 17 7 26 17 9 9 39 18 66 21 41 4 49
2 49 -12 0 -9 5 -16 10 -16 6 0 10 -7 10 -15 0 -9 6 -18 14 -21 8 -3 17 -16
20 -28 3 -12 18 -29 33 -37 39 -20 63 -41 63 -56 0 -7 4 -13 10 -13 5 0 13
-18 16 -40 4 -22 10 -40 14 -40 4 0 10 -9 13 -20 6 -24 39 -26 62 -3 13 13 15
27 10 73 l-7 57 32 6 c41 9 60 29 60 65 0 39 -15 44 -109 36 -65 -6 -80 -4
-94 10 -9 10 -17 24 -17 32 0 8 -4 14 -10 14 -17 0 -12 87 5 94 8 3 15 10 15
16 0 18 40 50 70 57 17 3 30 9 30 14 0 5 25 9 55 9 30 0 55 -4 55 -9 0 -5 14
-11 30 -15 27 -5 42 -18 92 -76 9 -10 14 -70 16 -204 3 -128 8 -193 16 -201 6
-7 29 -18 51 -25 22 -7 44 -19 48 -26 4 -8 12 -14 18 -14 12 0 89 -79 89 -92
0 -5 11 -19 24 -31 14 -13 28 -35 31 -50 4 -15 11 -27 15 -27 4 0 11 -15 14
-34 4 -19 13 -37 21 -40 8 -3 15 -17 15 -31 0 -14 4 -25 10 -25 5 0 12 -16 16
-35 3 -19 10 -35 15 -35 5 0 14 -20 20 -45 6 -25 15 -45 19 -45 4 0 10 -13 14
-30 3 -16 10 -30 16 -30 6 0 13 14 17 30 3 17 9 30 13 30 5 0 11 13 15 30 4
17 10 30 15 30 4 0 10 22 14 49 4 27 12 51 19 54 9 3 13 145 15 620 2 375 7
617 13 617 5 0 9 -4 9 -10 0 -6 80 -10 220 -10 140 0 220 4 220 10 0 6 133 10
380 10 209 0 380 -4 380 -9 0 -4 35 -11 77 -15 42 -3 79 -10 82 -15 3 -4 27
-11 54 -15 26 -4 47 -11 47 -16 0 -6 18 -13 40 -16 22 -4 40 -10 40 -14 0 -4
14 -10 31 -14 16 -3 36 -11 44 -18 32 -29 43 -36 65 -43 13 -4 33 -16 44 -26
11 -11 26 -19 33 -19 7 0 13 -4 13 -9 0 -5 10 -13 22 -17 12 -4 34 -20 48 -36
14 -17 53 -58 88 -93 34 -34 62 -66 62 -69 0 -4 11 -17 24 -29 14 -13 28 -35
31 -50 4 -15 11 -27 15 -27 5 0 11 -13 15 -29 3 -16 12 -32 20 -35 8 -3 17
-21 21 -40 3 -20 10 -36 14 -36 4 0 10 -18 14 -39 3 -22 11 -41 16 -43 6 -2
13 -27 17 -56 3 -28 9 -52 14 -52 4 0 11 -40 15 -90 3 -49 10 -90 15 -90 5 0
9 -27 9 -59 0 -98 -21 -91 256 -91 188 0 244 3 245 13 4 38 -4 193 -11 197 -4
3 -10 41 -14 85 -4 44 -11 82 -15 85 -5 3 -12 29 -16 58 -4 28 -11 52 -15 52
-5 0 -11 18 -15 40 -4 22 -11 40 -15 40 -5 0 -11 14 -15 30 -4 17 -10 30 -15
30 -5 0 -11 14 -15 30 -4 17 -11 30 -16 30 -5 0 -9 6 -9 14 0 11 9 13 38 9 20
-3 39 -9 42 -13 3 -4 17 -10 33 -14 15 -3 27 -11 27 -16 0 -6 7 -10 15 -10 9
0 18 -7 21 -15 4 -8 11 -15 16 -15 11 0 88 -74 88 -84 0 -4 11 -17 24 -29 14
-13 28 -35 31 -50 4 -15 11 -27 15 -27 5 0 11 -13 15 -29 3 -16 13 -32 21 -35
8 -3 14 -12 14 -21 0 -16 18 -20 36 -7 6 4 17 25 24 47 7 22 19 46 27 53 7 7
13 19 13 27 0 7 7 15 15 19 8 3 15 10 15 17 0 15 109 119 125 119 7 0 15 7 19
15 3 8 12 15 20 15 7 0 16 7 20 15 3 8 16 15 30 15 13 0 26 5 28 11 2 6 32 13
66 16 34 3 62 10 62 14 0 5 14 9 30 9 17 0 30 -4 30 -9 0 -4 32 -11 72 -15 40
-4 75 -10 78 -15 3 -5 15 -11 28 -15 12 -4 22 -11 22 -16 0 -4 11 -11 25 -14
14 -4 25 -11 25 -16 0 -6 5 -10 11 -10 6 0 29 -18 51 -40 22 -22 44 -40 49
-40 5 0 9 -6 9 -14 0 -8 6 -21 13 -28 21 -23 37 -57 37 -77 0 -11 5 -21 10
-23 6 -2 13 -27 17 -56 3 -28 10 -52 14 -52 5 0 9 -45 9 -100 0 -55 -4 -100
-9 -100 -5 0 -12 -29 -16 -65 -3 -36 -10 -65 -15 -65 -4 0 -13 -22 -20 -50 -7
-27 -16 -50 -20 -50 -4 0 -11 -12 -14 -26 -4 -14 -17 -35 -30 -47 -13 -12 -27
-33 -31 -47 -4 -13 -21 -35 -36 -49 -16 -14 -29 -29 -29 -33 0 -4 -20 -28 -45
-52 -25 -25 -45 -50 -45 -55 0 -10 -83 -94 -174 -176 -31 -27 -87 -80 -125
-117 -39 -38 -75 -68 -81 -68 -12 0 -70 -60 -70 -72 0 -5 -6 -8 -14 -8 -8 0
-44 -29 -79 -65 -36 -36 -68 -65 -72 -65 -4 0 -23 -16 -43 -36 -46 -46 -65
-41 -148 41 -37 36 -72 65 -80 65 -8 0 -14 4 -14 9 0 10 -111 123 -158 161
-36 29 -38 36 -17 56 8 9 15 24 15 35 0 10 4 19 9 19 5 0 11 19 15 42 4 23 12
45 17 49 6 3 13 34 16 68 l6 61 -239 -2 -239 -3 -3 -27 c-2 -16 -7 -28 -12
-28 -4 0 -11 -18 -15 -40 -4 -22 -11 -40 -15 -40 -5 0 -11 -13 -15 -30 -4 -16
-10 -30 -14 -30 -5 0 -14 -20 -21 -45 -7 -25 -16 -45 -21 -45 -4 0 -11 -10
-15 -22 -7 -23 -14 -33 -56 -78 -16 -15 -28 -32 -28 -35 0 -4 -31 -39 -70 -77
-38 -39 -70 -74 -70 -79 0 -5 -7 -9 -14 -9 -8 0 -27 -11 -42 -25 -15 -14 -33
-25 -40 -25 -8 0 -14 -4 -14 -10 0 -5 -7 -10 -15 -10 -9 0 -18 -7 -21 -15 -4
-8 -12 -15 -19 -15 -6 0 -22 -9 -35 -20 -13 -11 -29 -20 -37 -20 -7 0 -13 -4
-13 -10 0 -5 -18 -13 -40 -16 -22 -4 -40 -10 -40 -14 0 -4 -16 -11 -35 -14
-19 -4 -35 -11 -35 -15 0 -10 -109 -31 -157 -31 -17 0 -33 -6 -35 -12 -4 -10
-96 -14 -406 -16 l-402 -4 0 -194 0 -193 37 -7 c52 -10 715 3 722 14 3 5 49
12 101 16 52 4 97 11 100 15 3 4 32 11 65 15 32 4 62 11 65 16 3 5 25 12 48
16 23 4 42 10 42 14 0 4 18 10 40 14 22 3 40 11 40 16 0 5 18 13 40 16 22 4
40 10 40 14 0 4 16 11 35 14 19 4 35 10 35 15 0 4 16 13 35 21 19 8 35 17 35
21 0 4 14 10 30 14 17 4 30 11 30 16 0 5 11 11 24 15 14 3 27 12 30 20 3 8 11
14 17 14 6 0 21 10 33 23 12 13 29 26 39 30 9 3 17 11 17 16 0 5 10 13 22 17
26 8 198 179 198 197 1 6 14 23 30 37 17 13 30 29 30 36 0 7 7 14 15 18 8 3
15 12 15 21 0 8 4 15 10 15 5 0 12 11 16 25 3 14 10 25 14 25 4 0 10 9 13 20
9 35 43 22 105 -40 33 -33 64 -60 67 -60 8 0 48 -35 73 -64 45 -50 105 -106
113 -106 5 0 29 -20 52 -45 24 -25 52 -45 61 -45 20 0 106 86 106 106 0 8 11
16 25 20 15 4 28 16 31 30 3 13 15 26 27 30 11 4 35 22 53 40 17 19 35 34 38
34 4 0 35 27 68 60 33 33 65 60 71 60 7 1 23 15 37 32 14 17 33 38 44 47 10 9
31 28 46 44 16 15 32 27 35 27 9 0 185 177 185 185 0 4 27 34 60 67 33 33 60
64 60 69 0 6 13 22 29 37 16 15 33 39 36 54 4 15 13 29 21 32 8 3 14 12 14 21
0 8 4 15 9 15 5 0 12 14 16 30 4 16 10 30 15 30 5 0 11 13 15 30 4 17 10 30
15 30 5 0 12 15 15 33 4 17 11 34 16 37 4 3 11 37 15 75 4 39 11 73 16 76 13
8 12 240 0 248 -6 3 -13 32 -17 64 -4 31 -11 57 -16 57 -5 0 -9 9 -9 19 0 11
-6 26 -14 33 -7 8 -17 24 -20 36 -4 12 -11 22 -16 22 -5 0 -12 9 -15 20 -8 24
-123 144 -147 153 -10 3 -18 10 -18 15 0 5 -20 15 -45 22 -25 7 -45 16 -45 20
0 5 -19 11 -42 15 -24 4 -46 13 -50 19 -10 15 -296 15 -306 0 -4 -6 -28 -14
-54 -18 -25 -4 -49 -13 -51 -21 -3 -7 -19 -16 -36 -20 -17 -4 -31 -10 -31 -15
0 -5 -9 -12 -21 -15 -26 -9 -139 -123 -139 -142 0 -7 -11 -13 -25 -13 -14 0
-25 5 -25 11 0 13 -94 109 -107 109 -5 0 -16 9 -26 20 -9 11 -23 20 -31 20 -8
0 -16 6 -19 14 -3 8 -19 17 -36 21 -17 4 -31 11 -31 15 0 5 -16 12 -35 16 -19
3 -35 10 -35 14 0 4 -36 11 -80 15 -44 4 -80 12 -80 17 0 6 -11 21 -24 33 -13
12 -27 32 -31 43 -3 12 -11 22 -16 22 -5 0 -9 6 -9 13 0 7 -13 23 -30 37 -17
14 -30 30 -30 36 0 14 -127 144 -140 144 -5 0 -25 15 -44 33 -49 45 -78 67
-92 67 -7 0 -14 7 -18 15 -3 8 -12 15 -21 15 -8 0 -15 4 -15 10 0 5 -11 12
-24 16 -14 3 -27 12 -30 20 -3 8 -12 14 -21 14 -8 0 -15 4 -15 9 0 5 -13 12
-30 16 -16 4 -30 10 -30 14 0 4 -19 14 -42 21 -24 7 -46 17 -49 22 -3 5 -25
12 -48 15 -22 3 -41 9 -41 14 0 4 -16 11 -35 15 -19 3 -35 10 -35 15 0 4 -22
11 -50 15 -27 4 -50 10 -50 14 0 4 -35 11 -77 15 -43 4 -81 12 -85 19 -5 8
-260 12 -968 14 l-960 3 -1 -348z"/>
<path d="M4160 6213 c-26 -11 -39 -30 -52 -80 -7 -26 -16 -50 -19 -53 -3 -3
-10 -35 -13 -72 -4 -38 -11 -68 -16 -68 -4 0 -11 -31 -14 -70 -4 -38 -11 -70
-15 -70 -5 0 -11 -31 -15 -69 -4 -38 -11 -71 -16 -73 -6 -2 -13 -31 -16 -65
-4 -35 -10 -63 -14 -63 -4 0 -10 -30 -13 -67 -4 -38 -11 -69 -16 -71 -6 -2
-13 -35 -17 -73 -4 -38 -10 -69 -14 -69 -3 0 -12 -43 -19 -95 -8 -52 -17 -95
-22 -95 -5 0 -9 -13 -9 -30 0 -19 -5 -30 -14 -30 -10 0 -16 19 -21 60 -4 33
-11 60 -15 60 -4 0 -11 20 -14 45 -4 25 -11 45 -16 45 -4 0 -11 27 -15 60 -4
33 -10 60 -15 60 -4 0 -10 23 -14 50 -4 28 -10 50 -15 50 -5 0 -11 23 -15 50
-4 28 -10 50 -15 50 -4 0 -14 19 -21 42 -13 44 -50 88 -76 88 -7 0 -14 5 -14
10 0 6 -22 10 -50 10 -27 0 -50 -4 -50 -10 0 -5 -10 -10 -23 -10 -22 0 -77
-49 -77 -69 0 -6 -4 -11 -10 -11 -5 0 -12 -11 -16 -25 -3 -14 -10 -25 -14 -25
-5 0 -12 -20 -16 -45 -3 -25 -10 -45 -14 -45 -5 0 -11 -18 -15 -40 -4 -22 -11
-40 -16 -40 -5 0 -12 -18 -15 -40 -4 -22 -10 -40 -14 -40 -5 0 -11 -19 -15
-42 -4 -23 -13 -47 -20 -54 -7 -7 -16 -33 -19 -59 -4 -25 -11 -45 -15 -45 -5
0 -11 -18 -15 -40 -3 -22 -10 -40 -15 -40 -5 0 -11 -14 -15 -30 -9 -45 -51
-80 -97 -80 -43 0 -69 8 -69 22 0 5 -6 16 -12 23 -31 34 -38 45 -44 69 -3 14
-10 26 -15 26 -5 0 -9 11 -9 25 0 14 -6 28 -14 31 -8 3 -17 25 -21 50 -3 24
-10 44 -15 44 -5 0 -11 14 -15 30 -4 17 -10 30 -15 30 -4 0 -11 16 -14 35 -4
19 -11 35 -16 35 -6 0 -10 11 -10 25 0 13 -6 28 -13 32 -6 4 -19 22 -27 38
-20 41 -90 111 -120 120 -14 4 -28 13 -32 19 -11 16 -210 15 -216 -2 -2 -6 -8
-12 -14 -12 -13 0 -113 -103 -121 -125 -4 -8 -11 -15 -16 -15 -5 0 -12 -11
-15 -25 -4 -14 -10 -25 -15 -25 -5 0 -12 -13 -16 -30 -4 -16 -11 -30 -16 -30
-5 0 -13 -8 -16 -17 -14 -36 -61 -73 -92 -73 -17 0 -31 5 -31 10 0 6 -7 10
-15 10 -8 0 -15 7 -15 15 0 8 4 15 9 15 13 0 24 82 16 119 -4 20 -16 34 -36
43 -16 7 -29 16 -29 20 0 15 -48 8 -54 -8 -11 -29 -6 -75 9 -80 11 -4 15 -21
15 -59 0 -58 -7 -65 -66 -65 -19 0 -34 -4 -34 -8 0 -5 -11 -15 -25 -22 -21
-11 -25 -20 -25 -62 0 -50 1 -51 70 -110 19 -17 267 -18 278 -2 4 6 24 14 46
18 38 7 106 61 106 85 0 6 4 11 9 11 5 0 14 14 20 30 5 17 14 30 20 30 5 0 12
13 16 29 3 16 13 32 21 35 8 3 14 12 14 21 0 8 4 15 9 15 5 0 13 9 16 21 11
33 44 60 81 66 30 5 39 1 69 -30 19 -19 37 -47 41 -61 3 -14 10 -26 15 -26 4
0 11 -16 15 -35 3 -19 10 -35 14 -35 5 0 11 -13 15 -30 4 -16 10 -30 15 -30 5
0 12 -20 16 -45 3 -25 10 -45 15 -45 5 0 9 -7 9 -15 0 -7 6 -18 13 -22 8 -4
19 -29 27 -55 7 -27 16 -48 20 -48 4 0 11 -11 14 -25 4 -14 11 -25 16 -25 6 0
10 -7 10 -15 0 -9 6 -18 14 -21 8 -3 17 -16 20 -30 4 -13 13 -24 21 -24 8 0
24 -9 34 -19 11 -11 40 -23 65 -26 25 -4 46 -11 46 -16 0 -5 20 -9 45 -9 25 0
45 4 45 9 0 4 19 11 42 14 24 3 44 11 46 16 2 6 9 11 16 11 18 0 86 68 86 85
0 8 4 15 9 15 5 0 12 14 16 30 4 17 11 30 15 30 5 0 12 16 16 35 3 19 10 35
15 35 4 0 11 16 15 35 3 19 10 35 14 35 4 0 10 19 14 42 4 23 11 45 17 48 5 4
15 33 21 66 7 32 15 61 19 64 4 3 10 24 14 48 4 23 11 42 15 42 5 0 12 16 16
35 3 19 10 35 14 35 5 0 11 8 13 18 3 10 5 6 6 -10 0 -16 5 -28 10 -28 5 0 12
-20 15 -45 4 -25 11 -45 16 -45 4 0 11 -27 15 -60 4 -33 10 -60 15 -60 4 0 10
-22 14 -50 4 -27 11 -50 15 -50 5 0 12 -27 16 -60 4 -33 11 -60 15 -60 4 0 13
-29 20 -65 7 -36 16 -65 20 -65 4 0 11 -27 15 -60 4 -33 11 -60 16 -60 5 0 9
-12 9 -26 0 -17 14 -40 40 -66 38 -38 43 -40 89 -36 37 4 55 12 75 33 14 15
26 34 26 41 0 8 4 14 9 14 5 0 11 23 15 50 4 28 11 50 16 50 4 0 12 29 15 65
4 36 11 65 15 65 4 0 10 27 14 60 4 33 11 60 16 60 4 0 12 29 15 65 4 36 11
65 16 65 5 0 9 14 9 31 0 47 22 173 32 180 5 3 11 35 15 72 3 37 9 67 13 67 4
0 11 32 14 70 4 39 11 70 17 70 5 0 10 10 10 23 1 16 2 18 6 5 2 -10 8 -18 12
-18 5 0 12 -36 15 -80 4 -44 11 -80 15 -80 5 0 11 -28 15 -62 3 -34 10 -64 15
-67 5 -3 12 -39 16 -78 4 -40 11 -73 16 -73 5 0 9 -12 9 -27 0 -46 23 -183 31
-183 4 0 10 -36 14 -80 4 -44 11 -80 15 -80 5 0 12 -29 15 -65 4 -36 11 -65
15 -65 4 0 10 -18 13 -40 3 -26 15 -48 33 -66 26 -23 35 -26 90 -22 66 4 89
18 100 62 3 14 10 26 15 26 4 0 11 23 15 50 4 28 10 50 14 50 4 0 11 16 14 35
4 19 11 35 15 35 5 0 12 20 15 45 4 25 11 45 16 45 5 0 12 20 16 45 3 25 10
45 15 45 4 0 14 27 21 60 6 33 16 60 20 60 4 0 8 9 8 20 0 12 7 20 16 20 9 0
18 -9 21 -20 3 -11 9 -20 13 -20 5 0 12 -9 15 -20 7 -23 70 -90 85 -90 5 0 16
-8 26 -17 16 -17 60 -18 580 -21 l563 -3 20 23 c29 31 30 129 1 158 -19 19
-33 20 -545 20 l-526 0 -24 26 c-14 15 -25 33 -25 39 0 7 -6 15 -14 18 -7 3
-17 26 -20 51 -4 25 -11 46 -17 46 -5 0 -9 9 -9 19 0 11 -7 26 -15 34 -7 8
-17 26 -20 40 -4 15 -16 28 -31 31 -13 4 -24 11 -24 16 0 6 -23 10 -51 10 -46
0 -54 -4 -94 -43 -29 -29 -46 -56 -50 -80 -4 -21 -11 -37 -15 -37 -4 0 -10
-19 -13 -41 -3 -23 -10 -45 -15 -48 -5 -3 -13 -25 -17 -48 -4 -24 -11 -43 -15
-43 -5 0 -12 -20 -16 -45 -3 -25 -10 -45 -14 -45 -5 0 -14 -22 -21 -50 -7 -27
-16 -50 -20 -50 -8 0 -19 52 -19 91 0 16 -4 29 -9 29 -5 0 -12 25 -16 55 -3
30 -10 55 -15 55 -4 0 -11 38 -15 85 -4 47 -11 85 -15 85 -4 0 -11 29 -15 65
-3 36 -10 65 -15 65 -5 0 -12 36 -16 80 -3 44 -10 80 -14 80 -4 0 -11 28 -14
62 -4 35 -12 65 -17 68 -4 3 -12 39 -15 80 -4 41 -10 77 -14 80 -3 3 -11 43
-17 89 -6 46 -16 86 -21 90 -6 3 -13 18 -17 33 -4 15 -16 29 -28 32 -27 7 -87
6 -107 -1z"/>
<path d="M2373 4875 c-7 -7 -15 -25 -19 -39 -3 -14 -10 -26 -14 -26 -4 0 -10
-9 -13 -20 -3 -12 -14 -20 -26 -20 -12 0 -21 -4 -21 -8 0 -4 -27 -14 -60 -21
-33 -8 -60 -17 -60 -22 0 -4 -10 -11 -22 -14 -26 -9 -68 -53 -68 -72 0 -7 -6
-16 -14 -19 -18 -7 -31 -99 -22 -149 5 -26 13 -36 32 -41 35 -9 60 20 66 78 4
35 14 55 40 82 19 20 40 36 47 36 6 0 11 4 11 9 0 5 23 11 50 15 28 4 50 11
50 16 0 6 6 10 14 10 7 0 33 19 56 41 41 40 43 45 48 110 l5 69 -34 0 c-19 -1
-39 -7 -46 -15z"/>
<path d="M570 1116 l0 -866 220 0 220 0 0 236 c0 196 3 238 15 250 8 9 15 11
15 5 0 -8 70 -11 220 -11 121 0 220 4 220 8 0 5 46 12 102 16 56 3 105 10 108
15 3 4 26 11 53 15 26 4 47 11 47 16 0 5 14 11 30 15 17 4 30 10 30 15 0 5 13
11 29 15 16 3 32 13 35 21 3 8 10 14 16 14 22 0 140 115 140 136 0 8 6 17 14
20 8 3 18 19 21 35 4 16 10 29 15 29 5 0 12 15 15 33 4 17 12 35 18 39 6 3 12
31 15 62 2 31 8 56 13 56 5 0 9 27 9 60 0 33 -4 60 -9 60 -4 0 -11 32 -14 72
-3 39 -10 74 -15 77 -5 3 -13 21 -17 39 -3 17 -11 32 -16 32 -5 0 -9 7 -9 15
0 7 -6 18 -13 22 -7 4 -20 24 -27 43 -8 19 -24 44 -36 55 -42 38 -64 55 -72
55 -4 0 -15 9 -25 20 -9 11 -24 20 -32 20 -8 0 -15 4 -15 9 0 5 -12 12 -26 15
-15 4 -33 14 -41 21 -8 8 -25 15 -39 15 -13 0 -24 4 -24 9 0 6 -21 13 -47 17
-27 4 -51 12 -55 18 -5 8 -165 12 -548 14 l-540 3 0 -865z m968 503 c2 -5 14
-9 27 -9 13 0 30 -7 39 -15 8 -8 26 -19 40 -25 14 -5 26 -16 26 -25 0 -8 4
-15 10 -15 5 0 13 -12 16 -27 4 -16 12 -31 18 -35 15 -10 15 -206 0 -216 -6
-4 -15 -18 -19 -31 -9 -30 -36 -61 -52 -61 -7 0 -13 -4 -13 -9 0 -5 -15 -14
-32 -22 -18 -7 -36 -18 -40 -23 -5 -7 -103 -12 -278 -15 l-270 -3 0 270 c0
170 4 272 10 274 24 8 515 -4 518 -13z"/>
<path d="M2550 1121 c0 -774 2 -859 16 -865 9 -3 108 -6 220 -6 l204 0 -2 863
-3 862 -217 3 -218 2 0 -859z"/>
<path d="M3490 1121 c0 -774 2 -859 16 -865 9 -3 105 -6 214 -6 l198 0 6 27
c4 16 4 243 2 505 -3 409 -2 478 10 478 8 0 18 -8 21 -17 4 -10 25 -37 47 -60
23 -23 57 -61 76 -84 19 -23 43 -49 53 -58 9 -8 17 -19 17 -24 0 -5 18 -27 40
-50 121 -128 170 -184 170 -194 0 -3 20 -26 45 -50 25 -23 45 -46 45 -49 0 -4
27 -33 60 -66 33 -32 60 -63 60 -68 0 -6 16 -26 35 -46 19 -19 35 -38 35 -41
0 -4 20 -26 45 -50 25 -23 45 -47 45 -51 0 -5 20 -30 44 -55 l44 -47 175 0
c97 0 182 3 191 6 14 6 16 91 16 859 0 768 -2 853 -16 859 -9 3 -112 6 -230 6
l-214 0 0 -501 0 -501 -30 30 c-16 17 -30 34 -30 38 0 4 -25 31 -55 60 -30 30
-55 58 -55 64 0 5 -18 27 -40 49 -22 21 -40 42 -40 47 0 4 -29 35 -65 69 -36
34 -65 65 -65 68 0 8 -29 45 -52 66 -10 8 -18 19 -18 24 0 5 -18 27 -40 48
-22 22 -40 42 -40 45 0 3 -25 31 -55 61 -30 30 -55 60 -55 65 0 6 -18 28 -40
49 -22 22 -40 42 -40 45 0 4 -22 29 -50 56 -27 27 -50 53 -50 58 0 5 -11 20
-24 34 l-23 26 -192 0 -191 0 0 -859z"/>
<path d="M6243 1960 c-3 -11 -9 -20 -14 -20 -5 0 -12 -18 -15 -40 -4 -22 -10
-40 -14 -40 -4 0 -12 -18 -19 -40 -6 -22 -16 -40 -21 -40 -5 0 -13 -18 -16
-40 -4 -22 -10 -40 -15 -40 -5 0 -9 -7 -9 -15 0 -9 -6 -18 -14 -21 -7 -3 -16
-23 -20 -45 -3 -21 -11 -39 -16 -39 -5 0 -12 -11 -16 -25 -3 -14 -10 -25 -15
-25 -5 0 -12 -18 -15 -40 -4 -22 -10 -40 -14 -40 -5 0 -11 -13 -15 -30 -4 -16
-10 -30 -15 -30 -4 0 -11 -11 -14 -25 -4 -14 -10 -25 -15 -25 -5 0 -14 -20
-21 -45 -7 -25 -16 -45 -21 -45 -4 0 -10 -13 -14 -30 -4 -17 -11 -30 -16 -30
-5 0 -9 -11 -9 -24 0 -14 -7 -31 -15 -39 -7 -8 -17 -26 -21 -41 -3 -14 -10
-26 -14 -26 -5 0 -11 -13 -15 -30 -4 -16 -10 -30 -15 -30 -5 0 -11 -14 -15
-30 -4 -17 -10 -30 -15 -30 -4 0 -11 -16 -14 -35 -4 -19 -11 -35 -15 -35 -5 0
-14 -20 -21 -45 -7 -25 -16 -45 -21 -45 -4 0 -10 -14 -14 -30 -4 -17 -10 -30
-15 -30 -5 0 -11 -14 -15 -30 -4 -16 -11 -30 -15 -30 -5 0 -12 -16 -16 -35 -3
-19 -10 -35 -14 -35 -5 0 -11 -13 -15 -30 -4 -16 -11 -30 -16 -30 -5 0 -12
-18 -15 -40 -4 -22 -10 -40 -15 -40 -4 0 -11 -10 -15 -22 -4 -13 -11 -26 -15
-29 -5 -3 -15 -29 -21 -57 -7 -29 -16 -52 -20 -52 -5 0 -8 -9 -8 -20 0 -19 7
-20 213 -20 241 0 232 -3 256 83 8 26 17 47 22 47 4 0 10 13 14 30 4 16 10 30
15 30 4 0 11 16 14 35 4 19 11 35 16 35 4 0 11 13 15 30 4 16 10 30 15 30 4 0
11 11 14 25 l6 25 420 0 420 0 6 -25 c3 -14 10 -25 14 -25 5 0 11 -13 15 -30
4 -16 10 -30 15 -30 4 0 11 -12 14 -26 4 -15 14 -33 21 -41 8 -8 15 -25 15
-38 0 -12 7 -25 15 -29 8 -3 15 -12 15 -21 0 -8 4 -15 9 -15 5 0 11 -18 15
-39 3 -22 13 -41 22 -45 8 -3 112 -6 230 -6 l214 0 0 30 c0 17 -4 30 -9 30 -5
0 -12 13 -16 30 -4 16 -10 30 -15 30 -4 0 -11 16 -14 35 -4 19 -11 35 -16 35
-4 0 -11 14 -15 30 -4 17 -11 30 -16 30 -5 0 -9 9 -9 19 0 11 -7 26 -15 35 -8
8 -18 29 -21 45 -4 17 -10 31 -14 31 -5 0 -11 13 -15 30 -4 16 -10 30 -14 30
-5 0 -14 20 -21 45 -7 25 -16 45 -21 45 -4 0 -10 14 -14 30 -4 17 -10 30 -15
30 -5 0 -11 13 -15 30 -4 16 -11 30 -16 30 -5 0 -11 11 -15 25 -3 14 -10 25
-14 25 -5 0 -11 13 -15 30 -4 16 -10 30 -15 30 -4 0 -10 18 -14 39 -3 21 -13
41 -21 45 -8 3 -15 15 -15 26 0 11 -4 20 -9 20 -5 0 -15 24 -21 54 -6 30 -18
57 -26 60 -7 3 -14 17 -14 31 0 14 -4 25 -9 25 -5 0 -12 11 -15 25 -4 14 -10
25 -15 25 -5 0 -12 14 -16 30 -4 17 -10 30 -15 30 -5 0 -11 14 -15 30 -4 17
-10 30 -15 30 -5 0 -11 14 -15 30 -4 17 -10 30 -15 30 -5 0 -11 14 -15 30 -4
17 -10 30 -14 30 -5 0 -14 20 -21 45 -7 25 -16 45 -20 45 -4 0 -11 16 -14 35
-4 19 -11 35 -16 35 -4 0 -11 14 -15 30 -4 17 -11 30 -15 30 -5 0 -12 16 -16
35 -3 19 -10 35 -14 35 -4 0 -11 11 -14 25 -4 14 -14 34 -23 45 -16 19 -30 20
-246 20 -220 0 -229 -1 -234 -20z m252 -430 c4 -16 10 -30 15 -30 4 0 11 -20
14 -45 4 -25 11 -45 16 -45 5 0 11 -13 15 -30 4 -16 10 -30 15 -30 5 0 11 -13
15 -30 4 -16 10 -30 15 -30 4 0 13 -20 19 -45 6 -25 15 -45 20 -45 5 0 12 -16
15 -35 4 -19 11 -35 16 -35 6 0 10 -9 10 -19 0 -11 6 -26 14 -33 7 -8 17 -25
21 -38 4 -14 11 -27 15 -30 4 -3 10 -17 14 -32 l6 -28 -270 0 c-227 0 -270 2
-270 14 0 8 6 21 14 28 7 8 17 29 21 46 3 18 10 32 15 32 5 0 11 14 15 30 4
17 10 30 15 30 4 0 11 16 14 35 4 19 11 35 16 35 4 0 11 14 15 30 4 17 11 30
16 30 5 0 12 18 15 40 4 22 10 40 14 40 4 0 11 16 14 36 4 19 14 38 22 41 8 3
17 23 20 44 4 21 10 39 14 39 4 0 10 14 14 30 3 17 10 30 15 30 5 0 12 -13 16
-30z"/>
</g>
</svg>
