%TF.GenerationSoftware,KiCad,Pcbnew,9.0.2+dfsg-1*%
%TF.CreationDate,2026-09-12T11:05:53+00:00*%
%TF.ProjectId,PinaBiosensor_Mini,50696e61-4269-46f7-9365-6e736f725f4d,rev?*%
%TF.SameCoordinates,Original*%
%TF.FileFunction,Soldermask,Bot*%
%TF.FilePolarity,Negative*%
%FSLAX46Y46*%
G04 Gerber Fmt 4.6, Leading zero omitted, Abs format (unit mm)*
G04 Created by KiCad (PCBNEW 9.0.2+dfsg-1) date 2026-09-12 11:05:53*
%MOMM*%
%LPD*%
G01*
G04 APERTURE LIST*
G04 Aperture macros list*
%AMRoundRect*
0 Rectangle with rounded corners*
0 $1 Rounding radius*
0 $2 $3 $4 $5 $6 $7 $8 $9 X,Y pos of 4 corners*
0 Add a 4 corners polygon primitive as box body*
4,1,4,$2,$3,$4,$5,$6,$7,$8,$9,$2,$3,0*
0 Add four circle primitives for the rounded corners*
1,1,$1+$1,$2,$3*
1,1,$1+$1,$4,$5*
1,1,$1+$1,$6,$7*
1,1,$1+$1,$8,$9*
0 Add four rect primitives between the rounded corners*
20,1,$1+$1,$2,$3,$4,$5,0*
20,1,$1+$1,$4,$5,$6,$7,0*
20,1,$1+$1,$6,$7,$8,$9,0*
20,1,$1+$1,$8,$9,$2,$3,0*%
G04 Aperture macros list end*
%ADD10RoundRect,0.250000X-1.000000X-1.000000X1.000000X-1.000000X1.000000X1.000000X-1.000000X1.000000X0*%
%ADD11C,2.500000*%
%ADD12C,3.200000*%
%ADD13R,1.800000X1.800000*%
%ADD14C,1.800000*%
%ADD15R,1.700000X1.700000*%
%ADD16C,1.700000*%
%ADD17C,2.000000*%
%ADD18RoundRect,0.250000X0.625000X-0.350000X0.625000X0.350000X-0.625000X0.350000X-0.625000X-0.350000X0*%
%ADD19O,1.750000X1.200000*%
%ADD20RoundRect,0.250000X-0.350000X-0.625000X0.350000X-0.625000X0.350000X0.625000X-0.350000X0.625000X0*%
%ADD21O,1.200000X1.750000*%
G04 APERTURE END LIST*
D10*
%TO.C,J6*%
X58000000Y-62000000D03*
D11*
X63080000Y-62000000D03*
%TD*%
D12*
%TO.C,J8*%
X74350000Y-12000000D03*
D13*
X68000000Y-7000000D03*
D14*
X70540000Y-7000000D03*
X73080000Y-7000000D03*
X75620000Y-7000000D03*
X78160000Y-7000000D03*
X80700000Y-7000000D03*
%TD*%
D12*
%TO.C,J5*%
X35810000Y-63000000D03*
D13*
X32000000Y-58000000D03*
D14*
X34540000Y-58000000D03*
X37080000Y-58000000D03*
X39620000Y-58000000D03*
%TD*%
D15*
%TO.C,U1*%
X11110000Y-12380000D03*
D16*
X11110000Y-14920000D03*
X11110000Y-17460000D03*
X11110000Y-20000000D03*
X11110000Y-22540000D03*
X11110000Y-25080000D03*
X11110000Y-27620000D03*
X28890000Y-27620000D03*
X28890000Y-25080000D03*
X28890000Y-22540000D03*
X28890000Y-20000000D03*
X28890000Y-17460000D03*
X28890000Y-14920000D03*
X28890000Y-12380000D03*
D17*
X20000000Y-31500000D03*
%TD*%
D18*
%TO.C,J2*%
X6000000Y-40000000D03*
D19*
X6000000Y-38000000D03*
%TD*%
D10*
%TO.C,J3*%
X78000000Y-62000000D03*
D11*
X83080000Y-62000000D03*
%TD*%
D12*
%TO.C,J4*%
X21810000Y-63000000D03*
D13*
X18000000Y-58000000D03*
D14*
X20540000Y-58000000D03*
X23080000Y-58000000D03*
X25620000Y-58000000D03*
%TD*%
D20*
%TO.C,J10*%
X10000000Y-63000000D03*
D21*
X12000000Y-63000000D03*
%TD*%
D20*
%TO.C,J9*%
X55000000Y-9000000D03*
D21*
X57000000Y-9000000D03*
X59000000Y-9000000D03*
X61000000Y-9000000D03*
%TD*%
D12*
%TO.C,H2*%
X106500000Y-3500000D03*
%TD*%
%TO.C,H4*%
X106500000Y-66500000D03*
%TD*%
%TO.C,H1*%
X3500000Y-3500000D03*
%TD*%
D18*
%TO.C,J1*%
X6000000Y-54000000D03*
D19*
X6000000Y-52000000D03*
%TD*%
D12*
%TO.C,H3*%
X3500000Y-66500000D03*
%TD*%
D10*
%TO.C,J7*%
X90000000Y-62000000D03*
D11*
X95080000Y-62000000D03*
%TD*%
M02*
