%TF.GenerationSoftware,KiCad,Pcbnew,9.0.2+dfsg-1*%
%TF.CreationDate,2026-09-12T11:05:53+00:00*%
%TF.ProjectId,PinaBiosensor_Mini,50696e61-4269-46f7-9365-6e736f725f4d,rev?*%
%TF.SameCoordinates,Original*%
%TF.FileFunction,Copper,L1,Top*%
%TF.FilePolarity,Positive*%
%FSLAX46Y46*%
G04 Gerber Fmt 4.6, Leading zero omitted, Abs format (unit mm)*
G04 Created by KiCad (PCBNEW 9.0.2+dfsg-1) date 2026-09-12 11:05:53*
%MOMM*%
%LPD*%
G01*
G04 APERTURE LIST*
G04 Aperture macros list*
%AMRoundRect*
0 Rectangle with rounded corners*
0 $1 Rounding radius*
0 $2 $3 $4 $5 $6 $7 $8 $9 X,Y pos of 4 corners*
0 Add a 4 corners polygon primitive as box body*
4,1,4,$2,$3,$4,$5,$6,$7,$8,$9,$2,$3,0*
0 Add four circle primitives for the rounded corners*
1,1,$1+$1,$2,$3*
1,1,$1+$1,$4,$5*
1,1,$1+$1,$6,$7*
1,1,$1+$1,$8,$9*
0 Add four rect primitives between the rounded corners*
20,1,$1+$1,$2,$3,$4,$5,0*
20,1,$1+$1,$4,$5,$6,$7,0*
20,1,$1+$1,$6,$7,$8,$9,0*
20,1,$1+$1,$8,$9,$2,$3,0*%
G04 Aperture macros list end*
%TA.AperFunction,EtchedComponent*%
%ADD10C,0.000000*%
%TD*%
%TA.AperFunction,SMDPad,CuDef*%
%ADD11RoundRect,0.250000X0.625000X-0.312500X0.625000X0.312500X-0.625000X0.312500X-0.625000X-0.312500X0*%
%TD*%
%TA.AperFunction,SMDPad,CuDef*%
%ADD12RoundRect,0.112500X0.112500X-0.187500X0.112500X0.187500X-0.112500X0.187500X-0.112500X-0.187500X0*%
%TD*%
%TA.AperFunction,ComponentPad*%
%ADD13RoundRect,0.250000X-1.000000X-1.000000X1.000000X-1.000000X1.000000X1.000000X-1.000000X1.000000X0*%
%TD*%
%TA.AperFunction,ComponentPad*%
%ADD14C,2.500000*%
%TD*%
%TA.AperFunction,SMDPad,CuDef*%
%ADD15RoundRect,0.250000X0.650000X-0.325000X0.650000X0.325000X-0.650000X0.325000X-0.650000X-0.325000X0*%
%TD*%
%TA.AperFunction,ComponentPad*%
%ADD16R,1.800000X1.800000*%
%TD*%
%TA.AperFunction,ComponentPad*%
%ADD17C,1.800000*%
%TD*%
%TA.AperFunction,SMDPad,CuDef*%
%ADD18RoundRect,0.150000X-0.512500X-0.150000X0.512500X-0.150000X0.512500X0.150000X-0.512500X0.150000X0*%
%TD*%
%TA.AperFunction,SMDPad,CuDef*%
%ADD19RoundRect,0.250000X-0.325000X-0.650000X0.325000X-0.650000X0.325000X0.650000X-0.325000X0.650000X0*%
%TD*%
%TA.AperFunction,ComponentPad*%
%ADD20R,1.700000X1.700000*%
%TD*%
%TA.AperFunction,ComponentPad*%
%ADD21C,1.700000*%
%TD*%
%TA.AperFunction,ComponentPad*%
%ADD22C,2.000000*%
%TD*%
%TA.AperFunction,ComponentPad*%
%ADD23RoundRect,0.250000X0.625000X-0.350000X0.625000X0.350000X-0.625000X0.350000X-0.625000X-0.350000X0*%
%TD*%
%TA.AperFunction,ComponentPad*%
%ADD24O,1.750000X1.200000*%
%TD*%
%TA.AperFunction,SMDPad,CuDef*%
%ADD25RoundRect,0.250000X-0.312500X-0.625000X0.312500X-0.625000X0.312500X0.625000X-0.312500X0.625000X0*%
%TD*%
%TA.AperFunction,SMDPad,CuDef*%
%ADD26RoundRect,0.150000X-0.825000X-0.150000X0.825000X-0.150000X0.825000X0.150000X-0.825000X0.150000X0*%
%TD*%
%TA.AperFunction,SMDPad,CuDef*%
%ADD27RoundRect,0.218750X0.381250X-0.218750X0.381250X0.218750X-0.381250X0.218750X-0.381250X-0.218750X0*%
%TD*%
%TA.AperFunction,ComponentPad*%
%ADD28RoundRect,0.250000X-0.350000X-0.625000X0.350000X-0.625000X0.350000X0.625000X-0.350000X0.625000X0*%
%TD*%
%TA.AperFunction,ComponentPad*%
%ADD29O,1.200000X1.750000*%
%TD*%
%TA.AperFunction,SMDPad,CuDef*%
%ADD30C,2.000000*%
%TD*%
%TA.AperFunction,SMDPad,CuDef*%
%ADD31R,0.250000X1.100000*%
%TD*%
%TA.AperFunction,ViaPad*%
%ADD32C,0.600000*%
%TD*%
%TA.AperFunction,ViaPad*%
%ADD33C,0.800000*%
%TD*%
%TA.AperFunction,Conductor*%
%ADD34C,0.250000*%
%TD*%
%TA.AperFunction,Conductor*%
%ADD35C,0.249800*%
%TD*%
%TA.AperFunction,Conductor*%
%ADD36C,0.450000*%
%TD*%
%TA.AperFunction,Conductor*%
%ADD37C,0.300000*%
%TD*%
G04 APERTURE END LIST*
D10*
%TA.AperFunction,EtchedComponent*%
%TO.C,NT1*%
G36*
X54000000Y-32000000D02*
G01*
X50000000Y-32000000D01*
X50000000Y-30000000D01*
X54000000Y-30000000D01*
X54000000Y-32000000D01*
G37*
%TD.AperFunction*%
%TD*%
D11*
%TO.P,R15,1*%
%TO.N,N/C*%
X102000000Y-41462500D03*
%TO.P,R15,2*%
%TO.N,AB_MID*%
X102000000Y-38537500D03*
%TD*%
D12*
%TO.P,D2,1*%
%TO.N,TH_ELEC*%
X45000000Y-51050000D03*
%TO.P,D2,2*%
%TO.N,GNDA*%
X45000000Y-48950000D03*
%TD*%
D13*
%TO.P,J6,1*%
%TO.N,TH_ELEC*%
X58000000Y-62000000D03*
D14*
%TO.P,J6,2*%
%TO.N,GNDA*%
X63080000Y-62000000D03*
%TD*%
D11*
%TO.P,R17,1*%
%TO.N,AB_MID*%
X102000000Y-56462500D03*
%TO.P,R17,2*%
%TO.N,AB_ELEC*%
X102000000Y-53537500D03*
%TD*%
D15*
%TO.P,C13,1*%
%TO.N,AB_ELEC*%
X107000000Y-49475000D03*
%TO.P,C13,2*%
%TO.N,GNDA*%
X107000000Y-46525000D03*
%TD*%
D16*
%TO.P,J8,1*%
%TO.N,V_ANALOG*%
X68000000Y-7000000D03*
D17*
%TO.P,J8,2*%
%TO.N,GNDA*%
X70540000Y-7000000D03*
%TO.P,J8,3*%
%TO.N,ECG_OUT*%
X73080000Y-7000000D03*
%TO.P,J8,4*%
%TO.N,ECG_LOP*%
X75620000Y-7000000D03*
%TO.P,J8,5*%
%TO.N,ECG_LON*%
X78160000Y-7000000D03*
%TO.P,J8,6*%
%TO.N,V_ANALOG*%
X80700000Y-7000000D03*
%TD*%
D18*
%TO.P,U2,1*%
%TO.N,LDO_VIN*%
X53862500Y-21050000D03*
%TO.P,U2,2*%
%TO.N,GNDD*%
X53862500Y-22000000D03*
%TO.P,U2,3*%
%TO.N,LDO_VIN*%
X53862500Y-22950000D03*
%TO.P,U2,4*%
%TO.N,N/C*%
X56137500Y-22950000D03*
%TO.P,U2,5*%
%TO.N,LDO_OUT*%
X56137500Y-21050000D03*
%TD*%
D19*
%TO.P,C11,1*%
%TO.N,+3V3*%
X26525000Y-48000000D03*
%TO.P,C11,2*%
%TO.N,GNDD*%
X29475000Y-48000000D03*
%TD*%
D16*
%TO.P,J5,1*%
%TO.N,+3V3*%
X32000000Y-58000000D03*
D17*
%TO.P,J5,2*%
%TO.N,GNDD*%
X34540000Y-58000000D03*
%TO.P,J5,3*%
%TO.N,SDA*%
X37080000Y-58000000D03*
%TO.P,J5,4*%
%TO.N,SCL*%
X39620000Y-58000000D03*
%TD*%
D20*
%TO.P,U1,1*%
%TO.N,VBAT_DIV*%
X11110000Y-12380000D03*
D21*
%TO.P,U1,2*%
%TO.N,N/C*%
X11110000Y-14920000D03*
%TO.P,U1,3*%
X11110000Y-17460000D03*
%TO.P,U1,4*%
%TO.N,SLEEP_N*%
X11110000Y-20000000D03*
%TO.P,U1,5*%
%TO.N,SDA*%
X11110000Y-22540000D03*
%TO.P,U1,6*%
%TO.N,SCL*%
X11110000Y-25080000D03*
%TO.P,U1,7*%
%TO.N,N/C*%
X11110000Y-27620000D03*
%TO.P,U1,8*%
X28890000Y-27620000D03*
%TO.P,U1,9*%
%TO.N,ECG_LOP*%
X28890000Y-25080000D03*
%TO.P,U1,10*%
%TO.N,ECG_LON*%
X28890000Y-22540000D03*
%TO.P,U1,11*%
%TO.N,N/C*%
X28890000Y-20000000D03*
%TO.P,U1,12*%
%TO.N,+3V3*%
X28890000Y-17460000D03*
%TO.P,U1,13*%
%TO.N,GNDD*%
X28890000Y-14920000D03*
%TO.P,U1,14*%
%TO.N,+5V*%
X28890000Y-12380000D03*
D22*
%TO.P,U1,15*%
%TO.N,V_BATT*%
X20000000Y-31500000D03*
%TD*%
D23*
%TO.P,J2,1*%
%TO.N,+5V*%
X6000000Y-40000000D03*
D24*
%TO.P,J2,2*%
%TO.N,GNDD*%
X6000000Y-38000000D03*
%TD*%
D11*
%TO.P,R4,1*%
%TO.N,VREF_DIV*%
X87000000Y-33462500D03*
%TO.P,R4,2*%
%TO.N,GNDA*%
X87000000Y-30537500D03*
%TD*%
D13*
%TO.P,J3,1*%
%TO.N,GSR_ELEC*%
X78000000Y-62000000D03*
D14*
%TO.P,J3,2*%
%TO.N,GNDA*%
X83080000Y-62000000D03*
%TD*%
D25*
%TO.P,R7,1*%
%TO.N,+3V3*%
X26537500Y-42000000D03*
%TO.P,R7,2*%
%TO.N,SDA*%
X29462500Y-42000000D03*
%TD*%
%TO.P,R8,1*%
%TO.N,+3V3*%
X34537500Y-44000000D03*
%TO.P,R8,2*%
%TO.N,SCL*%
X37462500Y-44000000D03*
%TD*%
D19*
%TO.P,C12,1*%
%TO.N,TH_ELEC*%
X50525000Y-56000000D03*
%TO.P,C12,2*%
%TO.N,GNDA*%
X53475000Y-56000000D03*
%TD*%
D26*
%TO.P,U3,1*%
%TO.N,N$1*%
X67525000Y-36190000D03*
%TO.P,U3,2*%
X67525000Y-37460000D03*
%TO.P,U3,3*%
%TO.N,VREF_DIV*%
X67525000Y-38730000D03*
%TO.P,U3,4*%
%TO.N,V_ANALOG*%
X67525000Y-40000000D03*
%TO.P,U3,5*%
%TO.N,TH_MID*%
X67525000Y-41270000D03*
%TO.P,U3,6*%
%TO.N,N$2*%
X67525000Y-42540000D03*
%TO.P,U3,7*%
X67525000Y-43810000D03*
%TO.P,U3,8*%
%TO.N,N$3*%
X72475000Y-43810000D03*
%TO.P,U3,9*%
X72475000Y-42540000D03*
%TO.P,U3,10*%
%TO.N,AB_MID*%
X72475000Y-41270000D03*
%TO.P,U3,11*%
%TO.N,GNDA*%
X72475000Y-40000000D03*
%TO.P,U3,12*%
X72475000Y-38730000D03*
%TO.P,U3,13*%
%TO.N,N$4*%
X72475000Y-37460000D03*
%TO.P,U3,14*%
X72475000Y-36190000D03*
%TD*%
D27*
%TO.P,FB1,1*%
%TO.N,LDO_OUT*%
X70000000Y-23062500D03*
%TO.P,FB1,2*%
%TO.N,V_ANALOG*%
X70000000Y-20937500D03*
%TD*%
D15*
%TO.P,C5,1*%
%TO.N,N/C*%
X92000000Y-41475000D03*
%TO.P,C5,2*%
%TO.N,GNDA*%
X92000000Y-38525000D03*
%TD*%
D11*
%TO.P,R3,1*%
%TO.N,V_ANALOG*%
X82000000Y-33462500D03*
%TO.P,R3,2*%
%TO.N,VREF_DIV*%
X82000000Y-30537500D03*
%TD*%
D16*
%TO.P,J4,1*%
%TO.N,+3V3*%
X18000000Y-58000000D03*
D17*
%TO.P,J4,2*%
%TO.N,GNDD*%
X20540000Y-58000000D03*
%TO.P,J4,3*%
%TO.N,SDA*%
X23080000Y-58000000D03*
%TO.P,J4,4*%
%TO.N,SCL*%
X25620000Y-58000000D03*
%TD*%
D25*
%TO.P,R5,1*%
%TO.N,N$1*%
X80537500Y-40000000D03*
%TO.P,R5,2*%
%TO.N,N/C*%
X83462500Y-40000000D03*
%TD*%
D15*
%TO.P,C4,1*%
%TO.N,V_ANALOG*%
X77000000Y-23475000D03*
%TO.P,C4,2*%
%TO.N,GNDA*%
X77000000Y-20525000D03*
%TD*%
D28*
%TO.P,J10,1*%
%TO.N,V_BATT*%
X10000000Y-63000000D03*
D29*
%TO.P,J10,2*%
%TO.N,GNDD*%
X12000000Y-63000000D03*
%TD*%
D19*
%TO.P,C8,1*%
%TO.N,+3V3*%
X94525000Y-28000000D03*
%TO.P,C8,2*%
%TO.N,GNDA*%
X97475000Y-28000000D03*
%TD*%
D11*
%TO.P,R6,1*%
%TO.N,+3V3*%
X104000000Y-19462500D03*
%TO.P,R6,2*%
%TO.N,ADS_ALERT*%
X104000000Y-16537500D03*
%TD*%
D28*
%TO.P,J9,1*%
%TO.N,LDO_VIN*%
X55000000Y-9000000D03*
D29*
%TO.P,J9,2*%
%TO.N,V_BATT*%
X57000000Y-9000000D03*
%TO.P,J9,3*%
%TO.N,SLEEP_N*%
X59000000Y-9000000D03*
%TO.P,J9,4*%
%TO.N,GNDD*%
X61000000Y-9000000D03*
%TD*%
D11*
%TO.P,R16,1*%
%TO.N,N$3*%
X102000000Y-49462500D03*
%TO.P,R16,2*%
%TO.N,AB_AIN*%
X102000000Y-46537500D03*
%TD*%
D12*
%TO.P,D1,1*%
%TO.N,GSR_ELEC*%
X92000000Y-51050000D03*
%TO.P,D1,2*%
%TO.N,GNDA*%
X92000000Y-48950000D03*
%TD*%
D30*
%TO.P,NT1,1*%
%TO.N,GNDA*%
X50000000Y-31000000D03*
%TO.P,NT1,2*%
%TO.N,GNDD*%
X54000000Y-31000000D03*
%TD*%
D11*
%TO.P,R1,1*%
%TO.N,V_BATT*%
X40000000Y-27462500D03*
%TO.P,R1,2*%
%TO.N,VBAT_DIV*%
X40000000Y-24537500D03*
%TD*%
D15*
%TO.P,C6,1*%
%TO.N,V_ANALOG*%
X58000000Y-41475000D03*
%TO.P,C6,2*%
%TO.N,GNDA*%
X58000000Y-38525000D03*
%TD*%
D19*
%TO.P,C14,1*%
%TO.N,ECG_AIN*%
X100525000Y-14000000D03*
%TO.P,C14,2*%
%TO.N,GNDA*%
X103475000Y-14000000D03*
%TD*%
D12*
%TO.P,D3,1*%
%TO.N,AB_ELEC*%
X107000000Y-56050000D03*
%TO.P,D3,2*%
%TO.N,GNDA*%
X107000000Y-53950000D03*
%TD*%
D25*
%TO.P,R13,1*%
%TO.N,N$2*%
X62537500Y-54000000D03*
%TO.P,R13,2*%
%TO.N,TH_AIN*%
X65462500Y-54000000D03*
%TD*%
D19*
%TO.P,C7,1*%
%TO.N,+3V3*%
X100525000Y-9000000D03*
%TO.P,C7,2*%
%TO.N,GNDA*%
X103475000Y-9000000D03*
%TD*%
D11*
%TO.P,R2,1*%
%TO.N,VBAT_DIV*%
X40000000Y-34462500D03*
%TO.P,R2,2*%
%TO.N,GNDD*%
X40000000Y-31537500D03*
%TD*%
%TO.P,R11,1*%
%TO.N,GSR_MID*%
X80000000Y-51462500D03*
%TO.P,R11,2*%
%TO.N,GSR_ELEC*%
X80000000Y-48537500D03*
%TD*%
%TO.P,R9,1*%
%TO.N,N/C*%
X68000000Y-51462500D03*
%TO.P,R9,2*%
%TO.N,GSR_MID*%
X68000000Y-48537500D03*
%TD*%
D23*
%TO.P,J1,1*%
%TO.N,V_BATT*%
X6000000Y-54000000D03*
D24*
%TO.P,J1,2*%
%TO.N,GNDD*%
X6000000Y-52000000D03*
%TD*%
D15*
%TO.P,C1,1*%
%TO.N,LDO_VIN*%
X47000000Y-23475000D03*
%TO.P,C1,2*%
%TO.N,GNDD*%
X47000000Y-20525000D03*
%TD*%
D11*
%TO.P,R10,1*%
%TO.N,GSR_MID*%
X74000000Y-51462500D03*
%TO.P,R10,2*%
%TO.N,GSR_AIN*%
X74000000Y-48537500D03*
%TD*%
D15*
%TO.P,C2,1*%
%TO.N,LDO_OUT*%
X63000000Y-23475000D03*
%TO.P,C2,2*%
%TO.N,GNDD*%
X63000000Y-20525000D03*
%TD*%
D19*
%TO.P,C10,1*%
%TO.N,+3V3*%
X16525000Y-48000000D03*
%TO.P,C10,2*%
%TO.N,GNDD*%
X19475000Y-48000000D03*
%TD*%
D25*
%TO.P,R18,1*%
%TO.N,ECG_OUT*%
X93537500Y-5000000D03*
%TO.P,R18,2*%
%TO.N,ECG_AIN*%
X96462500Y-5000000D03*
%TD*%
D13*
%TO.P,J7,1*%
%TO.N,AB_ELEC*%
X90000000Y-62000000D03*
D14*
%TO.P,J7,2*%
%TO.N,GNDA*%
X95080000Y-62000000D03*
%TD*%
D31*
%TO.P,U4,1*%
%TO.N,+3V3*%
X95000000Y-20150000D03*
%TO.P,U4,2*%
%TO.N,ADS_ALERT*%
X95500000Y-20150000D03*
%TO.P,U4,3*%
%TO.N,GNDA*%
X96000000Y-20150000D03*
%TO.P,U4,4*%
%TO.N,ECG_AIN*%
X96500000Y-20150000D03*
%TO.P,U4,5*%
%TO.N,GSR_AIN*%
X97000000Y-20150000D03*
%TO.P,U4,6*%
%TO.N,TH_AIN*%
X97000000Y-15850000D03*
%TO.P,U4,7*%
%TO.N,AB_AIN*%
X96500000Y-15850000D03*
%TO.P,U4,8*%
%TO.N,+3V3*%
X96000000Y-15850000D03*
%TO.P,U4,9*%
%TO.N,SDA*%
X95500000Y-15850000D03*
%TO.P,U4,10*%
%TO.N,SCL*%
X95000000Y-15850000D03*
%TD*%
D25*
%TO.P,R14,1*%
%TO.N,TH_MID*%
X56537500Y-54000000D03*
%TO.P,R14,2*%
%TO.N,TH_ELEC*%
X59462500Y-54000000D03*
%TD*%
D11*
%TO.P,R12,1*%
%TO.N,N/C*%
X55000000Y-51462500D03*
%TO.P,R12,2*%
%TO.N,TH_MID*%
X55000000Y-48537500D03*
%TD*%
D15*
%TO.P,C9,1*%
%TO.N,GSR_ELEC*%
X86000000Y-51475000D03*
%TO.P,C9,2*%
%TO.N,GNDA*%
X86000000Y-48525000D03*
%TD*%
D32*
%TO.N,VBAT_DIV*%
X37130000Y-13064100D03*
%TO.N,SDA*%
X92922000Y-25135000D03*
X28223300Y-36462500D03*
X22238000Y-54012500D03*
X24011400Y-37640800D03*
%TO.N,SCL*%
X94825000Y-18242200D03*
X20486900Y-33750000D03*
X43086800Y-24712500D03*
D33*
%TO.N,+3V3*%
X25686300Y-27244300D03*
X93838500Y-22118800D03*
D32*
X95000000Y-28000000D03*
%TO.N,GNDD*%
X33000000Y-28000000D03*
X14000000Y-58000000D03*
X12000000Y-65000000D03*
X22000000Y-38000000D03*
X42000000Y-48000000D03*
%TO.N,GNDA*%
X85000000Y-48000000D03*
X108000000Y-15000000D03*
X53475000Y-58000000D03*
X60000000Y-28000000D03*
X46389900Y-48162500D03*
X102000000Y-55000000D03*
%TO.N,N$1*%
X63935600Y-38850000D03*
X78656200Y-39387500D03*
%TO.N,VREF_DIV*%
X82216000Y-32384000D03*
X65987100Y-38810600D03*
%TO.N,AB_MID*%
X102654800Y-39975500D03*
X73905300Y-41167800D03*
%TO.N,ADS_ALERT*%
X103474600Y-18129600D03*
X97656100Y-20901100D03*
%TO.N,ECG_AIN*%
X95953500Y-21262800D03*
X102421200Y-16257900D03*
%TO.N,TH_AIN*%
X72870800Y-24143700D03*
X97206100Y-16985800D03*
%TD*%
D34*
%TO.N,VBAT_DIV*%
X38826500Y-33289000D02*
X40000000Y-34462500D01*
X40000000Y-15934100D02*
X37130000Y-13064100D01*
X40000000Y-24537500D02*
X40000000Y-15934100D01*
X40000000Y-24537500D02*
X38826500Y-25711000D01*
X38826500Y-25711000D02*
X38826500Y-33289000D01*
%TO.N,SDA*%
X24011400Y-37640800D02*
X23080000Y-38572200D01*
X94714700Y-15023300D02*
X95500000Y-15023300D01*
X23080000Y-54012500D02*
X22238000Y-54012500D01*
X95500000Y-15850000D02*
X95500000Y-15023300D01*
X23080000Y-38572200D02*
X23080000Y-54012500D01*
X29462500Y-37701700D02*
X29462500Y-42000000D01*
X28223300Y-36462500D02*
X29462500Y-37701700D01*
X92922000Y-25135000D02*
X92922000Y-16816000D01*
X23080000Y-54012500D02*
X23080000Y-58000000D01*
X92922000Y-16816000D02*
X94714700Y-15023300D01*
%TO.N,SCL*%
X39620000Y-58000000D02*
X39620000Y-46157500D01*
X25620000Y-38433800D02*
X20936200Y-33750000D01*
X95000000Y-18067200D02*
X94825000Y-18242200D01*
X20936200Y-33750000D02*
X20486900Y-33750000D01*
X43086800Y-38375700D02*
X43086800Y-24712500D01*
X95000000Y-15850000D02*
X95000000Y-18067200D01*
X37462500Y-44000000D02*
X43086800Y-38375700D01*
X25620000Y-58000000D02*
X25620000Y-38433800D01*
X39620000Y-46157500D02*
X37462500Y-44000000D01*
D35*
%TO.N,+3V3*%
X94173400Y-20976600D02*
X95000000Y-20976600D01*
D36*
X101026700Y-15589000D02*
X100732800Y-15295100D01*
X98290500Y-14519500D02*
X96000000Y-14519500D01*
X93838500Y-22118800D02*
X93838500Y-21311500D01*
X104381700Y-19080800D02*
X105321800Y-18140700D01*
D35*
X95000000Y-20150000D02*
X95000000Y-19323400D01*
D36*
X102235500Y-17047600D02*
X101026700Y-15838800D01*
X102276600Y-17047600D02*
X102235500Y-17047600D01*
X100023300Y-16252300D02*
X98290500Y-14519500D01*
D35*
X93838500Y-21311500D02*
X94173400Y-20976600D01*
D36*
X28890000Y-17460000D02*
X26537500Y-19812500D01*
X101026700Y-15838800D02*
X101026700Y-15589000D01*
D35*
X94999800Y-19323200D02*
X95000000Y-19323400D01*
D36*
X102172000Y-18401000D02*
X102276600Y-18401000D01*
X94525000Y-28000000D02*
X93838500Y-27313500D01*
X26537500Y-42000000D02*
X26525000Y-42012500D01*
X100023300Y-15589000D02*
X100023300Y-16252300D01*
X18000000Y-56723300D02*
X16525000Y-55248300D01*
X26537500Y-19812500D02*
X26537500Y-27244300D01*
X31537500Y-47000000D02*
X26537500Y-42000000D01*
X26525000Y-42012500D02*
X26525000Y-48000000D01*
X102276600Y-18401000D02*
X102673000Y-18004600D01*
X93838500Y-27313500D02*
X93838500Y-22118800D01*
X32000000Y-58000000D02*
X32000000Y-47462500D01*
X100732800Y-15295100D02*
X100317200Y-15295100D01*
D35*
X96000000Y-16614900D02*
X96000000Y-15850000D01*
D36*
X34537500Y-44000000D02*
X31537500Y-47000000D01*
X96000000Y-18224600D02*
X96000000Y-16614900D01*
X105321800Y-13796800D02*
X100525000Y-9000000D01*
X104000000Y-19462500D02*
X104381700Y-19080800D01*
X32000000Y-47462500D02*
X31537500Y-47000000D01*
D35*
X94999800Y-19224800D02*
X94999800Y-19323200D01*
D36*
X102673000Y-18004600D02*
X102673000Y-17444000D01*
X100317200Y-15295100D02*
X100023300Y-15589000D01*
X104381700Y-19080800D02*
X102851800Y-19080800D01*
X18000000Y-58000000D02*
X18000000Y-56723300D01*
X26537500Y-27244300D02*
X26537500Y-42000000D01*
D35*
X95000000Y-20150000D02*
X95000000Y-20976600D01*
D36*
X102851800Y-19080800D02*
X102172000Y-18401000D01*
X94999800Y-19224800D02*
X96000000Y-18224600D01*
X105321800Y-18140700D02*
X105321800Y-13796800D01*
D35*
X96000000Y-14519500D02*
X96000000Y-15850000D01*
D36*
X26537500Y-27244300D02*
X25686300Y-27244300D01*
X16525000Y-55248300D02*
X16525000Y-48000000D01*
X102673000Y-17444000D02*
X102276600Y-17047600D01*
D34*
%TO.N,GNDD*%
X63000000Y-15300000D02*
X63000000Y-20525000D01*
D36*
X60000000Y-12300000D02*
X61000000Y-12300000D01*
D34*
X52469800Y-32530200D02*
X54000000Y-31000000D01*
X50682000Y-22000000D02*
X53862500Y-22000000D01*
D36*
X12000000Y-63000000D02*
X12000000Y-65000000D01*
D34*
X60000000Y-12300000D02*
X63000000Y-15300000D01*
D36*
X61000000Y-12300000D02*
X61000000Y-9000000D01*
%TO.N,+5V*%
X9363800Y-36636200D02*
X6000000Y-40000000D01*
X28890000Y-12380000D02*
X9363800Y-31906200D01*
X9363800Y-31906200D02*
X9363800Y-36636200D01*
%TO.N,V_BATT*%
X6000000Y-56000000D02*
X6000000Y-54000000D01*
X28409100Y-16190000D02*
X20000000Y-24599100D01*
X10000000Y-63000000D02*
X10000000Y-56000000D01*
X31967600Y-16190000D02*
X28409100Y-16190000D01*
X19810200Y-31689800D02*
X19810200Y-40189800D01*
X10000000Y-56000000D02*
X6000000Y-56000000D01*
X20000000Y-31500000D02*
X19810200Y-31689800D01*
X37440400Y-12387300D02*
X35770300Y-12387300D01*
X41336100Y-16283000D02*
X37440400Y-12387300D01*
X57000000Y-6400000D02*
X57000000Y-9000000D01*
X40000000Y-27462500D02*
X41336100Y-26126400D01*
X41336100Y-26126400D02*
X41336100Y-16283000D01*
X35770300Y-12387300D02*
X31967600Y-16190000D01*
X49754300Y-7864800D02*
X41336100Y-16283000D01*
X19810200Y-40189800D02*
X6000000Y-54000000D01*
X49754300Y-7864800D02*
X57000000Y-6400000D01*
X20000000Y-24599100D02*
X20000000Y-31500000D01*
%TO.N,LDO_VIN*%
X54913100Y-21623000D02*
X54340100Y-21050000D01*
X53862500Y-22950000D02*
X53337500Y-23475000D01*
X53862500Y-10137500D02*
X53862500Y-21050000D01*
X54340100Y-21050000D02*
X53862500Y-21050000D01*
X53337500Y-23475000D02*
X47000000Y-23475000D01*
X54913100Y-22430900D02*
X54913100Y-21623000D01*
X55000000Y-9000000D02*
X53862500Y-10137500D01*
X53862500Y-22950000D02*
X54394000Y-22950000D01*
X54394000Y-22950000D02*
X54913100Y-22430900D01*
%TO.N,LDO_OUT*%
X58562500Y-23475000D02*
X63000000Y-23475000D01*
X70000000Y-23062500D02*
X63412500Y-23062500D01*
X63412500Y-23062500D02*
X63000000Y-23475000D01*
X56137500Y-21050000D02*
X58562500Y-23475000D01*
%TO.N,V_ANALOG*%
X70985200Y-23467000D02*
X70985200Y-37016800D01*
X68000000Y-7000000D02*
X68000000Y-8276700D01*
X67525000Y-40000000D02*
X59475000Y-40000000D01*
X77000000Y-23475000D02*
X76992000Y-23467000D01*
X82000000Y-33462500D02*
X77000000Y-28462500D01*
X76992000Y-23467000D02*
X70985200Y-23467000D01*
X70985200Y-21922700D02*
X70985200Y-23467000D01*
X68002000Y-40000000D02*
X67525000Y-40000000D01*
X70000000Y-20937500D02*
X70985200Y-21922700D01*
X77000000Y-28462500D02*
X77000000Y-23475000D01*
X70000000Y-20937500D02*
X70000000Y-10276700D01*
X59475000Y-40000000D02*
X58000000Y-41475000D01*
X70985200Y-37016800D02*
X68002000Y-40000000D01*
X70000000Y-10276700D02*
X68000000Y-8276700D01*
D34*
%TO.N,GNDA*%
X45787500Y-48162500D02*
X45000000Y-48950000D01*
X46389900Y-48162500D02*
X45787500Y-48162500D01*
D37*
X53475000Y-56000000D02*
X53475000Y-58000000D01*
D34*
%TO.N,N$1*%
X78656200Y-39387500D02*
X79925000Y-39387500D01*
X67525000Y-37460000D02*
X65325600Y-37460000D01*
X67525000Y-37460000D02*
X67525000Y-36190000D01*
X65325600Y-37460000D02*
X63935600Y-38850000D01*
X79925000Y-39387500D02*
X80537500Y-40000000D01*
%TO.N,VREF_DIV*%
X82216000Y-32384000D02*
X82216000Y-30753500D01*
X82216000Y-30753500D02*
X82000000Y-30537500D01*
X66067700Y-38730000D02*
X65987100Y-38810600D01*
X87000000Y-33462500D02*
X84075000Y-30537500D01*
X67525000Y-38730000D02*
X66067700Y-38730000D01*
X84075000Y-30537500D02*
X82000000Y-30537500D01*
%TO.N,TH_MID*%
X55000000Y-48537500D02*
X56537500Y-50075000D01*
X65342500Y-41270000D02*
X56537500Y-50075000D01*
X56537500Y-50075000D02*
X56537500Y-54000000D01*
X67525000Y-41270000D02*
X65342500Y-41270000D01*
%TO.N,N$2*%
X67525000Y-43810000D02*
X62537500Y-48797500D01*
X67525000Y-43810000D02*
X67525000Y-42540000D01*
X62537500Y-48797500D02*
X62537500Y-54000000D01*
%TO.N,N$3*%
X72475000Y-42540000D02*
X72475000Y-43810000D01*
X96347500Y-43810000D02*
X72475000Y-43810000D01*
X102000000Y-49462500D02*
X96347500Y-43810000D01*
%TO.N,AB_MID*%
X103185800Y-39723300D02*
X102000000Y-38537500D01*
X102000000Y-56462500D02*
X103185800Y-55276700D01*
X102654800Y-39975500D02*
X102000000Y-39320700D01*
X102000000Y-39320700D02*
X102000000Y-38537500D01*
X73803100Y-41270000D02*
X73905300Y-41167800D01*
X103185800Y-55276700D02*
X103185800Y-39723300D01*
X72475000Y-41270000D02*
X73803100Y-41270000D01*
%TO.N,N$4*%
X72475000Y-36190000D02*
X72475000Y-37460000D01*
%TO.N,ADS_ALERT*%
X95500000Y-19583700D02*
X95798400Y-19285300D01*
X97201600Y-19285300D02*
X97656100Y-19739800D01*
X97656100Y-19739800D02*
X97656100Y-20901100D01*
X103474600Y-18129600D02*
X104000000Y-17604200D01*
X95798400Y-19285300D02*
X97201600Y-19285300D01*
X95500000Y-20150000D02*
X95500000Y-19583700D01*
X104000000Y-17604200D02*
X104000000Y-16537500D01*
%TO.N,ECG_AIN*%
X99407300Y-12882300D02*
X99414100Y-12882300D01*
X99488900Y-12963900D02*
X99495700Y-12963900D01*
X99278100Y-12746300D02*
X99278100Y-12753100D01*
X99237300Y-12712300D02*
X99244100Y-12712300D01*
X96500000Y-20716300D02*
X95953500Y-21262800D01*
X99604500Y-13079500D02*
X100525000Y-14000000D01*
X99271300Y-12746300D02*
X99278100Y-12746300D01*
X99216900Y-12691900D02*
X99223700Y-12691900D01*
X99522900Y-12991100D02*
X99522900Y-12997900D01*
X99339300Y-12807500D02*
X99339300Y-12814300D01*
X99550100Y-13025100D02*
X99556900Y-13025100D01*
X99536500Y-13011500D02*
X99543300Y-13011500D01*
X99414100Y-12882300D02*
X99414100Y-12889100D01*
X99250900Y-12719100D02*
X99250900Y-12725900D01*
X99223700Y-12691900D02*
X99223700Y-12698700D01*
X99448100Y-12916300D02*
X99448100Y-12923100D01*
X99556900Y-13025100D02*
X99556900Y-13031900D01*
X99502500Y-12977500D02*
X99509300Y-12977500D01*
X99346100Y-12814300D02*
X99346100Y-12821100D01*
X96462500Y-5000000D02*
X96462500Y-9937500D01*
X99597700Y-13072700D02*
X99604500Y-13072700D01*
X96500000Y-20150000D02*
X96500000Y-20716300D01*
X99563700Y-13038700D02*
X99570500Y-13038700D01*
X99366500Y-12841500D02*
X99373300Y-12841500D01*
X99291700Y-12759900D02*
X99291700Y-12766700D01*
X99257700Y-12732700D02*
X99264500Y-12732700D01*
X99461700Y-12929900D02*
X99461700Y-12936700D01*
X99577300Y-13045500D02*
X99577300Y-13052300D01*
X99257700Y-12725900D02*
X99257700Y-12732700D01*
X99359700Y-12834700D02*
X99366500Y-12834700D01*
X99441300Y-12916300D02*
X99448100Y-12916300D01*
X99563700Y-13031900D02*
X99563700Y-13038700D01*
X99393700Y-12861900D02*
X99393700Y-12868700D01*
X99386900Y-12861900D02*
X99393700Y-12861900D01*
X99495700Y-12963900D02*
X99495700Y-12970700D01*
X99325700Y-12800700D02*
X99332500Y-12800700D01*
X99210100Y-12678300D02*
X99210100Y-12685100D01*
X99611300Y-13079500D02*
X102421200Y-15889400D01*
X99250900Y-12725900D02*
X99257700Y-12725900D01*
X99529700Y-13004700D02*
X99536500Y-13004700D01*
X99298500Y-12766700D02*
X99298500Y-12773500D01*
X99216900Y-12685100D02*
X99216900Y-12691900D01*
X99359700Y-12827900D02*
X99359700Y-12834700D01*
X99298500Y-12773500D02*
X99305300Y-12773500D01*
X99223700Y-12698700D02*
X99230500Y-12698700D01*
X99291700Y-12766700D02*
X99298500Y-12766700D01*
X99325700Y-12793900D02*
X99325700Y-12800700D01*
X99414100Y-12889100D02*
X99420900Y-12889100D01*
X99570500Y-13045500D02*
X99577300Y-13045500D01*
X99604500Y-13079500D02*
X99611300Y-13079500D01*
X99203300Y-12678300D02*
X99210100Y-12678300D01*
X99230500Y-12705500D02*
X99237300Y-12705500D01*
X99590900Y-13065900D02*
X99597700Y-13065900D01*
X99373300Y-12848300D02*
X99380100Y-12848300D01*
X99543300Y-13011500D02*
X99543300Y-13018300D01*
X99400500Y-12875500D02*
X99407300Y-12875500D01*
X99271300Y-12739500D02*
X99271300Y-12746300D01*
X99427700Y-12902700D02*
X99434500Y-12902700D01*
X99420900Y-12889100D02*
X99420900Y-12895900D01*
X99203300Y-12671500D02*
X99203300Y-12678300D01*
X99516100Y-12984300D02*
X99516100Y-12991100D01*
X99400500Y-12868700D02*
X99400500Y-12875500D01*
X99346100Y-12821100D02*
X99352900Y-12821100D01*
X102421200Y-15889400D02*
X102421200Y-16257900D01*
X99536500Y-13004700D02*
X99536500Y-13011500D01*
X99543300Y-13018300D02*
X99550100Y-13018300D01*
X99244100Y-12712300D02*
X99244100Y-12719100D01*
X99495700Y-12970700D02*
X99502500Y-12970700D01*
X99509300Y-12977500D02*
X99509300Y-12984300D01*
X99427700Y-12895900D02*
X99427700Y-12902700D01*
X99230500Y-12698700D02*
X99230500Y-12705500D01*
X99420900Y-12895900D02*
X99427700Y-12895900D01*
X99278100Y-12753100D02*
X99284900Y-12753100D01*
X99482100Y-12957100D02*
X99488900Y-12957100D01*
X99461700Y-12936700D02*
X99468500Y-12936700D01*
X99475300Y-12943500D02*
X99475300Y-12950300D01*
X99441300Y-12909500D02*
X99441300Y-12916300D01*
X99196500Y-12671500D02*
X99203300Y-12671500D01*
X99584100Y-13052300D02*
X99584100Y-13059100D01*
X99318900Y-12793900D02*
X99325700Y-12793900D01*
X99468500Y-12936700D02*
X99468500Y-12943500D01*
X99529700Y-12997900D02*
X99529700Y-13004700D01*
X99312100Y-12780300D02*
X99312100Y-12787100D01*
X99366500Y-12834700D02*
X99366500Y-12841500D01*
X99244100Y-12719100D02*
X99250900Y-12719100D01*
X99434500Y-12902700D02*
X99434500Y-12909500D01*
X99556900Y-13031900D02*
X99563700Y-13031900D01*
X99434500Y-12909500D02*
X99441300Y-12909500D01*
X99488900Y-12957100D02*
X99488900Y-12963900D01*
X99454900Y-12923100D02*
X99454900Y-12929900D01*
X99332500Y-12807500D02*
X99339300Y-12807500D01*
X99339300Y-12814300D02*
X99346100Y-12814300D01*
X99584100Y-13059100D02*
X99590900Y-13059100D01*
X99509300Y-12984300D02*
X99516100Y-12984300D01*
X99570500Y-13038700D02*
X99570500Y-13045500D01*
X99380100Y-12855100D02*
X99386900Y-12855100D01*
X99516100Y-12991100D02*
X99522900Y-12991100D01*
X99305300Y-12773500D02*
X99305300Y-12780300D01*
X99264500Y-12739500D02*
X99271300Y-12739500D01*
X99210100Y-12685100D02*
X99216900Y-12685100D01*
X99352900Y-12827900D02*
X99359700Y-12827900D01*
X99577300Y-13052300D02*
X99584100Y-13052300D01*
X99448100Y-12923100D02*
X99454900Y-12923100D01*
X99590900Y-13059100D02*
X99590900Y-13065900D01*
X99284900Y-12759900D02*
X99291700Y-12759900D01*
X99284900Y-12753100D02*
X99284900Y-12759900D01*
X99318900Y-12787100D02*
X99318900Y-12793900D01*
X99312100Y-12787100D02*
X99318900Y-12787100D01*
X99522900Y-12997900D02*
X99529700Y-12997900D01*
X99597700Y-13065900D02*
X99597700Y-13072700D01*
X99454900Y-12929900D02*
X99461700Y-12929900D01*
X99386900Y-12855100D02*
X99386900Y-12861900D01*
X99264500Y-12732700D02*
X99264500Y-12739500D01*
X99380100Y-12848300D02*
X99380100Y-12855100D01*
X99305300Y-12780300D02*
X99312100Y-12780300D01*
X99475300Y-12950300D02*
X99482100Y-12950300D01*
X99502500Y-12970700D02*
X99502500Y-12977500D01*
X99407300Y-12875500D02*
X99407300Y-12882300D01*
X96462500Y-9937500D02*
X99196500Y-12671500D01*
X99393700Y-12868700D02*
X99400500Y-12868700D01*
X99373300Y-12841500D02*
X99373300Y-12848300D01*
X99468500Y-12943500D02*
X99475300Y-12943500D01*
X99332500Y-12800700D02*
X99332500Y-12807500D01*
X99550100Y-13018300D02*
X99550100Y-13025100D01*
X99604500Y-13072700D02*
X99604500Y-13079500D01*
X99352900Y-12821100D02*
X99352900Y-12827900D01*
X99237300Y-12705500D02*
X99237300Y-12712300D01*
X99482100Y-12950300D02*
X99482100Y-12957100D01*
%TO.N,GSR_AIN*%
X96000000Y-28281300D02*
X86144400Y-38136900D01*
X96000000Y-22375400D02*
X96000000Y-28281300D01*
X71152300Y-42228200D02*
X71152300Y-45689800D01*
X71475500Y-41905000D02*
X71152300Y-42228200D01*
X71152300Y-45689800D02*
X74000000Y-48537500D01*
X97000000Y-20150000D02*
X97000000Y-21375400D01*
X86144400Y-38136900D02*
X79017000Y-38136900D01*
X97000000Y-21375400D02*
X96000000Y-22375400D01*
X79017000Y-38136900D02*
X75248900Y-41905000D01*
X75248900Y-41905000D02*
X71475500Y-41905000D01*
%TO.N,TH_AIN*%
X73814000Y-38997500D02*
X73814000Y-25086900D01*
X71483600Y-39365000D02*
X73446500Y-39365000D01*
X73814000Y-25086900D02*
X72870800Y-24143700D01*
X69960200Y-40888400D02*
X71483600Y-39365000D01*
X97206100Y-16985800D02*
X97000000Y-16779700D01*
X97000000Y-16779700D02*
X97000000Y-15850000D01*
X65462500Y-47786300D02*
X69960200Y-43288600D01*
X65462500Y-54000000D02*
X65462500Y-47786300D01*
X69960200Y-43288600D02*
X69960200Y-40888400D01*
X73446500Y-39365000D02*
X73814000Y-38997500D01*
%TO.N,AB_AIN*%
X97273100Y-15023300D02*
X98394300Y-16144500D01*
X96500000Y-15850000D02*
X96500000Y-15023300D01*
X98394300Y-42931800D02*
X102000000Y-46537500D01*
X98394300Y-16144500D02*
X98394300Y-42931800D01*
X96500000Y-15023300D02*
X97273100Y-15023300D01*
%TO.N,GSR_MID*%
X74000000Y-51462500D02*
X77804100Y-47658400D01*
X81183500Y-48017500D02*
X81183500Y-50279000D01*
X81183500Y-50279000D02*
X80000000Y-51462500D01*
X80824400Y-47658400D02*
X81183500Y-48017500D01*
X71075000Y-48537500D02*
X74000000Y-51462500D01*
X77804100Y-47658400D02*
X80824400Y-47658400D01*
X68000000Y-48537500D02*
X71075000Y-48537500D01*
%TO.N,GSR_ELEC*%
X78000000Y-62000000D02*
X78000000Y-53156900D01*
X78812500Y-52344400D02*
X85130600Y-52344400D01*
X92000000Y-51050000D02*
X86425000Y-51050000D01*
X78812500Y-52344400D02*
X78812500Y-49725000D01*
X86425000Y-51050000D02*
X86000000Y-51475000D01*
X85130600Y-52344400D02*
X86000000Y-51475000D01*
X78000000Y-53156900D02*
X78812500Y-52344400D01*
X78812500Y-49725000D02*
X80000000Y-48537500D01*
%TO.N,TH_ELEC*%
X45000000Y-51050000D02*
X45575000Y-51050000D01*
X59462500Y-54000000D02*
X59462500Y-60537500D01*
X56525000Y-62000000D02*
X50525000Y-56000000D01*
X45575000Y-51050000D02*
X50525000Y-56000000D01*
X58000000Y-62000000D02*
X56525000Y-62000000D01*
X59462500Y-60537500D02*
X58000000Y-62000000D01*
%TO.N,AB_ELEC*%
X105696500Y-57353500D02*
X101146500Y-57353500D01*
X95031900Y-56968100D02*
X100761100Y-56968100D01*
X107536100Y-50011100D02*
X107536100Y-55513900D01*
X101146500Y-57353500D02*
X100761100Y-56968100D01*
X107536100Y-55513900D02*
X107000000Y-56050000D01*
X100761100Y-54776400D02*
X102000000Y-53537500D01*
X100761100Y-56968100D02*
X100761100Y-54776400D01*
X107000000Y-56050000D02*
X105696500Y-57353500D01*
X107000000Y-49475000D02*
X107536100Y-50011100D01*
X90000000Y-62000000D02*
X95031900Y-56968100D01*
%TO.N,ECG_OUT*%
X75080000Y-5000000D02*
X93537500Y-5000000D01*
X73080000Y-7000000D02*
X75080000Y-5000000D01*
%TD*%
%TA.AperFunction,Conductor*%
%TO.N,GNDD*%
G36*
X48772826Y-521674D02*
G01*
X48794500Y-574000D01*
X48794500Y-7838697D01*
X48810141Y-7917334D01*
X48810144Y-7917344D01*
X48831814Y-7969661D01*
X48831816Y-7969665D01*
X48831817Y-7969666D01*
X48868445Y-8027960D01*
X48868447Y-8027962D01*
X48873454Y-8033258D01*
X48872147Y-8034492D01*
X48897854Y-8075398D01*
X48885254Y-8130616D01*
X48877226Y-8140124D01*
X41388425Y-15628925D01*
X41336099Y-15650599D01*
X41283773Y-15628925D01*
X37701663Y-12046815D01*
X37604641Y-11990799D01*
X37604632Y-11990795D01*
X37496420Y-11961800D01*
X37496418Y-11961800D01*
X35826318Y-11961800D01*
X35714282Y-11961800D01*
X35714280Y-11961800D01*
X35606067Y-11990795D01*
X35606058Y-11990799D01*
X35509036Y-12046815D01*
X31813026Y-15742826D01*
X31760700Y-15764500D01*
X28353079Y-15764500D01*
X28244866Y-15793495D01*
X28244861Y-15793497D01*
X28147836Y-15849515D01*
X28068613Y-15928739D01*
X19728329Y-24269022D01*
X19659515Y-24337836D01*
X19603499Y-24434858D01*
X19603495Y-24434867D01*
X19574500Y-24543079D01*
X19574500Y-30324103D01*
X19552826Y-30376429D01*
X19534095Y-30390037D01*
X19508535Y-30403060D01*
X19370801Y-30473239D01*
X19217931Y-30584306D01*
X19084306Y-30717931D01*
X18973239Y-30870801D01*
X18887449Y-31039175D01*
X18829062Y-31218871D01*
X18829059Y-31218884D01*
X18799500Y-31405518D01*
X18799500Y-31594481D01*
X18829059Y-31781115D01*
X18829062Y-31781128D01*
X18887449Y-31960824D01*
X18973239Y-32129198D01*
X19075635Y-32270134D01*
X19084310Y-32282073D01*
X19217927Y-32415690D01*
X19217930Y-32415692D01*
X19217931Y-32415693D01*
X19354196Y-32514696D01*
X19383789Y-32562987D01*
X19384700Y-32574563D01*
X19384700Y-39982900D01*
X19363026Y-40035226D01*
X6220426Y-53177826D01*
X6168100Y-53199500D01*
X5320734Y-53199500D01*
X5290301Y-53202354D01*
X5290299Y-53202354D01*
X5290295Y-53202355D01*
X5162118Y-53247206D01*
X5162116Y-53247207D01*
X5052853Y-53327846D01*
X5052846Y-53327853D01*
X4972207Y-53437116D01*
X4972206Y-53437118D01*
X4927355Y-53565295D01*
X4927354Y-53565299D01*
X4927354Y-53565301D01*
X4924500Y-53595734D01*
X4924500Y-54404266D01*
X4927354Y-54434699D01*
X4927354Y-54434701D01*
X4927355Y-54434704D01*
X4972206Y-54562881D01*
X4972207Y-54562883D01*
X5052846Y-54672146D01*
X5052853Y-54672153D01*
X5162116Y-54752792D01*
X5162118Y-54752793D01*
X5290295Y-54797644D01*
X5290301Y-54797646D01*
X5320734Y-54800500D01*
X5500500Y-54800500D01*
X5552826Y-54822174D01*
X5574500Y-54874500D01*
X5574500Y-56056020D01*
X5603495Y-56164232D01*
X5603499Y-56164241D01*
X5659195Y-56260708D01*
X5659515Y-56261263D01*
X5738737Y-56340485D01*
X5835763Y-56396503D01*
X5943979Y-56425499D01*
X5943980Y-56425500D01*
X5943982Y-56425500D01*
X9500500Y-56425500D01*
X9552826Y-56447174D01*
X9574500Y-56499500D01*
X9574500Y-61871629D01*
X9552826Y-61923955D01*
X9524941Y-61941476D01*
X9437118Y-61972206D01*
X9437116Y-61972207D01*
X9327853Y-62052846D01*
X9327846Y-62052853D01*
X9247207Y-62162116D01*
X9247206Y-62162118D01*
X9202355Y-62290295D01*
X9202354Y-62290299D01*
X9202354Y-62290301D01*
X9199500Y-62320734D01*
X9199500Y-63679266D01*
X9202354Y-63709699D01*
X9202354Y-63709701D01*
X9202355Y-63709704D01*
X9247206Y-63837881D01*
X9247207Y-63837883D01*
X9327846Y-63947146D01*
X9327853Y-63947153D01*
X9437116Y-64027792D01*
X9437118Y-64027793D01*
X9565295Y-64072644D01*
X9565301Y-64072646D01*
X9595734Y-64075500D01*
X9595741Y-64075500D01*
X10404258Y-64075500D01*
X10404266Y-64075500D01*
X10434699Y-64072646D01*
X10562882Y-64027793D01*
X10672150Y-63947150D01*
X10752793Y-63837882D01*
X10797646Y-63709699D01*
X10800500Y-63679266D01*
X10800500Y-62874036D01*
X20209500Y-62874036D01*
X20209500Y-63125963D01*
X20248909Y-63374782D01*
X20248912Y-63374795D01*
X20326756Y-63614373D01*
X20441129Y-63838845D01*
X20578408Y-64027793D01*
X20589207Y-64042656D01*
X20767344Y-64220793D01*
X20767347Y-64220795D01*
X20767348Y-64220796D01*
X20971154Y-64368870D01*
X21079345Y-64423995D01*
X21195621Y-64483241D01*
X21195623Y-64483241D01*
X21195626Y-64483243D01*
X21435204Y-64561087D01*
X21435210Y-64561088D01*
X21435215Y-64561090D01*
X21559626Y-64580795D01*
X21684036Y-64600500D01*
X21684038Y-64600500D01*
X21935964Y-64600500D01*
X22035491Y-64584736D01*
X22184785Y-64561090D01*
X22184792Y-64561087D01*
X22184795Y-64561087D01*
X22424373Y-64483243D01*
X22424373Y-64483242D01*
X22424379Y-64483241D01*
X22648845Y-64368870D01*
X22852656Y-64220793D01*
X23030793Y-64042656D01*
X23178870Y-63838845D01*
X23293241Y-63614379D01*
X23371090Y-63374785D01*
X23410500Y-63125962D01*
X23410500Y-62874038D01*
X23410500Y-62874036D01*
X34209500Y-62874036D01*
X34209500Y-63125963D01*
X34248909Y-63374782D01*
X34248912Y-63374795D01*
X34326756Y-63614373D01*
X34441129Y-63838845D01*
X34578408Y-64027793D01*
X34589207Y-64042656D01*
X34767344Y-64220793D01*
X34767347Y-64220795D01*
X34767348Y-64220796D01*
X34971154Y-64368870D01*
X35079345Y-64423995D01*
X35195621Y-64483241D01*
X35195623Y-64483241D01*
X35195626Y-64483243D01*
X35435204Y-64561087D01*
X35435210Y-64561088D01*
X35435215Y-64561090D01*
X35559626Y-64580795D01*
X35684036Y-64600500D01*
X35684038Y-64600500D01*
X35935964Y-64600500D01*
X36035491Y-64584736D01*
X36184785Y-64561090D01*
X36184792Y-64561087D01*
X36184795Y-64561087D01*
X36424373Y-64483243D01*
X36424373Y-64483242D01*
X36424379Y-64483241D01*
X36648845Y-64368870D01*
X36852656Y-64220793D01*
X37030793Y-64042656D01*
X37178870Y-63838845D01*
X37293241Y-63614379D01*
X37371090Y-63374785D01*
X37410500Y-63125962D01*
X37410500Y-62874038D01*
X37371090Y-62625215D01*
X37371088Y-62625210D01*
X37371087Y-62625204D01*
X37293243Y-62385626D01*
X37293241Y-62385623D01*
X37293241Y-62385621D01*
X37179360Y-62162116D01*
X37178870Y-62161154D01*
X37030796Y-61957348D01*
X37030795Y-61957347D01*
X37030793Y-61957344D01*
X36852656Y-61779207D01*
X36852653Y-61779204D01*
X36852651Y-61779203D01*
X36648845Y-61631129D01*
X36424373Y-61516756D01*
X36184795Y-61438912D01*
X36184782Y-61438909D01*
X35935964Y-61399500D01*
X35935962Y-61399500D01*
X35684038Y-61399500D01*
X35684036Y-61399500D01*
X35435217Y-61438909D01*
X35435204Y-61438912D01*
X35195626Y-61516756D01*
X34971154Y-61631129D01*
X34767348Y-61779203D01*
X34589203Y-61957348D01*
X34441129Y-62161154D01*
X34326756Y-62385626D01*
X34248912Y-62625204D01*
X34248909Y-62625217D01*
X34209500Y-62874036D01*
X23410500Y-62874036D01*
X23371090Y-62625215D01*
X23371088Y-62625210D01*
X23371087Y-62625204D01*
X23293243Y-62385626D01*
X23293241Y-62385623D01*
X23293241Y-62385621D01*
X23179360Y-62162116D01*
X23178870Y-62161154D01*
X23030796Y-61957348D01*
X23030795Y-61957347D01*
X23030793Y-61957344D01*
X22852656Y-61779207D01*
X22852653Y-61779204D01*
X22852651Y-61779203D01*
X22648845Y-61631129D01*
X22424373Y-61516756D01*
X22184795Y-61438912D01*
X22184782Y-61438909D01*
X21935964Y-61399500D01*
X21935962Y-61399500D01*
X21684038Y-61399500D01*
X21684036Y-61399500D01*
X21435217Y-61438909D01*
X21435204Y-61438912D01*
X21195626Y-61516756D01*
X20971154Y-61631129D01*
X20767348Y-61779203D01*
X20589203Y-61957348D01*
X20441129Y-62161154D01*
X20326756Y-62385626D01*
X20248912Y-62625204D01*
X20248909Y-62625217D01*
X20209500Y-62874036D01*
X10800500Y-62874036D01*
X10800500Y-62320734D01*
X10797646Y-62290301D01*
X10752793Y-62162118D01*
X10752792Y-62162116D01*
X10672153Y-62052853D01*
X10672146Y-62052846D01*
X10562883Y-61972207D01*
X10562881Y-61972206D01*
X10475059Y-61941476D01*
X10432828Y-61903736D01*
X10425500Y-61871629D01*
X10425500Y-55943980D01*
X10425499Y-55943979D01*
X10396504Y-55835767D01*
X10396503Y-55835763D01*
X10340485Y-55738737D01*
X10261263Y-55659515D01*
X10164241Y-55603499D01*
X10164232Y-55603495D01*
X10056020Y-55574500D01*
X10056018Y-55574500D01*
X6499500Y-55574500D01*
X6447174Y-55552826D01*
X6425500Y-55500500D01*
X6425500Y-54874500D01*
X6447174Y-54822174D01*
X6499500Y-54800500D01*
X6679258Y-54800500D01*
X6679266Y-54800500D01*
X6709699Y-54797646D01*
X6837882Y-54752793D01*
X6947150Y-54672150D01*
X7027793Y-54562882D01*
X7072646Y-54434699D01*
X7075500Y-54404266D01*
X7075500Y-53595734D01*
X7072790Y-53566839D01*
X7089482Y-53512722D01*
X7094129Y-53507617D01*
X13306013Y-47295734D01*
X15749500Y-47295734D01*
X15749500Y-48704266D01*
X15752354Y-48734699D01*
X15752354Y-48734701D01*
X15752355Y-48734704D01*
X15797206Y-48862881D01*
X15797207Y-48862883D01*
X15877846Y-48972146D01*
X15877853Y-48972153D01*
X15961960Y-49034226D01*
X15987118Y-49052793D01*
X16049942Y-49074776D01*
X16092171Y-49112514D01*
X16099500Y-49144622D01*
X16099500Y-55304320D01*
X16128495Y-55412532D01*
X16128499Y-55412541D01*
X16184515Y-55509563D01*
X17448126Y-56773174D01*
X17469800Y-56825500D01*
X17448126Y-56877826D01*
X17395800Y-56899500D01*
X17080252Y-56899500D01*
X17051010Y-56905316D01*
X17021767Y-56911133D01*
X16955449Y-56955447D01*
X16955447Y-56955449D01*
X16911133Y-57021767D01*
X16911133Y-57021769D01*
X16899500Y-57080252D01*
X16899500Y-58919748D01*
X16907255Y-58958736D01*
X16911133Y-58978232D01*
X16938957Y-59019872D01*
X16955448Y-59044552D01*
X16998620Y-59073399D01*
X17021767Y-59088866D01*
X17021768Y-59088866D01*
X17021769Y-59088867D01*
X17080252Y-59100500D01*
X17080254Y-59100500D01*
X18919746Y-59100500D01*
X18919748Y-59100500D01*
X18978231Y-59088867D01*
X19044552Y-59044552D01*
X19088867Y-58978231D01*
X19100500Y-58919748D01*
X19100500Y-57080252D01*
X19088867Y-57021769D01*
X19044552Y-56955448D01*
X19022343Y-56940608D01*
X18978232Y-56911133D01*
X18978233Y-56911133D01*
X18948989Y-56905316D01*
X18919748Y-56899500D01*
X18919746Y-56899500D01*
X18499500Y-56899500D01*
X18447174Y-56877826D01*
X18425500Y-56825500D01*
X18425500Y-56667280D01*
X18425499Y-56667279D01*
X18396504Y-56559067D01*
X18396503Y-56559063D01*
X18340485Y-56462037D01*
X18261263Y-56382815D01*
X16972174Y-55093726D01*
X16950500Y-55041400D01*
X16950500Y-49144622D01*
X16972174Y-49092296D01*
X17000055Y-49074776D01*
X17062882Y-49052793D01*
X17172150Y-48972150D01*
X17252793Y-48862882D01*
X17297646Y-48734699D01*
X17300500Y-48704266D01*
X17300500Y-47295734D01*
X17297646Y-47265301D01*
X17252793Y-47137118D01*
X17221709Y-47095000D01*
X17172153Y-47027853D01*
X17172146Y-47027846D01*
X17062883Y-46947207D01*
X17062881Y-46947206D01*
X16934704Y-46902355D01*
X16934705Y-46902355D01*
X16934700Y-46902354D01*
X16934699Y-46902354D01*
X16904266Y-46899500D01*
X16145734Y-46899500D01*
X16115301Y-46902354D01*
X16115299Y-46902354D01*
X16115295Y-46902355D01*
X15987118Y-46947206D01*
X15987116Y-46947207D01*
X15877853Y-47027846D01*
X15877846Y-47027853D01*
X15797207Y-47137116D01*
X15797206Y-47137118D01*
X15752355Y-47265295D01*
X15752354Y-47265299D01*
X15752354Y-47265301D01*
X15749500Y-47295734D01*
X13306013Y-47295734D01*
X20150685Y-40451063D01*
X20206703Y-40354037D01*
X20235699Y-40245821D01*
X20235700Y-40245821D01*
X20235700Y-34297285D01*
X20257374Y-34244959D01*
X20309700Y-34223285D01*
X20328850Y-34225806D01*
X20421005Y-34250499D01*
X20421006Y-34250500D01*
X20421008Y-34250500D01*
X20552794Y-34250500D01*
X20552794Y-34250499D01*
X20680086Y-34216392D01*
X20794214Y-34150500D01*
X20794213Y-34150500D01*
X20797126Y-34148819D01*
X20853279Y-34141426D01*
X20886452Y-34160579D01*
X23802049Y-37076176D01*
X23823723Y-37128502D01*
X23802049Y-37180828D01*
X23786724Y-37192587D01*
X23704086Y-37240299D01*
X23610900Y-37333485D01*
X23545010Y-37447609D01*
X23545006Y-37447618D01*
X23510900Y-37574905D01*
X23510900Y-37650321D01*
X23489226Y-37702647D01*
X22819532Y-38372341D01*
X22776684Y-38446556D01*
X22776680Y-38446565D01*
X22762004Y-38501336D01*
X22762005Y-38501337D01*
X22754500Y-38529347D01*
X22754500Y-53613000D01*
X22732826Y-53665326D01*
X22680500Y-53687000D01*
X22650966Y-53687000D01*
X22598640Y-53665326D01*
X22545314Y-53612000D01*
X22431190Y-53546110D01*
X22431181Y-53546106D01*
X22303894Y-53512000D01*
X22303892Y-53512000D01*
X22172108Y-53512000D01*
X22172106Y-53512000D01*
X22044818Y-53546106D01*
X22044809Y-53546110D01*
X21930685Y-53612000D01*
X21837500Y-53705185D01*
X21771610Y-53819309D01*
X21771606Y-53819318D01*
X21737500Y-53946605D01*
X21737500Y-54078394D01*
X21771606Y-54205681D01*
X21771610Y-54205690D01*
X21807534Y-54267911D01*
X21837500Y-54319814D01*
X21930686Y-54413000D01*
X22044814Y-54478892D01*
X22172105Y-54512999D01*
X22172106Y-54513000D01*
X22172108Y-54513000D01*
X22303894Y-54513000D01*
X22303894Y-54512999D01*
X22431186Y-54478892D01*
X22545314Y-54413000D01*
X22598640Y-54359674D01*
X22650966Y-54338000D01*
X22680500Y-54338000D01*
X22732826Y-54359674D01*
X22754500Y-54412000D01*
X22754500Y-56894862D01*
X22732826Y-56947188D01*
X22703369Y-56965240D01*
X22657559Y-56980125D01*
X22503211Y-57058767D01*
X22363076Y-57160582D01*
X22240582Y-57283076D01*
X22138767Y-57423212D01*
X22060127Y-57577553D01*
X22060125Y-57577557D01*
X22006600Y-57742288D01*
X22006597Y-57742301D01*
X21979500Y-57913388D01*
X21979500Y-58086611D01*
X22006597Y-58257698D01*
X22006600Y-58257711D01*
X22060125Y-58422442D01*
X22060127Y-58422446D01*
X22138767Y-58576787D01*
X22138768Y-58576788D01*
X22240586Y-58716928D01*
X22363072Y-58839414D01*
X22363075Y-58839416D01*
X22363076Y-58839417D01*
X22503212Y-58941232D01*
X22657553Y-59019872D01*
X22657557Y-59019874D01*
X22822288Y-59073399D01*
X22822294Y-59073400D01*
X22822299Y-59073402D01*
X22919935Y-59088866D01*
X22993388Y-59100500D01*
X22993389Y-59100500D01*
X23166612Y-59100500D01*
X23209383Y-59093725D01*
X23337701Y-59073402D01*
X23337708Y-59073399D01*
X23337711Y-59073399D01*
X23502442Y-59019874D01*
X23502442Y-59019873D01*
X23502445Y-59019873D01*
X23656788Y-58941232D01*
X23796928Y-58839414D01*
X23919414Y-58716928D01*
X24021232Y-58576788D01*
X24099873Y-58422445D01*
X24153402Y-58257701D01*
X24180500Y-58086611D01*
X24180500Y-57913389D01*
X24153402Y-57742299D01*
X24153400Y-57742294D01*
X24153399Y-57742288D01*
X24099874Y-57577557D01*
X24099872Y-57577553D01*
X24021232Y-57423212D01*
X23919417Y-57283076D01*
X23919416Y-57283075D01*
X23919414Y-57283072D01*
X23796928Y-57160586D01*
X23796925Y-57160583D01*
X23796923Y-57160582D01*
X23656788Y-57058767D01*
X23557054Y-57007951D01*
X23502445Y-56980127D01*
X23502442Y-56980126D01*
X23502440Y-56980125D01*
X23456631Y-56965240D01*
X23413565Y-56928456D01*
X23405500Y-56894862D01*
X23405500Y-38737678D01*
X23427174Y-38685352D01*
X23949552Y-38162974D01*
X24001878Y-38141300D01*
X24077294Y-38141300D01*
X24077294Y-38141299D01*
X24204586Y-38107192D01*
X24318714Y-38041300D01*
X24411900Y-37948114D01*
X24459612Y-37865474D01*
X24504542Y-37830997D01*
X24560695Y-37838389D01*
X24576022Y-37850149D01*
X25272826Y-38546953D01*
X25294500Y-38599279D01*
X25294500Y-56894862D01*
X25272826Y-56947188D01*
X25243369Y-56965240D01*
X25197559Y-56980125D01*
X25043211Y-57058767D01*
X24903076Y-57160582D01*
X24780582Y-57283076D01*
X24678767Y-57423212D01*
X24600127Y-57577553D01*
X24600125Y-57577557D01*
X24546600Y-57742288D01*
X24546597Y-57742301D01*
X24519500Y-57913388D01*
X24519500Y-58086611D01*
X24546597Y-58257698D01*
X24546600Y-58257711D01*
X24600125Y-58422442D01*
X24600127Y-58422446D01*
X24678767Y-58576787D01*
X24678768Y-58576788D01*
X24780586Y-58716928D01*
X24903072Y-58839414D01*
X24903075Y-58839416D01*
X24903076Y-58839417D01*
X25043212Y-58941232D01*
X25197553Y-59019872D01*
X25197557Y-59019874D01*
X25362288Y-59073399D01*
X25362294Y-59073400D01*
X25362299Y-59073402D01*
X25459935Y-59088866D01*
X25533388Y-59100500D01*
X25533389Y-59100500D01*
X25706612Y-59100500D01*
X25749383Y-59093725D01*
X25877701Y-59073402D01*
X25877708Y-59073399D01*
X25877711Y-59073399D01*
X26042442Y-59019874D01*
X26042442Y-59019873D01*
X26042445Y-59019873D01*
X26196788Y-58941232D01*
X26336928Y-58839414D01*
X26459414Y-58716928D01*
X26561232Y-58576788D01*
X26639873Y-58422445D01*
X26693402Y-58257701D01*
X26720500Y-58086611D01*
X26720500Y-57913389D01*
X26693402Y-57742299D01*
X26693400Y-57742294D01*
X26693399Y-57742288D01*
X26639874Y-57577557D01*
X26639872Y-57577553D01*
X26561232Y-57423212D01*
X26459417Y-57283076D01*
X26459416Y-57283075D01*
X26459414Y-57283072D01*
X26336928Y-57160586D01*
X26336925Y-57160583D01*
X26336923Y-57160582D01*
X26196788Y-57058767D01*
X26097054Y-57007951D01*
X26042445Y-56980127D01*
X26042442Y-56980126D01*
X26042440Y-56980125D01*
X25996631Y-56965240D01*
X25953565Y-56928456D01*
X25945500Y-56894862D01*
X25945500Y-49142523D01*
X25967174Y-49090197D01*
X26019500Y-49068523D01*
X26043940Y-49072675D01*
X26050648Y-49075023D01*
X26100011Y-49092296D01*
X26115301Y-49097646D01*
X26145734Y-49100500D01*
X26145741Y-49100500D01*
X26904258Y-49100500D01*
X26904266Y-49100500D01*
X26934699Y-49097646D01*
X27062882Y-49052793D01*
X27172150Y-48972150D01*
X27252793Y-48862882D01*
X27297646Y-48734699D01*
X27300500Y-48704266D01*
X27300500Y-47295734D01*
X27297646Y-47265301D01*
X27252793Y-47137118D01*
X27221709Y-47095000D01*
X27172153Y-47027853D01*
X27172146Y-47027846D01*
X27062883Y-46947207D01*
X27062881Y-46947206D01*
X27000059Y-46925223D01*
X26957828Y-46887483D01*
X26950500Y-46855376D01*
X26950500Y-43193400D01*
X26972174Y-43141074D01*
X27024500Y-43119400D01*
X27076826Y-43141074D01*
X31552826Y-47617074D01*
X31574500Y-47669400D01*
X31574500Y-56825500D01*
X31552826Y-56877826D01*
X31500500Y-56899500D01*
X31080252Y-56899500D01*
X31051010Y-56905316D01*
X31021767Y-56911133D01*
X30955449Y-56955447D01*
X30955447Y-56955449D01*
X30911133Y-57021767D01*
X30911133Y-57021769D01*
X30899500Y-57080252D01*
X30899500Y-58919748D01*
X30907255Y-58958736D01*
X30911133Y-58978232D01*
X30938957Y-59019872D01*
X30955448Y-59044552D01*
X30998620Y-59073399D01*
X31021767Y-59088866D01*
X31021768Y-59088866D01*
X31021769Y-59088867D01*
X31080252Y-59100500D01*
X31080254Y-59100500D01*
X32919746Y-59100500D01*
X32919748Y-59100500D01*
X32978231Y-59088867D01*
X33044552Y-59044552D01*
X33088867Y-58978231D01*
X33100500Y-58919748D01*
X33100500Y-57913388D01*
X35979500Y-57913388D01*
X35979500Y-58086611D01*
X36006597Y-58257698D01*
X36006600Y-58257711D01*
X36060125Y-58422442D01*
X36060127Y-58422446D01*
X36138767Y-58576787D01*
X36138768Y-58576788D01*
X36240586Y-58716928D01*
X36363072Y-58839414D01*
X36363075Y-58839416D01*
X36363076Y-58839417D01*
X36503212Y-58941232D01*
X36657553Y-59019872D01*
X36657557Y-59019874D01*
X36822288Y-59073399D01*
X36822294Y-59073400D01*
X36822299Y-59073402D01*
X36919935Y-59088866D01*
X36993388Y-59100500D01*
X36993389Y-59100500D01*
X37166612Y-59100500D01*
X37209383Y-59093725D01*
X37337701Y-59073402D01*
X37337708Y-59073399D01*
X37337711Y-59073399D01*
X37502442Y-59019874D01*
X37502442Y-59019873D01*
X37502445Y-59019873D01*
X37656788Y-58941232D01*
X37796928Y-58839414D01*
X37919414Y-58716928D01*
X38021232Y-58576788D01*
X38099873Y-58422445D01*
X38153402Y-58257701D01*
X38180500Y-58086611D01*
X38180500Y-57913389D01*
X38153402Y-57742299D01*
X38153400Y-57742294D01*
X38153399Y-57742288D01*
X38099874Y-57577557D01*
X38099872Y-57577553D01*
X38021232Y-57423212D01*
X37919417Y-57283076D01*
X37919416Y-57283075D01*
X37919414Y-57283072D01*
X37796928Y-57160586D01*
X37796925Y-57160583D01*
X37796923Y-57160582D01*
X37656787Y-57058767D01*
X37502446Y-56980127D01*
X37502442Y-56980125D01*
X37337711Y-56926600D01*
X37337698Y-56926597D01*
X37166612Y-56899500D01*
X37166611Y-56899500D01*
X36993389Y-56899500D01*
X36993388Y-56899500D01*
X36822301Y-56926597D01*
X36822288Y-56926600D01*
X36657557Y-56980125D01*
X36657553Y-56980127D01*
X36503212Y-57058767D01*
X36363076Y-57160582D01*
X36240582Y-57283076D01*
X36138767Y-57423212D01*
X36060127Y-57577553D01*
X36060125Y-57577557D01*
X36006600Y-57742288D01*
X36006597Y-57742301D01*
X35979500Y-57913388D01*
X33100500Y-57913388D01*
X33100500Y-57080252D01*
X33088867Y-57021769D01*
X33044552Y-56955448D01*
X33022343Y-56940608D01*
X32978232Y-56911133D01*
X32978233Y-56911133D01*
X32948989Y-56905316D01*
X32919748Y-56899500D01*
X32919746Y-56899500D01*
X32499500Y-56899500D01*
X32447174Y-56877826D01*
X32425500Y-56825500D01*
X32425500Y-47406480D01*
X32425499Y-47406479D01*
X32396504Y-47298267D01*
X32396503Y-47298263D01*
X32340485Y-47201237D01*
X32261263Y-47122015D01*
X32191573Y-47052325D01*
X32169899Y-46999999D01*
X32191571Y-46947676D01*
X34052827Y-45086419D01*
X34105152Y-45064746D01*
X34129594Y-45068899D01*
X34135553Y-45070984D01*
X34140297Y-45072645D01*
X34140298Y-45072645D01*
X34140301Y-45072646D01*
X34170734Y-45075500D01*
X34170741Y-45075500D01*
X34904258Y-45075500D01*
X34904266Y-45075500D01*
X34934699Y-45072646D01*
X35062882Y-45027793D01*
X35172150Y-44947150D01*
X35252793Y-44837882D01*
X35297646Y-44709699D01*
X35300500Y-44679266D01*
X35300500Y-43320734D01*
X36699500Y-43320734D01*
X36699500Y-44679266D01*
X36702354Y-44709699D01*
X36702354Y-44709701D01*
X36702355Y-44709704D01*
X36747206Y-44837881D01*
X36747207Y-44837883D01*
X36827846Y-44947146D01*
X36827853Y-44947153D01*
X36937116Y-45027792D01*
X36937118Y-45027793D01*
X37065295Y-45072644D01*
X37065301Y-45072646D01*
X37095734Y-45075500D01*
X37095741Y-45075500D01*
X37829258Y-45075500D01*
X37829266Y-45075500D01*
X37859699Y-45072646D01*
X37975169Y-45032241D01*
X38031716Y-45035416D01*
X38051935Y-45049762D01*
X39272826Y-46270652D01*
X39294500Y-46322978D01*
X39294500Y-56894862D01*
X39272826Y-56947188D01*
X39243369Y-56965240D01*
X39197559Y-56980125D01*
X39043211Y-57058767D01*
X38903076Y-57160582D01*
X38780582Y-57283076D01*
X38678767Y-57423212D01*
X38600127Y-57577553D01*
X38600125Y-57577557D01*
X38546600Y-57742288D01*
X38546597Y-57742301D01*
X38519500Y-57913388D01*
X38519500Y-58086611D01*
X38546597Y-58257698D01*
X38546600Y-58257711D01*
X38600125Y-58422442D01*
X38600127Y-58422446D01*
X38678767Y-58576787D01*
X38678768Y-58576788D01*
X38780586Y-58716928D01*
X38903072Y-58839414D01*
X38903075Y-58839416D01*
X38903076Y-58839417D01*
X39043212Y-58941232D01*
X39197553Y-59019872D01*
X39197557Y-59019874D01*
X39362288Y-59073399D01*
X39362294Y-59073400D01*
X39362299Y-59073402D01*
X39459935Y-59088866D01*
X39533388Y-59100500D01*
X39533389Y-59100500D01*
X39706612Y-59100500D01*
X39749383Y-59093725D01*
X39877701Y-59073402D01*
X39877708Y-59073399D01*
X39877711Y-59073399D01*
X40042442Y-59019874D01*
X40042442Y-59019873D01*
X40042445Y-59019873D01*
X40196788Y-58941232D01*
X40336928Y-58839414D01*
X40459414Y-58716928D01*
X40561232Y-58576788D01*
X40639873Y-58422445D01*
X40693402Y-58257701D01*
X40720500Y-58086611D01*
X40720500Y-57913389D01*
X40693402Y-57742299D01*
X40693400Y-57742294D01*
X40693399Y-57742288D01*
X40639874Y-57577557D01*
X40639872Y-57577553D01*
X40561232Y-57423212D01*
X40459417Y-57283076D01*
X40459416Y-57283075D01*
X40459414Y-57283072D01*
X40336928Y-57160586D01*
X40336925Y-57160583D01*
X40336923Y-57160582D01*
X40196788Y-57058767D01*
X40097054Y-57007951D01*
X40042445Y-56980127D01*
X40042442Y-56980126D01*
X40042440Y-56980125D01*
X39996631Y-56965240D01*
X39953565Y-56928456D01*
X39945500Y-56894862D01*
X39945500Y-48725822D01*
X44574500Y-48725822D01*
X44574500Y-49174177D01*
X44580500Y-49219758D01*
X44580501Y-49219760D01*
X44627150Y-49319799D01*
X44705201Y-49397850D01*
X44805240Y-49444499D01*
X44850821Y-49450500D01*
X45149178Y-49450499D01*
X45194760Y-49444499D01*
X45294799Y-49397850D01*
X45372850Y-49319799D01*
X45419499Y-49219760D01*
X45425500Y-49174179D01*
X45425499Y-49015477D01*
X45447172Y-48963153D01*
X45900653Y-48509674D01*
X45952979Y-48488000D01*
X45976934Y-48488000D01*
X46029260Y-48509674D01*
X46082586Y-48563000D01*
X46196714Y-48628892D01*
X46324005Y-48662999D01*
X46324006Y-48663000D01*
X46324008Y-48663000D01*
X46455794Y-48663000D01*
X46455794Y-48662999D01*
X46583086Y-48628892D01*
X46697214Y-48563000D01*
X46790400Y-48469814D01*
X46856292Y-48355686D01*
X46890399Y-48228394D01*
X46890400Y-48228394D01*
X46890400Y-48096606D01*
X46890399Y-48096605D01*
X46889353Y-48092703D01*
X46856292Y-47969314D01*
X46790400Y-47855186D01*
X46697214Y-47762000D01*
X46611684Y-47712619D01*
X46583090Y-47696110D01*
X46583081Y-47696106D01*
X46455794Y-47662000D01*
X46455792Y-47662000D01*
X46324008Y-47662000D01*
X46324006Y-47662000D01*
X46196718Y-47696106D01*
X46196709Y-47696110D01*
X46082585Y-47762000D01*
X46029260Y-47815326D01*
X45976934Y-47837000D01*
X45830353Y-47837000D01*
X45744647Y-47837000D01*
X45661861Y-47859182D01*
X45661860Y-47859182D01*
X45661858Y-47859183D01*
X45661856Y-47859184D01*
X45587639Y-47902033D01*
X45061845Y-48427826D01*
X45009519Y-48449500D01*
X44850822Y-48449500D01*
X44805241Y-48455500D01*
X44805239Y-48455501D01*
X44705200Y-48502150D01*
X44627150Y-48580200D01*
X44580500Y-48680241D01*
X44574500Y-48725822D01*
X39945500Y-48725822D01*
X39945500Y-46206324D01*
X39945501Y-46206311D01*
X39945501Y-46114645D01*
X39945500Y-46114644D01*
X39923319Y-46031864D01*
X39923316Y-46031857D01*
X39902210Y-45995302D01*
X39898903Y-45989574D01*
X39880465Y-45957638D01*
X39819862Y-45897035D01*
X39819859Y-45897033D01*
X38247174Y-44324347D01*
X38225500Y-44272021D01*
X38225500Y-43727979D01*
X38247174Y-43675653D01*
X40793865Y-41128962D01*
X43347265Y-38575562D01*
X43359136Y-38555000D01*
X43390118Y-38501338D01*
X43412299Y-38418555D01*
X43412300Y-38418555D01*
X43412300Y-25125466D01*
X43433974Y-25073140D01*
X43456945Y-25050169D01*
X43487300Y-25019814D01*
X43553192Y-24905686D01*
X43587299Y-24778394D01*
X43587300Y-24778394D01*
X43587300Y-24646606D01*
X43587299Y-24646605D01*
X43559560Y-24543082D01*
X43553192Y-24519314D01*
X43487300Y-24405186D01*
X43394114Y-24312000D01*
X43279990Y-24246110D01*
X43279981Y-24246106D01*
X43152694Y-24212000D01*
X43152692Y-24212000D01*
X43020908Y-24212000D01*
X43020906Y-24212000D01*
X42893618Y-24246106D01*
X42893609Y-24246110D01*
X42779485Y-24312000D01*
X42686300Y-24405185D01*
X42620410Y-24519309D01*
X42620406Y-24519318D01*
X42586300Y-24646605D01*
X42586300Y-24778394D01*
X42620406Y-24905681D01*
X42620410Y-24905690D01*
X42686300Y-25019814D01*
X42739626Y-25073140D01*
X42761300Y-25125466D01*
X42761300Y-38210220D01*
X42739626Y-38262546D01*
X38051935Y-42950236D01*
X37999609Y-42971910D01*
X37975169Y-42967757D01*
X37859706Y-42927355D01*
X37859700Y-42927354D01*
X37859699Y-42927354D01*
X37829266Y-42924500D01*
X37095734Y-42924500D01*
X37065301Y-42927354D01*
X37065299Y-42927354D01*
X37065295Y-42927355D01*
X36937118Y-42972206D01*
X36937116Y-42972207D01*
X36827853Y-43052846D01*
X36827846Y-43052853D01*
X36747207Y-43162116D01*
X36747206Y-43162118D01*
X36702355Y-43290295D01*
X36702354Y-43290299D01*
X36702354Y-43290301D01*
X36699500Y-43320734D01*
X35300500Y-43320734D01*
X35297646Y-43290301D01*
X35252793Y-43162118D01*
X35237262Y-43141074D01*
X35172153Y-43052853D01*
X35172146Y-43052846D01*
X35062883Y-42972207D01*
X35062881Y-42972206D01*
X34934704Y-42927355D01*
X34934705Y-42927355D01*
X34934700Y-42927354D01*
X34934699Y-42927354D01*
X34904266Y-42924500D01*
X34170734Y-42924500D01*
X34140301Y-42927354D01*
X34140299Y-42927354D01*
X34140295Y-42927355D01*
X34012118Y-42972206D01*
X34012116Y-42972207D01*
X33902853Y-43052846D01*
X33902846Y-43052853D01*
X33822207Y-43162116D01*
X33822206Y-43162118D01*
X33777355Y-43290295D01*
X33777354Y-43290299D01*
X33777354Y-43290301D01*
X33774500Y-43320734D01*
X33774500Y-43320740D01*
X33774500Y-44130600D01*
X33752826Y-44182926D01*
X31589826Y-46345926D01*
X31537500Y-46367600D01*
X31485174Y-46345926D01*
X27322174Y-42182926D01*
X27300500Y-42130600D01*
X27300500Y-41320740D01*
X27300500Y-41320734D01*
X27297646Y-41290301D01*
X27252793Y-41162118D01*
X27243850Y-41150000D01*
X27172153Y-41052853D01*
X27172146Y-41052846D01*
X27062883Y-40972207D01*
X27012558Y-40954597D01*
X26970328Y-40916857D01*
X26963000Y-40884750D01*
X26963000Y-36396605D01*
X27722800Y-36396605D01*
X27722800Y-36528394D01*
X27756906Y-36655681D01*
X27756907Y-36655684D01*
X27756908Y-36655686D01*
X27822800Y-36769814D01*
X27915986Y-36863000D01*
X28030114Y-36928892D01*
X28157405Y-36962999D01*
X28157406Y-36963000D01*
X28157408Y-36963000D01*
X28232821Y-36963000D01*
X28285147Y-36984674D01*
X29115326Y-37814853D01*
X29137000Y-37867179D01*
X29137000Y-40853245D01*
X29115326Y-40905571D01*
X29069913Y-40926921D01*
X29065301Y-40927353D01*
X29065295Y-40927355D01*
X28937118Y-40972206D01*
X28937116Y-40972207D01*
X28827853Y-41052846D01*
X28827846Y-41052853D01*
X28747207Y-41162116D01*
X28747206Y-41162118D01*
X28702355Y-41290295D01*
X28702354Y-41290299D01*
X28702354Y-41290301D01*
X28699500Y-41320734D01*
X28699500Y-42679266D01*
X28702354Y-42709699D01*
X28702354Y-42709701D01*
X28702355Y-42709704D01*
X28747206Y-42837881D01*
X28747207Y-42837883D01*
X28827846Y-42947146D01*
X28827853Y-42947153D01*
X28937116Y-43027792D01*
X28937118Y-43027793D01*
X29065295Y-43072644D01*
X29065301Y-43072646D01*
X29095734Y-43075500D01*
X29095741Y-43075500D01*
X29829258Y-43075500D01*
X29829266Y-43075500D01*
X29859699Y-43072646D01*
X29987882Y-43027793D01*
X30097150Y-42947150D01*
X30177793Y-42837882D01*
X30222646Y-42709699D01*
X30225500Y-42679266D01*
X30225500Y-41320734D01*
X30222646Y-41290301D01*
X30177793Y-41162118D01*
X30168850Y-41150000D01*
X30097153Y-41052853D01*
X30097146Y-41052846D01*
X29987883Y-40972207D01*
X29987881Y-40972206D01*
X29859704Y-40927355D01*
X29859698Y-40927353D01*
X29855087Y-40926921D01*
X29805015Y-40900454D01*
X29788000Y-40853245D01*
X29788000Y-37658845D01*
X29787999Y-37658844D01*
X29785626Y-37649989D01*
X29765818Y-37576062D01*
X29722965Y-37501838D01*
X29662362Y-37441235D01*
X28745474Y-36524347D01*
X28723800Y-36472021D01*
X28723800Y-36396606D01*
X28723799Y-36396605D01*
X28689693Y-36269318D01*
X28689692Y-36269314D01*
X28623800Y-36155186D01*
X28530614Y-36062000D01*
X28416490Y-35996110D01*
X28416481Y-35996106D01*
X28289194Y-35962000D01*
X28289192Y-35962000D01*
X28157408Y-35962000D01*
X28157406Y-35962000D01*
X28030118Y-35996106D01*
X28030109Y-35996110D01*
X27915985Y-36062000D01*
X27822800Y-36155185D01*
X27756910Y-36269309D01*
X27756906Y-36269318D01*
X27722800Y-36396605D01*
X26963000Y-36396605D01*
X26963000Y-27516535D01*
X27839500Y-27516535D01*
X27839500Y-27723465D01*
X27839770Y-27724820D01*
X27879868Y-27926413D01*
X27879870Y-27926420D01*
X27959059Y-28117598D01*
X28010417Y-28194462D01*
X28074023Y-28289655D01*
X28220345Y-28435977D01*
X28392402Y-28550941D01*
X28583580Y-28630130D01*
X28786535Y-28670500D01*
X28786536Y-28670500D01*
X28993464Y-28670500D01*
X28993465Y-28670500D01*
X29196420Y-28630130D01*
X29387598Y-28550941D01*
X29559655Y-28435977D01*
X29705977Y-28289655D01*
X29820941Y-28117598D01*
X29900130Y-27926420D01*
X29940500Y-27723465D01*
X29940500Y-27516535D01*
X29900130Y-27313580D01*
X29820941Y-27122402D01*
X29705977Y-26950345D01*
X29559655Y-26804023D01*
X29485798Y-26754674D01*
X29387598Y-26689059D01*
X29196420Y-26609870D01*
X29196413Y-26609868D01*
X29043516Y-26579455D01*
X28993465Y-26569500D01*
X28786535Y-26569500D01*
X28746385Y-26577486D01*
X28583586Y-26609868D01*
X28583579Y-26609870D01*
X28392401Y-26689059D01*
X28220345Y-26804022D01*
X28220344Y-26804024D01*
X28074024Y-26950344D01*
X28074022Y-26950345D01*
X27959059Y-27122401D01*
X27879870Y-27313579D01*
X27879868Y-27313586D01*
X27874124Y-27342465D01*
X27839500Y-27516535D01*
X26963000Y-27516535D01*
X26963000Y-24976535D01*
X27839500Y-24976535D01*
X27839500Y-25183464D01*
X27879868Y-25386413D01*
X27879870Y-25386420D01*
X27959059Y-25577598D01*
X28074023Y-25749655D01*
X28220345Y-25895977D01*
X28392402Y-26010941D01*
X28583580Y-26090130D01*
X28786535Y-26130500D01*
X28786536Y-26130500D01*
X28993464Y-26130500D01*
X28993465Y-26130500D01*
X29196420Y-26090130D01*
X29387598Y-26010941D01*
X29559655Y-25895977D01*
X29705977Y-25749655D01*
X29820941Y-25577598D01*
X29900130Y-25386420D01*
X29940500Y-25183465D01*
X29940500Y-24976535D01*
X29909000Y-24818175D01*
X29900131Y-24773585D01*
X29900130Y-24773584D01*
X29900130Y-24773580D01*
X29820941Y-24582402D01*
X29705977Y-24410345D01*
X29559655Y-24264023D01*
X29551561Y-24258615D01*
X29387598Y-24149059D01*
X29196420Y-24069870D01*
X29196413Y-24069868D01*
X29040411Y-24038838D01*
X28993465Y-24029500D01*
X28786535Y-24029500D01*
X28746385Y-24037486D01*
X28583586Y-24069868D01*
X28583579Y-24069870D01*
X28392401Y-24149059D01*
X28220345Y-24264022D01*
X28220344Y-24264024D01*
X28074024Y-24410344D01*
X28074022Y-24410345D01*
X27959059Y-24582401D01*
X27879870Y-24773579D01*
X27879869Y-24773585D01*
X27839500Y-24976535D01*
X26963000Y-24976535D01*
X26963000Y-22436535D01*
X27839500Y-22436535D01*
X27839500Y-22643465D01*
X27844057Y-22666375D01*
X27879868Y-22846413D01*
X27879870Y-22846420D01*
X27959059Y-23037598D01*
X28048265Y-23171106D01*
X28074023Y-23209655D01*
X28220345Y-23355977D01*
X28392402Y-23470941D01*
X28583580Y-23550130D01*
X28786535Y-23590500D01*
X28786536Y-23590500D01*
X28993464Y-23590500D01*
X28993465Y-23590500D01*
X29196420Y-23550130D01*
X29387598Y-23470941D01*
X29559655Y-23355977D01*
X29705977Y-23209655D01*
X29820941Y-23037598D01*
X29900130Y-22846420D01*
X29940500Y-22643465D01*
X29940500Y-22436535D01*
X29900130Y-22233580D01*
X29820941Y-22042402D01*
X29705977Y-21870345D01*
X29559655Y-21724023D01*
X29555171Y-21721027D01*
X29387598Y-21609059D01*
X29196420Y-21529870D01*
X29196413Y-21529868D01*
X29040511Y-21498858D01*
X28993465Y-21489500D01*
X28786535Y-21489500D01*
X28746385Y-21497486D01*
X28583586Y-21529868D01*
X28583579Y-21529870D01*
X28392401Y-21609059D01*
X28220345Y-21724022D01*
X28220344Y-21724024D01*
X28074024Y-21870344D01*
X28074022Y-21870345D01*
X27959059Y-22042401D01*
X27879870Y-22233579D01*
X27879868Y-22233586D01*
X27845278Y-22407486D01*
X27839500Y-22436535D01*
X26963000Y-22436535D01*
X26963000Y-20019399D01*
X26984673Y-19967074D01*
X27055212Y-19896535D01*
X27839500Y-19896535D01*
X27839500Y-20103464D01*
X27879868Y-20306413D01*
X27879870Y-20306420D01*
X27959059Y-20497598D01*
X28021830Y-20591543D01*
X28074023Y-20669655D01*
X28220345Y-20815977D01*
X28392402Y-20930941D01*
X28583580Y-21010130D01*
X28786535Y-21050500D01*
X28786536Y-21050500D01*
X28993464Y-21050500D01*
X28993465Y-21050500D01*
X29196420Y-21010130D01*
X29387598Y-20930941D01*
X29559655Y-20815977D01*
X29705977Y-20669655D01*
X29820941Y-20497598D01*
X29900130Y-20306420D01*
X29940500Y-20103465D01*
X29940500Y-19896535D01*
X29900130Y-19693580D01*
X29820941Y-19502402D01*
X29705977Y-19330345D01*
X29559655Y-19184023D01*
X29543870Y-19173476D01*
X29387598Y-19069059D01*
X29196420Y-18989870D01*
X29196413Y-18989868D01*
X29043516Y-18959455D01*
X28993465Y-18949500D01*
X28786535Y-18949500D01*
X28746385Y-18957486D01*
X28583586Y-18989868D01*
X28583579Y-18989870D01*
X28392401Y-19069059D01*
X28220345Y-19184022D01*
X28220344Y-19184024D01*
X28074024Y-19330344D01*
X28074022Y-19330345D01*
X27959059Y-19502401D01*
X27879870Y-19693579D01*
X27879868Y-19693586D01*
X27839500Y-19896535D01*
X27055212Y-19896535D01*
X28476519Y-18475227D01*
X28528844Y-18453554D01*
X28557164Y-18459188D01*
X28583571Y-18470127D01*
X28583575Y-18470128D01*
X28583580Y-18470130D01*
X28786535Y-18510500D01*
X28786536Y-18510500D01*
X28993464Y-18510500D01*
X28993465Y-18510500D01*
X29196420Y-18470130D01*
X29387598Y-18390941D01*
X29559655Y-18275977D01*
X29705977Y-18129655D01*
X29820941Y-17957598D01*
X29900130Y-17766420D01*
X29940500Y-17563465D01*
X29940500Y-17356535D01*
X29900130Y-17153580D01*
X29820941Y-16962402D01*
X29705977Y-16790345D01*
X29657458Y-16741826D01*
X29635784Y-16689500D01*
X29657458Y-16637174D01*
X29709784Y-16615500D01*
X32023620Y-16615500D01*
X32023620Y-16615499D01*
X32131837Y-16586503D01*
X32228863Y-16530485D01*
X35924874Y-12834474D01*
X35977200Y-12812800D01*
X36582741Y-12812800D01*
X36635067Y-12834474D01*
X36656741Y-12886800D01*
X36654220Y-12905948D01*
X36653462Y-12908781D01*
X36629500Y-12998209D01*
X36629500Y-13129994D01*
X36663606Y-13257281D01*
X36663607Y-13257284D01*
X36663608Y-13257286D01*
X36729500Y-13371414D01*
X36822686Y-13464600D01*
X36936814Y-13530492D01*
X37064105Y-13564599D01*
X37064106Y-13564600D01*
X37064108Y-13564600D01*
X37139521Y-13564600D01*
X37191847Y-13586274D01*
X39652826Y-16047253D01*
X39674500Y-16099579D01*
X39674500Y-23700500D01*
X39652826Y-23752826D01*
X39600500Y-23774500D01*
X39320734Y-23774500D01*
X39290301Y-23777354D01*
X39290299Y-23777354D01*
X39290295Y-23777355D01*
X39162118Y-23822206D01*
X39162116Y-23822207D01*
X39052853Y-23902846D01*
X39052846Y-23902853D01*
X38972207Y-24012116D01*
X38972206Y-24012118D01*
X38927355Y-24140295D01*
X38927354Y-24140299D01*
X38927354Y-24140301D01*
X38924500Y-24170734D01*
X38924500Y-24904266D01*
X38924634Y-24905690D01*
X38927355Y-24934705D01*
X38927355Y-24934707D01*
X38967757Y-25050169D01*
X38964582Y-25106717D01*
X38950236Y-25126935D01*
X38566033Y-25511139D01*
X38523184Y-25585356D01*
X38523183Y-25585358D01*
X38523182Y-25585360D01*
X38523182Y-25585361D01*
X38501000Y-25668147D01*
X38501000Y-33246147D01*
X38501000Y-33331853D01*
X38520017Y-33402826D01*
X38523183Y-33414641D01*
X38523184Y-33414643D01*
X38566032Y-33488858D01*
X38566033Y-33488859D01*
X38566035Y-33488862D01*
X38950237Y-33873064D01*
X38971911Y-33925389D01*
X38967758Y-33949830D01*
X38927355Y-34065295D01*
X38927354Y-34065299D01*
X38927354Y-34065301D01*
X38924500Y-34095734D01*
X38924500Y-34829266D01*
X38927354Y-34859699D01*
X38927354Y-34859701D01*
X38927355Y-34859704D01*
X38972206Y-34987881D01*
X38972207Y-34987883D01*
X39052846Y-35097146D01*
X39052853Y-35097153D01*
X39162116Y-35177792D01*
X39162118Y-35177793D01*
X39290295Y-35222644D01*
X39290301Y-35222646D01*
X39320734Y-35225500D01*
X39320741Y-35225500D01*
X40679258Y-35225500D01*
X40679266Y-35225500D01*
X40709699Y-35222646D01*
X40837882Y-35177793D01*
X40947150Y-35097150D01*
X41027793Y-34987882D01*
X41072646Y-34859699D01*
X41075500Y-34829266D01*
X41075500Y-34095734D01*
X41072646Y-34065301D01*
X41027793Y-33937118D01*
X41019137Y-33925389D01*
X40947153Y-33827853D01*
X40947146Y-33827846D01*
X40837883Y-33747207D01*
X40837881Y-33747206D01*
X40709704Y-33702355D01*
X40709705Y-33702355D01*
X40709700Y-33702354D01*
X40709699Y-33702354D01*
X40679266Y-33699500D01*
X40679260Y-33699500D01*
X39727978Y-33699500D01*
X39675652Y-33677826D01*
X39173674Y-33175847D01*
X39152000Y-33123521D01*
X39152000Y-28278546D01*
X39173674Y-28226220D01*
X39226000Y-28204546D01*
X39250441Y-28208699D01*
X39290295Y-28222644D01*
X39290301Y-28222646D01*
X39320734Y-28225500D01*
X39320741Y-28225500D01*
X40679258Y-28225500D01*
X40679266Y-28225500D01*
X40709699Y-28222646D01*
X40837882Y-28177793D01*
X40947150Y-28097150D01*
X41027793Y-27987882D01*
X41072646Y-27859699D01*
X41075500Y-27829266D01*
X41075500Y-27095734D01*
X41072646Y-27065301D01*
X41068900Y-27054595D01*
X41072072Y-26998048D01*
X41086417Y-26977829D01*
X41676585Y-26387663D01*
X41732603Y-26290637D01*
X41761599Y-26182420D01*
X41761600Y-26182420D01*
X41761600Y-16489900D01*
X41783274Y-16437574D01*
X48668174Y-9552674D01*
X48720500Y-9531000D01*
X48772826Y-9552674D01*
X48794500Y-9605000D01*
X48794500Y-22975500D01*
X48772826Y-23027826D01*
X48720500Y-23049500D01*
X48144623Y-23049500D01*
X48092297Y-23027826D01*
X48074776Y-22999940D01*
X48052794Y-22937119D01*
X48052792Y-22937116D01*
X47972153Y-22827853D01*
X47972146Y-22827846D01*
X47862883Y-22747207D01*
X47862881Y-22747206D01*
X47734704Y-22702355D01*
X47734705Y-22702355D01*
X47734700Y-22702354D01*
X47734699Y-22702354D01*
X47704266Y-22699500D01*
X46295734Y-22699500D01*
X46265301Y-22702354D01*
X46265299Y-22702354D01*
X46265295Y-22702355D01*
X46137118Y-22747206D01*
X46137116Y-22747207D01*
X46027853Y-22827846D01*
X46027846Y-22827853D01*
X45947207Y-22937116D01*
X45947206Y-22937118D01*
X45902355Y-23065295D01*
X45902354Y-23065299D01*
X45902354Y-23065301D01*
X45899500Y-23095734D01*
X45899500Y-23854266D01*
X45902354Y-23884699D01*
X45902354Y-23884701D01*
X45902355Y-23884704D01*
X45947206Y-24012881D01*
X45947207Y-24012883D01*
X46027846Y-24122146D01*
X46027853Y-24122153D01*
X46137116Y-24202792D01*
X46137118Y-24202793D01*
X46265295Y-24247644D01*
X46265301Y-24247646D01*
X46295734Y-24250500D01*
X46295741Y-24250500D01*
X47704258Y-24250500D01*
X47704266Y-24250500D01*
X47734699Y-24247646D01*
X47862882Y-24202793D01*
X47972150Y-24122150D01*
X48052793Y-24012882D01*
X48052937Y-24012471D01*
X48074776Y-23950060D01*
X48112515Y-23907828D01*
X48144623Y-23900500D01*
X48720500Y-23900500D01*
X48772826Y-23922174D01*
X48794500Y-23974500D01*
X48794500Y-53630521D01*
X48772826Y-53682847D01*
X48720500Y-53704521D01*
X48668174Y-53682847D01*
X47242889Y-52257562D01*
X45774862Y-50789535D01*
X45774859Y-50789533D01*
X45774858Y-50789532D01*
X45700643Y-50746684D01*
X45700641Y-50746683D01*
X45700640Y-50746682D01*
X45700639Y-50746682D01*
X45617853Y-50724500D01*
X45617851Y-50724500D01*
X45440650Y-50724500D01*
X45388324Y-50702826D01*
X45373582Y-50681771D01*
X45372850Y-50680201D01*
X45294799Y-50602150D01*
X45194760Y-50555501D01*
X45194758Y-50555500D01*
X45161179Y-50551079D01*
X45149179Y-50549500D01*
X45149177Y-50549500D01*
X44850822Y-50549500D01*
X44805241Y-50555500D01*
X44805239Y-50555501D01*
X44705200Y-50602150D01*
X44627150Y-50680200D01*
X44580500Y-50780241D01*
X44577914Y-50799888D01*
X44574854Y-50823136D01*
X44574500Y-50825822D01*
X44574500Y-51274177D01*
X44580500Y-51319758D01*
X44580501Y-51319760D01*
X44627150Y-51419799D01*
X44705201Y-51497850D01*
X44805240Y-51544499D01*
X44850821Y-51550500D01*
X45149178Y-51550499D01*
X45194760Y-51544499D01*
X45294799Y-51497850D01*
X45372850Y-51419799D01*
X45372850Y-51419798D01*
X45376335Y-51416314D01*
X45428661Y-51394640D01*
X45480987Y-51416314D01*
X48877226Y-54812553D01*
X48898900Y-54864879D01*
X48885252Y-54907700D01*
X48831816Y-54983012D01*
X48810144Y-55035333D01*
X48810141Y-55035343D01*
X48794500Y-55113980D01*
X48794500Y-69426000D01*
X48772826Y-69478326D01*
X48720500Y-69500000D01*
X574000Y-69500000D01*
X521674Y-69478326D01*
X500000Y-69426000D01*
X500000Y-66374036D01*
X1899500Y-66374036D01*
X1899500Y-66625963D01*
X1938909Y-66874782D01*
X1938912Y-66874795D01*
X2016756Y-67114373D01*
X2131129Y-67338845D01*
X2279203Y-67542651D01*
X2279207Y-67542656D01*
X2457344Y-67720793D01*
X2457347Y-67720795D01*
X2457348Y-67720796D01*
X2661154Y-67868870D01*
X2712438Y-67895000D01*
X2885621Y-67983241D01*
X2885623Y-67983241D01*
X2885626Y-67983243D01*
X3125204Y-68061087D01*
X3125210Y-68061088D01*
X3125215Y-68061090D01*
X3249626Y-68080795D01*
X3374036Y-68100500D01*
X3374038Y-68100500D01*
X3625964Y-68100500D01*
X3725491Y-68084736D01*
X3874785Y-68061090D01*
X3874792Y-68061087D01*
X3874795Y-68061087D01*
X4114373Y-67983243D01*
X4114373Y-67983242D01*
X4114379Y-67983241D01*
X4338845Y-67868870D01*
X4542656Y-67720793D01*
X4720793Y-67542656D01*
X4868870Y-67338845D01*
X4983241Y-67114379D01*
X5061090Y-66874785D01*
X5100500Y-66625962D01*
X5100500Y-66374038D01*
X5061090Y-66125215D01*
X5061088Y-66125210D01*
X5061087Y-66125204D01*
X4983243Y-65885626D01*
X4983241Y-65885623D01*
X4983241Y-65885621D01*
X4923748Y-65768859D01*
X4868870Y-65661154D01*
X4720796Y-65457348D01*
X4720795Y-65457347D01*
X4720793Y-65457344D01*
X4542656Y-65279207D01*
X4542653Y-65279204D01*
X4542651Y-65279203D01*
X4338845Y-65131129D01*
X4114373Y-65016756D01*
X3874795Y-64938912D01*
X3874782Y-64938909D01*
X3625964Y-64899500D01*
X3625962Y-64899500D01*
X3374038Y-64899500D01*
X3374036Y-64899500D01*
X3125217Y-64938909D01*
X3125204Y-64938912D01*
X2885626Y-65016756D01*
X2661154Y-65131129D01*
X2457348Y-65279203D01*
X2279203Y-65457348D01*
X2131129Y-65661154D01*
X2016756Y-65885626D01*
X1938912Y-66125204D01*
X1938909Y-66125217D01*
X1899500Y-66374036D01*
X500000Y-66374036D01*
X500000Y-39595734D01*
X4924500Y-39595734D01*
X4924500Y-40404266D01*
X4927354Y-40434699D01*
X4927354Y-40434701D01*
X4927355Y-40434704D01*
X4972206Y-40562881D01*
X4972207Y-40562883D01*
X5052846Y-40672146D01*
X5052853Y-40672153D01*
X5162116Y-40752792D01*
X5162118Y-40752793D01*
X5290295Y-40797644D01*
X5290301Y-40797646D01*
X5320734Y-40800500D01*
X5320741Y-40800500D01*
X6679258Y-40800500D01*
X6679266Y-40800500D01*
X6709699Y-40797646D01*
X6837882Y-40752793D01*
X6947150Y-40672150D01*
X7027793Y-40562882D01*
X7072646Y-40434699D01*
X7075500Y-40404266D01*
X7075500Y-39595734D01*
X7072790Y-39566839D01*
X7089482Y-39512722D01*
X7094129Y-39507617D01*
X9704285Y-36897463D01*
X9760303Y-36800437D01*
X9789299Y-36692220D01*
X9789300Y-36692220D01*
X9789300Y-32113099D01*
X9810973Y-32060774D01*
X28476519Y-13395227D01*
X28528844Y-13373554D01*
X28557164Y-13379188D01*
X28583571Y-13390127D01*
X28583575Y-13390128D01*
X28583580Y-13390130D01*
X28786535Y-13430500D01*
X28786536Y-13430500D01*
X28993464Y-13430500D01*
X28993465Y-13430500D01*
X29196420Y-13390130D01*
X29387598Y-13310941D01*
X29559655Y-13195977D01*
X29705977Y-13049655D01*
X29820941Y-12877598D01*
X29900130Y-12686420D01*
X29940500Y-12483465D01*
X29940500Y-12276535D01*
X29900130Y-12073580D01*
X29820941Y-11882402D01*
X29705977Y-11710345D01*
X29559655Y-11564023D01*
X29479180Y-11510252D01*
X29387598Y-11449059D01*
X29196420Y-11369870D01*
X29196413Y-11369868D01*
X29043516Y-11339455D01*
X28993465Y-11329500D01*
X28786535Y-11329500D01*
X28746385Y-11337486D01*
X28583586Y-11369868D01*
X28583579Y-11369870D01*
X28392401Y-11449059D01*
X28220345Y-11564022D01*
X28220344Y-11564024D01*
X28074024Y-11710344D01*
X28074022Y-11710345D01*
X27959059Y-11882401D01*
X27879870Y-12073579D01*
X27879868Y-12073586D01*
X27839500Y-12276535D01*
X27839500Y-12483464D01*
X27879868Y-12686413D01*
X27879870Y-12686419D01*
X27890812Y-12712837D01*
X27890810Y-12769474D01*
X27874770Y-12793480D01*
X9102537Y-31565715D01*
X9023315Y-31644936D01*
X8967299Y-31741958D01*
X8967295Y-31741967D01*
X8938300Y-31850179D01*
X8938300Y-36429300D01*
X8916626Y-36481626D01*
X6220426Y-39177826D01*
X6168100Y-39199500D01*
X5320734Y-39199500D01*
X5290301Y-39202354D01*
X5290299Y-39202354D01*
X5290295Y-39202355D01*
X5162118Y-39247206D01*
X5162116Y-39247207D01*
X5052853Y-39327846D01*
X5052846Y-39327853D01*
X4972207Y-39437116D01*
X4972206Y-39437118D01*
X4927355Y-39565295D01*
X4927354Y-39565299D01*
X4927354Y-39565301D01*
X4924500Y-39595734D01*
X500000Y-39595734D01*
X500000Y-27516535D01*
X10059500Y-27516535D01*
X10059500Y-27723465D01*
X10059770Y-27724820D01*
X10099868Y-27926413D01*
X10099870Y-27926420D01*
X10179059Y-28117598D01*
X10230417Y-28194462D01*
X10294023Y-28289655D01*
X10440345Y-28435977D01*
X10612402Y-28550941D01*
X10803580Y-28630130D01*
X11006535Y-28670500D01*
X11006536Y-28670500D01*
X11213464Y-28670500D01*
X11213465Y-28670500D01*
X11416420Y-28630130D01*
X11607598Y-28550941D01*
X11779655Y-28435977D01*
X11925977Y-28289655D01*
X12040941Y-28117598D01*
X12120130Y-27926420D01*
X12160500Y-27723465D01*
X12160500Y-27516535D01*
X12120130Y-27313580D01*
X12040941Y-27122402D01*
X11925977Y-26950345D01*
X11779655Y-26804023D01*
X11705798Y-26754674D01*
X11607598Y-26689059D01*
X11416420Y-26609870D01*
X11416413Y-26609868D01*
X11263516Y-26579455D01*
X11213465Y-26569500D01*
X11006535Y-26569500D01*
X10966385Y-26577486D01*
X10803586Y-26609868D01*
X10803579Y-26609870D01*
X10612401Y-26689059D01*
X10440345Y-26804022D01*
X10440344Y-26804024D01*
X10294024Y-26950344D01*
X10294022Y-26950345D01*
X10179059Y-27122401D01*
X10099870Y-27313579D01*
X10099868Y-27313586D01*
X10094124Y-27342465D01*
X10059500Y-27516535D01*
X500000Y-27516535D01*
X500000Y-24976535D01*
X10059500Y-24976535D01*
X10059500Y-25183464D01*
X10099868Y-25386413D01*
X10099870Y-25386420D01*
X10179059Y-25577598D01*
X10294023Y-25749655D01*
X10440345Y-25895977D01*
X10612402Y-26010941D01*
X10803580Y-26090130D01*
X11006535Y-26130500D01*
X11006536Y-26130500D01*
X11213464Y-26130500D01*
X11213465Y-26130500D01*
X11416420Y-26090130D01*
X11607598Y-26010941D01*
X11779655Y-25895977D01*
X11925977Y-25749655D01*
X12040941Y-25577598D01*
X12120130Y-25386420D01*
X12160500Y-25183465D01*
X12160500Y-24976535D01*
X12129000Y-24818175D01*
X12120131Y-24773585D01*
X12120130Y-24773584D01*
X12120130Y-24773580D01*
X12040941Y-24582402D01*
X11925977Y-24410345D01*
X11779655Y-24264023D01*
X11771561Y-24258615D01*
X11607598Y-24149059D01*
X11416420Y-24069870D01*
X11416413Y-24069868D01*
X11260411Y-24038838D01*
X11213465Y-24029500D01*
X11006535Y-24029500D01*
X10966385Y-24037486D01*
X10803586Y-24069868D01*
X10803579Y-24069870D01*
X10612401Y-24149059D01*
X10440345Y-24264022D01*
X10440344Y-24264024D01*
X10294024Y-24410344D01*
X10294022Y-24410345D01*
X10179059Y-24582401D01*
X10099870Y-24773579D01*
X10099869Y-24773585D01*
X10059500Y-24976535D01*
X500000Y-24976535D01*
X500000Y-22436535D01*
X10059500Y-22436535D01*
X10059500Y-22643465D01*
X10064057Y-22666375D01*
X10099868Y-22846413D01*
X10099870Y-22846420D01*
X10179059Y-23037598D01*
X10268265Y-23171106D01*
X10294023Y-23209655D01*
X10440345Y-23355977D01*
X10612402Y-23470941D01*
X10803580Y-23550130D01*
X11006535Y-23590500D01*
X11006536Y-23590500D01*
X11213464Y-23590500D01*
X11213465Y-23590500D01*
X11416420Y-23550130D01*
X11607598Y-23470941D01*
X11779655Y-23355977D01*
X11925977Y-23209655D01*
X12040941Y-23037598D01*
X12120130Y-22846420D01*
X12160500Y-22643465D01*
X12160500Y-22436535D01*
X12120130Y-22233580D01*
X12040941Y-22042402D01*
X11925977Y-21870345D01*
X11779655Y-21724023D01*
X11775171Y-21721027D01*
X11607598Y-21609059D01*
X11416420Y-21529870D01*
X11416413Y-21529868D01*
X11260511Y-21498858D01*
X11213465Y-21489500D01*
X11006535Y-21489500D01*
X10966385Y-21497486D01*
X10803586Y-21529868D01*
X10803579Y-21529870D01*
X10612401Y-21609059D01*
X10440345Y-21724022D01*
X10440344Y-21724024D01*
X10294024Y-21870344D01*
X10294022Y-21870345D01*
X10179059Y-22042401D01*
X10099870Y-22233579D01*
X10099868Y-22233586D01*
X10065278Y-22407486D01*
X10059500Y-22436535D01*
X500000Y-22436535D01*
X500000Y-19896535D01*
X10059500Y-19896535D01*
X10059500Y-20103464D01*
X10099868Y-20306413D01*
X10099870Y-20306420D01*
X10179059Y-20497598D01*
X10241830Y-20591543D01*
X10294023Y-20669655D01*
X10440345Y-20815977D01*
X10612402Y-20930941D01*
X10803580Y-21010130D01*
X11006535Y-21050500D01*
X11006536Y-21050500D01*
X11213464Y-21050500D01*
X11213465Y-21050500D01*
X11416420Y-21010130D01*
X11607598Y-20930941D01*
X11779655Y-20815977D01*
X11925977Y-20669655D01*
X12040941Y-20497598D01*
X12120130Y-20306420D01*
X12160500Y-20103465D01*
X12160500Y-19896535D01*
X12120130Y-19693580D01*
X12040941Y-19502402D01*
X11925977Y-19330345D01*
X11779655Y-19184023D01*
X11763870Y-19173476D01*
X11607598Y-19069059D01*
X11416420Y-18989870D01*
X11416413Y-18989868D01*
X11263516Y-18959455D01*
X11213465Y-18949500D01*
X11006535Y-18949500D01*
X10966385Y-18957486D01*
X10803586Y-18989868D01*
X10803579Y-18989870D01*
X10612401Y-19069059D01*
X10440345Y-19184022D01*
X10440344Y-19184024D01*
X10294024Y-19330344D01*
X10294022Y-19330345D01*
X10179059Y-19502401D01*
X10099870Y-19693579D01*
X10099868Y-19693586D01*
X10059500Y-19896535D01*
X500000Y-19896535D01*
X500000Y-17356535D01*
X10059500Y-17356535D01*
X10059500Y-17563464D01*
X10099868Y-17766413D01*
X10099870Y-17766420D01*
X10179059Y-17957598D01*
X10276716Y-18103754D01*
X10294023Y-18129655D01*
X10440345Y-18275977D01*
X10612402Y-18390941D01*
X10803580Y-18470130D01*
X11006535Y-18510500D01*
X11006536Y-18510500D01*
X11213464Y-18510500D01*
X11213465Y-18510500D01*
X11416420Y-18470130D01*
X11607598Y-18390941D01*
X11779655Y-18275977D01*
X11925977Y-18129655D01*
X12040941Y-17957598D01*
X12120130Y-17766420D01*
X12160500Y-17563465D01*
X12160500Y-17356535D01*
X12120130Y-17153580D01*
X12040941Y-16962402D01*
X11925977Y-16790345D01*
X11779655Y-16644023D01*
X11760034Y-16630913D01*
X11607598Y-16529059D01*
X11416420Y-16449870D01*
X11416413Y-16449868D01*
X11263516Y-16419455D01*
X11213465Y-16409500D01*
X11006535Y-16409500D01*
X10966385Y-16417486D01*
X10803586Y-16449868D01*
X10803579Y-16449870D01*
X10612401Y-16529059D01*
X10440345Y-16644022D01*
X10440344Y-16644024D01*
X10294024Y-16790344D01*
X10294022Y-16790345D01*
X10179059Y-16962401D01*
X10099870Y-17153579D01*
X10099868Y-17153586D01*
X10059500Y-17356535D01*
X500000Y-17356535D01*
X500000Y-14816535D01*
X10059500Y-14816535D01*
X10059500Y-15023464D01*
X10099868Y-15226413D01*
X10099870Y-15226420D01*
X10179059Y-15417598D01*
X10281899Y-15571511D01*
X10294023Y-15589655D01*
X10440345Y-15735977D01*
X10612402Y-15850941D01*
X10803580Y-15930130D01*
X11006535Y-15970500D01*
X11006536Y-15970500D01*
X11213464Y-15970500D01*
X11213465Y-15970500D01*
X11416420Y-15930130D01*
X11607598Y-15850941D01*
X11779655Y-15735977D01*
X11925977Y-15589655D01*
X12040941Y-15417598D01*
X12120130Y-15226420D01*
X12160500Y-15023465D01*
X12160500Y-14816535D01*
X12120130Y-14613580D01*
X12040941Y-14422402D01*
X11925977Y-14250345D01*
X11779655Y-14104023D01*
X11607598Y-13989059D01*
X11416420Y-13909870D01*
X11416413Y-13909868D01*
X11229718Y-13872733D01*
X11213465Y-13869500D01*
X11006535Y-13869500D01*
X10990282Y-13872733D01*
X10803586Y-13909868D01*
X10803579Y-13909870D01*
X10612401Y-13989059D01*
X10440345Y-14104022D01*
X10440344Y-14104024D01*
X10294024Y-14250344D01*
X10294022Y-14250345D01*
X10179059Y-14422401D01*
X10099870Y-14613579D01*
X10099868Y-14613586D01*
X10059500Y-14816535D01*
X500000Y-14816535D01*
X500000Y-11510252D01*
X10059500Y-11510252D01*
X10059500Y-13249748D01*
X10067255Y-13288736D01*
X10071133Y-13308232D01*
X10100608Y-13352343D01*
X10115448Y-13374552D01*
X10159560Y-13404027D01*
X10181767Y-13418866D01*
X10181768Y-13418866D01*
X10181769Y-13418867D01*
X10240252Y-13430500D01*
X10240254Y-13430500D01*
X11979746Y-13430500D01*
X11979748Y-13430500D01*
X12038231Y-13418867D01*
X12104552Y-13374552D01*
X12148867Y-13308231D01*
X12160500Y-13249748D01*
X12160500Y-11510252D01*
X12148867Y-11451769D01*
X12147056Y-11449059D01*
X12134027Y-11429560D01*
X12104552Y-11385448D01*
X12081235Y-11369868D01*
X12038232Y-11341133D01*
X12038233Y-11341133D01*
X12008989Y-11335316D01*
X11979748Y-11329500D01*
X10240252Y-11329500D01*
X10211010Y-11335316D01*
X10181767Y-11341133D01*
X10115449Y-11385447D01*
X10115447Y-11385449D01*
X10071133Y-11451767D01*
X10071133Y-11451769D01*
X10059500Y-11510252D01*
X500000Y-11510252D01*
X500000Y-3374036D01*
X1899500Y-3374036D01*
X1899500Y-3625963D01*
X1938909Y-3874782D01*
X1938912Y-3874795D01*
X2016756Y-4114373D01*
X2131129Y-4338845D01*
X2279203Y-4542651D01*
X2279207Y-4542656D01*
X2457344Y-4720793D01*
X2457347Y-4720795D01*
X2457348Y-4720796D01*
X2661154Y-4868870D01*
X2769345Y-4923995D01*
X2885621Y-4983241D01*
X2885623Y-4983241D01*
X2885626Y-4983243D01*
X3125204Y-5061087D01*
X3125210Y-5061088D01*
X3125215Y-5061090D01*
X3249626Y-5080795D01*
X3374036Y-5100500D01*
X3374038Y-5100500D01*
X3625964Y-5100500D01*
X3725491Y-5084736D01*
X3874785Y-5061090D01*
X3874792Y-5061087D01*
X3874795Y-5061087D01*
X4114373Y-4983243D01*
X4114373Y-4983242D01*
X4114379Y-4983241D01*
X4338845Y-4868870D01*
X4542656Y-4720793D01*
X4720793Y-4542656D01*
X4868870Y-4338845D01*
X4983241Y-4114379D01*
X5061090Y-3874785D01*
X5100500Y-3625962D01*
X5100500Y-3374038D01*
X5061090Y-3125215D01*
X5061088Y-3125210D01*
X5061087Y-3125204D01*
X4983243Y-2885626D01*
X4983241Y-2885623D01*
X4983241Y-2885621D01*
X4923748Y-2768859D01*
X4868870Y-2661154D01*
X4720796Y-2457348D01*
X4720795Y-2457347D01*
X4720793Y-2457344D01*
X4542656Y-2279207D01*
X4542653Y-2279204D01*
X4542651Y-2279203D01*
X4338845Y-2131129D01*
X4114373Y-2016756D01*
X3874795Y-1938912D01*
X3874782Y-1938909D01*
X3625964Y-1899500D01*
X3625962Y-1899500D01*
X3374038Y-1899500D01*
X3374036Y-1899500D01*
X3125217Y-1938909D01*
X3125204Y-1938912D01*
X2885626Y-2016756D01*
X2661154Y-2131129D01*
X2457348Y-2279203D01*
X2279203Y-2457348D01*
X2131129Y-2661154D01*
X2016756Y-2885626D01*
X1938912Y-3125204D01*
X1938909Y-3125217D01*
X1899500Y-3374036D01*
X500000Y-3374036D01*
X500000Y-574000D01*
X521674Y-521674D01*
X574000Y-500000D01*
X48720500Y-500000D01*
X48772826Y-521674D01*
G37*
%TD.AperFunction*%
%TA.AperFunction,Conductor*%
G36*
X52978326Y-31956618D02*
G01*
X53000000Y-32008944D01*
X53000000Y-32139051D01*
X52978326Y-32191377D01*
X52550370Y-32619334D01*
X52535041Y-32631095D01*
X52524549Y-32637152D01*
X52506711Y-32644542D01*
X52498485Y-32646746D01*
X52495013Y-32647677D01*
X52475856Y-32650200D01*
X52463743Y-32650200D01*
X52444593Y-32647679D01*
X52432887Y-32644543D01*
X52415040Y-32637149D01*
X52404550Y-32631092D01*
X52389227Y-32619334D01*
X52380665Y-32610772D01*
X52368906Y-32595447D01*
X52362850Y-32584958D01*
X52355455Y-32567103D01*
X52352320Y-32555399D01*
X52349800Y-32536253D01*
X52349800Y-32524140D01*
X52352321Y-32504990D01*
X52355455Y-32493292D01*
X52362846Y-32475445D01*
X52368904Y-32464952D01*
X52380658Y-32449633D01*
X52873675Y-31956617D01*
X52926000Y-31934944D01*
X52978326Y-31956618D01*
G37*
%TD.AperFunction*%
%TA.AperFunction,Conductor*%
G36*
X52978326Y-21901674D02*
G01*
X53000000Y-21954000D01*
X53000000Y-22046000D01*
X52978326Y-22098326D01*
X52926000Y-22120000D01*
X50675945Y-22120000D01*
X50656787Y-22117477D01*
X50645087Y-22114341D01*
X50627248Y-22106952D01*
X50616754Y-22100894D01*
X50601425Y-22089132D01*
X50592866Y-22080573D01*
X50581106Y-22065247D01*
X50575049Y-22054756D01*
X50567656Y-22036906D01*
X50564521Y-22025204D01*
X50562000Y-22006054D01*
X50562000Y-21993939D01*
X50564519Y-21974794D01*
X50567655Y-21963088D01*
X50575047Y-21945245D01*
X50581105Y-21934752D01*
X50592861Y-21919429D01*
X50601430Y-21910860D01*
X50616749Y-21899106D01*
X50627249Y-21893045D01*
X50645093Y-21885655D01*
X50656791Y-21882521D01*
X50675941Y-21880000D01*
X52926000Y-21880000D01*
X52978326Y-21901674D01*
G37*
%TD.AperFunction*%
%TD*%
%TA.AperFunction,Conductor*%
%TO.N,GNDA*%
G36*
X102818407Y-54282570D02*
G01*
X102856147Y-54324801D01*
X102860300Y-54349242D01*
X102860300Y-55111221D01*
X102838626Y-55163547D01*
X102324347Y-55677826D01*
X102272021Y-55699500D01*
X101320734Y-55699500D01*
X101290301Y-55702354D01*
X101290299Y-55702354D01*
X101290295Y-55702355D01*
X101185041Y-55739185D01*
X101128492Y-55736010D01*
X101090753Y-55693779D01*
X101086600Y-55669338D01*
X101086600Y-54941879D01*
X101108274Y-54889553D01*
X101675653Y-54322174D01*
X101727979Y-54300500D01*
X102679258Y-54300500D01*
X102679266Y-54300500D01*
X102709699Y-54297646D01*
X102727026Y-54291582D01*
X102761859Y-54279395D01*
X102818407Y-54282570D01*
G37*
%TD.AperFunction*%
%TA.AperFunction,Conductor*%
G36*
X98058886Y-21331927D02*
G01*
X98068800Y-21368927D01*
X98068800Y-42888947D01*
X98068800Y-42974653D01*
X98089925Y-43053493D01*
X98090983Y-43057441D01*
X98090984Y-43057443D01*
X98133832Y-43131658D01*
X98133833Y-43131659D01*
X98133835Y-43131662D01*
X100526495Y-45524321D01*
X100950237Y-45948063D01*
X100971911Y-46000389D01*
X100967758Y-46024830D01*
X100927355Y-46140295D01*
X100927354Y-46140299D01*
X100927354Y-46140301D01*
X100924500Y-46170734D01*
X100924500Y-46904266D01*
X100927354Y-46934699D01*
X100927354Y-46934701D01*
X100927355Y-46934704D01*
X100972206Y-47062881D01*
X100972207Y-47062883D01*
X101052846Y-47172146D01*
X101052853Y-47172153D01*
X101162116Y-47252792D01*
X101162118Y-47252793D01*
X101290295Y-47297644D01*
X101290301Y-47297646D01*
X101320734Y-47300500D01*
X101320741Y-47300500D01*
X102679258Y-47300500D01*
X102679266Y-47300500D01*
X102709699Y-47297646D01*
X102727026Y-47291582D01*
X102761859Y-47279395D01*
X102818407Y-47282570D01*
X102856147Y-47324801D01*
X102860300Y-47349242D01*
X102860300Y-48650757D01*
X102838626Y-48703083D01*
X102786300Y-48724757D01*
X102761860Y-48720605D01*
X102709702Y-48702355D01*
X102709701Y-48702354D01*
X102709699Y-48702354D01*
X102679266Y-48699500D01*
X102679260Y-48699500D01*
X101727979Y-48699500D01*
X101675653Y-48677826D01*
X99138122Y-46140295D01*
X96547362Y-43549535D01*
X96547359Y-43549533D01*
X96547358Y-43549532D01*
X96473143Y-43506684D01*
X96473141Y-43506683D01*
X96473140Y-43506682D01*
X96473139Y-43506682D01*
X96390353Y-43484500D01*
X96390351Y-43484500D01*
X73649411Y-43484500D01*
X73597085Y-43462826D01*
X73589215Y-43453534D01*
X73506482Y-43370801D01*
X73401394Y-43319427D01*
X73333264Y-43309500D01*
X73333260Y-43309500D01*
X72874500Y-43309500D01*
X72822174Y-43287826D01*
X72800500Y-43235500D01*
X72800500Y-43114500D01*
X72822174Y-43062174D01*
X72874500Y-43040500D01*
X73333254Y-43040500D01*
X73333260Y-43040500D01*
X73401393Y-43030573D01*
X73506483Y-42979198D01*
X73589198Y-42896483D01*
X73640573Y-42791393D01*
X73650500Y-42723260D01*
X73650500Y-42356740D01*
X73644443Y-42315168D01*
X73658347Y-42260265D01*
X73707001Y-42231273D01*
X73717670Y-42230500D01*
X75291751Y-42230500D01*
X75291753Y-42230500D01*
X75374539Y-42208318D01*
X75448762Y-42165465D01*
X76518492Y-41095734D01*
X90899500Y-41095734D01*
X90899500Y-41854266D01*
X90902354Y-41884699D01*
X90902354Y-41884701D01*
X90902355Y-41884704D01*
X90947206Y-42012881D01*
X90947207Y-42012883D01*
X91027846Y-42122146D01*
X91027852Y-42122152D01*
X91137116Y-42202792D01*
X91137118Y-42202793D01*
X91265295Y-42247644D01*
X91265301Y-42247646D01*
X91295734Y-42250500D01*
X91295741Y-42250500D01*
X92704258Y-42250500D01*
X92704266Y-42250500D01*
X92734699Y-42247646D01*
X92862882Y-42202793D01*
X92919175Y-42161247D01*
X92972148Y-42122152D01*
X92972153Y-42122146D01*
X92987906Y-42100801D01*
X93052793Y-42012882D01*
X93097646Y-41884699D01*
X93100500Y-41854266D01*
X93100500Y-41095734D01*
X93097646Y-41065301D01*
X93084521Y-41027793D01*
X93052793Y-40937118D01*
X93052792Y-40937116D01*
X92972153Y-40827853D01*
X92972146Y-40827846D01*
X92862883Y-40747207D01*
X92862881Y-40747206D01*
X92734704Y-40702355D01*
X92734705Y-40702355D01*
X92734700Y-40702354D01*
X92734699Y-40702354D01*
X92704266Y-40699500D01*
X91295734Y-40699500D01*
X91265301Y-40702354D01*
X91265299Y-40702354D01*
X91265295Y-40702355D01*
X91137118Y-40747206D01*
X91137116Y-40747207D01*
X91027853Y-40827846D01*
X91027846Y-40827853D01*
X90947207Y-40937116D01*
X90947206Y-40937118D01*
X90902355Y-41065295D01*
X90902355Y-41065297D01*
X90902354Y-41065301D01*
X90899500Y-41095734D01*
X76518492Y-41095734D01*
X78066154Y-39548071D01*
X78118479Y-39526398D01*
X78170805Y-39548072D01*
X78187225Y-39576509D01*
X78187954Y-39576208D01*
X78189807Y-39580683D01*
X78189808Y-39580686D01*
X78255700Y-39694814D01*
X78348886Y-39788000D01*
X78463014Y-39853892D01*
X78590305Y-39887999D01*
X78590306Y-39888000D01*
X78590308Y-39888000D01*
X78722094Y-39888000D01*
X78722094Y-39887999D01*
X78849386Y-39853892D01*
X78963514Y-39788000D01*
X79016840Y-39734674D01*
X79069166Y-39713000D01*
X79700500Y-39713000D01*
X79752826Y-39734674D01*
X79774500Y-39787000D01*
X79774500Y-40679266D01*
X79777354Y-40709699D01*
X79777354Y-40709701D01*
X79777355Y-40709704D01*
X79822206Y-40837881D01*
X79822207Y-40837883D01*
X79902846Y-40947146D01*
X79902853Y-40947153D01*
X80012116Y-41027792D01*
X80012118Y-41027793D01*
X80140295Y-41072644D01*
X80140301Y-41072646D01*
X80170734Y-41075500D01*
X80170741Y-41075500D01*
X80904258Y-41075500D01*
X80904266Y-41075500D01*
X80934699Y-41072646D01*
X81062882Y-41027793D01*
X81172150Y-40947150D01*
X81252793Y-40837882D01*
X81297646Y-40709699D01*
X81300500Y-40679266D01*
X81300500Y-39320734D01*
X82699500Y-39320734D01*
X82699500Y-40679266D01*
X82702354Y-40709699D01*
X82702354Y-40709701D01*
X82702355Y-40709704D01*
X82747206Y-40837881D01*
X82747207Y-40837883D01*
X82827846Y-40947146D01*
X82827853Y-40947153D01*
X82937116Y-41027792D01*
X82937118Y-41027793D01*
X83065295Y-41072644D01*
X83065301Y-41072646D01*
X83095734Y-41075500D01*
X83095741Y-41075500D01*
X83829258Y-41075500D01*
X83829266Y-41075500D01*
X83859699Y-41072646D01*
X83987882Y-41027793D01*
X84097150Y-40947150D01*
X84177793Y-40837882D01*
X84222646Y-40709699D01*
X84225500Y-40679266D01*
X84225500Y-39320734D01*
X84222646Y-39290301D01*
X84209521Y-39252793D01*
X84177793Y-39162118D01*
X84177792Y-39162116D01*
X84097153Y-39052853D01*
X84097146Y-39052846D01*
X83987883Y-38972207D01*
X83987881Y-38972206D01*
X83859704Y-38927355D01*
X83859705Y-38927355D01*
X83859700Y-38927354D01*
X83859699Y-38927354D01*
X83829266Y-38924500D01*
X83095734Y-38924500D01*
X83065301Y-38927354D01*
X83065299Y-38927354D01*
X83065295Y-38927355D01*
X82937118Y-38972206D01*
X82937116Y-38972207D01*
X82827853Y-39052846D01*
X82827846Y-39052853D01*
X82747207Y-39162116D01*
X82747206Y-39162118D01*
X82702355Y-39290295D01*
X82702354Y-39290299D01*
X82702354Y-39290301D01*
X82699500Y-39320734D01*
X81300500Y-39320734D01*
X81297646Y-39290301D01*
X81284521Y-39252793D01*
X81252793Y-39162118D01*
X81252792Y-39162116D01*
X81172153Y-39052853D01*
X81172146Y-39052846D01*
X81062883Y-38972207D01*
X81062881Y-38972206D01*
X80934704Y-38927355D01*
X80934705Y-38927355D01*
X80934700Y-38927354D01*
X80934699Y-38927354D01*
X80904266Y-38924500D01*
X80170734Y-38924500D01*
X80140301Y-38927354D01*
X80140299Y-38927354D01*
X80140295Y-38927355D01*
X80012119Y-38972206D01*
X79910045Y-39047540D01*
X79866102Y-39062000D01*
X79069166Y-39062000D01*
X79016840Y-39040326D01*
X78963514Y-38987000D01*
X78849390Y-38921110D01*
X78849388Y-38921109D01*
X78849386Y-38921108D01*
X78849383Y-38921107D01*
X78844908Y-38919254D01*
X78845491Y-38917844D01*
X78805006Y-38886769D01*
X78797623Y-38830615D01*
X78816770Y-38797455D01*
X79130153Y-38484074D01*
X79182479Y-38462400D01*
X86187251Y-38462400D01*
X86187253Y-38462400D01*
X86270039Y-38440218D01*
X86344262Y-38397365D01*
X96260465Y-28481162D01*
X96303318Y-28406939D01*
X96325500Y-28324153D01*
X96325500Y-28238447D01*
X96325500Y-22540877D01*
X96347173Y-22488552D01*
X97199859Y-21635866D01*
X97199862Y-21635865D01*
X97260465Y-21575262D01*
X97303318Y-21501038D01*
X97304346Y-21497200D01*
X97325501Y-21418252D01*
X97325501Y-21407688D01*
X97327491Y-21399282D01*
X97339392Y-21382791D01*
X97347175Y-21364002D01*
X97355416Y-21360588D01*
X97360636Y-21353356D01*
X97380711Y-21350110D01*
X97399501Y-21342328D01*
X97410546Y-21345287D01*
X97416547Y-21344318D01*
X97422228Y-21348418D01*
X97436502Y-21352243D01*
X97462914Y-21367492D01*
X97590205Y-21401599D01*
X97590206Y-21401600D01*
X97590208Y-21401600D01*
X97721994Y-21401600D01*
X97721994Y-21401599D01*
X97849286Y-21367492D01*
X97957800Y-21304840D01*
X98013952Y-21297448D01*
X98058886Y-21331927D01*
G37*
%TD.AperFunction*%
%TA.AperFunction,Conductor*%
G36*
X96152826Y-19632474D02*
G01*
X96174500Y-19684800D01*
X96174500Y-20550821D01*
X96152826Y-20603147D01*
X96015347Y-20740626D01*
X95963021Y-20762300D01*
X95899500Y-20762300D01*
X95847174Y-20740626D01*
X95825500Y-20688300D01*
X95825500Y-19749179D01*
X95847174Y-19696853D01*
X95911553Y-19632474D01*
X95963879Y-19610800D01*
X96100500Y-19610800D01*
X96152826Y-19632474D01*
G37*
%TD.AperFunction*%
%TA.AperFunction,Conductor*%
G36*
X109478326Y-521674D02*
G01*
X109500000Y-574000D01*
X109500000Y-69426000D01*
X109478326Y-69478326D01*
X109426000Y-69500000D01*
X49074000Y-69500000D01*
X49021674Y-69478326D01*
X49000000Y-69426000D01*
X49000000Y-66374036D01*
X104899500Y-66374036D01*
X104899500Y-66625963D01*
X104938909Y-66874782D01*
X104938912Y-66874795D01*
X105016756Y-67114373D01*
X105131129Y-67338845D01*
X105279203Y-67542651D01*
X105279207Y-67542656D01*
X105457344Y-67720793D01*
X105457347Y-67720795D01*
X105457348Y-67720796D01*
X105661154Y-67868870D01*
X105769345Y-67923995D01*
X105885621Y-67983241D01*
X105885623Y-67983241D01*
X105885626Y-67983243D01*
X106125204Y-68061087D01*
X106125210Y-68061088D01*
X106125215Y-68061090D01*
X106249626Y-68080795D01*
X106374036Y-68100500D01*
X106374038Y-68100500D01*
X106625964Y-68100500D01*
X106725491Y-68084736D01*
X106874785Y-68061090D01*
X106874792Y-68061087D01*
X106874795Y-68061087D01*
X107114373Y-67983243D01*
X107114373Y-67983242D01*
X107114379Y-67983241D01*
X107338845Y-67868870D01*
X107542656Y-67720793D01*
X107720793Y-67542656D01*
X107868870Y-67338845D01*
X107983241Y-67114379D01*
X108061090Y-66874785D01*
X108100500Y-66625962D01*
X108100500Y-66374038D01*
X108061090Y-66125215D01*
X108061088Y-66125210D01*
X108061087Y-66125204D01*
X107983243Y-65885626D01*
X107983241Y-65885623D01*
X107983241Y-65885621D01*
X107923995Y-65769345D01*
X107868870Y-65661154D01*
X107720796Y-65457348D01*
X107720795Y-65457347D01*
X107720793Y-65457344D01*
X107542656Y-65279207D01*
X107542653Y-65279204D01*
X107542651Y-65279203D01*
X107338845Y-65131129D01*
X107114373Y-65016756D01*
X106874795Y-64938912D01*
X106874782Y-64938909D01*
X106625964Y-64899500D01*
X106625962Y-64899500D01*
X106374038Y-64899500D01*
X106374036Y-64899500D01*
X106125217Y-64938909D01*
X106125204Y-64938912D01*
X105885626Y-65016756D01*
X105661154Y-65131129D01*
X105457348Y-65279203D01*
X105279203Y-65457348D01*
X105131129Y-65661154D01*
X105016756Y-65885626D01*
X104938912Y-66125204D01*
X104938909Y-66125217D01*
X104899500Y-66374036D01*
X49000000Y-66374036D01*
X49000000Y-55113979D01*
X49021674Y-55061653D01*
X49074000Y-55039979D01*
X49126326Y-55061653D01*
X49727826Y-55663153D01*
X49749500Y-55715479D01*
X49749500Y-56704266D01*
X49752354Y-56734699D01*
X49752354Y-56734701D01*
X49752355Y-56734704D01*
X49797206Y-56862881D01*
X49797207Y-56862883D01*
X49877846Y-56972146D01*
X49877853Y-56972153D01*
X49987116Y-57052792D01*
X49987118Y-57052793D01*
X50115295Y-57097644D01*
X50115301Y-57097646D01*
X50145734Y-57100500D01*
X50145741Y-57100500D01*
X50904258Y-57100500D01*
X50904266Y-57100500D01*
X50934699Y-57097646D01*
X51059429Y-57054001D01*
X51115976Y-57057176D01*
X51136195Y-57071522D01*
X56264534Y-62199861D01*
X56264535Y-62199862D01*
X56325138Y-62260465D01*
X56399362Y-62303318D01*
X56399366Y-62303319D01*
X56482138Y-62325498D01*
X56482141Y-62325498D01*
X56482147Y-62325500D01*
X56482153Y-62325500D01*
X56485153Y-62325895D01*
X56486482Y-62326662D01*
X56486832Y-62326756D01*
X56486806Y-62326849D01*
X56534204Y-62354210D01*
X56549500Y-62399263D01*
X56549500Y-63054266D01*
X56552354Y-63084699D01*
X56552354Y-63084701D01*
X56552355Y-63084704D01*
X56597206Y-63212881D01*
X56597207Y-63212883D01*
X56677846Y-63322146D01*
X56677853Y-63322153D01*
X56787116Y-63402792D01*
X56787118Y-63402793D01*
X56915295Y-63447644D01*
X56915301Y-63447646D01*
X56945734Y-63450500D01*
X56945741Y-63450500D01*
X59054258Y-63450500D01*
X59054266Y-63450500D01*
X59084699Y-63447646D01*
X59212882Y-63402793D01*
X59322150Y-63322150D01*
X59402793Y-63212882D01*
X59447646Y-63084699D01*
X59450500Y-63054266D01*
X59450500Y-61040479D01*
X59472174Y-60988153D01*
X59545032Y-60915295D01*
X59722965Y-60737362D01*
X59765817Y-60663139D01*
X59765818Y-60663138D01*
X59787999Y-60580355D01*
X59788000Y-60580355D01*
X59788000Y-55146754D01*
X59809674Y-55094428D01*
X59855092Y-55073077D01*
X59859699Y-55072646D01*
X59859701Y-55072645D01*
X59859703Y-55072645D01*
X59859703Y-55072644D01*
X59987882Y-55027793D01*
X60097150Y-54947150D01*
X60177793Y-54837882D01*
X60222646Y-54709699D01*
X60225500Y-54679266D01*
X60225500Y-53320734D01*
X60222646Y-53290301D01*
X60177793Y-53162118D01*
X60177792Y-53162116D01*
X60097153Y-53052853D01*
X60097146Y-53052846D01*
X59987883Y-52972207D01*
X59987881Y-52972206D01*
X59859704Y-52927355D01*
X59859705Y-52927355D01*
X59859700Y-52927354D01*
X59859699Y-52927354D01*
X59829266Y-52924500D01*
X59095734Y-52924500D01*
X59065301Y-52927354D01*
X59065299Y-52927354D01*
X59065295Y-52927355D01*
X58937118Y-52972206D01*
X58937116Y-52972207D01*
X58827853Y-53052846D01*
X58827846Y-53052853D01*
X58747207Y-53162116D01*
X58747206Y-53162118D01*
X58702355Y-53290295D01*
X58702354Y-53290299D01*
X58702354Y-53290301D01*
X58699500Y-53320734D01*
X58699500Y-54679266D01*
X58702354Y-54709699D01*
X58702354Y-54709701D01*
X58702355Y-54709704D01*
X58747206Y-54837881D01*
X58747207Y-54837883D01*
X58827846Y-54947146D01*
X58827853Y-54947153D01*
X58937116Y-55027792D01*
X58937118Y-55027793D01*
X59065295Y-55072644D01*
X59065296Y-55072645D01*
X59065298Y-55072645D01*
X59065301Y-55072646D01*
X59069906Y-55073077D01*
X59119980Y-55099539D01*
X59137000Y-55146754D01*
X59137000Y-60372021D01*
X59115326Y-60424347D01*
X59011847Y-60527826D01*
X58959521Y-60549500D01*
X56945734Y-60549500D01*
X56915301Y-60552354D01*
X56915299Y-60552354D01*
X56915295Y-60552355D01*
X56787118Y-60597206D01*
X56787116Y-60597207D01*
X56677853Y-60677846D01*
X56677846Y-60677853D01*
X56597207Y-60787116D01*
X56597206Y-60787118D01*
X56552355Y-60915295D01*
X56552354Y-60915299D01*
X56552354Y-60915301D01*
X56549500Y-60945734D01*
X56549500Y-60945740D01*
X56549500Y-61385521D01*
X56527826Y-61437847D01*
X56475500Y-61459521D01*
X56423174Y-61437847D01*
X51322174Y-56336847D01*
X51300500Y-56284521D01*
X51300500Y-55295740D01*
X51300500Y-55295734D01*
X51297646Y-55265301D01*
X51252793Y-55137118D01*
X51235716Y-55113979D01*
X51172153Y-55027853D01*
X51172146Y-55027846D01*
X51062883Y-54947207D01*
X51062881Y-54947206D01*
X50934704Y-54902355D01*
X50934705Y-54902355D01*
X50934700Y-54902354D01*
X50934699Y-54902354D01*
X50904266Y-54899500D01*
X50145734Y-54899500D01*
X50115301Y-54902354D01*
X50115299Y-54902354D01*
X50115295Y-54902355D01*
X49990571Y-54945998D01*
X49934023Y-54942823D01*
X49913804Y-54928477D01*
X49021674Y-54036347D01*
X49000000Y-53984021D01*
X49000000Y-48170734D01*
X53924500Y-48170734D01*
X53924500Y-48904266D01*
X53927354Y-48934699D01*
X53927354Y-48934701D01*
X53927355Y-48934704D01*
X53972206Y-49062881D01*
X53972207Y-49062883D01*
X54052846Y-49172146D01*
X54052853Y-49172153D01*
X54162116Y-49252792D01*
X54162118Y-49252793D01*
X54290295Y-49297644D01*
X54290301Y-49297646D01*
X54320734Y-49300500D01*
X55272021Y-49300500D01*
X55324347Y-49322174D01*
X56190326Y-50188153D01*
X56212000Y-50240479D01*
X56212000Y-51028017D01*
X56190326Y-51080343D01*
X56138000Y-51102017D01*
X56085674Y-51080343D01*
X56068153Y-51052458D01*
X56027793Y-50937118D01*
X56027792Y-50937116D01*
X55947153Y-50827853D01*
X55947146Y-50827846D01*
X55837883Y-50747207D01*
X55837881Y-50747206D01*
X55709704Y-50702355D01*
X55709705Y-50702355D01*
X55709700Y-50702354D01*
X55709699Y-50702354D01*
X55679266Y-50699500D01*
X54320734Y-50699500D01*
X54290301Y-50702354D01*
X54290299Y-50702354D01*
X54290295Y-50702355D01*
X54162118Y-50747206D01*
X54162116Y-50747207D01*
X54052853Y-50827846D01*
X54052846Y-50827853D01*
X53972207Y-50937116D01*
X53972206Y-50937118D01*
X53927355Y-51065295D01*
X53927354Y-51065299D01*
X53927354Y-51065301D01*
X53924500Y-51095734D01*
X53924500Y-51829266D01*
X53927354Y-51859699D01*
X53927354Y-51859701D01*
X53927355Y-51859704D01*
X53972206Y-51987881D01*
X53972207Y-51987883D01*
X54052846Y-52097146D01*
X54052853Y-52097153D01*
X54162116Y-52177792D01*
X54162118Y-52177793D01*
X54290295Y-52222644D01*
X54290301Y-52222646D01*
X54320734Y-52225500D01*
X54320741Y-52225500D01*
X55679258Y-52225500D01*
X55679266Y-52225500D01*
X55709699Y-52222646D01*
X55837882Y-52177793D01*
X55947150Y-52097150D01*
X56027793Y-51987882D01*
X56051385Y-51920459D01*
X56068153Y-51872541D01*
X56105893Y-51830310D01*
X56162441Y-51827135D01*
X56204672Y-51864875D01*
X56212000Y-51896982D01*
X56212000Y-52853245D01*
X56190326Y-52905571D01*
X56144913Y-52926921D01*
X56140301Y-52927353D01*
X56140295Y-52927355D01*
X56012118Y-52972206D01*
X56012116Y-52972207D01*
X55902853Y-53052846D01*
X55902846Y-53052853D01*
X55822207Y-53162116D01*
X55822206Y-53162118D01*
X55777355Y-53290295D01*
X55777354Y-53290299D01*
X55777354Y-53290301D01*
X55774500Y-53320734D01*
X55774500Y-54679266D01*
X55777354Y-54709699D01*
X55777354Y-54709701D01*
X55777355Y-54709704D01*
X55822206Y-54837881D01*
X55822207Y-54837883D01*
X55902846Y-54947146D01*
X55902853Y-54947153D01*
X56012116Y-55027792D01*
X56012118Y-55027793D01*
X56140295Y-55072644D01*
X56140301Y-55072646D01*
X56170734Y-55075500D01*
X56170741Y-55075500D01*
X56904258Y-55075500D01*
X56904266Y-55075500D01*
X56934699Y-55072646D01*
X57062882Y-55027793D01*
X57172150Y-54947150D01*
X57252793Y-54837882D01*
X57297646Y-54709699D01*
X57300500Y-54679266D01*
X57300500Y-53320734D01*
X57297646Y-53290301D01*
X57252793Y-53162118D01*
X57252792Y-53162116D01*
X57172153Y-53052853D01*
X57172146Y-53052846D01*
X57062883Y-52972207D01*
X57062881Y-52972206D01*
X56934704Y-52927355D01*
X56934698Y-52927353D01*
X56930087Y-52926921D01*
X56880015Y-52900454D01*
X56863000Y-52853245D01*
X56863000Y-50240479D01*
X56884674Y-50188153D01*
X65455653Y-41617174D01*
X65507979Y-41595500D01*
X66350589Y-41595500D01*
X66402915Y-41617174D01*
X66410784Y-41626465D01*
X66410802Y-41626483D01*
X66493517Y-41709198D01*
X66598607Y-41760573D01*
X66666740Y-41770500D01*
X66666746Y-41770500D01*
X68383254Y-41770500D01*
X68383260Y-41770500D01*
X68451393Y-41760573D01*
X68556483Y-41709198D01*
X68639198Y-41626483D01*
X68690573Y-41521393D01*
X68700500Y-41453260D01*
X68700500Y-41086740D01*
X68690573Y-41018607D01*
X68639198Y-40913517D01*
X68556483Y-40830802D01*
X68556482Y-40830801D01*
X68451394Y-40779427D01*
X68383264Y-40769500D01*
X68383260Y-40769500D01*
X66666740Y-40769500D01*
X66666735Y-40769500D01*
X66598606Y-40779427D01*
X66598605Y-40779427D01*
X66493517Y-40830801D01*
X66406466Y-40917853D01*
X66405457Y-40916844D01*
X66362766Y-40943491D01*
X66350589Y-40944500D01*
X65299645Y-40944500D01*
X65216866Y-40966680D01*
X65216860Y-40966683D01*
X65142637Y-41009535D01*
X56589826Y-49562347D01*
X56537500Y-49584021D01*
X56485174Y-49562347D01*
X56049762Y-49126935D01*
X56028088Y-49074609D01*
X56032241Y-49050169D01*
X56072646Y-48934699D01*
X56075500Y-48904266D01*
X56075500Y-48170734D01*
X56072646Y-48140301D01*
X56027793Y-48012118D01*
X56027792Y-48012116D01*
X55947153Y-47902853D01*
X55947146Y-47902846D01*
X55837883Y-47822207D01*
X55837881Y-47822206D01*
X55709704Y-47777355D01*
X55709705Y-47777355D01*
X55709700Y-47777354D01*
X55709699Y-47777354D01*
X55679266Y-47774500D01*
X54320734Y-47774500D01*
X54290301Y-47777354D01*
X54290299Y-47777354D01*
X54290295Y-47777355D01*
X54162118Y-47822206D01*
X54162116Y-47822207D01*
X54052853Y-47902846D01*
X54052846Y-47902853D01*
X53972207Y-48012116D01*
X53972206Y-48012118D01*
X53927355Y-48140295D01*
X53927354Y-48140299D01*
X53927354Y-48140301D01*
X53924500Y-48170734D01*
X49000000Y-48170734D01*
X49000000Y-38784105D01*
X63435100Y-38784105D01*
X63435100Y-38915894D01*
X63469206Y-39043181D01*
X63469210Y-39043190D01*
X63515368Y-39123138D01*
X63535100Y-39157314D01*
X63628286Y-39250500D01*
X63742414Y-39316392D01*
X63869705Y-39350499D01*
X63869706Y-39350500D01*
X63869708Y-39350500D01*
X64001494Y-39350500D01*
X64001494Y-39350499D01*
X64128786Y-39316392D01*
X64242914Y-39250500D01*
X64336100Y-39157314D01*
X64401992Y-39043186D01*
X64436099Y-38915894D01*
X64436100Y-38915894D01*
X64436100Y-38840479D01*
X64457774Y-38788153D01*
X65438753Y-37807174D01*
X65491079Y-37785500D01*
X66350589Y-37785500D01*
X66402915Y-37807174D01*
X66410784Y-37816465D01*
X66410802Y-37816483D01*
X66493517Y-37899198D01*
X66598607Y-37950573D01*
X66666740Y-37960500D01*
X66666746Y-37960500D01*
X68383254Y-37960500D01*
X68383260Y-37960500D01*
X68451393Y-37950573D01*
X68556483Y-37899198D01*
X68639198Y-37816483D01*
X68690573Y-37711393D01*
X68700500Y-37643260D01*
X68700500Y-37276740D01*
X68690573Y-37208607D01*
X68639198Y-37103517D01*
X68556483Y-37020802D01*
X68556482Y-37020801D01*
X68451394Y-36969427D01*
X68383264Y-36959500D01*
X68383260Y-36959500D01*
X67924500Y-36959500D01*
X67872174Y-36937826D01*
X67850500Y-36885500D01*
X67850500Y-36764500D01*
X67872174Y-36712174D01*
X67924500Y-36690500D01*
X68383254Y-36690500D01*
X68383260Y-36690500D01*
X68451393Y-36680573D01*
X68556483Y-36629198D01*
X68639198Y-36546483D01*
X68690573Y-36441393D01*
X68700500Y-36373260D01*
X68700500Y-36006740D01*
X68690573Y-35938607D01*
X68639198Y-35833517D01*
X68556483Y-35750802D01*
X68556482Y-35750801D01*
X68451394Y-35699427D01*
X68383264Y-35689500D01*
X68383260Y-35689500D01*
X66666740Y-35689500D01*
X66666735Y-35689500D01*
X66598606Y-35699427D01*
X66598605Y-35699427D01*
X66493517Y-35750801D01*
X66410801Y-35833517D01*
X66359427Y-35938605D01*
X66359427Y-35938606D01*
X66349500Y-36006735D01*
X66349500Y-36373264D01*
X66359427Y-36441393D01*
X66359427Y-36441394D01*
X66410801Y-36546482D01*
X66410802Y-36546483D01*
X66493517Y-36629198D01*
X66598607Y-36680573D01*
X66666740Y-36690500D01*
X67125500Y-36690500D01*
X67177826Y-36712174D01*
X67199500Y-36764500D01*
X67199500Y-36885500D01*
X67177826Y-36937826D01*
X67125500Y-36959500D01*
X66666735Y-36959500D01*
X66598606Y-36969427D01*
X66598605Y-36969427D01*
X66493517Y-37020801D01*
X66406466Y-37107853D01*
X66405457Y-37106844D01*
X66362766Y-37133491D01*
X66350589Y-37134500D01*
X65368453Y-37134500D01*
X65282747Y-37134500D01*
X65199961Y-37156682D01*
X65199960Y-37156682D01*
X65199958Y-37156683D01*
X65199956Y-37156684D01*
X65125741Y-37199532D01*
X63997447Y-38327826D01*
X63945121Y-38349500D01*
X63869706Y-38349500D01*
X63742418Y-38383606D01*
X63742409Y-38383610D01*
X63628285Y-38449500D01*
X63535100Y-38542685D01*
X63469210Y-38656809D01*
X63469206Y-38656818D01*
X63435100Y-38784105D01*
X49000000Y-38784105D01*
X49000000Y-32487347D01*
X52144300Y-32487347D01*
X52144300Y-32573053D01*
X52166482Y-32655839D01*
X52166483Y-32655841D01*
X52166484Y-32655843D01*
X52209332Y-32730058D01*
X52209333Y-32730059D01*
X52209335Y-32730062D01*
X52269938Y-32790665D01*
X52344161Y-32833518D01*
X52426947Y-32855700D01*
X52426949Y-32855700D01*
X52512651Y-32855700D01*
X52512653Y-32855700D01*
X52595439Y-32833518D01*
X52669662Y-32790665D01*
X53374364Y-32085960D01*
X53426689Y-32064287D01*
X53460281Y-32072352D01*
X53539168Y-32112547D01*
X53539170Y-32112547D01*
X53539173Y-32112549D01*
X53718871Y-32170937D01*
X53718877Y-32170938D01*
X53718882Y-32170940D01*
X53843306Y-32190646D01*
X53905518Y-32200500D01*
X53905519Y-32200500D01*
X54094482Y-32200500D01*
X54141140Y-32193110D01*
X54281118Y-32170940D01*
X54281125Y-32170937D01*
X54281128Y-32170937D01*
X54460824Y-32112550D01*
X54460826Y-32112548D01*
X54460832Y-32112547D01*
X54629199Y-32026760D01*
X54782073Y-31915690D01*
X54915690Y-31782073D01*
X55026760Y-31629199D01*
X55112547Y-31460832D01*
X55164643Y-31300500D01*
X55170937Y-31281128D01*
X55170937Y-31281125D01*
X55170940Y-31281118D01*
X55200500Y-31094481D01*
X55200500Y-30905519D01*
X55200300Y-30904259D01*
X55170940Y-30718884D01*
X55170937Y-30718871D01*
X55112550Y-30539175D01*
X55112547Y-30539171D01*
X55112547Y-30539168D01*
X55026760Y-30370801D01*
X54958633Y-30277032D01*
X54915693Y-30217931D01*
X54915692Y-30217930D01*
X54915690Y-30217927D01*
X54782073Y-30084310D01*
X54782070Y-30084307D01*
X54782068Y-30084306D01*
X54629198Y-29973239D01*
X54460824Y-29887449D01*
X54281128Y-29829062D01*
X54281115Y-29829059D01*
X54094482Y-29799500D01*
X54094481Y-29799500D01*
X53905519Y-29799500D01*
X53905518Y-29799500D01*
X53718884Y-29829059D01*
X53718871Y-29829062D01*
X53539175Y-29887449D01*
X53370801Y-29973239D01*
X53217931Y-30084306D01*
X53084306Y-30217931D01*
X52973239Y-30370801D01*
X52887449Y-30539175D01*
X52829062Y-30718871D01*
X52829059Y-30718884D01*
X52799500Y-30905518D01*
X52799500Y-31094481D01*
X52829059Y-31281115D01*
X52829062Y-31281128D01*
X52887449Y-31460824D01*
X52927646Y-31539715D01*
X52932089Y-31596178D01*
X52914037Y-31625636D01*
X52209332Y-32330341D01*
X52166484Y-32404556D01*
X52166483Y-32404558D01*
X52166482Y-32404560D01*
X52166482Y-32404561D01*
X52144300Y-32487347D01*
X49000000Y-32487347D01*
X49000000Y-23974500D01*
X49021674Y-23922174D01*
X49074000Y-23900500D01*
X53393520Y-23900500D01*
X53393520Y-23900499D01*
X53501737Y-23871503D01*
X53598763Y-23815485D01*
X53942074Y-23472174D01*
X53994400Y-23450500D01*
X54408254Y-23450500D01*
X54408260Y-23450500D01*
X54476393Y-23440573D01*
X54581483Y-23389198D01*
X54664198Y-23306483D01*
X54682621Y-23268795D01*
X54696773Y-23248973D01*
X55148174Y-22797571D01*
X55200500Y-22775898D01*
X55252826Y-22797572D01*
X55274500Y-22849898D01*
X55274500Y-23133264D01*
X55284427Y-23201393D01*
X55284427Y-23201394D01*
X55335801Y-23306482D01*
X55335802Y-23306483D01*
X55418517Y-23389198D01*
X55523607Y-23440573D01*
X55591740Y-23450500D01*
X55591746Y-23450500D01*
X56683254Y-23450500D01*
X56683260Y-23450500D01*
X56751393Y-23440573D01*
X56856483Y-23389198D01*
X56939198Y-23306483D01*
X56990573Y-23201393D01*
X57000500Y-23133260D01*
X57000500Y-22766740D01*
X56990573Y-22698607D01*
X56990572Y-22698605D01*
X56989744Y-22692920D01*
X56993138Y-22692425D01*
X56997357Y-22647161D01*
X57040948Y-22611001D01*
X57097341Y-22616257D01*
X57115127Y-22629375D01*
X58301237Y-23815485D01*
X58398263Y-23871503D01*
X58506479Y-23900499D01*
X58506480Y-23900500D01*
X58506482Y-23900500D01*
X58618518Y-23900500D01*
X61855377Y-23900500D01*
X61907703Y-23922174D01*
X61925224Y-23950060D01*
X61947205Y-24012880D01*
X61947207Y-24012883D01*
X62027846Y-24122146D01*
X62027853Y-24122153D01*
X62137116Y-24202792D01*
X62137118Y-24202793D01*
X62265295Y-24247644D01*
X62265301Y-24247646D01*
X62295734Y-24250500D01*
X62295741Y-24250500D01*
X63704258Y-24250500D01*
X63704266Y-24250500D01*
X63734699Y-24247646D01*
X63862882Y-24202793D01*
X63972150Y-24122150D01*
X64052793Y-24012882D01*
X64097646Y-23884699D01*
X64100500Y-23854266D01*
X64100500Y-23562000D01*
X64122174Y-23509674D01*
X64174500Y-23488000D01*
X69208212Y-23488000D01*
X69260538Y-23509674D01*
X69274146Y-23528403D01*
X69275342Y-23530751D01*
X69369250Y-23624659D01*
X69428414Y-23654804D01*
X69487579Y-23684950D01*
X69487579Y-23684951D01*
X69585753Y-23700500D01*
X69585754Y-23700500D01*
X70414246Y-23700500D01*
X70474124Y-23691016D01*
X70529196Y-23704237D01*
X70558789Y-23752528D01*
X70559700Y-23764105D01*
X70559700Y-36809900D01*
X70538026Y-36862226D01*
X68824247Y-38576004D01*
X68771921Y-38597678D01*
X68719595Y-38576004D01*
X68698694Y-38534347D01*
X68690573Y-38478607D01*
X68639198Y-38373517D01*
X68556483Y-38290802D01*
X68556482Y-38290801D01*
X68451394Y-38239427D01*
X68383264Y-38229500D01*
X68383260Y-38229500D01*
X66666740Y-38229500D01*
X66666735Y-38229500D01*
X66598606Y-38239427D01*
X66598605Y-38239427D01*
X66493517Y-38290801D01*
X66406466Y-38377853D01*
X66405457Y-38376844D01*
X66405370Y-38376898D01*
X66402915Y-38382826D01*
X66381983Y-38391496D01*
X66362766Y-38403491D01*
X66350589Y-38404500D01*
X66304543Y-38404500D01*
X66267543Y-38394586D01*
X66180290Y-38344210D01*
X66180281Y-38344206D01*
X66052994Y-38310100D01*
X66052992Y-38310100D01*
X65921208Y-38310100D01*
X65921206Y-38310100D01*
X65793918Y-38344206D01*
X65793909Y-38344210D01*
X65679785Y-38410100D01*
X65586600Y-38503285D01*
X65520710Y-38617409D01*
X65520706Y-38617418D01*
X65486600Y-38744705D01*
X65486600Y-38876494D01*
X65520706Y-39003781D01*
X65520710Y-39003790D01*
X65554827Y-39062882D01*
X65586600Y-39117914D01*
X65679786Y-39211100D01*
X65793914Y-39276992D01*
X65921205Y-39311099D01*
X65921206Y-39311100D01*
X65921208Y-39311100D01*
X66052994Y-39311100D01*
X66052994Y-39311099D01*
X66180286Y-39276992D01*
X66294414Y-39211100D01*
X66362591Y-39142922D01*
X66414915Y-39121249D01*
X66467242Y-39142923D01*
X66493517Y-39169198D01*
X66598607Y-39220573D01*
X66666740Y-39230500D01*
X67991100Y-39230500D01*
X68043426Y-39252174D01*
X68065100Y-39304500D01*
X68043426Y-39356826D01*
X67922426Y-39477826D01*
X67870100Y-39499500D01*
X66666735Y-39499500D01*
X66598606Y-39509427D01*
X66598605Y-39509427D01*
X66488008Y-39563495D01*
X66487598Y-39562656D01*
X66450625Y-39574500D01*
X59418980Y-39574500D01*
X59310767Y-39603495D01*
X59310758Y-39603499D01*
X59213736Y-39659515D01*
X58195426Y-40677826D01*
X58143100Y-40699500D01*
X57295734Y-40699500D01*
X57265301Y-40702354D01*
X57265299Y-40702354D01*
X57265295Y-40702355D01*
X57137118Y-40747206D01*
X57137116Y-40747207D01*
X57027853Y-40827846D01*
X57027846Y-40827853D01*
X56947207Y-40937116D01*
X56947206Y-40937118D01*
X56902355Y-41065295D01*
X56902355Y-41065297D01*
X56902354Y-41065301D01*
X56899500Y-41095734D01*
X56899500Y-41854266D01*
X56902354Y-41884699D01*
X56902354Y-41884701D01*
X56902355Y-41884704D01*
X56947206Y-42012881D01*
X56947207Y-42012883D01*
X57027846Y-42122146D01*
X57027852Y-42122152D01*
X57137116Y-42202792D01*
X57137118Y-42202793D01*
X57265295Y-42247644D01*
X57265301Y-42247646D01*
X57295734Y-42250500D01*
X57295741Y-42250500D01*
X58704258Y-42250500D01*
X58704266Y-42250500D01*
X58734699Y-42247646D01*
X58862882Y-42202793D01*
X58919175Y-42161247D01*
X58972148Y-42122152D01*
X58972153Y-42122146D01*
X58987906Y-42100801D01*
X59052793Y-42012882D01*
X59097646Y-41884699D01*
X59100500Y-41854266D01*
X59100500Y-41095734D01*
X59097646Y-41065301D01*
X59090659Y-41045333D01*
X59093834Y-40988786D01*
X59108177Y-40968569D01*
X59629574Y-40447174D01*
X59681900Y-40425500D01*
X66450625Y-40425500D01*
X66487598Y-40437343D01*
X66488008Y-40436505D01*
X66509832Y-40447174D01*
X66598607Y-40490573D01*
X66666740Y-40500500D01*
X66666746Y-40500500D01*
X68383254Y-40500500D01*
X68383260Y-40500500D01*
X68451393Y-40490573D01*
X68556483Y-40439198D01*
X68639198Y-40356483D01*
X68690573Y-40251393D01*
X68700500Y-40183260D01*
X68700500Y-39933900D01*
X68722174Y-39881574D01*
X71173174Y-37430574D01*
X71225500Y-37408900D01*
X71277826Y-37430574D01*
X71299500Y-37482900D01*
X71299500Y-37643264D01*
X71309427Y-37711393D01*
X71309427Y-37711394D01*
X71360801Y-37816482D01*
X71360802Y-37816483D01*
X71443517Y-37899198D01*
X71548607Y-37950573D01*
X71616740Y-37960500D01*
X71616746Y-37960500D01*
X73333254Y-37960500D01*
X73333260Y-37960500D01*
X73401393Y-37950573D01*
X73401395Y-37950571D01*
X73403830Y-37950217D01*
X73458734Y-37964120D01*
X73487727Y-38012774D01*
X73488500Y-38023444D01*
X73488500Y-38832021D01*
X73466826Y-38884347D01*
X73333347Y-39017826D01*
X73281021Y-39039500D01*
X71526453Y-39039500D01*
X71440747Y-39039500D01*
X71357961Y-39061682D01*
X71357960Y-39061682D01*
X71357958Y-39061683D01*
X71357956Y-39061684D01*
X71283741Y-39104532D01*
X69699732Y-40688541D01*
X69656884Y-40762756D01*
X69656883Y-40762758D01*
X69656882Y-40762760D01*
X69656882Y-40762761D01*
X69642406Y-40816791D01*
X69642269Y-40817301D01*
X69642268Y-40817301D01*
X69634700Y-40845544D01*
X69634700Y-43123120D01*
X69613026Y-43175446D01*
X68826826Y-43961646D01*
X68774500Y-43983320D01*
X68722174Y-43961646D01*
X68700500Y-43909320D01*
X68700500Y-43626746D01*
X68700500Y-43626740D01*
X68690573Y-43558607D01*
X68639198Y-43453517D01*
X68556483Y-43370802D01*
X68556482Y-43370801D01*
X68451394Y-43319427D01*
X68383264Y-43309500D01*
X68383260Y-43309500D01*
X67924500Y-43309500D01*
X67872174Y-43287826D01*
X67850500Y-43235500D01*
X67850500Y-43114500D01*
X67872174Y-43062174D01*
X67924500Y-43040500D01*
X68383254Y-43040500D01*
X68383260Y-43040500D01*
X68451393Y-43030573D01*
X68556483Y-42979198D01*
X68639198Y-42896483D01*
X68690573Y-42791393D01*
X68700500Y-42723260D01*
X68700500Y-42356740D01*
X68690573Y-42288607D01*
X68639198Y-42183517D01*
X68556483Y-42100802D01*
X68556482Y-42100801D01*
X68451394Y-42049427D01*
X68383264Y-42039500D01*
X68383260Y-42039500D01*
X66666740Y-42039500D01*
X66666735Y-42039500D01*
X66598606Y-42049427D01*
X66598605Y-42049427D01*
X66493517Y-42100801D01*
X66410801Y-42183517D01*
X66359427Y-42288605D01*
X66359427Y-42288606D01*
X66349500Y-42356735D01*
X66349500Y-42723264D01*
X66359427Y-42791393D01*
X66359427Y-42791394D01*
X66410801Y-42896482D01*
X66410802Y-42896483D01*
X66493517Y-42979198D01*
X66598607Y-43030573D01*
X66666740Y-43040500D01*
X67125500Y-43040500D01*
X67177826Y-43062174D01*
X67199500Y-43114500D01*
X67199500Y-43235500D01*
X67177826Y-43287826D01*
X67125500Y-43309500D01*
X66666735Y-43309500D01*
X66598606Y-43319427D01*
X66598605Y-43319427D01*
X66493517Y-43370801D01*
X66410801Y-43453517D01*
X66359427Y-43558605D01*
X66359427Y-43558606D01*
X66349500Y-43626735D01*
X66349500Y-43993264D01*
X66359427Y-44061393D01*
X66359427Y-44061394D01*
X66410801Y-44166482D01*
X66493517Y-44249198D01*
X66498506Y-44252760D01*
X66496545Y-44255505D01*
X66526530Y-44289481D01*
X66523003Y-44346008D01*
X66508858Y-44365813D01*
X62277032Y-48597641D01*
X62234181Y-48671861D01*
X62234182Y-48671862D01*
X62212000Y-48754647D01*
X62212000Y-52853245D01*
X62190326Y-52905571D01*
X62144913Y-52926921D01*
X62140301Y-52927353D01*
X62140295Y-52927355D01*
X62012118Y-52972206D01*
X62012116Y-52972207D01*
X61902853Y-53052846D01*
X61902846Y-53052853D01*
X61822207Y-53162116D01*
X61822206Y-53162118D01*
X61777355Y-53290295D01*
X61777354Y-53290299D01*
X61777354Y-53290301D01*
X61774500Y-53320734D01*
X61774500Y-54679266D01*
X61777354Y-54709699D01*
X61777354Y-54709701D01*
X61777355Y-54709704D01*
X61822206Y-54837881D01*
X61822207Y-54837883D01*
X61902846Y-54947146D01*
X61902853Y-54947153D01*
X62012116Y-55027792D01*
X62012118Y-55027793D01*
X62140295Y-55072644D01*
X62140301Y-55072646D01*
X62170734Y-55075500D01*
X62170741Y-55075500D01*
X62904258Y-55075500D01*
X62904266Y-55075500D01*
X62934699Y-55072646D01*
X63062882Y-55027793D01*
X63172150Y-54947150D01*
X63252793Y-54837882D01*
X63297646Y-54709699D01*
X63300500Y-54679266D01*
X63300500Y-53320734D01*
X63297646Y-53290301D01*
X63252793Y-53162118D01*
X63252792Y-53162116D01*
X63172153Y-53052853D01*
X63172146Y-53052846D01*
X63062883Y-52972207D01*
X63062881Y-52972206D01*
X62934704Y-52927355D01*
X62934698Y-52927353D01*
X62930087Y-52926921D01*
X62880015Y-52900454D01*
X62863000Y-52853245D01*
X62863000Y-48962979D01*
X62884674Y-48910653D01*
X67463153Y-44332174D01*
X67515479Y-44310500D01*
X68299320Y-44310500D01*
X68351646Y-44332174D01*
X68373320Y-44384500D01*
X68351646Y-44436826D01*
X65202032Y-47586441D01*
X65159181Y-47660661D01*
X65159182Y-47660662D01*
X65137000Y-47743447D01*
X65137000Y-52853245D01*
X65115326Y-52905571D01*
X65069913Y-52926921D01*
X65065301Y-52927353D01*
X65065295Y-52927355D01*
X64937118Y-52972206D01*
X64937116Y-52972207D01*
X64827853Y-53052846D01*
X64827846Y-53052853D01*
X64747207Y-53162116D01*
X64747206Y-53162118D01*
X64702355Y-53290295D01*
X64702354Y-53290299D01*
X64702354Y-53290301D01*
X64699500Y-53320734D01*
X64699500Y-54679266D01*
X64702354Y-54709699D01*
X64702354Y-54709701D01*
X64702355Y-54709704D01*
X64747206Y-54837881D01*
X64747207Y-54837883D01*
X64827846Y-54947146D01*
X64827853Y-54947153D01*
X64937116Y-55027792D01*
X64937118Y-55027793D01*
X65065295Y-55072644D01*
X65065301Y-55072646D01*
X65095734Y-55075500D01*
X65095741Y-55075500D01*
X65829258Y-55075500D01*
X65829266Y-55075500D01*
X65859699Y-55072646D01*
X65987882Y-55027793D01*
X66097150Y-54947150D01*
X66177793Y-54837882D01*
X66222646Y-54709699D01*
X66225500Y-54679266D01*
X66225500Y-53320734D01*
X66222646Y-53290301D01*
X66177793Y-53162118D01*
X66177792Y-53162116D01*
X66097153Y-53052853D01*
X66097146Y-53052846D01*
X65987883Y-52972207D01*
X65987881Y-52972206D01*
X65859704Y-52927355D01*
X65859698Y-52927353D01*
X65855087Y-52926921D01*
X65805015Y-52900454D01*
X65788000Y-52853245D01*
X65788000Y-51095734D01*
X66924500Y-51095734D01*
X66924500Y-51829266D01*
X66927354Y-51859699D01*
X66927354Y-51859701D01*
X66927355Y-51859704D01*
X66972206Y-51987881D01*
X66972207Y-51987883D01*
X67052846Y-52097146D01*
X67052853Y-52097153D01*
X67162116Y-52177792D01*
X67162118Y-52177793D01*
X67290295Y-52222644D01*
X67290301Y-52222646D01*
X67320734Y-52225500D01*
X67320741Y-52225500D01*
X68679258Y-52225500D01*
X68679266Y-52225500D01*
X68709699Y-52222646D01*
X68837882Y-52177793D01*
X68947150Y-52097150D01*
X69027793Y-51987882D01*
X69072646Y-51859699D01*
X69075500Y-51829266D01*
X69075500Y-51095734D01*
X69072646Y-51065301D01*
X69027793Y-50937118D01*
X69018378Y-50924361D01*
X68947153Y-50827853D01*
X68947146Y-50827846D01*
X68837883Y-50747207D01*
X68837881Y-50747206D01*
X68709704Y-50702355D01*
X68709705Y-50702355D01*
X68709700Y-50702354D01*
X68709699Y-50702354D01*
X68679266Y-50699500D01*
X67320734Y-50699500D01*
X67290301Y-50702354D01*
X67290299Y-50702354D01*
X67290295Y-50702355D01*
X67162118Y-50747206D01*
X67162116Y-50747207D01*
X67052853Y-50827846D01*
X67052846Y-50827853D01*
X66972207Y-50937116D01*
X66972206Y-50937118D01*
X66927355Y-51065295D01*
X66927354Y-51065299D01*
X66927354Y-51065301D01*
X66924500Y-51095734D01*
X65788000Y-51095734D01*
X65788000Y-48170734D01*
X66924500Y-48170734D01*
X66924500Y-48904266D01*
X66927354Y-48934699D01*
X66927354Y-48934701D01*
X66927355Y-48934704D01*
X66972206Y-49062881D01*
X66972207Y-49062883D01*
X67052846Y-49172146D01*
X67052853Y-49172153D01*
X67162116Y-49252792D01*
X67162118Y-49252793D01*
X67290295Y-49297644D01*
X67290301Y-49297646D01*
X67320734Y-49300500D01*
X67320741Y-49300500D01*
X68679258Y-49300500D01*
X68679266Y-49300500D01*
X68709699Y-49297646D01*
X68837882Y-49252793D01*
X68947150Y-49172150D01*
X69027793Y-49062882D01*
X69072646Y-48934699D01*
X69072715Y-48933954D01*
X69073079Y-48930087D01*
X69099546Y-48880015D01*
X69146755Y-48863000D01*
X70909521Y-48863000D01*
X70961847Y-48884674D01*
X71961877Y-49884704D01*
X72950237Y-50873063D01*
X72971911Y-50925389D01*
X72967758Y-50949830D01*
X72927355Y-51065295D01*
X72927354Y-51065299D01*
X72927354Y-51065301D01*
X72924500Y-51095734D01*
X72924500Y-51829266D01*
X72927354Y-51859699D01*
X72927354Y-51859701D01*
X72927355Y-51859704D01*
X72972206Y-51987881D01*
X72972207Y-51987883D01*
X73052846Y-52097146D01*
X73052853Y-52097153D01*
X73162116Y-52177792D01*
X73162118Y-52177793D01*
X73290295Y-52222644D01*
X73290301Y-52222646D01*
X73320734Y-52225500D01*
X73320741Y-52225500D01*
X74679258Y-52225500D01*
X74679266Y-52225500D01*
X74709699Y-52222646D01*
X74837882Y-52177793D01*
X74947150Y-52097150D01*
X75027793Y-51987882D01*
X75072646Y-51859699D01*
X75075500Y-51829266D01*
X75075500Y-51095734D01*
X75072646Y-51065301D01*
X75032241Y-50949829D01*
X75035416Y-50893282D01*
X75049759Y-50873066D01*
X77917252Y-48005574D01*
X77969578Y-47983900D01*
X78877787Y-47983900D01*
X78930113Y-48005574D01*
X78951787Y-48057900D01*
X78947634Y-48082340D01*
X78927355Y-48140292D01*
X78927355Y-48140294D01*
X78927354Y-48140299D01*
X78927354Y-48140301D01*
X78924500Y-48170734D01*
X78924500Y-48904266D01*
X78927132Y-48932327D01*
X78927355Y-48934705D01*
X78927355Y-48934707D01*
X78967757Y-49050169D01*
X78964582Y-49106717D01*
X78950236Y-49126935D01*
X78552033Y-49525138D01*
X78509181Y-49599361D01*
X78509182Y-49599362D01*
X78487000Y-49682147D01*
X78487000Y-52178921D01*
X78465326Y-52231247D01*
X77739532Y-52957041D01*
X77696684Y-53031256D01*
X77696683Y-53031258D01*
X77696682Y-53031260D01*
X77696682Y-53031261D01*
X77674500Y-53114047D01*
X77674500Y-53114049D01*
X77674500Y-60475500D01*
X77652826Y-60527826D01*
X77600500Y-60549500D01*
X76945734Y-60549500D01*
X76915301Y-60552354D01*
X76915299Y-60552354D01*
X76915295Y-60552355D01*
X76787118Y-60597206D01*
X76787116Y-60597207D01*
X76677853Y-60677846D01*
X76677846Y-60677853D01*
X76597207Y-60787116D01*
X76597206Y-60787118D01*
X76552355Y-60915295D01*
X76552354Y-60915299D01*
X76552354Y-60915301D01*
X76549500Y-60945734D01*
X76549500Y-63054266D01*
X76552354Y-63084699D01*
X76552354Y-63084701D01*
X76552355Y-63084704D01*
X76597206Y-63212881D01*
X76597207Y-63212883D01*
X76677846Y-63322146D01*
X76677853Y-63322153D01*
X76787116Y-63402792D01*
X76787118Y-63402793D01*
X76915295Y-63447644D01*
X76915301Y-63447646D01*
X76945734Y-63450500D01*
X76945741Y-63450500D01*
X79054258Y-63450500D01*
X79054266Y-63450500D01*
X79084699Y-63447646D01*
X79212882Y-63402793D01*
X79322150Y-63322150D01*
X79402793Y-63212882D01*
X79447646Y-63084699D01*
X79450500Y-63054266D01*
X79450500Y-60945734D01*
X79447646Y-60915301D01*
X79402793Y-60787118D01*
X79366072Y-60737362D01*
X79322153Y-60677853D01*
X79322146Y-60677846D01*
X79212883Y-60597207D01*
X79212881Y-60597206D01*
X79084704Y-60552355D01*
X79084705Y-60552355D01*
X79084700Y-60552354D01*
X79084699Y-60552354D01*
X79054266Y-60549500D01*
X79054260Y-60549500D01*
X78399500Y-60549500D01*
X78347174Y-60527826D01*
X78325500Y-60475500D01*
X78325500Y-53322378D01*
X78347174Y-53270052D01*
X78925652Y-52691574D01*
X78977978Y-52669900D01*
X85173451Y-52669900D01*
X85173453Y-52669900D01*
X85256239Y-52647718D01*
X85330462Y-52604865D01*
X85663153Y-52272174D01*
X85715479Y-52250500D01*
X86704258Y-52250500D01*
X86704266Y-52250500D01*
X86734699Y-52247646D01*
X86862882Y-52202793D01*
X86972150Y-52122150D01*
X87052793Y-52012882D01*
X87097646Y-51884699D01*
X87100500Y-51854266D01*
X87100500Y-51449500D01*
X87122174Y-51397174D01*
X87174500Y-51375500D01*
X91559350Y-51375500D01*
X91611676Y-51397174D01*
X91626418Y-51418229D01*
X91627149Y-51419798D01*
X91627150Y-51419799D01*
X91705201Y-51497850D01*
X91805240Y-51544499D01*
X91850821Y-51550500D01*
X92149178Y-51550499D01*
X92194760Y-51544499D01*
X92294799Y-51497850D01*
X92372850Y-51419799D01*
X92419499Y-51319760D01*
X92425500Y-51274179D01*
X92425499Y-50825822D01*
X92419499Y-50780240D01*
X92372850Y-50680201D01*
X92294799Y-50602150D01*
X92194760Y-50555501D01*
X92194758Y-50555500D01*
X92161179Y-50551079D01*
X92149179Y-50549500D01*
X92149177Y-50549500D01*
X91850822Y-50549500D01*
X91805241Y-50555500D01*
X91805239Y-50555501D01*
X91705200Y-50602150D01*
X91627149Y-50680201D01*
X91626418Y-50681771D01*
X91625393Y-50682709D01*
X91623437Y-50685504D01*
X91622817Y-50685070D01*
X91584662Y-50720036D01*
X91559350Y-50724500D01*
X86810562Y-50724500D01*
X86786121Y-50720347D01*
X86734705Y-50702355D01*
X86734701Y-50702354D01*
X86727090Y-50701640D01*
X86704266Y-50699500D01*
X85295734Y-50699500D01*
X85265301Y-50702354D01*
X85265299Y-50702354D01*
X85265295Y-50702355D01*
X85137118Y-50747206D01*
X85137116Y-50747207D01*
X85027853Y-50827846D01*
X85027846Y-50827853D01*
X84947207Y-50937116D01*
X84947206Y-50937118D01*
X84902355Y-51065295D01*
X84902354Y-51065299D01*
X84902354Y-51065301D01*
X84899500Y-51095734D01*
X84899500Y-51854266D01*
X84900495Y-51864875D01*
X84902355Y-51884705D01*
X84902355Y-51884707D01*
X84914866Y-51920460D01*
X84911691Y-51977008D01*
X84869459Y-52014747D01*
X84845019Y-52018900D01*
X81121233Y-52018900D01*
X81068907Y-51997226D01*
X81047233Y-51944900D01*
X81051386Y-51920459D01*
X81072644Y-51859704D01*
X81072643Y-51859704D01*
X81072646Y-51859699D01*
X81075500Y-51829266D01*
X81075500Y-51095734D01*
X81072646Y-51065301D01*
X81032241Y-50949829D01*
X81035416Y-50893281D01*
X81049759Y-50873065D01*
X81383359Y-50539466D01*
X81383362Y-50539465D01*
X81443965Y-50478862D01*
X81465391Y-50441750D01*
X81486818Y-50404639D01*
X81509000Y-50321855D01*
X81509001Y-50321855D01*
X81509001Y-50231618D01*
X81509000Y-50231600D01*
X81509000Y-47974648D01*
X81508999Y-47974642D01*
X81505537Y-47961719D01*
X81486819Y-47891864D01*
X81486817Y-47891859D01*
X81443967Y-47817641D01*
X81443966Y-47817640D01*
X81443965Y-47817638D01*
X81024262Y-47397935D01*
X81024259Y-47397933D01*
X81024258Y-47397932D01*
X80950043Y-47355084D01*
X80950041Y-47355083D01*
X80950040Y-47355082D01*
X80950039Y-47355082D01*
X80867253Y-47332900D01*
X77846953Y-47332900D01*
X77761247Y-47332900D01*
X77678461Y-47355082D01*
X77678460Y-47355082D01*
X77678458Y-47355083D01*
X77678456Y-47355084D01*
X77641349Y-47376507D01*
X77641350Y-47376508D01*
X77604240Y-47397933D01*
X77604237Y-47397935D01*
X77543634Y-47458537D01*
X77543635Y-47458538D01*
X74324347Y-50677826D01*
X74272021Y-50699500D01*
X73727978Y-50699500D01*
X73675652Y-50677826D01*
X72522964Y-49525138D01*
X71274862Y-48277035D01*
X71274859Y-48277033D01*
X71274858Y-48277032D01*
X71200643Y-48234184D01*
X71200641Y-48234183D01*
X71200640Y-48234182D01*
X71200639Y-48234182D01*
X71117853Y-48212000D01*
X71117851Y-48212000D01*
X69146755Y-48212000D01*
X69094429Y-48190326D01*
X69073079Y-48144913D01*
X69072646Y-48140301D01*
X69072644Y-48140295D01*
X69027793Y-48012118D01*
X69027792Y-48012116D01*
X68947153Y-47902853D01*
X68947146Y-47902846D01*
X68837883Y-47822207D01*
X68837881Y-47822206D01*
X68709704Y-47777355D01*
X68709705Y-47777355D01*
X68709700Y-47777354D01*
X68709699Y-47777354D01*
X68679266Y-47774500D01*
X67320734Y-47774500D01*
X67290301Y-47777354D01*
X67290299Y-47777354D01*
X67290295Y-47777355D01*
X67162118Y-47822206D01*
X67162116Y-47822207D01*
X67052853Y-47902846D01*
X67052846Y-47902853D01*
X66972207Y-48012116D01*
X66972206Y-48012118D01*
X66927355Y-48140295D01*
X66927354Y-48140299D01*
X66927354Y-48140301D01*
X66924500Y-48170734D01*
X65788000Y-48170734D01*
X65788000Y-47951779D01*
X65809674Y-47899453D01*
X67983370Y-45725757D01*
X70220665Y-43488462D01*
X70244501Y-43447175D01*
X70263079Y-43414999D01*
X70263518Y-43414238D01*
X70285699Y-43331455D01*
X70285700Y-43331455D01*
X70285700Y-42185347D01*
X70826800Y-42185347D01*
X70826800Y-45646947D01*
X70826800Y-45732653D01*
X70848982Y-45815439D01*
X70848983Y-45815441D01*
X70848984Y-45815443D01*
X70891832Y-45889658D01*
X70891833Y-45889659D01*
X70891835Y-45889662D01*
X71936872Y-46934699D01*
X72950237Y-47948064D01*
X72971911Y-48000390D01*
X72967758Y-48024831D01*
X72927355Y-48140295D01*
X72927354Y-48140299D01*
X72927354Y-48140301D01*
X72924500Y-48170734D01*
X72924500Y-48904266D01*
X72927354Y-48934699D01*
X72927354Y-48934701D01*
X72927355Y-48934704D01*
X72972206Y-49062881D01*
X72972207Y-49062883D01*
X73052846Y-49172146D01*
X73052853Y-49172153D01*
X73162116Y-49252792D01*
X73162118Y-49252793D01*
X73290295Y-49297644D01*
X73290301Y-49297646D01*
X73320734Y-49300500D01*
X73320741Y-49300500D01*
X74679258Y-49300500D01*
X74679266Y-49300500D01*
X74709699Y-49297646D01*
X74837882Y-49252793D01*
X74947150Y-49172150D01*
X75027793Y-49062882D01*
X75072646Y-48934699D01*
X75075500Y-48904266D01*
X75075500Y-48170734D01*
X75072646Y-48140301D01*
X75027793Y-48012118D01*
X75027792Y-48012116D01*
X74947153Y-47902853D01*
X74947146Y-47902846D01*
X74837883Y-47822207D01*
X74837881Y-47822206D01*
X74709704Y-47777355D01*
X74709705Y-47777355D01*
X74709700Y-47777354D01*
X74709699Y-47777354D01*
X74679266Y-47774500D01*
X74679260Y-47774500D01*
X73727979Y-47774500D01*
X73675653Y-47752826D01*
X71499474Y-45576647D01*
X71477800Y-45524321D01*
X71477800Y-44375819D01*
X71499474Y-44323493D01*
X71551800Y-44301819D01*
X71562458Y-44302591D01*
X71616740Y-44310500D01*
X71616746Y-44310500D01*
X73333254Y-44310500D01*
X73333260Y-44310500D01*
X73401393Y-44300573D01*
X73506483Y-44249198D01*
X73589198Y-44166483D01*
X73589198Y-44166482D01*
X73593534Y-44162147D01*
X73594542Y-44163155D01*
X73637234Y-44136509D01*
X73649411Y-44135500D01*
X96182021Y-44135500D01*
X96234347Y-44157174D01*
X100950237Y-48873064D01*
X100971911Y-48925390D01*
X100967758Y-48949831D01*
X100927355Y-49065295D01*
X100927354Y-49065299D01*
X100927354Y-49065301D01*
X100924500Y-49095734D01*
X100924500Y-49829266D01*
X100927354Y-49859699D01*
X100927354Y-49859701D01*
X100927355Y-49859704D01*
X100972206Y-49987881D01*
X100972207Y-49987883D01*
X101052846Y-50097146D01*
X101052853Y-50097153D01*
X101162116Y-50177792D01*
X101162118Y-50177793D01*
X101290295Y-50222644D01*
X101290301Y-50222646D01*
X101320734Y-50225500D01*
X101320741Y-50225500D01*
X102679258Y-50225500D01*
X102679266Y-50225500D01*
X102709699Y-50222646D01*
X102727026Y-50216582D01*
X102761859Y-50204395D01*
X102818407Y-50207570D01*
X102856147Y-50249801D01*
X102860300Y-50274242D01*
X102860300Y-52725757D01*
X102838626Y-52778083D01*
X102786300Y-52799757D01*
X102761860Y-52795605D01*
X102709702Y-52777355D01*
X102709701Y-52777354D01*
X102709699Y-52777354D01*
X102679266Y-52774500D01*
X101320734Y-52774500D01*
X101290301Y-52777354D01*
X101290299Y-52777354D01*
X101290295Y-52777355D01*
X101162118Y-52822206D01*
X101162116Y-52822207D01*
X101052853Y-52902846D01*
X101052846Y-52902853D01*
X100972207Y-53012116D01*
X100972206Y-53012118D01*
X100927355Y-53140295D01*
X100927354Y-53140299D01*
X100927354Y-53140301D01*
X100924500Y-53170734D01*
X100924500Y-53904266D01*
X100927354Y-53934699D01*
X100927355Y-53934705D01*
X100927355Y-53934707D01*
X100967757Y-54050169D01*
X100964582Y-54106717D01*
X100950236Y-54126935D01*
X100500633Y-54576538D01*
X100457781Y-54650761D01*
X100457782Y-54650762D01*
X100435600Y-54733547D01*
X100435600Y-56568600D01*
X100413926Y-56620926D01*
X100361600Y-56642600D01*
X95074753Y-56642600D01*
X94989047Y-56642600D01*
X94906261Y-56664782D01*
X94906260Y-56664782D01*
X94906258Y-56664783D01*
X94906256Y-56664784D01*
X94832041Y-56707632D01*
X91011847Y-60527826D01*
X90959521Y-60549500D01*
X88945734Y-60549500D01*
X88915301Y-60552354D01*
X88915299Y-60552354D01*
X88915295Y-60552355D01*
X88787118Y-60597206D01*
X88787116Y-60597207D01*
X88677853Y-60677846D01*
X88677846Y-60677853D01*
X88597207Y-60787116D01*
X88597206Y-60787118D01*
X88552355Y-60915295D01*
X88552354Y-60915299D01*
X88552354Y-60915301D01*
X88549500Y-60945734D01*
X88549500Y-63054266D01*
X88552354Y-63084699D01*
X88552354Y-63084701D01*
X88552355Y-63084704D01*
X88597206Y-63212881D01*
X88597207Y-63212883D01*
X88677846Y-63322146D01*
X88677853Y-63322153D01*
X88787116Y-63402792D01*
X88787118Y-63402793D01*
X88915295Y-63447644D01*
X88915301Y-63447646D01*
X88945734Y-63450500D01*
X88945741Y-63450500D01*
X91054258Y-63450500D01*
X91054266Y-63450500D01*
X91084699Y-63447646D01*
X91212882Y-63402793D01*
X91322150Y-63322150D01*
X91402793Y-63212882D01*
X91447646Y-63084699D01*
X91450500Y-63054266D01*
X91450500Y-61040479D01*
X91472174Y-60988153D01*
X95145053Y-57315274D01*
X95197379Y-57293600D01*
X100595621Y-57293600D01*
X100647947Y-57315274D01*
X100946638Y-57613965D01*
X101020861Y-57656818D01*
X101103647Y-57679000D01*
X101103649Y-57679000D01*
X105739351Y-57679000D01*
X105739353Y-57679000D01*
X105822139Y-57656818D01*
X105896362Y-57613965D01*
X106938153Y-56572172D01*
X106990479Y-56550499D01*
X107149178Y-56550499D01*
X107194760Y-56544499D01*
X107294799Y-56497850D01*
X107372850Y-56419799D01*
X107419499Y-56319760D01*
X107425500Y-56274179D01*
X107425499Y-56115477D01*
X107447172Y-56063153D01*
X107796565Y-55713762D01*
X107839418Y-55639539D01*
X107861600Y-55556753D01*
X107861600Y-55471047D01*
X107861600Y-50241096D01*
X107883274Y-50188770D01*
X107891658Y-50181556D01*
X107972146Y-50122153D01*
X107972146Y-50122152D01*
X107972150Y-50122150D01*
X108052793Y-50012882D01*
X108097646Y-49884699D01*
X108100500Y-49854266D01*
X108100500Y-49095734D01*
X108097646Y-49065301D01*
X108052793Y-48937118D01*
X108051014Y-48934707D01*
X107972153Y-48827853D01*
X107972146Y-48827846D01*
X107862883Y-48747207D01*
X107862881Y-48747206D01*
X107734704Y-48702355D01*
X107734705Y-48702355D01*
X107734700Y-48702354D01*
X107734699Y-48702354D01*
X107704266Y-48699500D01*
X106295734Y-48699500D01*
X106265301Y-48702354D01*
X106265299Y-48702354D01*
X106265295Y-48702355D01*
X106137118Y-48747206D01*
X106137116Y-48747207D01*
X106027853Y-48827846D01*
X106027846Y-48827853D01*
X105947207Y-48937116D01*
X105947206Y-48937118D01*
X105902355Y-49065295D01*
X105902354Y-49065299D01*
X105902354Y-49065301D01*
X105899500Y-49095734D01*
X105899500Y-49854266D01*
X105902354Y-49884699D01*
X105902354Y-49884701D01*
X105902355Y-49884704D01*
X105947206Y-50012881D01*
X105947207Y-50012883D01*
X106027846Y-50122146D01*
X106027853Y-50122153D01*
X106137116Y-50202792D01*
X106137118Y-50202793D01*
X106265295Y-50247644D01*
X106265301Y-50247646D01*
X106295734Y-50250500D01*
X107136600Y-50250500D01*
X107188926Y-50272174D01*
X107210600Y-50324500D01*
X107210600Y-55348420D01*
X107188926Y-55400746D01*
X107061845Y-55527826D01*
X107009519Y-55549500D01*
X106850822Y-55549500D01*
X106805241Y-55555500D01*
X106805239Y-55555501D01*
X106705200Y-55602150D01*
X106627150Y-55680200D01*
X106580500Y-55780241D01*
X106574500Y-55825822D01*
X106574500Y-55984520D01*
X106552826Y-56036846D01*
X105583347Y-57006326D01*
X105531021Y-57028000D01*
X103118049Y-57028000D01*
X103065723Y-57006326D01*
X103044049Y-56954000D01*
X103048202Y-56929560D01*
X103072644Y-56859707D01*
X103072644Y-56859705D01*
X103072644Y-56859704D01*
X103072646Y-56859699D01*
X103075500Y-56829266D01*
X103075500Y-56095734D01*
X103072646Y-56065301D01*
X103032241Y-55949829D01*
X103035416Y-55893282D01*
X103049759Y-55873066D01*
X103446265Y-55476562D01*
X103489117Y-55402339D01*
X103489118Y-55402338D01*
X103511299Y-55319555D01*
X103511300Y-55319555D01*
X103511300Y-39680445D01*
X103511299Y-39680444D01*
X103508049Y-39668316D01*
X103489118Y-39597662D01*
X103446265Y-39523438D01*
X103385662Y-39462835D01*
X103049762Y-39126935D01*
X103028088Y-39074609D01*
X103032240Y-39050172D01*
X103072646Y-38934699D01*
X103075500Y-38904266D01*
X103075500Y-38170734D01*
X103072646Y-38140301D01*
X103027793Y-38012118D01*
X103027792Y-38012116D01*
X102947153Y-37902853D01*
X102947146Y-37902846D01*
X102837883Y-37822207D01*
X102837881Y-37822206D01*
X102709704Y-37777355D01*
X102709705Y-37777355D01*
X102709700Y-37777354D01*
X102709699Y-37777354D01*
X102679266Y-37774500D01*
X101320734Y-37774500D01*
X101290301Y-37777354D01*
X101290299Y-37777354D01*
X101290295Y-37777355D01*
X101162118Y-37822206D01*
X101162116Y-37822207D01*
X101052853Y-37902846D01*
X101052846Y-37902853D01*
X100972207Y-38012116D01*
X100972206Y-38012118D01*
X100927355Y-38140295D01*
X100927354Y-38140299D01*
X100927354Y-38140301D01*
X100924500Y-38170734D01*
X100924500Y-38904266D01*
X100927354Y-38934699D01*
X100927354Y-38934701D01*
X100927355Y-38934704D01*
X100972206Y-39062881D01*
X100972207Y-39062883D01*
X101052846Y-39172146D01*
X101052853Y-39172153D01*
X101162116Y-39252792D01*
X101162118Y-39252793D01*
X101290295Y-39297644D01*
X101290301Y-39297646D01*
X101320734Y-39300500D01*
X101601303Y-39300500D01*
X101653629Y-39322174D01*
X101671898Y-39359227D01*
X101673245Y-39358867D01*
X101674500Y-39363550D01*
X101674500Y-39363553D01*
X101696682Y-39446339D01*
X101696683Y-39446341D01*
X101696684Y-39446343D01*
X101739532Y-39520558D01*
X101739533Y-39520559D01*
X101739535Y-39520562D01*
X102132626Y-39913653D01*
X102154300Y-39965978D01*
X102154300Y-40041394D01*
X102188406Y-40168681D01*
X102188410Y-40168690D01*
X102236159Y-40251393D01*
X102254300Y-40282814D01*
X102347486Y-40376000D01*
X102461614Y-40441892D01*
X102588905Y-40475999D01*
X102588906Y-40476000D01*
X102588908Y-40476000D01*
X102720694Y-40476000D01*
X102720694Y-40475999D01*
X102748970Y-40468423D01*
X102767147Y-40463553D01*
X102777060Y-40464858D01*
X102786300Y-40461031D01*
X102804147Y-40468423D01*
X102823300Y-40470945D01*
X102829387Y-40478878D01*
X102838626Y-40482705D01*
X102846018Y-40500553D01*
X102857778Y-40515878D01*
X102860300Y-40535031D01*
X102860300Y-40650757D01*
X102838626Y-40703083D01*
X102786300Y-40724757D01*
X102761860Y-40720605D01*
X102709702Y-40702355D01*
X102709701Y-40702354D01*
X102709699Y-40702354D01*
X102679266Y-40699500D01*
X101320734Y-40699500D01*
X101290301Y-40702354D01*
X101290299Y-40702354D01*
X101290295Y-40702355D01*
X101162118Y-40747206D01*
X101162116Y-40747207D01*
X101052853Y-40827846D01*
X101052846Y-40827853D01*
X100972207Y-40937116D01*
X100972206Y-40937118D01*
X100927355Y-41065295D01*
X100927355Y-41065297D01*
X100927354Y-41065301D01*
X100924500Y-41095734D01*
X100924500Y-41829266D01*
X100927354Y-41859699D01*
X100927354Y-41859701D01*
X100927355Y-41859704D01*
X100972206Y-41987881D01*
X100972207Y-41987883D01*
X101052846Y-42097146D01*
X101052853Y-42097153D01*
X101162116Y-42177792D01*
X101162118Y-42177793D01*
X101290295Y-42222644D01*
X101290301Y-42222646D01*
X101320734Y-42225500D01*
X101320741Y-42225500D01*
X102679258Y-42225500D01*
X102679266Y-42225500D01*
X102709699Y-42222646D01*
X102727026Y-42216582D01*
X102761859Y-42204395D01*
X102818407Y-42207570D01*
X102856147Y-42249801D01*
X102860300Y-42274242D01*
X102860300Y-45725757D01*
X102838626Y-45778083D01*
X102786300Y-45799757D01*
X102761860Y-45795605D01*
X102709702Y-45777355D01*
X102709701Y-45777354D01*
X102709699Y-45777354D01*
X102679266Y-45774500D01*
X102679260Y-45774500D01*
X101727978Y-45774500D01*
X101675652Y-45752826D01*
X98741474Y-42818647D01*
X98719800Y-42766321D01*
X98719800Y-16101648D01*
X98719372Y-16100049D01*
X98719372Y-16100048D01*
X98697619Y-16018864D01*
X98697617Y-16018859D01*
X98654767Y-15944641D01*
X98654766Y-15944640D01*
X98654765Y-15944638D01*
X97781453Y-15071326D01*
X97759779Y-15019000D01*
X97781453Y-14966674D01*
X97833779Y-14945000D01*
X98083600Y-14945000D01*
X98135926Y-14966674D01*
X99680226Y-16510973D01*
X99680231Y-16510979D01*
X99682815Y-16513563D01*
X99762037Y-16592785D01*
X99859063Y-16648803D01*
X99859064Y-16648803D01*
X99859066Y-16648804D01*
X99894879Y-16658400D01*
X99967278Y-16677799D01*
X99967279Y-16677800D01*
X99967281Y-16677800D01*
X100079320Y-16677800D01*
X100079320Y-16677799D01*
X100187537Y-16648803D01*
X100284563Y-16592785D01*
X100363785Y-16513563D01*
X100419803Y-16416537D01*
X100448799Y-16308320D01*
X100448800Y-16308320D01*
X100448800Y-15795899D01*
X100470474Y-15743573D01*
X100471773Y-15742274D01*
X100524099Y-15720600D01*
X100525901Y-15720600D01*
X100578206Y-15742253D01*
X100579507Y-15743554D01*
X100601200Y-15795870D01*
X100601200Y-15894820D01*
X100630195Y-16003032D01*
X100630199Y-16003041D01*
X100686215Y-16100063D01*
X101892426Y-17306273D01*
X101892431Y-17306279D01*
X101895015Y-17308863D01*
X101974237Y-17388085D01*
X102063047Y-17439360D01*
X102078370Y-17451117D01*
X102225826Y-17598573D01*
X102247500Y-17650899D01*
X102247500Y-17797699D01*
X102225826Y-17850025D01*
X102108650Y-17967200D01*
X102075477Y-17986352D01*
X102007766Y-18004495D01*
X102007761Y-18004497D01*
X101910736Y-18060515D01*
X101831515Y-18139736D01*
X101775499Y-18236758D01*
X101775495Y-18236767D01*
X101746500Y-18344979D01*
X101746500Y-18457020D01*
X101775495Y-18565232D01*
X101775499Y-18565241D01*
X101820220Y-18642700D01*
X101831515Y-18662263D01*
X102179958Y-19010705D01*
X102508726Y-19339473D01*
X102508731Y-19339479D01*
X102511315Y-19342063D01*
X102590537Y-19421285D01*
X102654235Y-19458061D01*
X102687563Y-19477303D01*
X102687564Y-19477303D01*
X102687566Y-19477304D01*
X102735930Y-19490263D01*
X102795778Y-19506299D01*
X102795779Y-19506300D01*
X102795781Y-19506300D01*
X102795782Y-19506300D01*
X102850500Y-19506300D01*
X102902826Y-19527974D01*
X102924500Y-19580300D01*
X102924500Y-19829266D01*
X102927354Y-19859699D01*
X102927354Y-19859701D01*
X102927355Y-19859704D01*
X102972206Y-19987881D01*
X102972207Y-19987883D01*
X103052846Y-20097146D01*
X103052853Y-20097153D01*
X103162116Y-20177792D01*
X103162118Y-20177793D01*
X103290295Y-20222644D01*
X103290301Y-20222646D01*
X103320734Y-20225500D01*
X103320741Y-20225500D01*
X104679258Y-20225500D01*
X104679266Y-20225500D01*
X104709699Y-20222646D01*
X104837882Y-20177793D01*
X104947150Y-20097150D01*
X105027793Y-19987882D01*
X105072646Y-19859699D01*
X105075500Y-19829266D01*
X105075500Y-19095734D01*
X105072646Y-19065301D01*
X105068900Y-19054595D01*
X105072072Y-18998048D01*
X105086417Y-18977829D01*
X105662285Y-18401963D01*
X105718303Y-18304937D01*
X105747299Y-18196721D01*
X105747300Y-18196721D01*
X105747300Y-13740780D01*
X105747299Y-13740779D01*
X105718304Y-13632567D01*
X105718303Y-13632563D01*
X105662285Y-13535537D01*
X105583063Y-13456315D01*
X101322174Y-9195426D01*
X101300500Y-9143100D01*
X101300500Y-8295740D01*
X101300500Y-8295734D01*
X101297646Y-8265301D01*
X101265873Y-8174500D01*
X101252793Y-8137118D01*
X101252792Y-8137116D01*
X101172153Y-8027853D01*
X101172146Y-8027846D01*
X101062883Y-7947207D01*
X101062881Y-7947206D01*
X100934704Y-7902355D01*
X100934705Y-7902355D01*
X100934700Y-7902354D01*
X100934699Y-7902354D01*
X100904266Y-7899500D01*
X100145734Y-7899500D01*
X100115301Y-7902354D01*
X100115299Y-7902354D01*
X100115295Y-7902355D01*
X99987118Y-7947206D01*
X99987116Y-7947207D01*
X99877853Y-8027846D01*
X99877846Y-8027853D01*
X99797207Y-8137116D01*
X99797206Y-8137118D01*
X99752355Y-8265295D01*
X99752354Y-8265299D01*
X99752354Y-8265301D01*
X99749500Y-8295734D01*
X99749500Y-9704266D01*
X99752354Y-9734699D01*
X99752354Y-9734701D01*
X99752355Y-9734704D01*
X99797206Y-9862881D01*
X99797207Y-9862883D01*
X99877846Y-9972146D01*
X99877853Y-9972153D01*
X99987116Y-10052792D01*
X99987118Y-10052793D01*
X100115295Y-10097644D01*
X100115301Y-10097646D01*
X100145734Y-10100500D01*
X100145741Y-10100500D01*
X100904260Y-10100500D01*
X100904266Y-10100500D01*
X100934699Y-10097646D01*
X100954663Y-10090660D01*
X101011210Y-10093833D01*
X101031432Y-10108180D01*
X104874626Y-13951374D01*
X104896300Y-14003700D01*
X104896300Y-15738354D01*
X104874626Y-15790680D01*
X104822300Y-15812354D01*
X104797860Y-15808202D01*
X104709702Y-15777354D01*
X104699554Y-15776402D01*
X104679266Y-15774500D01*
X103320734Y-15774500D01*
X103290301Y-15777354D01*
X103290299Y-15777354D01*
X103290295Y-15777355D01*
X103162118Y-15822206D01*
X103162116Y-15822207D01*
X103052853Y-15902846D01*
X103052849Y-15902850D01*
X102974808Y-16008593D01*
X102926297Y-16037823D01*
X102871325Y-16024190D01*
X102851182Y-16001650D01*
X102845072Y-15991068D01*
X102821700Y-15950586D01*
X102768375Y-15897261D01*
X102749255Y-15851101D01*
X102747334Y-15851354D01*
X102746701Y-15846551D01*
X102746701Y-15846547D01*
X102724518Y-15763761D01*
X102701792Y-15724400D01*
X102681665Y-15689538D01*
X102621062Y-15628935D01*
X102621059Y-15628933D01*
X101981388Y-14989262D01*
X101322174Y-14330047D01*
X101300500Y-14277721D01*
X101300500Y-13295740D01*
X101300500Y-13295734D01*
X101297646Y-13265301D01*
X101293048Y-13252162D01*
X101252793Y-13137118D01*
X101252792Y-13137116D01*
X101172153Y-13027853D01*
X101172146Y-13027846D01*
X101062883Y-12947207D01*
X101062881Y-12947206D01*
X100934704Y-12902355D01*
X100934705Y-12902355D01*
X100934700Y-12902354D01*
X100934699Y-12902354D01*
X100904266Y-12899500D01*
X100145734Y-12899500D01*
X100115301Y-12902354D01*
X100115299Y-12902354D01*
X100115294Y-12902355D01*
X100115292Y-12902355D01*
X99995607Y-12944235D01*
X99939059Y-12941060D01*
X99918841Y-12926714D01*
X99403161Y-12411034D01*
X99395509Y-12406616D01*
X99380184Y-12394857D01*
X96809674Y-9824347D01*
X96788000Y-9772021D01*
X96788000Y-6146754D01*
X96809674Y-6094428D01*
X96855092Y-6073077D01*
X96859699Y-6072646D01*
X96859701Y-6072645D01*
X96859703Y-6072645D01*
X96859703Y-6072644D01*
X96987882Y-6027793D01*
X97097150Y-5947150D01*
X97177793Y-5837882D01*
X97222646Y-5709699D01*
X97225500Y-5679266D01*
X97225500Y-4320734D01*
X97222646Y-4290301D01*
X97177793Y-4162118D01*
X97177792Y-4162116D01*
X97097153Y-4052853D01*
X97097146Y-4052846D01*
X96987883Y-3972207D01*
X96987881Y-3972206D01*
X96859704Y-3927355D01*
X96859705Y-3927355D01*
X96859700Y-3927354D01*
X96859699Y-3927354D01*
X96829266Y-3924500D01*
X96095734Y-3924500D01*
X96065301Y-3927354D01*
X96065299Y-3927354D01*
X96065295Y-3927355D01*
X95937118Y-3972206D01*
X95937116Y-3972207D01*
X95827853Y-4052846D01*
X95827846Y-4052853D01*
X95747207Y-4162116D01*
X95747206Y-4162118D01*
X95702355Y-4290295D01*
X95702354Y-4290299D01*
X95702354Y-4290301D01*
X95699500Y-4320734D01*
X95699500Y-5679266D01*
X95702354Y-5709699D01*
X95702354Y-5709701D01*
X95702355Y-5709704D01*
X95747206Y-5837881D01*
X95747207Y-5837883D01*
X95827846Y-5947146D01*
X95827853Y-5947153D01*
X95937116Y-6027792D01*
X95937118Y-6027793D01*
X96065295Y-6072644D01*
X96065296Y-6072645D01*
X96065298Y-6072645D01*
X96065301Y-6072646D01*
X96069906Y-6073077D01*
X96119980Y-6099539D01*
X96137000Y-6146754D01*
X96137000Y-9894647D01*
X96137000Y-9980353D01*
X96154252Y-10044738D01*
X96159183Y-10063141D01*
X96159184Y-10063143D01*
X96202032Y-10137358D01*
X96202033Y-10137359D01*
X96202035Y-10137362D01*
X97689877Y-11625204D01*
X98942835Y-12878162D01*
X99344035Y-13279362D01*
X99727826Y-13663152D01*
X99749500Y-13715478D01*
X99749500Y-14704266D01*
X99752354Y-14734699D01*
X99752354Y-14734701D01*
X99752355Y-14734704D01*
X99797206Y-14862881D01*
X99797207Y-14862883D01*
X99877845Y-14972144D01*
X99877847Y-14972146D01*
X99877850Y-14972150D01*
X99901039Y-14989264D01*
X99930269Y-15037773D01*
X99916637Y-15092745D01*
X99909422Y-15101129D01*
X99743975Y-15266576D01*
X99691649Y-15288250D01*
X99639323Y-15266576D01*
X99107451Y-14734704D01*
X98551763Y-14179015D01*
X98454741Y-14122999D01*
X98454732Y-14122995D01*
X98346520Y-14094000D01*
X98346518Y-14094000D01*
X95943982Y-14094000D01*
X95943980Y-14094000D01*
X95835767Y-14122995D01*
X95835758Y-14122999D01*
X95738736Y-14179015D01*
X95659515Y-14258236D01*
X95603499Y-14355258D01*
X95603495Y-14355267D01*
X95574500Y-14463479D01*
X95574500Y-14575519D01*
X95582305Y-14604646D01*
X95574913Y-14660799D01*
X95529981Y-14695278D01*
X95510827Y-14697800D01*
X94762099Y-14697800D01*
X94762083Y-14697799D01*
X94757553Y-14697799D01*
X94671847Y-14697799D01*
X94671845Y-14697799D01*
X94589065Y-14719980D01*
X94589060Y-14719982D01*
X94514837Y-14762835D01*
X94454233Y-14823440D01*
X92661532Y-16616141D01*
X92618682Y-16690359D01*
X92618680Y-16690364D01*
X92606225Y-16736845D01*
X92606226Y-16736846D01*
X92596500Y-16773146D01*
X92596500Y-24722034D01*
X92574826Y-24774360D01*
X92521500Y-24827685D01*
X92455610Y-24941809D01*
X92455606Y-24941818D01*
X92421500Y-25069105D01*
X92421500Y-25200894D01*
X92455606Y-25328181D01*
X92455607Y-25328184D01*
X92455608Y-25328186D01*
X92521500Y-25442314D01*
X92614686Y-25535500D01*
X92728814Y-25601392D01*
X92856105Y-25635499D01*
X92856106Y-25635500D01*
X92856108Y-25635500D01*
X92987894Y-25635500D01*
X92987894Y-25635499D01*
X93115186Y-25601392D01*
X93229314Y-25535500D01*
X93286674Y-25478140D01*
X93339000Y-25456466D01*
X93391326Y-25478140D01*
X93413000Y-25530466D01*
X93413000Y-27369520D01*
X93441995Y-27477732D01*
X93441999Y-27477741D01*
X93498015Y-27574763D01*
X93727826Y-27804574D01*
X93749500Y-27856900D01*
X93749500Y-28704266D01*
X93752354Y-28734699D01*
X93752354Y-28734701D01*
X93752355Y-28734704D01*
X93797206Y-28862881D01*
X93797207Y-28862883D01*
X93877846Y-28972146D01*
X93877853Y-28972153D01*
X93987116Y-29052792D01*
X93987118Y-29052793D01*
X94115295Y-29097644D01*
X94115301Y-29097646D01*
X94145734Y-29100500D01*
X94541821Y-29100500D01*
X94594147Y-29122174D01*
X94615821Y-29174500D01*
X94594147Y-29226826D01*
X86031247Y-37789726D01*
X85978921Y-37811400D01*
X79059853Y-37811400D01*
X78974147Y-37811400D01*
X78891361Y-37833582D01*
X78891360Y-37833582D01*
X78891358Y-37833583D01*
X78891356Y-37833584D01*
X78817141Y-37876432D01*
X75135747Y-41557826D01*
X75083421Y-41579500D01*
X74373705Y-41579500D01*
X74321379Y-41557826D01*
X74299705Y-41505500D01*
X74309619Y-41468500D01*
X74332223Y-41429346D01*
X74371692Y-41360986D01*
X74405799Y-41233694D01*
X74405800Y-41233694D01*
X74405800Y-41101906D01*
X74405799Y-41101905D01*
X74383479Y-41018606D01*
X74371692Y-40974614D01*
X74305800Y-40860486D01*
X74212614Y-40767300D01*
X74131736Y-40720605D01*
X74098490Y-40701410D01*
X74098481Y-40701406D01*
X73971194Y-40667300D01*
X73971192Y-40667300D01*
X73839408Y-40667300D01*
X73839406Y-40667300D01*
X73712118Y-40701406D01*
X73712109Y-40701410D01*
X73597985Y-40767300D01*
X73562648Y-40802637D01*
X73510322Y-40824310D01*
X73477823Y-40816791D01*
X73401394Y-40779427D01*
X73333264Y-40769500D01*
X73333260Y-40769500D01*
X71616740Y-40769500D01*
X71616735Y-40769500D01*
X71548606Y-40779427D01*
X71548605Y-40779427D01*
X71443517Y-40830801D01*
X71360801Y-40913517D01*
X71309427Y-41018605D01*
X71309427Y-41018606D01*
X71299500Y-41086735D01*
X71299500Y-41453264D01*
X71309427Y-41521394D01*
X71318603Y-41540164D01*
X71322111Y-41596692D01*
X71289124Y-41636747D01*
X71275643Y-41644531D01*
X71275641Y-41644532D01*
X71219253Y-41700919D01*
X70891833Y-42028339D01*
X70848982Y-42102559D01*
X70848981Y-42102561D01*
X70843732Y-42122152D01*
X70828824Y-42177792D01*
X70826800Y-42185347D01*
X70285700Y-42185347D01*
X70285700Y-41053879D01*
X70307374Y-41001553D01*
X71596753Y-39712174D01*
X71649079Y-39690500D01*
X73489351Y-39690500D01*
X73489353Y-39690500D01*
X73572139Y-39668318D01*
X73646362Y-39625465D01*
X74074465Y-39197362D01*
X74095401Y-39161100D01*
X74117318Y-39123138D01*
X74139499Y-39040355D01*
X74139500Y-39040355D01*
X74139500Y-25044047D01*
X74117318Y-24961262D01*
X74117318Y-24961261D01*
X74074467Y-24887041D01*
X74074466Y-24887040D01*
X74074465Y-24887038D01*
X73392974Y-24205547D01*
X73371300Y-24153221D01*
X73371300Y-24077808D01*
X73353904Y-24012884D01*
X73346607Y-23985651D01*
X73354000Y-23929500D01*
X73398934Y-23895021D01*
X73418086Y-23892500D01*
X75852578Y-23892500D01*
X75904904Y-23914174D01*
X75922425Y-23942058D01*
X75947207Y-24012881D01*
X75947208Y-24012884D01*
X76027846Y-24122146D01*
X76027853Y-24122153D01*
X76137116Y-24202792D01*
X76137118Y-24202793D01*
X76265295Y-24247644D01*
X76265301Y-24247646D01*
X76295734Y-24250500D01*
X76500500Y-24250500D01*
X76552826Y-24272174D01*
X76574500Y-24324500D01*
X76574500Y-28518520D01*
X76603495Y-28626732D01*
X76603499Y-28626741D01*
X76659515Y-28723763D01*
X80913578Y-32977826D01*
X80935252Y-33030152D01*
X80931101Y-33054587D01*
X80927356Y-33065290D01*
X80927354Y-33065298D01*
X80927354Y-33065301D01*
X80924500Y-33095734D01*
X80924500Y-33829266D01*
X80927354Y-33859699D01*
X80927354Y-33859701D01*
X80927355Y-33859704D01*
X80972206Y-33987881D01*
X80972207Y-33987883D01*
X81052846Y-34097146D01*
X81052853Y-34097153D01*
X81162116Y-34177792D01*
X81162118Y-34177793D01*
X81290295Y-34222644D01*
X81290301Y-34222646D01*
X81320734Y-34225500D01*
X81320741Y-34225500D01*
X82679258Y-34225500D01*
X82679266Y-34225500D01*
X82709699Y-34222646D01*
X82837882Y-34177793D01*
X82947150Y-34097150D01*
X83027793Y-33987882D01*
X83072646Y-33859699D01*
X83075500Y-33829266D01*
X83075500Y-33095734D01*
X83072646Y-33065301D01*
X83027793Y-32937118D01*
X82980519Y-32873063D01*
X82947153Y-32827853D01*
X82947146Y-32827846D01*
X82837883Y-32747207D01*
X82837881Y-32747206D01*
X82711163Y-32702865D01*
X82668932Y-32665125D01*
X82665757Y-32608577D01*
X82671515Y-32596023D01*
X82682392Y-32577186D01*
X82716499Y-32449894D01*
X82716500Y-32449894D01*
X82716500Y-32318106D01*
X82716499Y-32318105D01*
X82682393Y-32190818D01*
X82682392Y-32190814D01*
X82616500Y-32076686D01*
X82563174Y-32023360D01*
X82541500Y-31971034D01*
X82541500Y-31374500D01*
X82563174Y-31322174D01*
X82615500Y-31300500D01*
X82679258Y-31300500D01*
X82679266Y-31300500D01*
X82709699Y-31297646D01*
X82837882Y-31252793D01*
X82947150Y-31172150D01*
X83027793Y-31062882D01*
X83072646Y-30934699D01*
X83073079Y-30930087D01*
X83099546Y-30880015D01*
X83146755Y-30863000D01*
X83909521Y-30863000D01*
X83961847Y-30884674D01*
X85950237Y-32873063D01*
X85971911Y-32925389D01*
X85967758Y-32949830D01*
X85927355Y-33065295D01*
X85927355Y-33065298D01*
X85927354Y-33065301D01*
X85924500Y-33095734D01*
X85924500Y-33829266D01*
X85927354Y-33859699D01*
X85927354Y-33859701D01*
X85927355Y-33859704D01*
X85972206Y-33987881D01*
X85972207Y-33987883D01*
X86052846Y-34097146D01*
X86052853Y-34097153D01*
X86162116Y-34177792D01*
X86162118Y-34177793D01*
X86290295Y-34222644D01*
X86290301Y-34222646D01*
X86320734Y-34225500D01*
X86320741Y-34225500D01*
X87679258Y-34225500D01*
X87679266Y-34225500D01*
X87709699Y-34222646D01*
X87837882Y-34177793D01*
X87947150Y-34097150D01*
X88027793Y-33987882D01*
X88072646Y-33859699D01*
X88075500Y-33829266D01*
X88075500Y-33095734D01*
X88072646Y-33065301D01*
X88027793Y-32937118D01*
X87980519Y-32873063D01*
X87947153Y-32827853D01*
X87947146Y-32827846D01*
X87837883Y-32747207D01*
X87837881Y-32747206D01*
X87709704Y-32702355D01*
X87709705Y-32702355D01*
X87709700Y-32702354D01*
X87709699Y-32702354D01*
X87679266Y-32699500D01*
X87679260Y-32699500D01*
X86727978Y-32699500D01*
X86675652Y-32677826D01*
X85537541Y-31539715D01*
X84274862Y-30277035D01*
X84274859Y-30277033D01*
X84274858Y-30277032D01*
X84200643Y-30234184D01*
X84200641Y-30234183D01*
X84200640Y-30234182D01*
X84200639Y-30234182D01*
X84117853Y-30212000D01*
X84117851Y-30212000D01*
X83146755Y-30212000D01*
X83094429Y-30190326D01*
X83073079Y-30144913D01*
X83072646Y-30140301D01*
X83072644Y-30140295D01*
X83027793Y-30012118D01*
X83027792Y-30012116D01*
X82947153Y-29902853D01*
X82947146Y-29902846D01*
X82837883Y-29822207D01*
X82837881Y-29822206D01*
X82709704Y-29777355D01*
X82709705Y-29777355D01*
X82709700Y-29777354D01*
X82709699Y-29777354D01*
X82679266Y-29774500D01*
X81320734Y-29774500D01*
X81290301Y-29777354D01*
X81290299Y-29777354D01*
X81290295Y-29777355D01*
X81162118Y-29822206D01*
X81162116Y-29822207D01*
X81052853Y-29902846D01*
X81052846Y-29902853D01*
X80972207Y-30012116D01*
X80972206Y-30012118D01*
X80927355Y-30140295D01*
X80927354Y-30140299D01*
X80927354Y-30140301D01*
X80924500Y-30170734D01*
X80924500Y-30904266D01*
X80927354Y-30934699D01*
X80927354Y-30934701D01*
X80927355Y-30934704D01*
X80972206Y-31062881D01*
X80972207Y-31062883D01*
X81052846Y-31172146D01*
X81052853Y-31172153D01*
X81162116Y-31252792D01*
X81162118Y-31252793D01*
X81290295Y-31297644D01*
X81290301Y-31297646D01*
X81320734Y-31300500D01*
X81816500Y-31300500D01*
X81868826Y-31322174D01*
X81890500Y-31374500D01*
X81890500Y-31971034D01*
X81868826Y-32023360D01*
X81815500Y-32076685D01*
X81749610Y-32190809D01*
X81749606Y-32190818D01*
X81715500Y-32318105D01*
X81715500Y-32397600D01*
X81693826Y-32449926D01*
X81641500Y-32471600D01*
X81589174Y-32449926D01*
X77447174Y-28307926D01*
X77425500Y-28255600D01*
X77425500Y-24324500D01*
X77447174Y-24272174D01*
X77499500Y-24250500D01*
X77704258Y-24250500D01*
X77704266Y-24250500D01*
X77734699Y-24247646D01*
X77862882Y-24202793D01*
X77972150Y-24122150D01*
X78052793Y-24012882D01*
X78097646Y-23884699D01*
X78100500Y-23854266D01*
X78100500Y-23095734D01*
X78097646Y-23065301D01*
X78052793Y-22937118D01*
X78052792Y-22937116D01*
X77972153Y-22827853D01*
X77972146Y-22827846D01*
X77862883Y-22747207D01*
X77862881Y-22747206D01*
X77734704Y-22702355D01*
X77734705Y-22702355D01*
X77734700Y-22702354D01*
X77734699Y-22702354D01*
X77704266Y-22699500D01*
X76295734Y-22699500D01*
X76265301Y-22702354D01*
X76265299Y-22702354D01*
X76265295Y-22702355D01*
X76137118Y-22747206D01*
X76137116Y-22747207D01*
X76027853Y-22827846D01*
X76027846Y-22827853D01*
X75947207Y-22937116D01*
X75947206Y-22937118D01*
X75928023Y-22991941D01*
X75890283Y-23034172D01*
X75858176Y-23041500D01*
X71484700Y-23041500D01*
X71432374Y-23019826D01*
X71410700Y-22967500D01*
X71410700Y-21866680D01*
X71410699Y-21866679D01*
X71388806Y-21784974D01*
X71381703Y-21758463D01*
X71325685Y-21661437D01*
X71246463Y-21582215D01*
X70822174Y-21157926D01*
X70800500Y-21105600D01*
X70800500Y-20685753D01*
X70791594Y-20629526D01*
X70784951Y-20587580D01*
X70749899Y-20518786D01*
X70724659Y-20469250D01*
X70630749Y-20375340D01*
X70512422Y-20315050D01*
X70512421Y-20315049D01*
X70512420Y-20315049D01*
X70512418Y-20315048D01*
X70512416Y-20315048D01*
X70487924Y-20311169D01*
X70439633Y-20281576D01*
X70425500Y-20238080D01*
X70425500Y-11874036D01*
X72749500Y-11874036D01*
X72749500Y-12125963D01*
X72788909Y-12374782D01*
X72788912Y-12374795D01*
X72866756Y-12614373D01*
X72981129Y-12838845D01*
X73129203Y-13042651D01*
X73129207Y-13042656D01*
X73307344Y-13220793D01*
X73307347Y-13220795D01*
X73307348Y-13220796D01*
X73511154Y-13368870D01*
X73619345Y-13423995D01*
X73735621Y-13483241D01*
X73735623Y-13483241D01*
X73735626Y-13483243D01*
X73975204Y-13561087D01*
X73975210Y-13561088D01*
X73975215Y-13561090D01*
X74099626Y-13580795D01*
X74224036Y-13600500D01*
X74224038Y-13600500D01*
X74475964Y-13600500D01*
X74575491Y-13584736D01*
X74724785Y-13561090D01*
X74724792Y-13561087D01*
X74724795Y-13561087D01*
X74964373Y-13483243D01*
X74964373Y-13483242D01*
X74964379Y-13483241D01*
X75188845Y-13368870D01*
X75392656Y-13220793D01*
X75570793Y-13042656D01*
X75718870Y-12838845D01*
X75833241Y-12614379D01*
X75848494Y-12567435D01*
X75911087Y-12374795D01*
X75911087Y-12374792D01*
X75911090Y-12374785D01*
X75948948Y-12135763D01*
X75950500Y-12125963D01*
X75950500Y-11874036D01*
X75911090Y-11625217D01*
X75911087Y-11625204D01*
X75833243Y-11385626D01*
X75833241Y-11385623D01*
X75833241Y-11385621D01*
X75773995Y-11269345D01*
X75718870Y-11161154D01*
X75570796Y-10957348D01*
X75570795Y-10957347D01*
X75570793Y-10957344D01*
X75392656Y-10779207D01*
X75392653Y-10779204D01*
X75392651Y-10779203D01*
X75188845Y-10631129D01*
X74964373Y-10516756D01*
X74724795Y-10438912D01*
X74724782Y-10438909D01*
X74475964Y-10399500D01*
X74475962Y-10399500D01*
X74224038Y-10399500D01*
X74224036Y-10399500D01*
X73975217Y-10438909D01*
X73975204Y-10438912D01*
X73735626Y-10516756D01*
X73511154Y-10631129D01*
X73307348Y-10779203D01*
X73129203Y-10957348D01*
X72981129Y-11161154D01*
X72866756Y-11385626D01*
X72788912Y-11625204D01*
X72788909Y-11625217D01*
X72749500Y-11874036D01*
X70425500Y-11874036D01*
X70425500Y-10220680D01*
X70418221Y-10193518D01*
X70418220Y-10193516D01*
X70403173Y-10137358D01*
X70396503Y-10112463D01*
X70340485Y-10015437D01*
X68551874Y-8226826D01*
X68530200Y-8174500D01*
X68551874Y-8122174D01*
X68604200Y-8100500D01*
X68919746Y-8100500D01*
X68919748Y-8100500D01*
X68978231Y-8088867D01*
X69044552Y-8044552D01*
X69088867Y-7978231D01*
X69100500Y-7919748D01*
X69100500Y-6913388D01*
X71979500Y-6913388D01*
X71979500Y-7086611D01*
X72006597Y-7257698D01*
X72006600Y-7257711D01*
X72060125Y-7422442D01*
X72060127Y-7422446D01*
X72128211Y-7556069D01*
X72138768Y-7576788D01*
X72240586Y-7716928D01*
X72363072Y-7839414D01*
X72363075Y-7839416D01*
X72363076Y-7839417D01*
X72503212Y-7941232D01*
X72657553Y-8019872D01*
X72657557Y-8019874D01*
X72822288Y-8073399D01*
X72822294Y-8073400D01*
X72822299Y-8073402D01*
X72919935Y-8088866D01*
X72993388Y-8100500D01*
X72993389Y-8100500D01*
X73166612Y-8100500D01*
X73209383Y-8093725D01*
X73337701Y-8073402D01*
X73337708Y-8073399D01*
X73337711Y-8073399D01*
X73502442Y-8019874D01*
X73502442Y-8019873D01*
X73502445Y-8019873D01*
X73656788Y-7941232D01*
X73796928Y-7839414D01*
X73919414Y-7716928D01*
X74021232Y-7576788D01*
X74099873Y-7422445D01*
X74153402Y-7257701D01*
X74180500Y-7086611D01*
X74180500Y-6913389D01*
X74180500Y-6913388D01*
X74519500Y-6913388D01*
X74519500Y-7086611D01*
X74546597Y-7257698D01*
X74546600Y-7257711D01*
X74600125Y-7422442D01*
X74600127Y-7422446D01*
X74668211Y-7556069D01*
X74678768Y-7576788D01*
X74780586Y-7716928D01*
X74903072Y-7839414D01*
X74903075Y-7839416D01*
X74903076Y-7839417D01*
X75043212Y-7941232D01*
X75197553Y-8019872D01*
X75197557Y-8019874D01*
X75362288Y-8073399D01*
X75362294Y-8073400D01*
X75362299Y-8073402D01*
X75459935Y-8088866D01*
X75533388Y-8100500D01*
X75533389Y-8100500D01*
X75706612Y-8100500D01*
X75749383Y-8093725D01*
X75877701Y-8073402D01*
X75877708Y-8073399D01*
X75877711Y-8073399D01*
X76042442Y-8019874D01*
X76042442Y-8019873D01*
X76042445Y-8019873D01*
X76196788Y-7941232D01*
X76336928Y-7839414D01*
X76459414Y-7716928D01*
X76561232Y-7576788D01*
X76639873Y-7422445D01*
X76693402Y-7257701D01*
X76720500Y-7086611D01*
X76720500Y-6913389D01*
X76720500Y-6913388D01*
X77059500Y-6913388D01*
X77059500Y-7086611D01*
X77086597Y-7257698D01*
X77086600Y-7257711D01*
X77140125Y-7422442D01*
X77140127Y-7422446D01*
X77208211Y-7556069D01*
X77218768Y-7576788D01*
X77320586Y-7716928D01*
X77443072Y-7839414D01*
X77443075Y-7839416D01*
X77443076Y-7839417D01*
X77583212Y-7941232D01*
X77737553Y-8019872D01*
X77737557Y-8019874D01*
X77902288Y-8073399D01*
X77902294Y-8073400D01*
X77902299Y-8073402D01*
X77999935Y-8088866D01*
X78073388Y-8100500D01*
X78073389Y-8100500D01*
X78246612Y-8100500D01*
X78289383Y-8093725D01*
X78417701Y-8073402D01*
X78417708Y-8073399D01*
X78417711Y-8073399D01*
X78582442Y-8019874D01*
X78582442Y-8019873D01*
X78582445Y-8019873D01*
X78736788Y-7941232D01*
X78876928Y-7839414D01*
X78999414Y-7716928D01*
X79101232Y-7576788D01*
X79179873Y-7422445D01*
X79233402Y-7257701D01*
X79260500Y-7086611D01*
X79260500Y-6913389D01*
X79260500Y-6913388D01*
X79599500Y-6913388D01*
X79599500Y-7086611D01*
X79626597Y-7257698D01*
X79626600Y-7257711D01*
X79680125Y-7422442D01*
X79680127Y-7422446D01*
X79748211Y-7556069D01*
X79758768Y-7576788D01*
X79860586Y-7716928D01*
X79983072Y-7839414D01*
X79983075Y-7839416D01*
X79983076Y-7839417D01*
X80123212Y-7941232D01*
X80277553Y-8019872D01*
X80277557Y-8019874D01*
X80442288Y-8073399D01*
X80442294Y-8073400D01*
X80442299Y-8073402D01*
X80539935Y-8088866D01*
X80613388Y-8100500D01*
X80613389Y-8100500D01*
X80786612Y-8100500D01*
X80829383Y-8093725D01*
X80957701Y-8073402D01*
X80957708Y-8073399D01*
X80957711Y-8073399D01*
X81122442Y-8019874D01*
X81122442Y-8019873D01*
X81122445Y-8019873D01*
X81276788Y-7941232D01*
X81416928Y-7839414D01*
X81539414Y-7716928D01*
X81641232Y-7576788D01*
X81719873Y-7422445D01*
X81773402Y-7257701D01*
X81800500Y-7086611D01*
X81800500Y-6913389D01*
X81773402Y-6742299D01*
X81773400Y-6742294D01*
X81773399Y-6742288D01*
X81719874Y-6577557D01*
X81719872Y-6577553D01*
X81641232Y-6423212D01*
X81539417Y-6283076D01*
X81539416Y-6283075D01*
X81539414Y-6283072D01*
X81416928Y-6160586D01*
X81416925Y-6160583D01*
X81416923Y-6160582D01*
X81276787Y-6058767D01*
X81122446Y-5980127D01*
X81122442Y-5980125D01*
X80957711Y-5926600D01*
X80957698Y-5926597D01*
X80786612Y-5899500D01*
X80786611Y-5899500D01*
X80613389Y-5899500D01*
X80613388Y-5899500D01*
X80442301Y-5926597D01*
X80442288Y-5926600D01*
X80277557Y-5980125D01*
X80277553Y-5980127D01*
X80123212Y-6058767D01*
X79983076Y-6160582D01*
X79860582Y-6283076D01*
X79758767Y-6423212D01*
X79680127Y-6577553D01*
X79680125Y-6577557D01*
X79626600Y-6742288D01*
X79626597Y-6742301D01*
X79599500Y-6913388D01*
X79260500Y-6913388D01*
X79233402Y-6742299D01*
X79233400Y-6742294D01*
X79233399Y-6742288D01*
X79179874Y-6577557D01*
X79179872Y-6577553D01*
X79101232Y-6423212D01*
X78999417Y-6283076D01*
X78999416Y-6283075D01*
X78999414Y-6283072D01*
X78876928Y-6160586D01*
X78876925Y-6160583D01*
X78876923Y-6160582D01*
X78736787Y-6058767D01*
X78582446Y-5980127D01*
X78582442Y-5980125D01*
X78417711Y-5926600D01*
X78417698Y-5926597D01*
X78246612Y-5899500D01*
X78246611Y-5899500D01*
X78073389Y-5899500D01*
X78073388Y-5899500D01*
X77902301Y-5926597D01*
X77902288Y-5926600D01*
X77737557Y-5980125D01*
X77737553Y-5980127D01*
X77583212Y-6058767D01*
X77443076Y-6160582D01*
X77320582Y-6283076D01*
X77218767Y-6423212D01*
X77140127Y-6577553D01*
X77140125Y-6577557D01*
X77086600Y-6742288D01*
X77086597Y-6742301D01*
X77059500Y-6913388D01*
X76720500Y-6913388D01*
X76693402Y-6742299D01*
X76693400Y-6742294D01*
X76693399Y-6742288D01*
X76639874Y-6577557D01*
X76639872Y-6577553D01*
X76561232Y-6423212D01*
X76459417Y-6283076D01*
X76459416Y-6283075D01*
X76459414Y-6283072D01*
X76336928Y-6160586D01*
X76336925Y-6160583D01*
X76336923Y-6160582D01*
X76196787Y-6058767D01*
X76042446Y-5980127D01*
X76042442Y-5980125D01*
X75877711Y-5926600D01*
X75877698Y-5926597D01*
X75706612Y-5899500D01*
X75706611Y-5899500D01*
X75533389Y-5899500D01*
X75533388Y-5899500D01*
X75362301Y-5926597D01*
X75362288Y-5926600D01*
X75197557Y-5980125D01*
X75197553Y-5980127D01*
X75043212Y-6058767D01*
X74903076Y-6160582D01*
X74780582Y-6283076D01*
X74678767Y-6423212D01*
X74600127Y-6577553D01*
X74600125Y-6577557D01*
X74546600Y-6742288D01*
X74546597Y-6742301D01*
X74519500Y-6913388D01*
X74180500Y-6913388D01*
X74153402Y-6742299D01*
X74153400Y-6742294D01*
X74153399Y-6742288D01*
X74099875Y-6577560D01*
X74099871Y-6577551D01*
X74078004Y-6534635D01*
X74073560Y-6478172D01*
X74091610Y-6448715D01*
X75193153Y-5347174D01*
X75245479Y-5325500D01*
X92700500Y-5325500D01*
X92752826Y-5347174D01*
X92774500Y-5399500D01*
X92774500Y-5679266D01*
X92777354Y-5709699D01*
X92777354Y-5709701D01*
X92777355Y-5709704D01*
X92822206Y-5837881D01*
X92822207Y-5837883D01*
X92902846Y-5947146D01*
X92902853Y-5947153D01*
X93012116Y-6027792D01*
X93012118Y-6027793D01*
X93140295Y-6072644D01*
X93140301Y-6072646D01*
X93170734Y-6075500D01*
X93170741Y-6075500D01*
X93904258Y-6075500D01*
X93904266Y-6075500D01*
X93934699Y-6072646D01*
X94062882Y-6027793D01*
X94172150Y-5947150D01*
X94252793Y-5837882D01*
X94297646Y-5709699D01*
X94300500Y-5679266D01*
X94300500Y-4320734D01*
X94297646Y-4290301D01*
X94252793Y-4162118D01*
X94252792Y-4162116D01*
X94172153Y-4052853D01*
X94172146Y-4052846D01*
X94062883Y-3972207D01*
X94062881Y-3972206D01*
X93934704Y-3927355D01*
X93934705Y-3927355D01*
X93934700Y-3927354D01*
X93934699Y-3927354D01*
X93904266Y-3924500D01*
X93170734Y-3924500D01*
X93140301Y-3927354D01*
X93140299Y-3927354D01*
X93140295Y-3927355D01*
X93012118Y-3972206D01*
X93012116Y-3972207D01*
X92902853Y-4052846D01*
X92902846Y-4052853D01*
X92822207Y-4162116D01*
X92822206Y-4162118D01*
X92777355Y-4290295D01*
X92777354Y-4290299D01*
X92777354Y-4290301D01*
X92774500Y-4320734D01*
X92774500Y-4320740D01*
X92774500Y-4600500D01*
X92752826Y-4652826D01*
X92700500Y-4674500D01*
X75122853Y-4674500D01*
X75037147Y-4674500D01*
X74954361Y-4696682D01*
X74954360Y-4696682D01*
X74954358Y-4696683D01*
X74954356Y-4696684D01*
X74880141Y-4739532D01*
X73631285Y-5988386D01*
X73578959Y-6010060D01*
X73545364Y-6001995D01*
X73502444Y-5980126D01*
X73502439Y-5980124D01*
X73337711Y-5926600D01*
X73337698Y-5926597D01*
X73166612Y-5899500D01*
X73166611Y-5899500D01*
X72993389Y-5899500D01*
X72993388Y-5899500D01*
X72822301Y-5926597D01*
X72822288Y-5926600D01*
X72657557Y-5980125D01*
X72657553Y-5980127D01*
X72503212Y-6058767D01*
X72363076Y-6160582D01*
X72240582Y-6283076D01*
X72138767Y-6423212D01*
X72060127Y-6577553D01*
X72060125Y-6577557D01*
X72006600Y-6742288D01*
X72006597Y-6742301D01*
X71979500Y-6913388D01*
X69100500Y-6913388D01*
X69100500Y-6080252D01*
X69088867Y-6021769D01*
X69078674Y-6006515D01*
X69061042Y-5980127D01*
X69044552Y-5955448D01*
X69001376Y-5926598D01*
X68978232Y-5911133D01*
X68978233Y-5911133D01*
X68948989Y-5905316D01*
X68919748Y-5899500D01*
X67080252Y-5899500D01*
X67051010Y-5905316D01*
X67021767Y-5911133D01*
X66955449Y-5955447D01*
X66955447Y-5955449D01*
X66911133Y-6021767D01*
X66907878Y-6038131D01*
X66899500Y-6080252D01*
X66899500Y-7919748D01*
X66904962Y-7947206D01*
X66911133Y-7978232D01*
X66938957Y-8019872D01*
X66955448Y-8044552D01*
X66991333Y-8068530D01*
X67021767Y-8088866D01*
X67021768Y-8088866D01*
X67021769Y-8088867D01*
X67080252Y-8100500D01*
X67500500Y-8100500D01*
X67552826Y-8122174D01*
X67574500Y-8174500D01*
X67574500Y-8332720D01*
X67603495Y-8440932D01*
X67603499Y-8440941D01*
X67659515Y-8537963D01*
X69552826Y-10431274D01*
X69574500Y-10483600D01*
X69574500Y-20238080D01*
X69552826Y-20290406D01*
X69512076Y-20311169D01*
X69487583Y-20315048D01*
X69487577Y-20315050D01*
X69369250Y-20375340D01*
X69275340Y-20469250D01*
X69215049Y-20587579D01*
X69215048Y-20587579D01*
X69199500Y-20685753D01*
X69199500Y-21189246D01*
X69215049Y-21287420D01*
X69275340Y-21405749D01*
X69369250Y-21499659D01*
X69417605Y-21524297D01*
X69487579Y-21559950D01*
X69487579Y-21559951D01*
X69585753Y-21575500D01*
X69585754Y-21575500D01*
X70005600Y-21575500D01*
X70057926Y-21597174D01*
X70538026Y-22077274D01*
X70559700Y-22129600D01*
X70559700Y-22360894D01*
X70538026Y-22413220D01*
X70485700Y-22434894D01*
X70474125Y-22433983D01*
X70414248Y-22424500D01*
X70414246Y-22424500D01*
X69585754Y-22424500D01*
X69585753Y-22424500D01*
X69487579Y-22440048D01*
X69487579Y-22440049D01*
X69369250Y-22500340D01*
X69275342Y-22594248D01*
X69274146Y-22596597D01*
X69272802Y-22597744D01*
X69271920Y-22598959D01*
X69271628Y-22598747D01*
X69231078Y-22633379D01*
X69208212Y-22637000D01*
X63356480Y-22637000D01*
X63248267Y-22665995D01*
X63248259Y-22665999D01*
X63207406Y-22689586D01*
X63170406Y-22699500D01*
X62295734Y-22699500D01*
X62265301Y-22702354D01*
X62265299Y-22702354D01*
X62265295Y-22702355D01*
X62137118Y-22747206D01*
X62137116Y-22747207D01*
X62027853Y-22827846D01*
X62027846Y-22827853D01*
X61947207Y-22937116D01*
X61947205Y-22937119D01*
X61925224Y-22999940D01*
X61887485Y-23042172D01*
X61855377Y-23049500D01*
X58769400Y-23049500D01*
X58717074Y-23027826D01*
X57016835Y-21327587D01*
X56995161Y-21275261D01*
X56995933Y-21264601D01*
X57000500Y-21233260D01*
X57000500Y-20866740D01*
X56990573Y-20798607D01*
X56939198Y-20693517D01*
X56856483Y-20610802D01*
X56856482Y-20610801D01*
X56751394Y-20559427D01*
X56683264Y-20549500D01*
X56683260Y-20549500D01*
X55591740Y-20549500D01*
X55591735Y-20549500D01*
X55523606Y-20559427D01*
X55523605Y-20559427D01*
X55418517Y-20610801D01*
X55335801Y-20693517D01*
X55284427Y-20798605D01*
X55284427Y-20798606D01*
X55274500Y-20866735D01*
X55274500Y-21204001D01*
X55252826Y-21256327D01*
X55200500Y-21278001D01*
X55148174Y-21256327D01*
X54737217Y-20845370D01*
X54716315Y-20803706D01*
X54715573Y-20798607D01*
X54664198Y-20693517D01*
X54581483Y-20610802D01*
X54581482Y-20610801D01*
X54476394Y-20559427D01*
X54408264Y-20549500D01*
X54408260Y-20549500D01*
X54362000Y-20549500D01*
X54309674Y-20527826D01*
X54288000Y-20475500D01*
X54288000Y-12243979D01*
X59574500Y-12243979D01*
X59574500Y-12356020D01*
X59603495Y-12464232D01*
X59603499Y-12464241D01*
X59643448Y-12533435D01*
X59659515Y-12561263D01*
X59738737Y-12640485D01*
X59835763Y-12696503D01*
X59835767Y-12696504D01*
X59948667Y-12726756D01*
X59948374Y-12727848D01*
X59986148Y-12746475D01*
X62652826Y-15413152D01*
X62674500Y-15465478D01*
X62674500Y-19675500D01*
X62652826Y-19727826D01*
X62600500Y-19749500D01*
X62295734Y-19749500D01*
X62265301Y-19752354D01*
X62265299Y-19752354D01*
X62265295Y-19752355D01*
X62137118Y-19797206D01*
X62137116Y-19797207D01*
X62027853Y-19877846D01*
X62027846Y-19877853D01*
X61947207Y-19987116D01*
X61947206Y-19987118D01*
X61902355Y-20115295D01*
X61902354Y-20115299D01*
X61902354Y-20115301D01*
X61899500Y-20145734D01*
X61899500Y-20904266D01*
X61902354Y-20934699D01*
X61902354Y-20934701D01*
X61902355Y-20934704D01*
X61947206Y-21062881D01*
X61947207Y-21062883D01*
X62027846Y-21172146D01*
X62027853Y-21172153D01*
X62137116Y-21252792D01*
X62137118Y-21252793D01*
X62265295Y-21297644D01*
X62265301Y-21297646D01*
X62295734Y-21300500D01*
X62295741Y-21300500D01*
X63704258Y-21300500D01*
X63704266Y-21300500D01*
X63734699Y-21297646D01*
X63862882Y-21252793D01*
X63972150Y-21172150D01*
X64052793Y-21062882D01*
X64097646Y-20934699D01*
X64100500Y-20904266D01*
X64100500Y-20145734D01*
X64097646Y-20115301D01*
X64052793Y-19987118D01*
X64052792Y-19987116D01*
X63972153Y-19877853D01*
X63972146Y-19877846D01*
X63862883Y-19797207D01*
X63862881Y-19797206D01*
X63734704Y-19752355D01*
X63734705Y-19752355D01*
X63734700Y-19752354D01*
X63734699Y-19752354D01*
X63704266Y-19749500D01*
X63704260Y-19749500D01*
X63399500Y-19749500D01*
X63347174Y-19727826D01*
X63325500Y-19675500D01*
X63325500Y-15348824D01*
X63325501Y-15348811D01*
X63325501Y-15257145D01*
X63325500Y-15257144D01*
X63303319Y-15174364D01*
X63303317Y-15174359D01*
X63270782Y-15118008D01*
X63266813Y-15111133D01*
X63260465Y-15100138D01*
X63199862Y-15039535D01*
X63199859Y-15039533D01*
X61011732Y-12851405D01*
X60990058Y-12799079D01*
X61011732Y-12746753D01*
X61051444Y-12727173D01*
X61051333Y-12726756D01*
X61053432Y-12726193D01*
X61054413Y-12725710D01*
X61056006Y-12725500D01*
X61056018Y-12725500D01*
X61164237Y-12696503D01*
X61261263Y-12640485D01*
X61340485Y-12561263D01*
X61396503Y-12464237D01*
X61425499Y-12356020D01*
X61425500Y-12356020D01*
X61425500Y-9992996D01*
X61447174Y-9940670D01*
X61458386Y-9931468D01*
X61510289Y-9896789D01*
X61621789Y-9785289D01*
X61709394Y-9654179D01*
X61769737Y-9508497D01*
X61800500Y-9353842D01*
X61800500Y-8646158D01*
X61769737Y-8491503D01*
X61709394Y-8345821D01*
X61621789Y-8214711D01*
X61510289Y-8103211D01*
X61510286Y-8103209D01*
X61458385Y-8068530D01*
X61379179Y-8015606D01*
X61379175Y-8015604D01*
X61379173Y-8015603D01*
X61379174Y-8015603D01*
X61233501Y-7955264D01*
X61233491Y-7955261D01*
X61129925Y-7934661D01*
X61078842Y-7924500D01*
X60921158Y-7924500D01*
X60877315Y-7933220D01*
X60766508Y-7955261D01*
X60766498Y-7955264D01*
X60620825Y-8015603D01*
X60489711Y-8103210D01*
X60489710Y-8103212D01*
X60378212Y-8214710D01*
X60378210Y-8214711D01*
X60290603Y-8345825D01*
X60230264Y-8491498D01*
X60230261Y-8491508D01*
X60199500Y-8646159D01*
X60199500Y-9353840D01*
X60230261Y-9508491D01*
X60230264Y-9508501D01*
X60290603Y-9654174D01*
X60290605Y-9654177D01*
X60290606Y-9654179D01*
X60324073Y-9704266D01*
X60369345Y-9772021D01*
X60378211Y-9785289D01*
X60489711Y-9896789D01*
X60541611Y-9931467D01*
X60573078Y-9978558D01*
X60574500Y-9992996D01*
X60574500Y-11800500D01*
X60552826Y-11852826D01*
X60500500Y-11874500D01*
X59943980Y-11874500D01*
X59835767Y-11903495D01*
X59835758Y-11903499D01*
X59738736Y-11959515D01*
X59659515Y-12038736D01*
X59603499Y-12135758D01*
X59603495Y-12135767D01*
X59574500Y-12243979D01*
X54288000Y-12243979D01*
X54288000Y-10344399D01*
X54309673Y-10292074D01*
X54507607Y-10094139D01*
X54559932Y-10072466D01*
X54566807Y-10072787D01*
X54595734Y-10075500D01*
X54595743Y-10075500D01*
X55404258Y-10075500D01*
X55404266Y-10075500D01*
X55434699Y-10072646D01*
X55562882Y-10027793D01*
X55672150Y-9947150D01*
X55752793Y-9837882D01*
X55797646Y-9709699D01*
X55800500Y-9679266D01*
X55800500Y-8320734D01*
X55797646Y-8290301D01*
X55752793Y-8162118D01*
X55752792Y-8162116D01*
X55672153Y-8052853D01*
X55672146Y-8052846D01*
X55562883Y-7972207D01*
X55562881Y-7972206D01*
X55434704Y-7927355D01*
X55434705Y-7927355D01*
X55434700Y-7927354D01*
X55434699Y-7927354D01*
X55404266Y-7924500D01*
X54595734Y-7924500D01*
X54565301Y-7927354D01*
X54565299Y-7927354D01*
X54565295Y-7927355D01*
X54437118Y-7972206D01*
X54437116Y-7972207D01*
X54327853Y-8052846D01*
X54327846Y-8052853D01*
X54247207Y-8162116D01*
X54247206Y-8162118D01*
X54202355Y-8290295D01*
X54202354Y-8290299D01*
X54202354Y-8290301D01*
X54199500Y-8320734D01*
X54199500Y-8320740D01*
X54199500Y-9168100D01*
X54177826Y-9220426D01*
X53522015Y-9876236D01*
X53465999Y-9973258D01*
X53465995Y-9973267D01*
X53437000Y-10081479D01*
X53437000Y-20475500D01*
X53415326Y-20527826D01*
X53363000Y-20549500D01*
X53316735Y-20549500D01*
X53248606Y-20559427D01*
X53248605Y-20559427D01*
X53143517Y-20610801D01*
X53060801Y-20693517D01*
X53009427Y-20798605D01*
X53009427Y-20798606D01*
X52999500Y-20866735D01*
X52999500Y-21233264D01*
X53009427Y-21301393D01*
X53009427Y-21301394D01*
X53060801Y-21406482D01*
X53126993Y-21472674D01*
X53137707Y-21498540D01*
X53148664Y-21524297D01*
X53148520Y-21524647D01*
X53148667Y-21525000D01*
X53127488Y-21576826D01*
X53127227Y-21577091D01*
X53060802Y-21643517D01*
X53059559Y-21646058D01*
X53053410Y-21652326D01*
X53032260Y-21661322D01*
X53012766Y-21673491D01*
X53001453Y-21674428D01*
X53001292Y-21674497D01*
X53001178Y-21674451D01*
X53000589Y-21674500D01*
X50639145Y-21674500D01*
X50556366Y-21696680D01*
X50556360Y-21696683D01*
X50482137Y-21739535D01*
X50421535Y-21800137D01*
X50378683Y-21874360D01*
X50378680Y-21874366D01*
X50356500Y-21957144D01*
X50356500Y-22042855D01*
X50378680Y-22125633D01*
X50378681Y-22125635D01*
X50378682Y-22125638D01*
X50421535Y-22199862D01*
X50482138Y-22260465D01*
X50556362Y-22303318D01*
X50639144Y-22325499D01*
X50639145Y-22325500D01*
X50639147Y-22325500D01*
X53000589Y-22325500D01*
X53052915Y-22347174D01*
X53053410Y-22347674D01*
X53059559Y-22353941D01*
X53060802Y-22356483D01*
X53127227Y-22422908D01*
X53127488Y-22423174D01*
X53137945Y-22449114D01*
X53148667Y-22475000D01*
X53148521Y-22475350D01*
X53148664Y-22475703D01*
X53137707Y-22501459D01*
X53126993Y-22527326D01*
X53060801Y-22593517D01*
X53009427Y-22698605D01*
X53009427Y-22698606D01*
X52999500Y-22766735D01*
X52999500Y-22975500D01*
X52977826Y-23027826D01*
X52925500Y-23049500D01*
X49074000Y-23049500D01*
X49021674Y-23027826D01*
X49000000Y-22975500D01*
X49000000Y-9251499D01*
X49021674Y-9199173D01*
X49077747Y-9143100D01*
X49948635Y-8272211D01*
X49986293Y-8252007D01*
X56485837Y-6938051D01*
X56541420Y-6948927D01*
X56573033Y-6995921D01*
X56574500Y-7010584D01*
X56574500Y-8007002D01*
X56552826Y-8059328D01*
X56541613Y-8068530D01*
X56489716Y-8103206D01*
X56489713Y-8103209D01*
X56378211Y-8214710D01*
X56378210Y-8214711D01*
X56290603Y-8345825D01*
X56230264Y-8491498D01*
X56230261Y-8491508D01*
X56199500Y-8646159D01*
X56199500Y-9353840D01*
X56230261Y-9508491D01*
X56230264Y-9508501D01*
X56290603Y-9654174D01*
X56290605Y-9654177D01*
X56290606Y-9654179D01*
X56324073Y-9704266D01*
X56369345Y-9772021D01*
X56378211Y-9785289D01*
X56489711Y-9896789D01*
X56620821Y-9984394D01*
X56620826Y-9984396D01*
X56620825Y-9984396D01*
X56725596Y-10027793D01*
X56766503Y-10044737D01*
X56921158Y-10075500D01*
X56921160Y-10075500D01*
X57078840Y-10075500D01*
X57078842Y-10075500D01*
X57233497Y-10044737D01*
X57379179Y-9984394D01*
X57510289Y-9896789D01*
X57621789Y-9785289D01*
X57709394Y-9654179D01*
X57769737Y-9508497D01*
X57800500Y-9353842D01*
X57800500Y-8646159D01*
X58199500Y-8646159D01*
X58199500Y-9353840D01*
X58230261Y-9508491D01*
X58230264Y-9508501D01*
X58290603Y-9654174D01*
X58290605Y-9654177D01*
X58290606Y-9654179D01*
X58324073Y-9704266D01*
X58369345Y-9772021D01*
X58378211Y-9785289D01*
X58489711Y-9896789D01*
X58620821Y-9984394D01*
X58620826Y-9984396D01*
X58620825Y-9984396D01*
X58725596Y-10027793D01*
X58766503Y-10044737D01*
X58921158Y-10075500D01*
X58921160Y-10075500D01*
X59078840Y-10075500D01*
X59078842Y-10075500D01*
X59233497Y-10044737D01*
X59379179Y-9984394D01*
X59510289Y-9896789D01*
X59621789Y-9785289D01*
X59709394Y-9654179D01*
X59769737Y-9508497D01*
X59800500Y-9353842D01*
X59800500Y-8646158D01*
X59769737Y-8491503D01*
X59709394Y-8345821D01*
X59621789Y-8214711D01*
X59510289Y-8103211D01*
X59510286Y-8103209D01*
X59458385Y-8068530D01*
X59379179Y-8015606D01*
X59379175Y-8015604D01*
X59379173Y-8015603D01*
X59379174Y-8015603D01*
X59233501Y-7955264D01*
X59233491Y-7955261D01*
X59129925Y-7934661D01*
X59078842Y-7924500D01*
X58921158Y-7924500D01*
X58877315Y-7933220D01*
X58766508Y-7955261D01*
X58766498Y-7955264D01*
X58620825Y-8015603D01*
X58489711Y-8103210D01*
X58489710Y-8103212D01*
X58378212Y-8214710D01*
X58378210Y-8214711D01*
X58290603Y-8345825D01*
X58230264Y-8491498D01*
X58230261Y-8491508D01*
X58199500Y-8646159D01*
X57800500Y-8646159D01*
X57800500Y-8646158D01*
X57769737Y-8491503D01*
X57709394Y-8345821D01*
X57621789Y-8214711D01*
X57510289Y-8103211D01*
X57510285Y-8103208D01*
X57510283Y-8103206D01*
X57458387Y-8068530D01*
X57426922Y-8021438D01*
X57425500Y-8007002D01*
X57425500Y-6413266D01*
X57428163Y-6370593D01*
X57425500Y-6357420D01*
X57425500Y-6343982D01*
X57415022Y-6304880D01*
X57413979Y-6300440D01*
X57405962Y-6260779D01*
X57403279Y-6255381D01*
X57398064Y-6241590D01*
X57396503Y-6235763D01*
X57375122Y-6198731D01*
X57356097Y-6160452D01*
X57347205Y-6150376D01*
X57343499Y-6143957D01*
X57340489Y-6138743D01*
X57340487Y-6138740D01*
X57340485Y-6138737D01*
X57311871Y-6110123D01*
X57311871Y-6110122D01*
X57310239Y-6108490D01*
X57281963Y-6076450D01*
X57270768Y-6069020D01*
X57261263Y-6059515D01*
X57253010Y-6054750D01*
X57226223Y-6039283D01*
X57226223Y-6039284D01*
X57224226Y-6038131D01*
X57188614Y-6014497D01*
X57175877Y-6010217D01*
X57169465Y-6006515D01*
X57169464Y-6006514D01*
X57164238Y-6003497D01*
X57125165Y-5993026D01*
X57125165Y-5993027D01*
X57122927Y-5992427D01*
X57082412Y-5978815D01*
X57068997Y-5977977D01*
X57061842Y-5976060D01*
X57056018Y-5974500D01*
X57013266Y-5974500D01*
X56970593Y-5971837D01*
X56957420Y-5974500D01*
X56943982Y-5974500D01*
X56904911Y-5984968D01*
X56900423Y-5986022D01*
X52137372Y-6948927D01*
X50610023Y-7257698D01*
X49718977Y-7437833D01*
X49718976Y-7437833D01*
X49711718Y-7439300D01*
X49698282Y-7439300D01*
X49657011Y-7450357D01*
X49654723Y-7450820D01*
X49654723Y-7450821D01*
X49628866Y-7456049D01*
X49615079Y-7458837D01*
X49615077Y-7458837D01*
X49615076Y-7458838D01*
X49615071Y-7458839D01*
X49609671Y-7461522D01*
X49609672Y-7461523D01*
X49603040Y-7464818D01*
X49590063Y-7468297D01*
X49553053Y-7489663D01*
X49550993Y-7490688D01*
X49550981Y-7490695D01*
X49534190Y-7499041D01*
X49514752Y-7508703D01*
X49514751Y-7508704D01*
X49514744Y-7508708D01*
X49510215Y-7512705D01*
X49510214Y-7512704D01*
X49504666Y-7517600D01*
X49493037Y-7524315D01*
X49462827Y-7554523D01*
X49461091Y-7556056D01*
X49461078Y-7556069D01*
X49430748Y-7582837D01*
X49427408Y-7587869D01*
X49418083Y-7599267D01*
X49126326Y-7891025D01*
X49074000Y-7912699D01*
X49021674Y-7891025D01*
X49000000Y-7838699D01*
X49000000Y-3374036D01*
X104899500Y-3374036D01*
X104899500Y-3625963D01*
X104938909Y-3874782D01*
X104938912Y-3874795D01*
X105016756Y-4114373D01*
X105131129Y-4338845D01*
X105279203Y-4542651D01*
X105279207Y-4542656D01*
X105457344Y-4720793D01*
X105457347Y-4720795D01*
X105457348Y-4720796D01*
X105661154Y-4868870D01*
X105769345Y-4923995D01*
X105885621Y-4983241D01*
X105885623Y-4983241D01*
X105885626Y-4983243D01*
X106125204Y-5061087D01*
X106125210Y-5061088D01*
X106125215Y-5061090D01*
X106249626Y-5080795D01*
X106374036Y-5100500D01*
X106374038Y-5100500D01*
X106625964Y-5100500D01*
X106725491Y-5084736D01*
X106874785Y-5061090D01*
X106874792Y-5061087D01*
X106874795Y-5061087D01*
X107114373Y-4983243D01*
X107114373Y-4983242D01*
X107114379Y-4983241D01*
X107338845Y-4868870D01*
X107542656Y-4720793D01*
X107720793Y-4542656D01*
X107868870Y-4338845D01*
X107983241Y-4114379D01*
X108061090Y-3874785D01*
X108100500Y-3625962D01*
X108100500Y-3374038D01*
X108061090Y-3125215D01*
X108061088Y-3125210D01*
X108061087Y-3125204D01*
X107983243Y-2885626D01*
X107983241Y-2885623D01*
X107983241Y-2885621D01*
X107923995Y-2769345D01*
X107868870Y-2661154D01*
X107720796Y-2457348D01*
X107720795Y-2457347D01*
X107720793Y-2457344D01*
X107542656Y-2279207D01*
X107542653Y-2279204D01*
X107542651Y-2279203D01*
X107338845Y-2131129D01*
X107114373Y-2016756D01*
X106874795Y-1938912D01*
X106874782Y-1938909D01*
X106625964Y-1899500D01*
X106625962Y-1899500D01*
X106374038Y-1899500D01*
X106374036Y-1899500D01*
X106125217Y-1938909D01*
X106125204Y-1938912D01*
X105885626Y-2016756D01*
X105661154Y-2131129D01*
X105457348Y-2279203D01*
X105279203Y-2457348D01*
X105131129Y-2661154D01*
X105016756Y-2885626D01*
X104938912Y-3125204D01*
X104938909Y-3125217D01*
X104899500Y-3374036D01*
X49000000Y-3374036D01*
X49000000Y-574000D01*
X49021674Y-521674D01*
X49074000Y-500000D01*
X109426000Y-500000D01*
X109478326Y-521674D01*
G37*
%TD.AperFunction*%
%TD*%
M02*
