M48
; DRILL file {KiCad 9.0.2+dfsg-1} date 2026-09-12T11:05:54+0000
; FORMAT={-:-/ absolute / metric / decimal}
; #@! TF.CreationDate,2026-09-12T11:05:54+00:00
; #@! TF.GenerationSoftware,Kicad,Pcbnew,9.0.2+dfsg-1
; #@! TF.FileFunction,MixedPlating,1,2
FMAT,2
METRIC
; #@! TA.AperFunction,Plated,PTH,ViaDrill
T1C0.300
; #@! TA.AperFunction,Plated,PTH,ViaDrill
T2C0.400
; #@! TA.AperFunction,Plated,PTH,ComponentDrill
T3C0.750
; #@! TA.AperFunction,Plated,PTH,ComponentDrill
T4C1.000
; #@! TA.AperFunction,Plated,PTH,ComponentDrill
T5C1.300
; #@! TA.AperFunction,NonPlated,NPTH,ComponentDrill
T6C3.200
%
G90
G05
T1
X12.0Y-65.0
X14.0Y-58.0
X20.487Y-33.75
X22.0Y-38.0
X22.238Y-54.012
X24.011Y-37.641
X28.223Y-36.462
X33.0Y-28.0
X37.13Y-13.064
X42.0Y-48.0
X43.087Y-24.712
X46.39Y-48.162
X53.475Y-58.0
X60.0Y-28.0
X63.936Y-38.85
X65.987Y-38.811
X72.871Y-24.144
X73.905Y-41.168
X78.656Y-39.387
X82.216Y-32.384
X85.0Y-48.0
X92.922Y-25.135
X94.825Y-18.242
X95.0Y-28.0
X95.953Y-21.263
X97.206Y-16.986
X97.656Y-20.901
X102.0Y-55.0
X102.421Y-16.258
X102.655Y-39.975
X103.475Y-18.13
X108.0Y-15.0
T2
X25.686Y-27.244
X93.838Y-22.119
T3
X6.0Y-38.0
X6.0Y-40.0
X6.0Y-52.0
X6.0Y-54.0
X10.0Y-63.0
X12.0Y-63.0
X55.0Y-9.0
X57.0Y-9.0
X59.0Y-9.0
X61.0Y-9.0
T4
X11.11Y-12.38
X11.11Y-14.92
X11.11Y-17.46
X11.11Y-20.0
X11.11Y-22.54
X11.11Y-25.08
X11.11Y-27.62
X18.0Y-58.0
X20.0Y-31.5
X20.54Y-58.0
X23.08Y-58.0
X25.62Y-58.0
X28.89Y-12.38
X28.89Y-14.92
X28.89Y-17.46
X28.89Y-20.0
X28.89Y-22.54
X28.89Y-25.08
X28.89Y-27.62
X32.0Y-58.0
X34.54Y-58.0
X37.08Y-58.0
X39.62Y-58.0
X68.0Y-7.0
X70.54Y-7.0
X73.08Y-7.0
X75.62Y-7.0
X78.16Y-7.0
X80.7Y-7.0
T5
X58.0Y-62.0
X63.08Y-62.0
X78.0Y-62.0
X83.08Y-62.0
X90.0Y-62.0
X95.08Y-62.0
T6
X3.5Y-3.5
X3.5Y-66.5
X21.81Y-63.0
X35.81Y-63.0
X74.35Y-12.0
X106.5Y-3.5
X106.5Y-66.5
M30
