%TF.GenerationSoftware,KiCad,Pcbnew,9.0.9-9.0.9~ubuntu24.04.1*%
%TF.CreationDate,2026-09-14T09:35:22+00:00*%
%TF.ProjectId,PinaBiosensor_Mini,50696e61-4269-46f7-9365-6e736f725f4d,rev?*%
%TF.SameCoordinates,Original*%
%TF.FileFunction,Paste,Top*%
%TF.FilePolarity,Positive*%
%FSLAX46Y46*%
G04 Gerber Fmt 4.6, Leading zero omitted, Abs format (unit mm)*
G04 Created by KiCad (PCBNEW 9.0.9-9.0.9~ubuntu24.04.1) date 2026-09-14 09:35:22*
%MOMM*%
%LPD*%
G01*
G04 APERTURE LIST*
G04 Aperture macros list*
%AMRoundRect*
0 Rectangle with rounded corners*
0 $1 Rounding radius*
0 $2 $3 $4 $5 $6 $7 $8 $9 X,Y pos of 4 corners*
0 Add a 4 corners polygon primitive as box body*
4,1,4,$2,$3,$4,$5,$6,$7,$8,$9,$2,$3,0*
0 Add four circle primitives for the rounded corners*
1,1,$1+$1,$2,$3*
1,1,$1+$1,$4,$5*
1,1,$1+$1,$6,$7*
1,1,$1+$1,$8,$9*
0 Add four rect primitives between the rounded corners*
20,1,$1+$1,$2,$3,$4,$5,0*
20,1,$1+$1,$4,$5,$6,$7,0*
20,1,$1+$1,$6,$7,$8,$9,0*
20,1,$1+$1,$8,$9,$2,$3,0*%
G04 Aperture macros list end*
%ADD10RoundRect,0.250000X0.625000X-0.312500X0.625000X0.312500X-0.625000X0.312500X-0.625000X-0.312500X0*%
%ADD11RoundRect,0.112500X0.112500X-0.187500X0.112500X0.187500X-0.112500X0.187500X-0.112500X-0.187500X0*%
%ADD12RoundRect,0.250000X0.650000X-0.325000X0.650000X0.325000X-0.650000X0.325000X-0.650000X-0.325000X0*%
%ADD13RoundRect,0.150000X-0.512500X-0.150000X0.512500X-0.150000X0.512500X0.150000X-0.512500X0.150000X0*%
%ADD14RoundRect,0.250000X-0.325000X-0.650000X0.325000X-0.650000X0.325000X0.650000X-0.325000X0.650000X0*%
%ADD15RoundRect,0.250000X-0.312500X-0.625000X0.312500X-0.625000X0.312500X0.625000X-0.312500X0.625000X0*%
%ADD16RoundRect,0.150000X-0.825000X-0.150000X0.825000X-0.150000X0.825000X0.150000X-0.825000X0.150000X0*%
%ADD17RoundRect,0.218750X0.381250X-0.218750X0.381250X0.218750X-0.381250X0.218750X-0.381250X-0.218750X0*%
%ADD18R,0.250000X1.100000*%
G04 APERTURE END LIST*
D10*
%TO.C,R15*%
X102000000Y-41462500D03*
X102000000Y-38537500D03*
%TD*%
D11*
%TO.C,D2*%
X45000000Y-51050000D03*
X45000000Y-48950000D03*
%TD*%
D10*
%TO.C,R17*%
X102000000Y-56462500D03*
X102000000Y-53537500D03*
%TD*%
D12*
%TO.C,C13*%
X107000000Y-49475000D03*
X107000000Y-46525000D03*
%TD*%
D13*
%TO.C,U2*%
X53862500Y-21050000D03*
X53862500Y-22000000D03*
X53862500Y-22950000D03*
X56137500Y-22950000D03*
X56137500Y-21050000D03*
%TD*%
D14*
%TO.C,C11*%
X26525000Y-48000000D03*
X29475000Y-48000000D03*
%TD*%
D10*
%TO.C,R4*%
X87000000Y-33462500D03*
X87000000Y-30537500D03*
%TD*%
D15*
%TO.C,R7*%
X26537500Y-42000000D03*
X29462500Y-42000000D03*
%TD*%
%TO.C,R8*%
X34537500Y-44000000D03*
X37462500Y-44000000D03*
%TD*%
D14*
%TO.C,C12*%
X50525000Y-56000000D03*
X53475000Y-56000000D03*
%TD*%
D16*
%TO.C,U3*%
X67525000Y-36190000D03*
X67525000Y-37460000D03*
X67525000Y-38730000D03*
X67525000Y-40000000D03*
X67525000Y-41270000D03*
X67525000Y-42540000D03*
X67525000Y-43810000D03*
X72475000Y-43810000D03*
X72475000Y-42540000D03*
X72475000Y-41270000D03*
X72475000Y-40000000D03*
X72475000Y-38730000D03*
X72475000Y-37460000D03*
X72475000Y-36190000D03*
%TD*%
D17*
%TO.C,FB1*%
X70000000Y-23062500D03*
X70000000Y-20937500D03*
%TD*%
D12*
%TO.C,C5*%
X92000000Y-41475000D03*
X92000000Y-38525000D03*
%TD*%
D10*
%TO.C,R3*%
X82000000Y-33462500D03*
X82000000Y-30537500D03*
%TD*%
D15*
%TO.C,R5*%
X80537500Y-40000000D03*
X83462500Y-40000000D03*
%TD*%
D12*
%TO.C,C4*%
X77000000Y-23475000D03*
X77000000Y-20525000D03*
%TD*%
D14*
%TO.C,C8*%
X94525000Y-28000000D03*
X97475000Y-28000000D03*
%TD*%
D10*
%TO.C,R6*%
X104000000Y-19462500D03*
X104000000Y-16537500D03*
%TD*%
%TO.C,R16*%
X102000000Y-49462500D03*
X102000000Y-46537500D03*
%TD*%
D11*
%TO.C,D1*%
X92000000Y-51050000D03*
X92000000Y-48950000D03*
%TD*%
D10*
%TO.C,R1*%
X40000000Y-27462500D03*
X40000000Y-24537500D03*
%TD*%
D12*
%TO.C,C6*%
X58000000Y-41475000D03*
X58000000Y-38525000D03*
%TD*%
D14*
%TO.C,C14*%
X100525000Y-14000000D03*
X103475000Y-14000000D03*
%TD*%
D11*
%TO.C,D3*%
X107000000Y-56050000D03*
X107000000Y-53950000D03*
%TD*%
D15*
%TO.C,R13*%
X62537500Y-54000000D03*
X65462500Y-54000000D03*
%TD*%
D14*
%TO.C,C7*%
X100525000Y-9000000D03*
X103475000Y-9000000D03*
%TD*%
D10*
%TO.C,R2*%
X40000000Y-34462500D03*
X40000000Y-31537500D03*
%TD*%
%TO.C,R11*%
X80000000Y-51462500D03*
X80000000Y-48537500D03*
%TD*%
%TO.C,R9*%
X68000000Y-51462500D03*
X68000000Y-48537500D03*
%TD*%
D12*
%TO.C,C1*%
X47000000Y-23475000D03*
X47000000Y-20525000D03*
%TD*%
D10*
%TO.C,R10*%
X74000000Y-51462500D03*
X74000000Y-48537500D03*
%TD*%
D12*
%TO.C,C2*%
X63000000Y-23475000D03*
X63000000Y-20525000D03*
%TD*%
D14*
%TO.C,C10*%
X16525000Y-48000000D03*
X19475000Y-48000000D03*
%TD*%
D15*
%TO.C,R18*%
X93537500Y-5000000D03*
X96462500Y-5000000D03*
%TD*%
D18*
%TO.C,U4*%
X95000000Y-20150000D03*
X95500000Y-20150000D03*
X96000000Y-20150000D03*
X96500000Y-20150000D03*
X97000000Y-20150000D03*
X97000000Y-15850000D03*
X96500000Y-15850000D03*
X96000000Y-15850000D03*
X95500000Y-15850000D03*
X95000000Y-15850000D03*
%TD*%
D15*
%TO.C,R14*%
X56537500Y-54000000D03*
X59462500Y-54000000D03*
%TD*%
D10*
%TO.C,R12*%
X55000000Y-51462500D03*
X55000000Y-48537500D03*
%TD*%
D12*
%TO.C,C9*%
X86000000Y-51475000D03*
X86000000Y-48525000D03*
%TD*%
M02*
