%TF.GenerationSoftware,KiCad,Pcbnew,9.0.9-9.0.9~ubuntu24.04.1*%
%TF.CreationDate,2026-09-14T09:35:22+00:00*%
%TF.ProjectId,PinaBiosensor_Mini,50696e61-4269-46f7-9365-6e736f725f4d,rev?*%
%TF.SameCoordinates,Original*%
%TF.FileFunction,Copper,L2,Bot*%
%TF.FilePolarity,Positive*%
%FSLAX46Y46*%
G04 Gerber Fmt 4.6, Leading zero omitted, Abs format (unit mm)*
G04 Created by KiCad (PCBNEW 9.0.9-9.0.9~ubuntu24.04.1) date 2026-09-14 09:35:22*
%MOMM*%
%LPD*%
G01*
G04 APERTURE LIST*
G04 Aperture macros list*
%AMRoundRect*
0 Rectangle with rounded corners*
0 $1 Rounding radius*
0 $2 $3 $4 $5 $6 $7 $8 $9 X,Y pos of 4 corners*
0 Add a 4 corners polygon primitive as box body*
4,1,4,$2,$3,$4,$5,$6,$7,$8,$9,$2,$3,0*
0 Add four circle primitives for the rounded corners*
1,1,$1+$1,$2,$3*
1,1,$1+$1,$4,$5*
1,1,$1+$1,$6,$7*
1,1,$1+$1,$8,$9*
0 Add four rect primitives between the rounded corners*
20,1,$1+$1,$2,$3,$4,$5,0*
20,1,$1+$1,$4,$5,$6,$7,0*
20,1,$1+$1,$6,$7,$8,$9,0*
20,1,$1+$1,$8,$9,$2,$3,0*%
G04 Aperture macros list end*
%TA.AperFunction,ComponentPad*%
%ADD10RoundRect,0.250000X-1.000000X-1.000000X1.000000X-1.000000X1.000000X1.000000X-1.000000X1.000000X0*%
%TD*%
%TA.AperFunction,ComponentPad*%
%ADD11C,2.500000*%
%TD*%
%TA.AperFunction,ComponentPad*%
%ADD12R,1.800000X1.800000*%
%TD*%
%TA.AperFunction,ComponentPad*%
%ADD13C,1.800000*%
%TD*%
%TA.AperFunction,ComponentPad*%
%ADD14R,1.700000X1.700000*%
%TD*%
%TA.AperFunction,ComponentPad*%
%ADD15C,1.700000*%
%TD*%
%TA.AperFunction,ComponentPad*%
%ADD16C,2.000000*%
%TD*%
%TA.AperFunction,ComponentPad*%
%ADD17RoundRect,0.250000X0.625000X-0.350000X0.625000X0.350000X-0.625000X0.350000X-0.625000X-0.350000X0*%
%TD*%
%TA.AperFunction,ComponentPad*%
%ADD18O,1.750000X1.200000*%
%TD*%
%TA.AperFunction,ComponentPad*%
%ADD19RoundRect,0.250000X-0.350000X-0.625000X0.350000X-0.625000X0.350000X0.625000X-0.350000X0.625000X0*%
%TD*%
%TA.AperFunction,ComponentPad*%
%ADD20O,1.200000X1.750000*%
%TD*%
%TA.AperFunction,ViaPad*%
%ADD21C,0.600000*%
%TD*%
%TA.AperFunction,ViaPad*%
%ADD22C,0.800000*%
%TD*%
%TA.AperFunction,Conductor*%
%ADD23C,0.250000*%
%TD*%
%TA.AperFunction,Conductor*%
%ADD24C,0.450000*%
%TD*%
%TA.AperFunction,Conductor*%
%ADD25C,0.300000*%
%TD*%
G04 APERTURE END LIST*
D10*
%TO.P,J6,1*%
%TO.N,TH_ELEC*%
X58000000Y-62000000D03*
D11*
%TO.P,J6,2*%
%TO.N,GNDA*%
X63080000Y-62000000D03*
%TD*%
D12*
%TO.P,J8,1*%
%TO.N,V_ANALOG*%
X68000000Y-7000000D03*
D13*
%TO.P,J8,2*%
%TO.N,GNDA*%
X70540000Y-7000000D03*
%TO.P,J8,3*%
%TO.N,ECG_OUT*%
X73080000Y-7000000D03*
%TO.P,J8,4*%
%TO.N,ECG_LOP*%
X75620000Y-7000000D03*
%TO.P,J8,5*%
%TO.N,ECG_LON*%
X78160000Y-7000000D03*
%TO.P,J8,6*%
%TO.N,V_ANALOG*%
X80700000Y-7000000D03*
%TD*%
D12*
%TO.P,J5,1*%
%TO.N,+3V3*%
X32000000Y-58000000D03*
D13*
%TO.P,J5,2*%
%TO.N,GNDD*%
X34540000Y-58000000D03*
%TO.P,J5,3*%
%TO.N,SDA*%
X37080000Y-58000000D03*
%TO.P,J5,4*%
%TO.N,SCL*%
X39620000Y-58000000D03*
%TD*%
D14*
%TO.P,U1,1*%
%TO.N,VBAT_DIV*%
X11110000Y-1600000D03*
D15*
%TO.P,U1,2*%
%TO.N,N/C*%
X11110000Y-4140000D03*
%TO.P,U1,3*%
X11110000Y-6680000D03*
%TO.P,U1,4*%
%TO.N,SLEEP_N*%
X11110000Y-9220000D03*
%TO.P,U1,5*%
%TO.N,SDA*%
X11110000Y-11760000D03*
%TO.P,U1,6*%
%TO.N,SCL*%
X11110000Y-14300000D03*
%TO.P,U1,7*%
%TO.N,N/C*%
X11110000Y-16840000D03*
%TO.P,U1,8*%
X28890000Y-16840000D03*
%TO.P,U1,9*%
%TO.N,ECG_LOP*%
X28890000Y-14300000D03*
%TO.P,U1,10*%
%TO.N,ECG_LON*%
X28890000Y-11760000D03*
%TO.P,U1,11*%
%TO.N,N/C*%
X28890000Y-9220000D03*
%TO.P,U1,12*%
%TO.N,+3V3*%
X28890000Y-6680000D03*
%TO.P,U1,13*%
%TO.N,GNDD*%
X28890000Y-4140000D03*
%TO.P,U1,14*%
%TO.N,+5V*%
X28890000Y-1600000D03*
D16*
%TO.P,U1,15*%
%TO.N,V_BATT*%
X20000000Y-20720000D03*
%TD*%
D17*
%TO.P,J2,1*%
%TO.N,+5V*%
X6000000Y-40000000D03*
D18*
%TO.P,J2,2*%
%TO.N,GNDD*%
X6000000Y-38000000D03*
%TD*%
D10*
%TO.P,J3,1*%
%TO.N,GSR_ELEC*%
X78000000Y-62000000D03*
D11*
%TO.P,J3,2*%
%TO.N,GNDA*%
X83080000Y-62000000D03*
%TD*%
D12*
%TO.P,J4,1*%
%TO.N,+3V3*%
X18000000Y-58000000D03*
D13*
%TO.P,J4,2*%
%TO.N,GNDD*%
X20540000Y-58000000D03*
%TO.P,J4,3*%
%TO.N,SDA*%
X23080000Y-58000000D03*
%TO.P,J4,4*%
%TO.N,SCL*%
X25620000Y-58000000D03*
%TD*%
D19*
%TO.P,J10,1*%
%TO.N,V_BATT*%
X10000000Y-63000000D03*
D20*
%TO.P,J10,2*%
%TO.N,GNDD*%
X12000000Y-63000000D03*
%TD*%
D19*
%TO.P,J9,1*%
%TO.N,LDO_VIN*%
X55000000Y-9000000D03*
D20*
%TO.P,J9,2*%
%TO.N,V_BATT*%
X57000000Y-9000000D03*
%TO.P,J9,3*%
%TO.N,SLEEP_N*%
X59000000Y-9000000D03*
%TO.P,J9,4*%
%TO.N,GNDD*%
X61000000Y-9000000D03*
%TD*%
D17*
%TO.P,J1,1*%
%TO.N,V_BATT*%
X6000000Y-54000000D03*
D18*
%TO.P,J1,2*%
%TO.N,GNDD*%
X6000000Y-52000000D03*
%TD*%
D10*
%TO.P,J7,1*%
%TO.N,AB_ELEC*%
X90000000Y-62000000D03*
D11*
%TO.P,J7,2*%
%TO.N,GNDA*%
X95080000Y-62000000D03*
%TD*%
D21*
%TO.N,VBAT_DIV*%
X34400000Y-15600000D03*
X7550000Y-1600000D03*
X37130000Y-13064100D03*
X7550000Y-15600000D03*
%TO.N,SLEEP_N*%
X33800000Y-23500000D03*
X8350000Y-23500000D03*
X8350000Y-9220000D03*
%TO.N,SDA*%
X92922000Y-25135000D03*
X28223300Y-36462500D03*
X9150000Y-11760000D03*
X22238000Y-54012500D03*
X9150000Y-29000000D03*
X24011400Y-37640800D03*
X28220000Y-29000000D03*
%TO.N,SCL*%
X9950000Y-14300000D03*
X94825000Y-18242200D03*
X11110000Y-30200000D03*
X9950000Y-30200000D03*
X43086800Y-24712500D03*
%TO.N,ECG_LOP*%
X30400000Y-14300000D03*
X30400000Y-31200000D03*
X28890000Y-31200000D03*
%TO.N,ECG_LON*%
X35000000Y-22200000D03*
X31200000Y-22200000D03*
X31200000Y-11760000D03*
%TO.N,+3V3*%
X26580000Y-33000000D03*
D22*
X93838500Y-22118800D03*
D21*
X32000000Y-6680000D03*
X32000000Y-33000000D03*
X95000000Y-28000000D03*
%TO.N,GNDD*%
X14000000Y-58000000D03*
X12000000Y-65000000D03*
X22000000Y-38000000D03*
X42000000Y-48000000D03*
%TO.N,+5V*%
X32799999Y-34200000D03*
X32799999Y-1600000D03*
%TO.N,V_BATT*%
X20000000Y-22800000D03*
X20000000Y-24600000D03*
%TO.N,GNDA*%
X85000000Y-48000000D03*
X108000000Y-15000000D03*
X53475000Y-58000000D03*
X60000000Y-28000000D03*
X46389900Y-48162500D03*
X102000000Y-55000000D03*
%TO.N,N$1*%
X63935600Y-38850000D03*
X78656200Y-39387500D03*
%TO.N,VREF_DIV*%
X82216000Y-32384000D03*
X65987100Y-38810600D03*
%TO.N,AB_MID*%
X102654800Y-39975500D03*
X73905300Y-41167800D03*
%TO.N,ADS_ALERT*%
X103474600Y-18129600D03*
X97656100Y-20901100D03*
%TO.N,ECG_AIN*%
X95953500Y-21262800D03*
X102421200Y-16257900D03*
%TO.N,TH_AIN*%
X72870800Y-24143700D03*
X97206100Y-16985800D03*
%TD*%
D23*
%TO.N,VBAT_DIV*%
X36681800Y-13512300D02*
X37130000Y-13064100D01*
X36680000Y-15600000D02*
X36680000Y-13510000D01*
X34400000Y-15600000D02*
X36680000Y-15600000D01*
X7550000Y-1600000D02*
X7550000Y-15600000D01*
D24*
%TO.N,SLEEP_N*%
X57500000Y-12300000D02*
X59000000Y-12300000D01*
D23*
X33800000Y-23500000D02*
X33800000Y-16190000D01*
D24*
X59000000Y-12300000D02*
X59000000Y-9000000D01*
D23*
X33800000Y-16190000D02*
X53610000Y-16190000D01*
X8350000Y-9220000D02*
X8350000Y-23500000D01*
X53610000Y-16190000D02*
X57500000Y-12300000D01*
%TO.N,SDA*%
X33092500Y-54012500D02*
X37080000Y-58000000D01*
X28223300Y-36462500D02*
X25189700Y-36462500D01*
X87318900Y-30738100D02*
X92922000Y-25135000D01*
X25189700Y-36462500D02*
X24011400Y-37640800D01*
X22238000Y-54012500D02*
X33092500Y-54012500D01*
X28220000Y-29000000D02*
X28220000Y-30740000D01*
X9150000Y-11760000D02*
X9150000Y-29000000D01*
%TO.N,SCL*%
X97782800Y-16746900D02*
X97445000Y-16409100D01*
X26802800Y-59182800D02*
X38437200Y-59182800D01*
X97445000Y-16409100D02*
X96967300Y-16409100D01*
X78935300Y-17263700D02*
X71486600Y-24712400D01*
X25620000Y-58000000D02*
X26802800Y-59182800D01*
X71486600Y-24712400D02*
X71486600Y-24712500D01*
X94825000Y-18242200D02*
X96765300Y-18242200D01*
X38437200Y-59182800D02*
X39620000Y-58000000D01*
X96967300Y-16409100D02*
X96112800Y-17263600D01*
X96112800Y-17263700D02*
X78935300Y-17263700D01*
X11110000Y-30200000D02*
X11110000Y-25080000D01*
X9950000Y-14300000D02*
X9950000Y-30200000D01*
X96765300Y-18242200D02*
X97782800Y-17224700D01*
X71486600Y-24712500D02*
X43086800Y-24712500D01*
X96112800Y-17263600D02*
X96112800Y-17263700D01*
X97782800Y-17224700D02*
X97782800Y-16746900D01*
%TO.N,ECG_LOP*%
X61350000Y-21270000D02*
X75620000Y-7000000D01*
X30400000Y-14300000D02*
X30400000Y-31200000D01*
X28890000Y-31200000D02*
X28890000Y-25080000D01*
%TO.N,ECG_LON*%
X78160000Y-11113200D02*
X66733200Y-22540000D01*
X35000000Y-22200000D02*
X66730000Y-22200000D01*
X31200000Y-11760000D02*
X31200000Y-22200000D01*
X66730000Y-22200000D02*
X66730000Y-22540000D01*
X78160000Y-7000000D02*
X78160000Y-11113200D01*
D24*
%TO.N,+3V3*%
X32000000Y-6680000D02*
X32000000Y-33000000D01*
X18000000Y-58000000D02*
X19276700Y-56723300D01*
X32000000Y-58000000D02*
X30723300Y-58000000D01*
X93838500Y-22118800D02*
X89607300Y-26350000D01*
X19276700Y-56723300D02*
X29446600Y-56723300D01*
X26580000Y-33000000D02*
X26580000Y-26350000D01*
X29446600Y-56723300D02*
X30723300Y-58000000D01*
%TO.N,GNDD*%
X14000000Y-65000000D02*
X14000000Y-58000000D01*
X12000000Y-65000000D02*
X14000000Y-65000000D01*
%TO.N,+5V*%
X32799999Y-1600000D02*
X32799999Y-34200000D01*
%TO.N,V_BATT*%
X20000000Y-22800000D02*
X20000000Y-24600000D01*
%TO.N,V_ANALOG*%
X80700000Y-7000000D02*
X79378600Y-5678600D01*
X69321400Y-5678600D02*
X68000000Y-7000000D01*
X79378600Y-5678600D02*
X69321400Y-5678600D01*
D25*
%TO.N,GNDA*%
X53475000Y-58000000D02*
X46389900Y-58000000D01*
X46389900Y-58000000D02*
X46389900Y-48162500D01*
D23*
%TO.N,N$1*%
X63935600Y-38850000D02*
X64473100Y-39387500D01*
X64473100Y-39387500D02*
X78656200Y-39387500D01*
%TO.N,VREF_DIV*%
X75789400Y-38810600D02*
X65987100Y-38810600D01*
X82216000Y-32384000D02*
X75789400Y-38810600D01*
%TO.N,AB_MID*%
X73905300Y-41167800D02*
X75097600Y-39975500D01*
X75097600Y-39975500D02*
X102654800Y-39975500D01*
%TO.N,ADS_ALERT*%
X100703100Y-20901100D02*
X103474600Y-18129600D01*
X97656100Y-20901100D02*
X100703100Y-20901100D01*
%TO.N,ECG_AIN*%
X100958400Y-16257900D02*
X95953500Y-21262800D01*
X102421200Y-16257900D02*
X100958400Y-16257900D01*
%TO.N,TH_AIN*%
X72870800Y-24143700D02*
X79349100Y-17665400D01*
X79349100Y-17665400D02*
X96526500Y-17665400D01*
X96526500Y-17665400D02*
X97206100Y-16985800D01*
%TD*%
%TA.AperFunction,Conductor*%
%TO.N,GNDA*%
G36*
X109459191Y-518907D02*
G01*
X109495155Y-568407D01*
X109500000Y-599000D01*
X109500000Y-69401000D01*
X109481093Y-69459191D01*
X109431593Y-69495155D01*
X109401000Y-69500000D01*
X53304500Y-69500000D01*
X53246309Y-69481093D01*
X53210345Y-69431593D01*
X53205500Y-69401000D01*
X53205500Y-66374034D01*
X104899500Y-66374034D01*
X104899500Y-66625965D01*
X104938908Y-66874780D01*
X104938910Y-66874785D01*
X105016759Y-67114379D01*
X105131130Y-67338845D01*
X105279207Y-67542656D01*
X105457344Y-67720793D01*
X105661155Y-67868870D01*
X105885621Y-67983241D01*
X106125215Y-68061090D01*
X106125216Y-68061090D01*
X106125219Y-68061091D01*
X106374035Y-68100500D01*
X106374038Y-68100500D01*
X106625965Y-68100500D01*
X106874780Y-68061091D01*
X106874781Y-68061090D01*
X106874785Y-68061090D01*
X107114379Y-67983241D01*
X107338845Y-67868870D01*
X107542656Y-67720793D01*
X107720793Y-67542656D01*
X107868870Y-67338845D01*
X107983241Y-67114379D01*
X108061090Y-66874785D01*
X108068712Y-66826665D01*
X108100500Y-66625965D01*
X108100500Y-66374034D01*
X108061091Y-66125219D01*
X108008872Y-65964506D01*
X107983241Y-65885621D01*
X107868870Y-65661155D01*
X107720793Y-65457344D01*
X107542656Y-65279207D01*
X107338845Y-65131130D01*
X107338844Y-65131129D01*
X107338842Y-65131128D01*
X107114379Y-65016759D01*
X106874780Y-64938908D01*
X106625965Y-64899500D01*
X106625962Y-64899500D01*
X106374038Y-64899500D01*
X106374035Y-64899500D01*
X106125219Y-64938908D01*
X105885620Y-65016759D01*
X105661157Y-65131128D01*
X105457345Y-65279206D01*
X105279206Y-65457345D01*
X105131128Y-65661157D01*
X105016759Y-65885620D01*
X104938908Y-66125219D01*
X104899500Y-66374034D01*
X53205500Y-66374034D01*
X53205500Y-60945725D01*
X56549500Y-60945725D01*
X56549500Y-63054274D01*
X56552353Y-63084694D01*
X56552355Y-63084703D01*
X56597207Y-63212883D01*
X56677845Y-63322144D01*
X56677847Y-63322146D01*
X56677850Y-63322150D01*
X56677853Y-63322152D01*
X56677855Y-63322154D01*
X56787116Y-63402792D01*
X56787117Y-63402792D01*
X56787118Y-63402793D01*
X56915301Y-63447646D01*
X56945725Y-63450499D01*
X56945727Y-63450500D01*
X56945734Y-63450500D01*
X59054273Y-63450500D01*
X59054273Y-63450499D01*
X59084699Y-63447646D01*
X59212882Y-63402793D01*
X59322150Y-63322150D01*
X59402793Y-63212882D01*
X59447646Y-63084699D01*
X59450499Y-63054273D01*
X59450500Y-63054273D01*
X59450500Y-60945727D01*
X59450499Y-60945725D01*
X76549500Y-60945725D01*
X76549500Y-63054274D01*
X76552353Y-63084694D01*
X76552355Y-63084703D01*
X76597207Y-63212883D01*
X76677845Y-63322144D01*
X76677847Y-63322146D01*
X76677850Y-63322150D01*
X76677853Y-63322152D01*
X76677855Y-63322154D01*
X76787116Y-63402792D01*
X76787117Y-63402792D01*
X76787118Y-63402793D01*
X76915301Y-63447646D01*
X76945725Y-63450499D01*
X76945727Y-63450500D01*
X76945734Y-63450500D01*
X79054273Y-63450500D01*
X79054273Y-63450499D01*
X79084699Y-63447646D01*
X79212882Y-63402793D01*
X79322150Y-63322150D01*
X79402793Y-63212882D01*
X79447646Y-63084699D01*
X79450499Y-63054273D01*
X79450500Y-63054273D01*
X79450500Y-60945727D01*
X79450499Y-60945725D01*
X88549500Y-60945725D01*
X88549500Y-63054274D01*
X88552353Y-63084694D01*
X88552355Y-63084703D01*
X88597207Y-63212883D01*
X88677845Y-63322144D01*
X88677847Y-63322146D01*
X88677850Y-63322150D01*
X88677853Y-63322152D01*
X88677855Y-63322154D01*
X88787116Y-63402792D01*
X88787117Y-63402792D01*
X88787118Y-63402793D01*
X88915301Y-63447646D01*
X88945725Y-63450499D01*
X88945727Y-63450500D01*
X88945734Y-63450500D01*
X91054273Y-63450500D01*
X91054273Y-63450499D01*
X91084699Y-63447646D01*
X91212882Y-63402793D01*
X91322150Y-63322150D01*
X91402793Y-63212882D01*
X91447646Y-63084699D01*
X91450499Y-63054273D01*
X91450500Y-63054273D01*
X91450500Y-60945727D01*
X91450499Y-60945725D01*
X91447646Y-60915305D01*
X91447646Y-60915301D01*
X91402793Y-60787118D01*
X91322150Y-60677850D01*
X91322146Y-60677847D01*
X91322144Y-60677845D01*
X91212883Y-60597207D01*
X91084703Y-60552355D01*
X91084694Y-60552353D01*
X91054274Y-60549500D01*
X91054266Y-60549500D01*
X88945734Y-60549500D01*
X88945725Y-60549500D01*
X88915305Y-60552353D01*
X88915296Y-60552355D01*
X88787116Y-60597207D01*
X88677855Y-60677845D01*
X88677845Y-60677855D01*
X88597207Y-60787116D01*
X88552355Y-60915296D01*
X88552353Y-60915305D01*
X88549500Y-60945725D01*
X79450499Y-60945725D01*
X79447646Y-60915305D01*
X79447646Y-60915301D01*
X79402793Y-60787118D01*
X79322150Y-60677850D01*
X79322146Y-60677847D01*
X79322144Y-60677845D01*
X79212883Y-60597207D01*
X79084703Y-60552355D01*
X79084694Y-60552353D01*
X79054274Y-60549500D01*
X79054266Y-60549500D01*
X76945734Y-60549500D01*
X76945725Y-60549500D01*
X76915305Y-60552353D01*
X76915296Y-60552355D01*
X76787116Y-60597207D01*
X76677855Y-60677845D01*
X76677845Y-60677855D01*
X76597207Y-60787116D01*
X76552355Y-60915296D01*
X76552353Y-60915305D01*
X76549500Y-60945725D01*
X59450499Y-60945725D01*
X59447646Y-60915305D01*
X59447646Y-60915301D01*
X59402793Y-60787118D01*
X59322150Y-60677850D01*
X59322146Y-60677847D01*
X59322144Y-60677845D01*
X59212883Y-60597207D01*
X59084703Y-60552355D01*
X59084694Y-60552353D01*
X59054274Y-60549500D01*
X59054266Y-60549500D01*
X56945734Y-60549500D01*
X56945725Y-60549500D01*
X56915305Y-60552353D01*
X56915296Y-60552355D01*
X56787116Y-60597207D01*
X56677855Y-60677845D01*
X56677845Y-60677855D01*
X56597207Y-60787116D01*
X56552355Y-60915296D01*
X56552353Y-60915305D01*
X56549500Y-60945725D01*
X53205500Y-60945725D01*
X53205500Y-58449506D01*
X53205500Y-58449500D01*
X53202970Y-58417356D01*
X53198125Y-58386763D01*
X53198116Y-58386706D01*
X53197353Y-58382218D01*
X53197352Y-58382213D01*
X53161408Y-58298117D01*
X53159777Y-58295872D01*
X53125444Y-58248617D01*
X53101203Y-58220872D01*
X53022693Y-58173964D01*
X53022691Y-58173963D01*
X53022689Y-58173962D01*
X52964499Y-58155056D01*
X52964500Y-58155056D01*
X52901003Y-58145000D01*
X52901000Y-58145000D01*
X49099000Y-58145000D01*
X49084088Y-58140155D01*
X49068407Y-58140155D01*
X49055721Y-58130938D01*
X49040809Y-58126093D01*
X49031592Y-58113407D01*
X49018907Y-58104191D01*
X49014061Y-58089278D01*
X49004845Y-58076593D01*
X49000000Y-58046000D01*
X49000000Y-57954000D01*
X49018907Y-57895809D01*
X49068407Y-57859845D01*
X49099000Y-57855000D01*
X52900993Y-57855000D01*
X52901000Y-57855000D01*
X52933144Y-57852470D01*
X52963737Y-57847625D01*
X52963748Y-57847623D01*
X52963793Y-57847616D01*
X52968281Y-57846853D01*
X52968280Y-57846853D01*
X52968287Y-57846852D01*
X53052383Y-57810908D01*
X53101883Y-57774944D01*
X53129628Y-57750703D01*
X53176536Y-57672193D01*
X53195443Y-57614002D01*
X53200723Y-57580666D01*
X53205500Y-57550503D01*
X53205500Y-38784108D01*
X63435100Y-38784108D01*
X63435100Y-38915892D01*
X63454152Y-38986996D01*
X63469209Y-39043190D01*
X63535096Y-39157309D01*
X63535098Y-39157311D01*
X63535100Y-39157314D01*
X63628286Y-39250500D01*
X63628288Y-39250501D01*
X63628290Y-39250503D01*
X63742410Y-39316390D01*
X63742408Y-39316390D01*
X63742412Y-39316391D01*
X63742414Y-39316392D01*
X63869708Y-39350500D01*
X63934766Y-39350500D01*
X63992957Y-39369407D01*
X64004770Y-39379496D01*
X64212633Y-39587359D01*
X64212635Y-39587362D01*
X64273238Y-39647965D01*
X64307886Y-39667969D01*
X64347461Y-39690818D01*
X64430247Y-39713000D01*
X74660765Y-39713000D01*
X74718956Y-39731907D01*
X74754920Y-39781407D01*
X74754920Y-39842593D01*
X74730769Y-39882004D01*
X73974469Y-40638304D01*
X73919952Y-40666081D01*
X73904465Y-40667300D01*
X73839408Y-40667300D01*
X73761500Y-40688175D01*
X73712109Y-40701409D01*
X73597990Y-40767296D01*
X73504796Y-40860490D01*
X73438909Y-40974609D01*
X73438908Y-40974614D01*
X73404800Y-41101908D01*
X73404800Y-41233692D01*
X73434879Y-41345951D01*
X73438909Y-41360990D01*
X73504796Y-41475109D01*
X73504798Y-41475111D01*
X73504800Y-41475114D01*
X73597986Y-41568300D01*
X73597988Y-41568301D01*
X73597990Y-41568303D01*
X73712110Y-41634190D01*
X73712108Y-41634190D01*
X73712112Y-41634191D01*
X73712114Y-41634192D01*
X73839408Y-41668300D01*
X73839410Y-41668300D01*
X73971190Y-41668300D01*
X73971192Y-41668300D01*
X74098486Y-41634192D01*
X74098488Y-41634190D01*
X74098490Y-41634190D01*
X74212609Y-41568303D01*
X74212609Y-41568302D01*
X74212614Y-41568300D01*
X74305800Y-41475114D01*
X74371692Y-41360986D01*
X74405800Y-41233692D01*
X74405800Y-41168634D01*
X74424707Y-41110443D01*
X74434796Y-41098630D01*
X75203430Y-40329996D01*
X75257947Y-40302219D01*
X75273434Y-40301000D01*
X102231478Y-40301000D01*
X102289669Y-40319907D01*
X102301481Y-40329996D01*
X102347484Y-40375999D01*
X102347490Y-40376003D01*
X102461610Y-40441890D01*
X102461608Y-40441890D01*
X102461612Y-40441891D01*
X102461614Y-40441892D01*
X102588908Y-40476000D01*
X102588910Y-40476000D01*
X102720690Y-40476000D01*
X102720692Y-40476000D01*
X102847986Y-40441892D01*
X102847988Y-40441890D01*
X102847990Y-40441890D01*
X102962109Y-40376003D01*
X102962109Y-40376002D01*
X102962114Y-40376000D01*
X103055300Y-40282814D01*
X103121192Y-40168686D01*
X103155300Y-40041392D01*
X103155300Y-39909608D01*
X103121192Y-39782314D01*
X103121190Y-39782311D01*
X103121190Y-39782309D01*
X103055303Y-39668190D01*
X103055301Y-39668188D01*
X103055300Y-39668186D01*
X102962114Y-39575000D01*
X102962111Y-39574998D01*
X102962109Y-39574996D01*
X102847989Y-39509109D01*
X102847991Y-39509109D01*
X102798599Y-39495875D01*
X102720692Y-39475000D01*
X102588908Y-39475000D01*
X102511000Y-39495875D01*
X102461609Y-39509109D01*
X102347490Y-39574996D01*
X102347484Y-39575000D01*
X102301481Y-39621004D01*
X102246964Y-39648781D01*
X102231478Y-39650000D01*
X79233038Y-39650000D01*
X79174847Y-39631093D01*
X79138883Y-39581593D01*
X79137411Y-39525379D01*
X79156700Y-39453392D01*
X79156700Y-39321608D01*
X79122592Y-39194314D01*
X79122590Y-39194311D01*
X79122590Y-39194309D01*
X79056703Y-39080190D01*
X79056701Y-39080188D01*
X79056700Y-39080186D01*
X78963514Y-38987000D01*
X78963511Y-38986998D01*
X78963509Y-38986996D01*
X78849389Y-38921109D01*
X78849391Y-38921109D01*
X78799999Y-38907875D01*
X78722092Y-38887000D01*
X78590308Y-38887000D01*
X78512400Y-38907875D01*
X78463009Y-38921109D01*
X78348890Y-38986996D01*
X78348884Y-38987000D01*
X78302881Y-39033004D01*
X78248364Y-39060781D01*
X78232878Y-39062000D01*
X76237335Y-39062000D01*
X76179144Y-39043093D01*
X76143180Y-38993593D01*
X76143180Y-38932407D01*
X76167331Y-38892996D01*
X82146831Y-32913496D01*
X82201348Y-32885719D01*
X82216835Y-32884500D01*
X82281890Y-32884500D01*
X82281892Y-32884500D01*
X82409186Y-32850392D01*
X82409188Y-32850390D01*
X82409190Y-32850390D01*
X82523309Y-32784503D01*
X82523309Y-32784502D01*
X82523314Y-32784500D01*
X82616500Y-32691314D01*
X82682392Y-32577186D01*
X82716500Y-32449892D01*
X82716500Y-32318108D01*
X82682392Y-32190814D01*
X82682390Y-32190811D01*
X82682390Y-32190809D01*
X82616503Y-32076690D01*
X82616501Y-32076688D01*
X82616500Y-32076686D01*
X82523314Y-31983500D01*
X82523311Y-31983498D01*
X82523309Y-31983496D01*
X82409189Y-31917609D01*
X82409191Y-31917609D01*
X82359799Y-31904375D01*
X82281892Y-31883500D01*
X82150108Y-31883500D01*
X82072200Y-31904375D01*
X82022809Y-31917609D01*
X81908690Y-31983496D01*
X81815496Y-32076690D01*
X81749609Y-32190809D01*
X81715500Y-32318109D01*
X81715500Y-32383165D01*
X81696593Y-32441356D01*
X81686504Y-32453169D01*
X75683569Y-38456104D01*
X75629052Y-38483881D01*
X75613565Y-38485100D01*
X66410422Y-38485100D01*
X66352231Y-38466193D01*
X66340419Y-38456104D01*
X66294415Y-38410100D01*
X66294409Y-38410096D01*
X66180289Y-38344209D01*
X66180291Y-38344209D01*
X66130899Y-38330975D01*
X66052992Y-38310100D01*
X65921208Y-38310100D01*
X65843300Y-38330975D01*
X65793909Y-38344209D01*
X65679790Y-38410096D01*
X65586596Y-38503290D01*
X65520709Y-38617409D01*
X65486600Y-38744709D01*
X65486600Y-38876491D01*
X65502914Y-38937378D01*
X65499711Y-38998479D01*
X65461206Y-39046029D01*
X65407287Y-39062000D01*
X64648933Y-39062000D01*
X64641335Y-39059531D01*
X64633446Y-39060781D01*
X64612792Y-39050257D01*
X64590742Y-39043093D01*
X64578929Y-39033003D01*
X64465096Y-38919169D01*
X64437319Y-38864653D01*
X64436100Y-38849166D01*
X64436100Y-38784109D01*
X64425543Y-38744708D01*
X64401992Y-38656814D01*
X64401990Y-38656811D01*
X64401990Y-38656809D01*
X64336103Y-38542690D01*
X64336101Y-38542688D01*
X64336100Y-38542686D01*
X64242914Y-38449500D01*
X64242911Y-38449498D01*
X64242909Y-38449496D01*
X64128789Y-38383609D01*
X64128791Y-38383609D01*
X64079399Y-38370375D01*
X64001492Y-38349500D01*
X63869708Y-38349500D01*
X63791800Y-38370375D01*
X63742409Y-38383609D01*
X63628290Y-38449496D01*
X63535096Y-38542690D01*
X63469209Y-38656809D01*
X63469208Y-38656814D01*
X63435100Y-38784108D01*
X53205500Y-38784108D01*
X53205500Y-30695247D01*
X86993400Y-30695247D01*
X86993400Y-30780953D01*
X87000725Y-30808290D01*
X87015583Y-30863743D01*
X87058431Y-30937957D01*
X87058433Y-30937959D01*
X87058435Y-30937962D01*
X87119038Y-30998565D01*
X87119040Y-30998566D01*
X87119042Y-30998568D01*
X87193257Y-31041416D01*
X87193255Y-31041416D01*
X87193259Y-31041417D01*
X87193261Y-31041418D01*
X87276047Y-31063600D01*
X87276049Y-31063600D01*
X87361751Y-31063600D01*
X87361753Y-31063600D01*
X87444539Y-31041418D01*
X87444541Y-31041416D01*
X87444543Y-31041416D01*
X87518757Y-30998568D01*
X87518757Y-30998567D01*
X87518762Y-30998565D01*
X90583219Y-27934108D01*
X94499500Y-27934108D01*
X94499500Y-28065892D01*
X94529579Y-28178151D01*
X94533609Y-28193190D01*
X94599496Y-28307309D01*
X94599498Y-28307311D01*
X94599500Y-28307314D01*
X94692686Y-28400500D01*
X94692688Y-28400501D01*
X94692690Y-28400503D01*
X94806810Y-28466390D01*
X94806808Y-28466390D01*
X94806812Y-28466391D01*
X94806814Y-28466392D01*
X94934108Y-28500500D01*
X94934110Y-28500500D01*
X95065890Y-28500500D01*
X95065892Y-28500500D01*
X95193186Y-28466392D01*
X95193188Y-28466390D01*
X95193190Y-28466390D01*
X95307309Y-28400503D01*
X95307309Y-28400502D01*
X95307314Y-28400500D01*
X95400500Y-28307314D01*
X95466392Y-28193186D01*
X95500500Y-28065892D01*
X95500500Y-27934108D01*
X95466392Y-27806814D01*
X95466390Y-27806811D01*
X95466390Y-27806809D01*
X95400503Y-27692690D01*
X95400501Y-27692688D01*
X95400500Y-27692686D01*
X95307314Y-27599500D01*
X95307311Y-27599498D01*
X95307309Y-27599496D01*
X95193189Y-27533609D01*
X95193191Y-27533609D01*
X95143799Y-27520375D01*
X95065892Y-27499500D01*
X94934108Y-27499500D01*
X94856200Y-27520375D01*
X94806809Y-27533609D01*
X94692690Y-27599496D01*
X94599496Y-27692690D01*
X94533609Y-27806809D01*
X94533608Y-27806814D01*
X94499500Y-27934108D01*
X90583219Y-27934108D01*
X92852831Y-25664496D01*
X92907348Y-25636719D01*
X92922835Y-25635500D01*
X92987890Y-25635500D01*
X92987892Y-25635500D01*
X93115186Y-25601392D01*
X93115188Y-25601390D01*
X93115190Y-25601390D01*
X93229309Y-25535503D01*
X93229309Y-25535502D01*
X93229314Y-25535500D01*
X93322500Y-25442314D01*
X93388392Y-25328186D01*
X93422500Y-25200892D01*
X93422500Y-25069108D01*
X93388392Y-24941814D01*
X93388390Y-24941811D01*
X93388390Y-24941809D01*
X93322503Y-24827690D01*
X93322501Y-24827688D01*
X93322500Y-24827686D01*
X93229314Y-24734500D01*
X93229311Y-24734498D01*
X93229309Y-24734496D01*
X93115189Y-24668609D01*
X93115191Y-24668609D01*
X93065799Y-24655375D01*
X92987892Y-24634500D01*
X92856108Y-24634500D01*
X92778200Y-24655375D01*
X92728809Y-24668609D01*
X92614690Y-24734496D01*
X92521496Y-24827690D01*
X92455609Y-24941809D01*
X92421500Y-25069109D01*
X92421500Y-25134165D01*
X92402593Y-25192356D01*
X92392504Y-25204169D01*
X87058431Y-30538242D01*
X87015583Y-30612456D01*
X87015582Y-30612461D01*
X86993400Y-30695247D01*
X53205500Y-30695247D01*
X53205500Y-26293982D01*
X89181800Y-26293982D01*
X89181800Y-26406018D01*
X89207372Y-26501455D01*
X89210798Y-26514241D01*
X89266813Y-26611260D01*
X89266815Y-26611263D01*
X89346037Y-26690485D01*
X89346039Y-26690486D01*
X89443059Y-26746501D01*
X89443057Y-26746501D01*
X89443061Y-26746502D01*
X89443063Y-26746503D01*
X89551282Y-26775500D01*
X89551284Y-26775500D01*
X89663316Y-26775500D01*
X89663318Y-26775500D01*
X89771537Y-26746503D01*
X89771539Y-26746501D01*
X89771541Y-26746501D01*
X89800364Y-26729859D01*
X89868563Y-26690485D01*
X93810752Y-22748296D01*
X93865269Y-22720519D01*
X93880756Y-22719300D01*
X93917555Y-22719300D01*
X93917557Y-22719300D01*
X94070284Y-22678377D01*
X94207216Y-22599320D01*
X94319020Y-22487516D01*
X94398077Y-22350584D01*
X94439000Y-22197857D01*
X94439000Y-22039743D01*
X94398077Y-21887016D01*
X94319020Y-21750084D01*
X94207216Y-21638280D01*
X94070284Y-21559223D01*
X93917557Y-21518300D01*
X93759443Y-21518300D01*
X93606716Y-21559223D01*
X93469784Y-21638280D01*
X93357980Y-21750084D01*
X93278923Y-21887016D01*
X93270395Y-21918845D01*
X93238000Y-22039744D01*
X93238000Y-22076544D01*
X93219093Y-22134735D01*
X93209004Y-22146548D01*
X89266813Y-26088739D01*
X89210798Y-26185758D01*
X89210797Y-26185763D01*
X89181800Y-26293982D01*
X53205500Y-26293982D01*
X53205500Y-25137000D01*
X53224407Y-25078809D01*
X53273907Y-25042845D01*
X53304500Y-25038000D01*
X71529451Y-25038000D01*
X71529453Y-25038000D01*
X71612238Y-25015818D01*
X71686462Y-24972965D01*
X71747065Y-24912362D01*
X71747067Y-24912357D01*
X71751319Y-24908106D01*
X71752017Y-24907308D01*
X72283176Y-24376149D01*
X72337691Y-24348374D01*
X72398123Y-24357945D01*
X72438914Y-24396654D01*
X72470297Y-24451009D01*
X72470300Y-24451014D01*
X72563486Y-24544200D01*
X72563488Y-24544201D01*
X72563490Y-24544203D01*
X72677610Y-24610090D01*
X72677608Y-24610090D01*
X72677612Y-24610091D01*
X72677614Y-24610092D01*
X72804908Y-24644200D01*
X72804910Y-24644200D01*
X72936690Y-24644200D01*
X72936692Y-24644200D01*
X73063986Y-24610092D01*
X73063988Y-24610090D01*
X73063990Y-24610090D01*
X73178109Y-24544203D01*
X73178109Y-24544202D01*
X73178114Y-24544200D01*
X73271300Y-24451014D01*
X73308259Y-24387000D01*
X73337190Y-24336890D01*
X73337190Y-24336888D01*
X73337192Y-24336886D01*
X73371300Y-24209592D01*
X73371300Y-24144534D01*
X73390207Y-24086343D01*
X73400296Y-24074530D01*
X76277918Y-21196908D01*
X95453000Y-21196908D01*
X95453000Y-21328692D01*
X95483079Y-21440951D01*
X95487109Y-21455990D01*
X95552996Y-21570109D01*
X95552998Y-21570111D01*
X95553000Y-21570114D01*
X95646186Y-21663300D01*
X95646188Y-21663301D01*
X95646190Y-21663303D01*
X95760310Y-21729190D01*
X95760308Y-21729190D01*
X95760312Y-21729191D01*
X95760314Y-21729192D01*
X95887608Y-21763300D01*
X95887610Y-21763300D01*
X96019390Y-21763300D01*
X96019392Y-21763300D01*
X96146686Y-21729192D01*
X96146688Y-21729190D01*
X96146690Y-21729190D01*
X96260809Y-21663303D01*
X96260809Y-21663302D01*
X96260814Y-21663300D01*
X96354000Y-21570114D01*
X96376890Y-21530467D01*
X96419890Y-21455990D01*
X96419890Y-21455988D01*
X96419892Y-21455986D01*
X96454000Y-21328692D01*
X96454000Y-21263635D01*
X96472907Y-21205444D01*
X96482996Y-21193631D01*
X96723638Y-20952989D01*
X97009342Y-20667284D01*
X97063857Y-20639509D01*
X97124289Y-20649080D01*
X97167554Y-20692345D01*
X97177125Y-20752777D01*
X97174971Y-20762912D01*
X97155600Y-20835208D01*
X97155600Y-20966992D01*
X97183096Y-21069609D01*
X97189709Y-21094290D01*
X97255596Y-21208409D01*
X97255598Y-21208411D01*
X97255600Y-21208414D01*
X97348786Y-21301600D01*
X97348788Y-21301601D01*
X97348790Y-21301603D01*
X97462910Y-21367490D01*
X97462908Y-21367490D01*
X97462912Y-21367491D01*
X97462914Y-21367492D01*
X97590208Y-21401600D01*
X97590210Y-21401600D01*
X97721990Y-21401600D01*
X97721992Y-21401600D01*
X97849286Y-21367492D01*
X97849288Y-21367490D01*
X97849290Y-21367490D01*
X97963409Y-21301603D01*
X97963410Y-21301602D01*
X97963414Y-21301600D01*
X97963415Y-21301599D01*
X98009419Y-21255596D01*
X98063936Y-21227819D01*
X98079422Y-21226600D01*
X100745951Y-21226600D01*
X100745953Y-21226600D01*
X100828739Y-21204418D01*
X100828741Y-21204416D01*
X100828743Y-21204416D01*
X100902957Y-21161568D01*
X100902957Y-21161567D01*
X100902962Y-21161565D01*
X103405431Y-18659096D01*
X103459948Y-18631319D01*
X103475435Y-18630100D01*
X103540490Y-18630100D01*
X103540492Y-18630100D01*
X103667786Y-18595992D01*
X103667788Y-18595990D01*
X103667790Y-18595990D01*
X103781909Y-18530103D01*
X103781909Y-18530102D01*
X103781914Y-18530100D01*
X103875100Y-18436914D01*
X103940992Y-18322786D01*
X103975100Y-18195492D01*
X103975100Y-18063708D01*
X103940992Y-17936414D01*
X103940990Y-17936411D01*
X103940990Y-17936409D01*
X103875103Y-17822290D01*
X103875101Y-17822288D01*
X103875100Y-17822286D01*
X103781914Y-17729100D01*
X103781911Y-17729098D01*
X103781909Y-17729096D01*
X103667789Y-17663209D01*
X103667791Y-17663209D01*
X103618399Y-17649975D01*
X103540492Y-17629100D01*
X103408708Y-17629100D01*
X103330800Y-17649975D01*
X103281409Y-17663209D01*
X103167290Y-17729096D01*
X103074096Y-17822290D01*
X103008209Y-17936409D01*
X102974100Y-18063709D01*
X102974100Y-18128765D01*
X102955193Y-18186956D01*
X102945104Y-18198769D01*
X100597269Y-20546604D01*
X100542752Y-20574381D01*
X100527265Y-20575600D01*
X98079422Y-20575600D01*
X98021231Y-20556693D01*
X98009419Y-20546604D01*
X97963415Y-20500600D01*
X97963409Y-20500596D01*
X97849289Y-20434709D01*
X97849291Y-20434709D01*
X97782332Y-20416768D01*
X97721992Y-20400600D01*
X97590208Y-20400600D01*
X97563976Y-20407628D01*
X97517912Y-20419971D01*
X97456811Y-20416768D01*
X97409261Y-20378262D01*
X97393426Y-20319162D01*
X97415353Y-20262040D01*
X97422276Y-20254350D01*
X101064231Y-16612396D01*
X101118748Y-16584619D01*
X101134235Y-16583400D01*
X101997878Y-16583400D01*
X102056069Y-16602307D01*
X102067881Y-16612396D01*
X102113884Y-16658399D01*
X102113890Y-16658403D01*
X102228010Y-16724290D01*
X102228008Y-16724290D01*
X102228012Y-16724291D01*
X102228014Y-16724292D01*
X102355308Y-16758400D01*
X102355310Y-16758400D01*
X102487090Y-16758400D01*
X102487092Y-16758400D01*
X102614386Y-16724292D01*
X102614388Y-16724290D01*
X102614390Y-16724290D01*
X102728509Y-16658403D01*
X102728509Y-16658402D01*
X102728514Y-16658400D01*
X102821700Y-16565214D01*
X102847607Y-16520342D01*
X102887590Y-16451090D01*
X102887590Y-16451088D01*
X102887592Y-16451086D01*
X102921700Y-16323792D01*
X102921700Y-16192008D01*
X102887592Y-16064714D01*
X102887590Y-16064711D01*
X102887590Y-16064709D01*
X102821703Y-15950590D01*
X102821701Y-15950588D01*
X102821700Y-15950586D01*
X102728514Y-15857400D01*
X102728511Y-15857398D01*
X102728509Y-15857396D01*
X102614389Y-15791509D01*
X102614391Y-15791509D01*
X102564999Y-15778275D01*
X102487092Y-15757400D01*
X102355308Y-15757400D01*
X102277400Y-15778275D01*
X102228009Y-15791509D01*
X102113890Y-15857396D01*
X102113884Y-15857400D01*
X102067881Y-15903404D01*
X102013364Y-15931181D01*
X101997878Y-15932400D01*
X100915547Y-15932400D01*
X100874154Y-15943491D01*
X100832760Y-15954582D01*
X100771515Y-15989941D01*
X100771516Y-15989942D01*
X100758539Y-15997434D01*
X96022669Y-20733304D01*
X95968152Y-20761081D01*
X95952665Y-20762300D01*
X95887608Y-20762300D01*
X95809700Y-20783175D01*
X95760309Y-20796409D01*
X95646190Y-20862296D01*
X95552996Y-20955490D01*
X95487109Y-21069609D01*
X95480497Y-21094286D01*
X95453000Y-21196908D01*
X76277918Y-21196908D01*
X79454930Y-18019896D01*
X79509447Y-17992119D01*
X79524934Y-17990900D01*
X94245161Y-17990900D01*
X94303352Y-18009807D01*
X94339316Y-18059307D01*
X94340787Y-18115520D01*
X94324500Y-18176308D01*
X94324500Y-18308092D01*
X94354579Y-18420351D01*
X94358609Y-18435390D01*
X94424496Y-18549509D01*
X94424498Y-18549511D01*
X94424500Y-18549514D01*
X94517686Y-18642700D01*
X94517688Y-18642701D01*
X94517690Y-18642703D01*
X94631810Y-18708590D01*
X94631808Y-18708590D01*
X94631812Y-18708591D01*
X94631814Y-18708592D01*
X94759108Y-18742700D01*
X94759110Y-18742700D01*
X94890890Y-18742700D01*
X94890892Y-18742700D01*
X95018186Y-18708592D01*
X95018188Y-18708590D01*
X95018190Y-18708590D01*
X95132309Y-18642703D01*
X95132310Y-18642702D01*
X95132314Y-18642700D01*
X95144914Y-18630100D01*
X95178319Y-18596696D01*
X95232836Y-18568919D01*
X95248322Y-18567700D01*
X96808151Y-18567700D01*
X96808153Y-18567700D01*
X96890939Y-18545518D01*
X96890941Y-18545516D01*
X96890943Y-18545516D01*
X96965157Y-18502668D01*
X96965157Y-18502667D01*
X96965162Y-18502665D01*
X98043265Y-17424562D01*
X98086118Y-17350338D01*
X98108300Y-17267553D01*
X98108300Y-16704047D01*
X98086118Y-16621262D01*
X98043265Y-16547038D01*
X98016569Y-16520342D01*
X97982663Y-16486435D01*
X97644862Y-16148635D01*
X97644857Y-16148631D01*
X97570642Y-16105783D01*
X97570644Y-16105783D01*
X97538521Y-16097176D01*
X97487853Y-16083600D01*
X96924447Y-16083600D01*
X96883054Y-16094691D01*
X96841660Y-16105782D01*
X96795797Y-16132260D01*
X96795798Y-16132261D01*
X96767439Y-16148634D01*
X96006869Y-16909204D01*
X95952352Y-16936981D01*
X95936865Y-16938200D01*
X78984232Y-16938200D01*
X78984216Y-16938199D01*
X78978153Y-16938199D01*
X78892448Y-16938199D01*
X78810035Y-16960282D01*
X78810028Y-16960284D01*
X78810027Y-16960283D01*
X78809665Y-16960380D01*
X78735435Y-17003237D01*
X78674834Y-17063837D01*
X78674835Y-17063838D01*
X71380669Y-24358004D01*
X71326152Y-24385781D01*
X71310665Y-24387000D01*
X53304500Y-24387000D01*
X53246309Y-24368093D01*
X53210345Y-24318593D01*
X53205500Y-24288000D01*
X53205500Y-22624500D01*
X53224407Y-22566309D01*
X53273907Y-22530345D01*
X53304500Y-22525500D01*
X66313167Y-22525500D01*
X66371358Y-22544407D01*
X66407322Y-22593907D01*
X66408789Y-22598862D01*
X66426682Y-22665638D01*
X66469535Y-22739862D01*
X66530138Y-22800465D01*
X66604362Y-22843318D01*
X66687147Y-22865500D01*
X66687149Y-22865500D01*
X66776051Y-22865500D01*
X66776053Y-22865500D01*
X66858839Y-22843318D01*
X66858841Y-22843316D01*
X66858843Y-22843316D01*
X66933057Y-22800468D01*
X66933057Y-22800467D01*
X66933062Y-22800465D01*
X78359859Y-11373666D01*
X78359862Y-11373665D01*
X78420465Y-11313062D01*
X78463318Y-11238838D01*
X78468006Y-11221342D01*
X78485501Y-11156052D01*
X78485501Y-11070347D01*
X78485500Y-11070343D01*
X78485500Y-8123299D01*
X78504407Y-8065109D01*
X78553905Y-8029145D01*
X78582445Y-8019873D01*
X78736788Y-7941232D01*
X78876928Y-7839414D01*
X78999414Y-7716928D01*
X79101232Y-7576788D01*
X79179873Y-7422445D01*
X79179874Y-7422440D01*
X79179876Y-7422438D01*
X79233401Y-7257706D01*
X79233402Y-7257702D01*
X79260500Y-7086614D01*
X79260500Y-6913385D01*
X79233402Y-6742297D01*
X79233401Y-6742293D01*
X79179876Y-6577561D01*
X79179874Y-6577558D01*
X79179873Y-6577557D01*
X79179873Y-6577555D01*
X79101232Y-6423212D01*
X78999414Y-6283072D01*
X78989443Y-6273101D01*
X78978920Y-6252448D01*
X78965294Y-6233693D01*
X78965294Y-6225703D01*
X78961668Y-6218587D01*
X78965294Y-6195692D01*
X78965294Y-6172507D01*
X78969989Y-6166044D01*
X78971239Y-6158155D01*
X78987630Y-6141763D01*
X79001258Y-6123007D01*
X79008855Y-6120538D01*
X79014504Y-6114890D01*
X79059449Y-6104100D01*
X79161344Y-6104100D01*
X79219535Y-6123007D01*
X79231348Y-6133096D01*
X79636168Y-6537916D01*
X79663945Y-6592433D01*
X79660319Y-6638512D01*
X79626597Y-6742301D01*
X79599500Y-6913385D01*
X79599500Y-7086614D01*
X79626597Y-7257702D01*
X79626598Y-7257706D01*
X79680123Y-7422438D01*
X79680125Y-7422441D01*
X79726403Y-7513269D01*
X79758768Y-7576788D01*
X79860586Y-7716928D01*
X79983072Y-7839414D01*
X80123212Y-7941232D01*
X80277555Y-8019873D01*
X80277557Y-8019873D01*
X80277558Y-8019874D01*
X80277561Y-8019876D01*
X80442293Y-8073401D01*
X80442297Y-8073402D01*
X80613386Y-8100500D01*
X80613389Y-8100500D01*
X80786614Y-8100500D01*
X80957702Y-8073402D01*
X80957706Y-8073401D01*
X81122438Y-8019876D01*
X81122440Y-8019874D01*
X81122445Y-8019873D01*
X81276788Y-7941232D01*
X81416928Y-7839414D01*
X81539414Y-7716928D01*
X81641232Y-7576788D01*
X81719873Y-7422445D01*
X81719874Y-7422440D01*
X81719876Y-7422438D01*
X81773401Y-7257706D01*
X81773402Y-7257702D01*
X81800500Y-7086614D01*
X81800500Y-6913385D01*
X81773402Y-6742297D01*
X81773401Y-6742293D01*
X81719876Y-6577561D01*
X81719874Y-6577558D01*
X81719873Y-6577557D01*
X81719873Y-6577555D01*
X81641232Y-6423212D01*
X81539414Y-6283072D01*
X81416928Y-6160586D01*
X81276788Y-6058768D01*
X81276787Y-6058767D01*
X81276785Y-6058766D01*
X81122441Y-5980125D01*
X81122438Y-5980123D01*
X80957706Y-5926598D01*
X80957702Y-5926597D01*
X80786614Y-5899500D01*
X80786611Y-5899500D01*
X80613389Y-5899500D01*
X80613386Y-5899500D01*
X80442301Y-5926597D01*
X80338512Y-5960319D01*
X80277326Y-5960318D01*
X80237916Y-5936168D01*
X80136748Y-5835000D01*
X79639863Y-5338115D01*
X79639860Y-5338113D01*
X79542840Y-5282098D01*
X79542842Y-5282098D01*
X79500851Y-5270847D01*
X79434618Y-5253100D01*
X69377419Y-5253100D01*
X69265382Y-5253100D01*
X69199148Y-5270847D01*
X69157158Y-5282098D01*
X69060139Y-5338113D01*
X68527748Y-5870504D01*
X68473231Y-5898281D01*
X68457744Y-5899500D01*
X67080252Y-5899500D01*
X67080251Y-5899500D01*
X67080241Y-5899501D01*
X67021772Y-5911132D01*
X67021766Y-5911134D01*
X66955451Y-5955445D01*
X66955445Y-5955451D01*
X66911134Y-6021766D01*
X66911132Y-6021772D01*
X66899501Y-6080241D01*
X66899500Y-6080253D01*
X66899500Y-7919746D01*
X66899501Y-7919758D01*
X66911132Y-7978227D01*
X66911134Y-7978233D01*
X66942019Y-8024455D01*
X66955448Y-8044552D01*
X67021769Y-8088867D01*
X67066231Y-8097711D01*
X67080241Y-8100498D01*
X67080246Y-8100498D01*
X67080252Y-8100500D01*
X67080253Y-8100500D01*
X68919747Y-8100500D01*
X68919748Y-8100500D01*
X68978231Y-8088867D01*
X69044552Y-8044552D01*
X69088867Y-7978231D01*
X69100500Y-7919748D01*
X69100500Y-6542256D01*
X69119407Y-6484065D01*
X69129496Y-6472252D01*
X69468652Y-6133096D01*
X69523169Y-6105319D01*
X69538656Y-6104100D01*
X72180551Y-6104100D01*
X72238742Y-6123007D01*
X72274706Y-6172507D01*
X72274706Y-6233693D01*
X72250556Y-6273101D01*
X72243918Y-6279740D01*
X72240585Y-6283073D01*
X72138766Y-6423214D01*
X72060125Y-6577558D01*
X72060123Y-6577561D01*
X72006598Y-6742293D01*
X72006597Y-6742297D01*
X71979500Y-6913385D01*
X71979500Y-7086614D01*
X72006597Y-7257702D01*
X72006598Y-7257706D01*
X72060123Y-7422438D01*
X72060125Y-7422441D01*
X72106403Y-7513269D01*
X72138768Y-7576788D01*
X72240586Y-7716928D01*
X72363072Y-7839414D01*
X72503212Y-7941232D01*
X72657555Y-8019873D01*
X72657557Y-8019873D01*
X72657558Y-8019874D01*
X72657561Y-8019876D01*
X72822293Y-8073401D01*
X72822297Y-8073402D01*
X72993386Y-8100500D01*
X72993389Y-8100500D01*
X73166614Y-8100500D01*
X73337702Y-8073402D01*
X73337706Y-8073401D01*
X73502438Y-8019876D01*
X73502440Y-8019874D01*
X73502445Y-8019873D01*
X73656788Y-7941232D01*
X73796928Y-7839414D01*
X73919414Y-7716928D01*
X74021232Y-7576788D01*
X74099873Y-7422445D01*
X74099874Y-7422440D01*
X74099876Y-7422438D01*
X74153401Y-7257706D01*
X74153402Y-7257702D01*
X74180500Y-7086614D01*
X74180500Y-6913385D01*
X74153402Y-6742297D01*
X74153401Y-6742293D01*
X74099876Y-6577561D01*
X74099874Y-6577558D01*
X74099873Y-6577557D01*
X74099873Y-6577555D01*
X74021232Y-6423212D01*
X73919414Y-6283072D01*
X73909443Y-6273101D01*
X73881668Y-6218587D01*
X73891239Y-6158155D01*
X73934504Y-6114890D01*
X73979449Y-6104100D01*
X74720551Y-6104100D01*
X74778742Y-6123007D01*
X74814706Y-6172507D01*
X74814706Y-6233693D01*
X74790556Y-6273101D01*
X74783918Y-6279740D01*
X74780585Y-6283073D01*
X74678766Y-6423214D01*
X74600125Y-6577558D01*
X74600123Y-6577561D01*
X74546598Y-6742293D01*
X74546597Y-6742297D01*
X74519500Y-6913385D01*
X74519500Y-7086614D01*
X74546597Y-7257702D01*
X74546598Y-7257706D01*
X74600123Y-7422438D01*
X74600125Y-7422441D01*
X74613749Y-7449180D01*
X74623320Y-7509612D01*
X74595543Y-7564129D01*
X61089532Y-21070141D01*
X61089531Y-21070142D01*
X61046683Y-21144356D01*
X61046682Y-21144361D01*
X61024500Y-21227147D01*
X61024500Y-21312853D01*
X61044062Y-21385863D01*
X61046683Y-21395643D01*
X61089531Y-21469857D01*
X61089533Y-21469859D01*
X61089535Y-21469862D01*
X61150138Y-21530465D01*
X61150140Y-21530466D01*
X61150142Y-21530468D01*
X61224357Y-21573316D01*
X61224355Y-21573316D01*
X61224359Y-21573317D01*
X61224361Y-21573318D01*
X61307147Y-21595500D01*
X61307149Y-21595500D01*
X61392851Y-21595500D01*
X61392853Y-21595500D01*
X61475639Y-21573318D01*
X61475641Y-21573316D01*
X61475643Y-21573316D01*
X61549857Y-21530468D01*
X61549857Y-21530467D01*
X61549862Y-21530465D01*
X75055871Y-8024453D01*
X75110386Y-7996678D01*
X75170815Y-8006248D01*
X75197555Y-8019873D01*
X75197559Y-8019874D01*
X75197563Y-8019876D01*
X75362293Y-8073401D01*
X75362297Y-8073402D01*
X75533386Y-8100500D01*
X75533389Y-8100500D01*
X75706614Y-8100500D01*
X75877702Y-8073402D01*
X75877706Y-8073401D01*
X76042438Y-8019876D01*
X76042440Y-8019874D01*
X76042445Y-8019873D01*
X76196788Y-7941232D01*
X76336928Y-7839414D01*
X76459414Y-7716928D01*
X76561232Y-7576788D01*
X76639873Y-7422445D01*
X76639874Y-7422440D01*
X76639876Y-7422438D01*
X76693401Y-7257706D01*
X76693402Y-7257702D01*
X76720500Y-7086614D01*
X76720500Y-6913385D01*
X76693402Y-6742297D01*
X76693401Y-6742293D01*
X76639876Y-6577561D01*
X76639874Y-6577558D01*
X76639873Y-6577557D01*
X76639873Y-6577555D01*
X76561232Y-6423212D01*
X76459414Y-6283072D01*
X76449443Y-6273101D01*
X76421668Y-6218587D01*
X76431239Y-6158155D01*
X76474504Y-6114890D01*
X76519449Y-6104100D01*
X77260551Y-6104100D01*
X77318742Y-6123007D01*
X77354706Y-6172507D01*
X77354706Y-6233693D01*
X77330556Y-6273101D01*
X77323918Y-6279740D01*
X77320585Y-6283073D01*
X77218766Y-6423214D01*
X77140125Y-6577558D01*
X77140123Y-6577561D01*
X77086598Y-6742293D01*
X77086597Y-6742297D01*
X77059500Y-6913385D01*
X77059500Y-7086614D01*
X77086597Y-7257702D01*
X77086598Y-7257706D01*
X77140123Y-7422438D01*
X77140125Y-7422441D01*
X77186403Y-7513269D01*
X77218768Y-7576788D01*
X77320586Y-7716928D01*
X77443072Y-7839414D01*
X77583212Y-7941232D01*
X77583214Y-7941233D01*
X77737555Y-8019873D01*
X77766092Y-8029145D01*
X77815592Y-8065108D01*
X77834500Y-8123299D01*
X77834500Y-10937364D01*
X77815593Y-10995555D01*
X77805504Y-11007368D01*
X75895788Y-12917084D01*
X75841271Y-12944861D01*
X75780839Y-12935290D01*
X75737574Y-12892025D01*
X75728003Y-12831593D01*
X75737572Y-12802138D01*
X75833241Y-12614379D01*
X75911090Y-12374785D01*
X75911091Y-12374780D01*
X75950500Y-12125965D01*
X75950500Y-11874034D01*
X75911091Y-11625219D01*
X75899943Y-11590908D01*
X75833241Y-11385621D01*
X75718870Y-11161155D01*
X75570793Y-10957344D01*
X75392656Y-10779207D01*
X75188845Y-10631130D01*
X75188844Y-10631129D01*
X75188842Y-10631128D01*
X74964379Y-10516759D01*
X74724780Y-10438908D01*
X74475965Y-10399500D01*
X74475962Y-10399500D01*
X74224038Y-10399500D01*
X74224035Y-10399500D01*
X73975219Y-10438908D01*
X73735620Y-10516759D01*
X73511157Y-10631128D01*
X73307345Y-10779206D01*
X73129206Y-10957345D01*
X72981128Y-11161157D01*
X72866759Y-11385620D01*
X72788908Y-11625219D01*
X72749500Y-11874034D01*
X72749500Y-12125965D01*
X72788908Y-12374780D01*
X72866759Y-12614379D01*
X72977434Y-12831593D01*
X72981130Y-12838845D01*
X73129207Y-13042656D01*
X73307344Y-13220793D01*
X73511155Y-13368870D01*
X73735621Y-13483241D01*
X73975215Y-13561090D01*
X73975216Y-13561090D01*
X73975219Y-13561091D01*
X74224035Y-13600500D01*
X74224038Y-13600500D01*
X74475965Y-13600500D01*
X74724780Y-13561091D01*
X74724781Y-13561090D01*
X74724785Y-13561090D01*
X74964379Y-13483241D01*
X75152136Y-13387573D01*
X75212567Y-13378003D01*
X75267083Y-13405780D01*
X75294861Y-13460297D01*
X75285290Y-13520729D01*
X75267084Y-13545788D01*
X66943809Y-21869062D01*
X66889292Y-21896839D01*
X66848185Y-21894685D01*
X66772853Y-21874500D01*
X66772851Y-21874500D01*
X53304500Y-21874500D01*
X53246309Y-21855593D01*
X53210345Y-21806093D01*
X53205500Y-21775500D01*
X53205500Y-16614500D01*
X53224407Y-16556309D01*
X53273907Y-16520345D01*
X53304500Y-16515500D01*
X53652851Y-16515500D01*
X53652853Y-16515500D01*
X53735639Y-16493318D01*
X53735641Y-16493316D01*
X53735643Y-16493316D01*
X53809857Y-16450468D01*
X53809857Y-16450467D01*
X53809862Y-16450465D01*
X57505830Y-12754495D01*
X57560347Y-12726719D01*
X57575834Y-12725500D01*
X59056016Y-12725500D01*
X59056018Y-12725500D01*
X59164237Y-12696503D01*
X59164239Y-12696501D01*
X59164241Y-12696501D01*
X59193064Y-12679859D01*
X59261263Y-12640485D01*
X59340485Y-12561263D01*
X59396503Y-12464237D01*
X59425500Y-12356018D01*
X59425500Y-10006359D01*
X59444407Y-9948168D01*
X59469500Y-9924043D01*
X59510289Y-9896789D01*
X59621789Y-9785289D01*
X59709394Y-9654179D01*
X59769737Y-9508497D01*
X59800500Y-9353842D01*
X59800500Y-8646158D01*
X59800499Y-8646155D01*
X60199500Y-8646155D01*
X60199500Y-9353844D01*
X60230263Y-9508496D01*
X60230263Y-9508498D01*
X60290603Y-9654174D01*
X60290609Y-9654185D01*
X60327700Y-9709694D01*
X60378211Y-9785289D01*
X60489711Y-9896789D01*
X60566605Y-9948168D01*
X60620814Y-9984390D01*
X60620825Y-9984396D01*
X60673850Y-10006359D01*
X60766503Y-10044737D01*
X60921158Y-10075500D01*
X60921159Y-10075500D01*
X61078841Y-10075500D01*
X61078842Y-10075500D01*
X61233497Y-10044737D01*
X61379179Y-9984394D01*
X61510289Y-9896789D01*
X61621789Y-9785289D01*
X61709394Y-9654179D01*
X61769737Y-9508497D01*
X61800500Y-9353842D01*
X61800500Y-8646158D01*
X61769737Y-8491503D01*
X61749622Y-8442942D01*
X61709396Y-8345825D01*
X61709390Y-8345814D01*
X61672293Y-8290296D01*
X61621789Y-8214711D01*
X61510289Y-8103211D01*
X61422494Y-8044548D01*
X61379185Y-8015609D01*
X61379174Y-8015603D01*
X61233497Y-7955263D01*
X61078844Y-7924500D01*
X61078842Y-7924500D01*
X60921158Y-7924500D01*
X60921155Y-7924500D01*
X60766503Y-7955263D01*
X60766501Y-7955263D01*
X60620825Y-8015603D01*
X60620814Y-8015609D01*
X60489711Y-8103211D01*
X60489707Y-8103214D01*
X60378214Y-8214707D01*
X60378211Y-8214711D01*
X60290609Y-8345814D01*
X60290603Y-8345825D01*
X60230263Y-8491501D01*
X60230263Y-8491503D01*
X60199500Y-8646155D01*
X59800499Y-8646155D01*
X59769737Y-8491503D01*
X59749622Y-8442942D01*
X59709396Y-8345825D01*
X59709390Y-8345814D01*
X59672293Y-8290296D01*
X59621789Y-8214711D01*
X59510289Y-8103211D01*
X59422494Y-8044548D01*
X59379185Y-8015609D01*
X59379174Y-8015603D01*
X59233497Y-7955263D01*
X59078844Y-7924500D01*
X59078842Y-7924500D01*
X58921158Y-7924500D01*
X58921155Y-7924500D01*
X58766503Y-7955263D01*
X58766501Y-7955263D01*
X58620825Y-8015603D01*
X58620814Y-8015609D01*
X58489711Y-8103211D01*
X58489707Y-8103214D01*
X58378214Y-8214707D01*
X58378211Y-8214711D01*
X58290609Y-8345814D01*
X58290603Y-8345825D01*
X58230263Y-8491501D01*
X58230263Y-8491503D01*
X58199500Y-8646155D01*
X58199500Y-9353844D01*
X58230263Y-9508496D01*
X58230263Y-9508498D01*
X58290603Y-9654174D01*
X58290609Y-9654185D01*
X58327700Y-9709694D01*
X58378211Y-9785289D01*
X58378214Y-9785292D01*
X58378218Y-9785297D01*
X58489712Y-9896790D01*
X58530500Y-9924043D01*
X58568380Y-9972092D01*
X58574500Y-10006359D01*
X58574500Y-11775500D01*
X58555593Y-11833691D01*
X58506093Y-11869655D01*
X58475500Y-11874500D01*
X57443982Y-11874500D01*
X57377748Y-11892247D01*
X57335758Y-11903498D01*
X57238739Y-11959513D01*
X57159513Y-12038739D01*
X57103498Y-12135758D01*
X57073610Y-12247304D01*
X57047987Y-12291685D01*
X53504169Y-15835504D01*
X53497051Y-15839130D01*
X53492356Y-15845593D01*
X53470307Y-15852756D01*
X53449652Y-15863281D01*
X53434165Y-15864500D01*
X53304500Y-15864500D01*
X53246309Y-15845593D01*
X53210345Y-15796093D01*
X53205500Y-15765500D01*
X53205500Y-8320725D01*
X54199500Y-8320725D01*
X54199500Y-9679274D01*
X54202353Y-9709694D01*
X54202355Y-9709703D01*
X54247207Y-9837883D01*
X54327845Y-9947144D01*
X54327847Y-9947146D01*
X54327850Y-9947150D01*
X54327853Y-9947152D01*
X54327855Y-9947154D01*
X54437116Y-10027792D01*
X54437117Y-10027792D01*
X54437118Y-10027793D01*
X54565301Y-10072646D01*
X54595725Y-10075499D01*
X54595727Y-10075500D01*
X54595734Y-10075500D01*
X55404273Y-10075500D01*
X55404273Y-10075499D01*
X55434699Y-10072646D01*
X55562882Y-10027793D01*
X55672150Y-9947150D01*
X55752793Y-9837882D01*
X55797646Y-9709699D01*
X55800499Y-9679273D01*
X55800500Y-9679273D01*
X55800500Y-8646155D01*
X56199500Y-8646155D01*
X56199500Y-9353844D01*
X56230263Y-9508496D01*
X56230263Y-9508498D01*
X56290603Y-9654174D01*
X56290609Y-9654185D01*
X56327700Y-9709694D01*
X56378211Y-9785289D01*
X56489711Y-9896789D01*
X56566605Y-9948168D01*
X56620814Y-9984390D01*
X56620825Y-9984396D01*
X56673850Y-10006359D01*
X56766503Y-10044737D01*
X56921158Y-10075500D01*
X56921159Y-10075500D01*
X57078841Y-10075500D01*
X57078842Y-10075500D01*
X57233497Y-10044737D01*
X57379179Y-9984394D01*
X57510289Y-9896789D01*
X57621789Y-9785289D01*
X57709394Y-9654179D01*
X57769737Y-9508497D01*
X57800500Y-9353842D01*
X57800500Y-8646158D01*
X57769737Y-8491503D01*
X57749622Y-8442942D01*
X57709396Y-8345825D01*
X57709390Y-8345814D01*
X57672293Y-8290296D01*
X57621789Y-8214711D01*
X57510289Y-8103211D01*
X57422494Y-8044548D01*
X57379185Y-8015609D01*
X57379174Y-8015603D01*
X57233497Y-7955263D01*
X57078844Y-7924500D01*
X57078842Y-7924500D01*
X56921158Y-7924500D01*
X56921155Y-7924500D01*
X56766503Y-7955263D01*
X56766501Y-7955263D01*
X56620825Y-8015603D01*
X56620814Y-8015609D01*
X56489711Y-8103211D01*
X56489707Y-8103214D01*
X56378214Y-8214707D01*
X56378211Y-8214711D01*
X56290609Y-8345814D01*
X56290603Y-8345825D01*
X56230263Y-8491501D01*
X56230263Y-8491503D01*
X56199500Y-8646155D01*
X55800500Y-8646155D01*
X55800500Y-8320727D01*
X55800499Y-8320725D01*
X55797646Y-8290305D01*
X55797646Y-8290301D01*
X55752793Y-8162118D01*
X55724144Y-8123300D01*
X55672154Y-8052855D01*
X55672152Y-8052853D01*
X55672150Y-8052850D01*
X55672146Y-8052847D01*
X55672144Y-8052845D01*
X55562883Y-7972207D01*
X55434703Y-7927355D01*
X55434694Y-7927353D01*
X55404274Y-7924500D01*
X55404266Y-7924500D01*
X54595734Y-7924500D01*
X54595725Y-7924500D01*
X54565305Y-7927353D01*
X54565296Y-7927355D01*
X54437116Y-7972207D01*
X54327855Y-8052845D01*
X54327845Y-8052855D01*
X54247207Y-8162116D01*
X54202355Y-8290296D01*
X54202353Y-8290305D01*
X54199500Y-8320725D01*
X53205500Y-8320725D01*
X53205500Y-3374034D01*
X104899500Y-3374034D01*
X104899500Y-3625965D01*
X104938908Y-3874780D01*
X104991127Y-4035492D01*
X105016759Y-4114379D01*
X105131130Y-4338845D01*
X105279207Y-4542656D01*
X105457344Y-4720793D01*
X105661155Y-4868870D01*
X105885621Y-4983241D01*
X106125215Y-5061090D01*
X106125216Y-5061090D01*
X106125219Y-5061091D01*
X106374035Y-5100500D01*
X106374038Y-5100500D01*
X106625965Y-5100500D01*
X106874780Y-5061091D01*
X106874781Y-5061090D01*
X106874785Y-5061090D01*
X107114379Y-4983241D01*
X107338845Y-4868870D01*
X107542656Y-4720793D01*
X107720793Y-4542656D01*
X107868870Y-4338845D01*
X107983241Y-4114379D01*
X108061090Y-3874785D01*
X108068712Y-3826664D01*
X108100500Y-3625965D01*
X108100500Y-3374034D01*
X108061091Y-3125219D01*
X108008872Y-2964506D01*
X107983241Y-2885621D01*
X107868870Y-2661155D01*
X107720793Y-2457344D01*
X107542656Y-2279207D01*
X107338845Y-2131130D01*
X107338844Y-2131129D01*
X107338842Y-2131128D01*
X107114379Y-2016759D01*
X106874780Y-1938908D01*
X106625965Y-1899500D01*
X106625962Y-1899500D01*
X106374038Y-1899500D01*
X106374035Y-1899500D01*
X106125219Y-1938908D01*
X105885620Y-2016759D01*
X105661157Y-2131128D01*
X105457345Y-2279206D01*
X105279206Y-2457345D01*
X105131128Y-2661157D01*
X105016759Y-2885620D01*
X104938908Y-3125219D01*
X104899500Y-3374034D01*
X53205500Y-3374034D01*
X53205500Y-599000D01*
X53224407Y-540809D01*
X53273907Y-504845D01*
X53304500Y-500000D01*
X109401000Y-500000D01*
X109459191Y-518907D01*
G37*
%TD.AperFunction*%
%TD*%
%TA.AperFunction,Conductor*%
%TO.N,GNDD*%
G36*
X10058881Y-518907D02*
G01*
X10094845Y-568407D01*
X10094845Y-629593D01*
X10083007Y-653997D01*
X10072944Y-669059D01*
X10071133Y-671769D01*
X10071132Y-671772D01*
X10059501Y-730241D01*
X10059500Y-730253D01*
X10059500Y-2469746D01*
X10059501Y-2469758D01*
X10071132Y-2528227D01*
X10071134Y-2528233D01*
X10115445Y-2594548D01*
X10115448Y-2594552D01*
X10181769Y-2638867D01*
X10226231Y-2647711D01*
X10240241Y-2650498D01*
X10240246Y-2650498D01*
X10240252Y-2650500D01*
X10240253Y-2650500D01*
X11979747Y-2650500D01*
X11979748Y-2650500D01*
X12038231Y-2638867D01*
X12104552Y-2594552D01*
X12148867Y-2528231D01*
X12160500Y-2469748D01*
X12160500Y-730252D01*
X12148867Y-671769D01*
X12136994Y-654000D01*
X12120386Y-595115D01*
X12141563Y-537711D01*
X12192436Y-503717D01*
X12219310Y-500000D01*
X12301000Y-500000D01*
X12359191Y-518907D01*
X12395155Y-568407D01*
X12400000Y-599000D01*
X12400000Y-6400000D01*
X12400001Y-6400000D01*
X27599999Y-6400000D01*
X27600000Y-6400000D01*
X27600000Y-599000D01*
X27618907Y-540809D01*
X27668407Y-504845D01*
X27699000Y-500000D01*
X28319057Y-500000D01*
X28377248Y-518907D01*
X28413212Y-568407D01*
X28413212Y-629593D01*
X28377248Y-679093D01*
X28374058Y-681316D01*
X28220348Y-784020D01*
X28074020Y-930348D01*
X27959058Y-1102402D01*
X27879869Y-1293581D01*
X27839500Y-1496532D01*
X27839500Y-1703467D01*
X27879869Y-1906418D01*
X27959058Y-2097597D01*
X27959059Y-2097598D01*
X28074023Y-2269655D01*
X28220345Y-2415977D01*
X28392402Y-2530941D01*
X28583580Y-2610130D01*
X28786535Y-2650500D01*
X28786536Y-2650500D01*
X28993464Y-2650500D01*
X28993465Y-2650500D01*
X29196420Y-2610130D01*
X29387598Y-2530941D01*
X29559655Y-2415977D01*
X29705977Y-2269655D01*
X29820941Y-2097598D01*
X29900130Y-1906420D01*
X29940500Y-1703465D01*
X29940500Y-1496535D01*
X29900130Y-1293580D01*
X29820941Y-1102402D01*
X29705977Y-930345D01*
X29559655Y-784023D01*
X29479180Y-730252D01*
X29405942Y-681316D01*
X29368062Y-633266D01*
X29365660Y-572128D01*
X29399652Y-521254D01*
X29457056Y-500076D01*
X29460943Y-500000D01*
X52901000Y-500000D01*
X52959191Y-518907D01*
X52995155Y-568407D01*
X53000000Y-599000D01*
X53000000Y-15765500D01*
X52981093Y-15823691D01*
X52931593Y-15859655D01*
X52901000Y-15864500D01*
X37073963Y-15864500D01*
X37015772Y-15845593D01*
X36979808Y-15796093D01*
X36979808Y-15734907D01*
X36982500Y-15727611D01*
X36983311Y-15725649D01*
X36983318Y-15725638D01*
X37005500Y-15642853D01*
X37005500Y-13689933D01*
X37007968Y-13682334D01*
X37006719Y-13674444D01*
X37017243Y-13653790D01*
X37024407Y-13631742D01*
X37034498Y-13619928D01*
X37060832Y-13593595D01*
X37115349Y-13565819D01*
X37130834Y-13564600D01*
X37195890Y-13564600D01*
X37195892Y-13564600D01*
X37323186Y-13530492D01*
X37323188Y-13530490D01*
X37323190Y-13530490D01*
X37437309Y-13464603D01*
X37437309Y-13464602D01*
X37437314Y-13464600D01*
X37530500Y-13371414D01*
X37596392Y-13257286D01*
X37630500Y-13129992D01*
X37630500Y-12998208D01*
X37596392Y-12870914D01*
X37596390Y-12870911D01*
X37596390Y-12870909D01*
X37530503Y-12756790D01*
X37530501Y-12756788D01*
X37530500Y-12756786D01*
X37437314Y-12663600D01*
X37437311Y-12663598D01*
X37437309Y-12663596D01*
X37323189Y-12597709D01*
X37323191Y-12597709D01*
X37242091Y-12575979D01*
X37195892Y-12563600D01*
X37064108Y-12563600D01*
X37017909Y-12575979D01*
X36936809Y-12597709D01*
X36822690Y-12663596D01*
X36729496Y-12756790D01*
X36663609Y-12870909D01*
X36629500Y-12998209D01*
X36629500Y-13063265D01*
X36627031Y-13070862D01*
X36628281Y-13078752D01*
X36617757Y-13099405D01*
X36610593Y-13121456D01*
X36600503Y-13133269D01*
X36499052Y-13234719D01*
X36485141Y-13245394D01*
X36485287Y-13245584D01*
X36480140Y-13249533D01*
X36480138Y-13249535D01*
X36419535Y-13310138D01*
X36376682Y-13384362D01*
X36355183Y-13464600D01*
X36354500Y-13467148D01*
X36354500Y-15175500D01*
X36335593Y-15233691D01*
X36286093Y-15269655D01*
X36255500Y-15274500D01*
X34823322Y-15274500D01*
X34765131Y-15255593D01*
X34753319Y-15245504D01*
X34707315Y-15199500D01*
X34707309Y-15199496D01*
X34593189Y-15133609D01*
X34593191Y-15133609D01*
X34527393Y-15115979D01*
X34465892Y-15099500D01*
X34334108Y-15099500D01*
X34272607Y-15115979D01*
X34206809Y-15133609D01*
X34092690Y-15199496D01*
X33999496Y-15292690D01*
X33933609Y-15406809D01*
X33933608Y-15406814D01*
X33899500Y-15534108D01*
X33899500Y-15665892D01*
X33919324Y-15739880D01*
X33916123Y-15800978D01*
X33877618Y-15848528D01*
X33823698Y-15864500D01*
X33757147Y-15864500D01*
X33674362Y-15886682D01*
X33600138Y-15929535D01*
X33539535Y-15990138D01*
X33496682Y-16064362D01*
X33474500Y-16147148D01*
X33474500Y-23076678D01*
X33472050Y-23084217D01*
X33473300Y-23092046D01*
X33462802Y-23112678D01*
X33455593Y-23134869D01*
X33445589Y-23146597D01*
X33399500Y-23192686D01*
X33399346Y-23192952D01*
X33394588Y-23197722D01*
X33372749Y-23208882D01*
X33352529Y-23222752D01*
X33345958Y-23222573D01*
X33340105Y-23225565D01*
X33315881Y-23221758D01*
X33291366Y-23221094D01*
X33286154Y-23217087D01*
X33279661Y-23216067D01*
X33262300Y-23198748D01*
X33242859Y-23183802D01*
X33240862Y-23177362D01*
X33236344Y-23172855D01*
X33233030Y-23152097D01*
X33225499Y-23127803D01*
X33225499Y-1890539D01*
X33238763Y-1841038D01*
X33266391Y-1793186D01*
X33300499Y-1665892D01*
X33300499Y-1534108D01*
X33266391Y-1406814D01*
X33266389Y-1406811D01*
X33266389Y-1406809D01*
X33200502Y-1292690D01*
X33200500Y-1292688D01*
X33200499Y-1292686D01*
X33107313Y-1199500D01*
X33107310Y-1199498D01*
X33107308Y-1199496D01*
X32993188Y-1133609D01*
X32993190Y-1133609D01*
X32943798Y-1120375D01*
X32865891Y-1099500D01*
X32734107Y-1099500D01*
X32656199Y-1120375D01*
X32606808Y-1133609D01*
X32492689Y-1199496D01*
X32399495Y-1292690D01*
X32333608Y-1406809D01*
X32333607Y-1406814D01*
X32299499Y-1534108D01*
X32299499Y-1665892D01*
X32333607Y-1793186D01*
X32333608Y-1793188D01*
X32361235Y-1841038D01*
X32374499Y-1890539D01*
X32374499Y-6146815D01*
X32355592Y-6205006D01*
X32306092Y-6240970D01*
X32244906Y-6240970D01*
X32226000Y-6232552D01*
X32193189Y-6213609D01*
X32193186Y-6213608D01*
X32065892Y-6179500D01*
X31934108Y-6179500D01*
X31856200Y-6200375D01*
X31806809Y-6213609D01*
X31692690Y-6279496D01*
X31599496Y-6372690D01*
X31533609Y-6486809D01*
X31533608Y-6486814D01*
X31499500Y-6614108D01*
X31499500Y-6745892D01*
X31533608Y-6873186D01*
X31533609Y-6873188D01*
X31561236Y-6921038D01*
X31574500Y-6970539D01*
X31574500Y-11226816D01*
X31555593Y-11285007D01*
X31506093Y-11320971D01*
X31444907Y-11320971D01*
X31426001Y-11312553D01*
X31393189Y-11293609D01*
X31393186Y-11293608D01*
X31265892Y-11259500D01*
X31134108Y-11259500D01*
X31056200Y-11280375D01*
X31006809Y-11293609D01*
X30892690Y-11359496D01*
X30799496Y-11452690D01*
X30733609Y-11566809D01*
X30733608Y-11566814D01*
X30699500Y-11694108D01*
X30699500Y-11825892D01*
X30709567Y-11863463D01*
X30733609Y-11953190D01*
X30799496Y-12067309D01*
X30799498Y-12067311D01*
X30799500Y-12067314D01*
X30845505Y-12113319D01*
X30873281Y-12167834D01*
X30874500Y-12183321D01*
X30874500Y-13827679D01*
X30855593Y-13885870D01*
X30806093Y-13921834D01*
X30744907Y-13921834D01*
X30713242Y-13902429D01*
X30712460Y-13903449D01*
X30707309Y-13899496D01*
X30593189Y-13833609D01*
X30593191Y-13833609D01*
X30543799Y-13820375D01*
X30465892Y-13799500D01*
X30334108Y-13799500D01*
X30256200Y-13820375D01*
X30206809Y-13833609D01*
X30092690Y-13899496D01*
X30092685Y-13899500D01*
X30033739Y-13958446D01*
X29979222Y-13986223D01*
X29918790Y-13976651D01*
X29875526Y-13933386D01*
X29872279Y-13926342D01*
X29820941Y-13802402D01*
X29705977Y-13630345D01*
X29559655Y-13484023D01*
X29534400Y-13467148D01*
X29387597Y-13369058D01*
X29196418Y-13289869D01*
X28993467Y-13249500D01*
X28993465Y-13249500D01*
X28786535Y-13249500D01*
X28786532Y-13249500D01*
X28583581Y-13289869D01*
X28392402Y-13369058D01*
X28220348Y-13484020D01*
X28074020Y-13630348D01*
X27959058Y-13802402D01*
X27879869Y-13993581D01*
X27839500Y-14196532D01*
X27839500Y-14403467D01*
X27879869Y-14606418D01*
X27959058Y-14797597D01*
X27959059Y-14797598D01*
X28074023Y-14969655D01*
X28220345Y-15115977D01*
X28392402Y-15230941D01*
X28583580Y-15310130D01*
X28786535Y-15350500D01*
X28786536Y-15350500D01*
X28993464Y-15350500D01*
X28993465Y-15350500D01*
X29196420Y-15310130D01*
X29387598Y-15230941D01*
X29559655Y-15115977D01*
X29705977Y-14969655D01*
X29820941Y-14797598D01*
X29872273Y-14673671D01*
X29874892Y-14670604D01*
X29875524Y-14666617D01*
X29894543Y-14647595D01*
X29912008Y-14627147D01*
X29915932Y-14626204D01*
X29918787Y-14623350D01*
X29945353Y-14619141D01*
X29971503Y-14612863D01*
X29975232Y-14614407D01*
X29979219Y-14613776D01*
X30003184Y-14625985D01*
X30028031Y-14636277D01*
X30033737Y-14641551D01*
X30045502Y-14653316D01*
X30073280Y-14707830D01*
X30074500Y-14723321D01*
X30074500Y-16456840D01*
X30055593Y-16515031D01*
X30006093Y-16550995D01*
X29944907Y-16550995D01*
X29895407Y-16515031D01*
X29884036Y-16494726D01*
X29820941Y-16342402D01*
X29705979Y-16170348D01*
X29705977Y-16170345D01*
X29559655Y-16024023D01*
X29524455Y-16000503D01*
X29387597Y-15909058D01*
X29196418Y-15829869D01*
X28993467Y-15789500D01*
X28993465Y-15789500D01*
X28786535Y-15789500D01*
X28786532Y-15789500D01*
X28583581Y-15829869D01*
X28392402Y-15909058D01*
X28220348Y-16024020D01*
X28074020Y-16170348D01*
X27959058Y-16342402D01*
X27879869Y-16533581D01*
X27839500Y-16736532D01*
X27839500Y-16943467D01*
X27879869Y-17146418D01*
X27959058Y-17337597D01*
X27959059Y-17337598D01*
X28074023Y-17509655D01*
X28220345Y-17655977D01*
X28392402Y-17770941D01*
X28583580Y-17850130D01*
X28786535Y-17890500D01*
X28786536Y-17890500D01*
X28993464Y-17890500D01*
X28993465Y-17890500D01*
X29196420Y-17850130D01*
X29387598Y-17770941D01*
X29559655Y-17655977D01*
X29705977Y-17509655D01*
X29820941Y-17337598D01*
X29884036Y-17185271D01*
X29923773Y-17138748D01*
X29983267Y-17124464D01*
X30039795Y-17147879D01*
X30071765Y-17200048D01*
X30074500Y-17223159D01*
X30074500Y-30776678D01*
X30055593Y-30834869D01*
X30045504Y-30846681D01*
X29999500Y-30892684D01*
X29999496Y-30892690D01*
X29933609Y-31006809D01*
X29917883Y-31065500D01*
X29899500Y-31134108D01*
X29899500Y-31265892D01*
X29929579Y-31378151D01*
X29933609Y-31393190D01*
X29999496Y-31507309D01*
X29999498Y-31507311D01*
X29999500Y-31507314D01*
X30092686Y-31600500D01*
X30092688Y-31600501D01*
X30092690Y-31600503D01*
X30206810Y-31666390D01*
X30206808Y-31666390D01*
X30206812Y-31666391D01*
X30206814Y-31666392D01*
X30334108Y-31700500D01*
X30334110Y-31700500D01*
X30465890Y-31700500D01*
X30465892Y-31700500D01*
X30593186Y-31666392D01*
X30593188Y-31666390D01*
X30593190Y-31666390D01*
X30707309Y-31600503D01*
X30707309Y-31600502D01*
X30707314Y-31600500D01*
X30800500Y-31507314D01*
X30866392Y-31393186D01*
X30900500Y-31265892D01*
X30900500Y-31134108D01*
X30866392Y-31006814D01*
X30866390Y-31006811D01*
X30866390Y-31006809D01*
X30800503Y-30892690D01*
X30800499Y-30892684D01*
X30754496Y-30846681D01*
X30726719Y-30792164D01*
X30725500Y-30776678D01*
X30725500Y-22672321D01*
X30744407Y-22614130D01*
X30793907Y-22578166D01*
X30855093Y-22578166D01*
X30886757Y-22597570D01*
X30887540Y-22596551D01*
X30892690Y-22600503D01*
X31006810Y-22666390D01*
X31006808Y-22666390D01*
X31006812Y-22666391D01*
X31006814Y-22666392D01*
X31134108Y-22700500D01*
X31134110Y-22700500D01*
X31265890Y-22700500D01*
X31265892Y-22700500D01*
X31393186Y-22666392D01*
X31425999Y-22647446D01*
X31485847Y-22634725D01*
X31541743Y-22659611D01*
X31572336Y-22712598D01*
X31574500Y-22733183D01*
X31574500Y-32709459D01*
X31561237Y-32758958D01*
X31533608Y-32806812D01*
X31510869Y-32891676D01*
X31499500Y-32934108D01*
X31499500Y-33065892D01*
X31529579Y-33178151D01*
X31533609Y-33193190D01*
X31599496Y-33307309D01*
X31599498Y-33307311D01*
X31599500Y-33307314D01*
X31692686Y-33400500D01*
X31692688Y-33400501D01*
X31692690Y-33400503D01*
X31806810Y-33466390D01*
X31806808Y-33466390D01*
X31806812Y-33466391D01*
X31806814Y-33466392D01*
X31934108Y-33500500D01*
X31934110Y-33500500D01*
X32065890Y-33500500D01*
X32065892Y-33500500D01*
X32193186Y-33466392D01*
X32193188Y-33466390D01*
X32193190Y-33466390D01*
X32225999Y-33447448D01*
X32285847Y-33434726D01*
X32341743Y-33459612D01*
X32372336Y-33512600D01*
X32374499Y-33533184D01*
X32374499Y-33909459D01*
X32361236Y-33958958D01*
X32333607Y-34006812D01*
X32310868Y-34091676D01*
X32299499Y-34134108D01*
X32299499Y-34265892D01*
X32329578Y-34378151D01*
X32333608Y-34393190D01*
X32399495Y-34507309D01*
X32399497Y-34507311D01*
X32399499Y-34507314D01*
X32492685Y-34600500D01*
X32492687Y-34600501D01*
X32492689Y-34600503D01*
X32606809Y-34666390D01*
X32606807Y-34666390D01*
X32606811Y-34666391D01*
X32606813Y-34666392D01*
X32734107Y-34700500D01*
X32734109Y-34700500D01*
X32865889Y-34700500D01*
X32865891Y-34700500D01*
X32993185Y-34666392D01*
X32993187Y-34666390D01*
X32993189Y-34666390D01*
X33107308Y-34600503D01*
X33107308Y-34600502D01*
X33107313Y-34600500D01*
X33200499Y-34507314D01*
X33266391Y-34393186D01*
X33300499Y-34265892D01*
X33300499Y-34134108D01*
X33266391Y-34006814D01*
X33266390Y-34006812D01*
X33238762Y-33958958D01*
X33225499Y-33909459D01*
X33225499Y-23872196D01*
X33244406Y-23814005D01*
X33293906Y-23778041D01*
X33355092Y-23778041D01*
X33392886Y-23804750D01*
X33394912Y-23802725D01*
X33399498Y-23807311D01*
X33399500Y-23807314D01*
X33492686Y-23900500D01*
X33492688Y-23900501D01*
X33492690Y-23900503D01*
X33606810Y-23966390D01*
X33606808Y-23966390D01*
X33606812Y-23966391D01*
X33606814Y-23966392D01*
X33734108Y-24000500D01*
X33734110Y-24000500D01*
X33865890Y-24000500D01*
X33865892Y-24000500D01*
X33993186Y-23966392D01*
X33993188Y-23966390D01*
X33993190Y-23966390D01*
X34107309Y-23900503D01*
X34107309Y-23900502D01*
X34107314Y-23900500D01*
X34200500Y-23807314D01*
X34201980Y-23804750D01*
X34266390Y-23693190D01*
X34266390Y-23693188D01*
X34266392Y-23693186D01*
X34300500Y-23565892D01*
X34300500Y-23434108D01*
X34266392Y-23306814D01*
X34266390Y-23306811D01*
X34266390Y-23306809D01*
X34200503Y-23192690D01*
X34200499Y-23192684D01*
X34154496Y-23146681D01*
X34126719Y-23092164D01*
X34125500Y-23076678D01*
X34125500Y-16614500D01*
X34144407Y-16556309D01*
X34193907Y-16520345D01*
X34224500Y-16515500D01*
X52901000Y-16515500D01*
X52959191Y-16534407D01*
X52995155Y-16583907D01*
X53000000Y-16614500D01*
X53000000Y-21775500D01*
X52981093Y-21833691D01*
X52931593Y-21869655D01*
X52901000Y-21874500D01*
X35423322Y-21874500D01*
X35365131Y-21855593D01*
X35353319Y-21845504D01*
X35307315Y-21799500D01*
X35307309Y-21799496D01*
X35193189Y-21733609D01*
X35193191Y-21733609D01*
X35143799Y-21720375D01*
X35065892Y-21699500D01*
X34934108Y-21699500D01*
X34856200Y-21720375D01*
X34806809Y-21733609D01*
X34692690Y-21799496D01*
X34599496Y-21892690D01*
X34533609Y-22006809D01*
X34533608Y-22006814D01*
X34499500Y-22134108D01*
X34499500Y-22265892D01*
X34515509Y-22325638D01*
X34533609Y-22393190D01*
X34599496Y-22507309D01*
X34599498Y-22507311D01*
X34599500Y-22507314D01*
X34692686Y-22600500D01*
X34692688Y-22600501D01*
X34692690Y-22600503D01*
X34806810Y-22666390D01*
X34806808Y-22666390D01*
X34806812Y-22666391D01*
X34806814Y-22666392D01*
X34934108Y-22700500D01*
X34934110Y-22700500D01*
X35065890Y-22700500D01*
X35065892Y-22700500D01*
X35193186Y-22666392D01*
X35193188Y-22666390D01*
X35193190Y-22666390D01*
X35307309Y-22600503D01*
X35307310Y-22600502D01*
X35307314Y-22600500D01*
X35329648Y-22578166D01*
X35353319Y-22554496D01*
X35407836Y-22526719D01*
X35423322Y-22525500D01*
X52901000Y-22525500D01*
X52959191Y-22544407D01*
X52995155Y-22593907D01*
X53000000Y-22624500D01*
X53000000Y-24288000D01*
X52981093Y-24346191D01*
X52931593Y-24382155D01*
X52901000Y-24387000D01*
X43510122Y-24387000D01*
X43451931Y-24368093D01*
X43440119Y-24358004D01*
X43394115Y-24312000D01*
X43394109Y-24311996D01*
X43279989Y-24246109D01*
X43279991Y-24246109D01*
X43230599Y-24232875D01*
X43152692Y-24212000D01*
X43020908Y-24212000D01*
X42943000Y-24232875D01*
X42893609Y-24246109D01*
X42779490Y-24311996D01*
X42686296Y-24405190D01*
X42620409Y-24519309D01*
X42602309Y-24586862D01*
X42586300Y-24646608D01*
X42586300Y-24778392D01*
X42616379Y-24890651D01*
X42620409Y-24905690D01*
X42686296Y-25019809D01*
X42686298Y-25019811D01*
X42686300Y-25019814D01*
X42779486Y-25113000D01*
X42779488Y-25113001D01*
X42779490Y-25113003D01*
X42893610Y-25178890D01*
X42893608Y-25178890D01*
X42893612Y-25178891D01*
X42893614Y-25178892D01*
X43020908Y-25213000D01*
X43020910Y-25213000D01*
X43152690Y-25213000D01*
X43152692Y-25213000D01*
X43279986Y-25178892D01*
X43279988Y-25178890D01*
X43279990Y-25178890D01*
X43394109Y-25113003D01*
X43394110Y-25113002D01*
X43394114Y-25113000D01*
X43406614Y-25100500D01*
X43440119Y-25066996D01*
X43494636Y-25039219D01*
X43510122Y-25038000D01*
X52901000Y-25038000D01*
X52959191Y-25056907D01*
X52995155Y-25106407D01*
X53000000Y-25137000D01*
X53000000Y-57550500D01*
X52981093Y-57608691D01*
X52931593Y-57644655D01*
X52901000Y-57649500D01*
X46839400Y-57649500D01*
X46781209Y-57630593D01*
X46745245Y-57581093D01*
X46740400Y-57550500D01*
X46740400Y-48560821D01*
X46759307Y-48502630D01*
X46769390Y-48490823D01*
X46790400Y-48469814D01*
X46856292Y-48355686D01*
X46890400Y-48228392D01*
X46890400Y-48096608D01*
X46856292Y-47969314D01*
X46856290Y-47969311D01*
X46856290Y-47969309D01*
X46790403Y-47855190D01*
X46790401Y-47855188D01*
X46790400Y-47855186D01*
X46697214Y-47762000D01*
X46697211Y-47761998D01*
X46697209Y-47761996D01*
X46583089Y-47696109D01*
X46583091Y-47696109D01*
X46533699Y-47682875D01*
X46455792Y-47662000D01*
X46324008Y-47662000D01*
X46246100Y-47682875D01*
X46196709Y-47696109D01*
X46082590Y-47761996D01*
X45989396Y-47855190D01*
X45923509Y-47969309D01*
X45923508Y-47969314D01*
X45889400Y-48096608D01*
X45889400Y-48228392D01*
X45919479Y-48340651D01*
X45923509Y-48355690D01*
X45989396Y-48469809D01*
X45989398Y-48469811D01*
X45989400Y-48469814D01*
X46010405Y-48490819D01*
X46038181Y-48545334D01*
X46039400Y-48560821D01*
X46039400Y-58046144D01*
X46063286Y-58135288D01*
X46109431Y-58215212D01*
X46174688Y-58280469D01*
X46254612Y-58326614D01*
X46343756Y-58350500D01*
X46436044Y-58350500D01*
X52901000Y-58350500D01*
X52959191Y-58369407D01*
X52995155Y-58418907D01*
X53000000Y-58449500D01*
X53000000Y-69401000D01*
X52981093Y-69459191D01*
X52931593Y-69495155D01*
X52901000Y-69500000D01*
X599000Y-69500000D01*
X540809Y-69481093D01*
X504845Y-69431593D01*
X500000Y-69401000D01*
X500000Y-66374034D01*
X1899500Y-66374034D01*
X1899500Y-66625965D01*
X1938908Y-66874780D01*
X1938910Y-66874785D01*
X2016759Y-67114379D01*
X2131130Y-67338845D01*
X2279207Y-67542656D01*
X2457344Y-67720793D01*
X2661155Y-67868870D01*
X2885621Y-67983241D01*
X3125215Y-68061090D01*
X3125216Y-68061090D01*
X3125219Y-68061091D01*
X3374035Y-68100500D01*
X3374038Y-68100500D01*
X3625965Y-68100500D01*
X3874780Y-68061091D01*
X3874781Y-68061090D01*
X3874785Y-68061090D01*
X4114379Y-67983241D01*
X4338845Y-67868870D01*
X4542656Y-67720793D01*
X4720793Y-67542656D01*
X4868870Y-67338845D01*
X4983241Y-67114379D01*
X5061090Y-66874785D01*
X5100500Y-66625962D01*
X5100500Y-66374038D01*
X5100500Y-66374034D01*
X5061091Y-66125219D01*
X5061090Y-66125215D01*
X4983241Y-65885621D01*
X4868870Y-65661155D01*
X4720793Y-65457344D01*
X4542656Y-65279207D01*
X4338845Y-65131130D01*
X4338844Y-65131129D01*
X4338842Y-65131128D01*
X4114379Y-65016759D01*
X3874780Y-64938908D01*
X3625965Y-64899500D01*
X3625962Y-64899500D01*
X3374038Y-64899500D01*
X3374035Y-64899500D01*
X3125219Y-64938908D01*
X2885620Y-65016759D01*
X2661157Y-65131128D01*
X2457345Y-65279206D01*
X2279206Y-65457345D01*
X2131128Y-65661157D01*
X2016759Y-65885620D01*
X1938908Y-66125219D01*
X1899500Y-66374034D01*
X500000Y-66374034D01*
X500000Y-62320725D01*
X9199500Y-62320725D01*
X9199500Y-63679274D01*
X9202353Y-63709694D01*
X9202355Y-63709703D01*
X9247207Y-63837883D01*
X9327845Y-63947144D01*
X9327847Y-63947146D01*
X9327850Y-63947150D01*
X9327853Y-63947152D01*
X9327855Y-63947154D01*
X9437116Y-64027792D01*
X9437117Y-64027792D01*
X9437118Y-64027793D01*
X9565301Y-64072646D01*
X9595725Y-64075499D01*
X9595727Y-64075500D01*
X9595734Y-64075500D01*
X10404273Y-64075500D01*
X10404273Y-64075499D01*
X10434699Y-64072646D01*
X10562882Y-64027793D01*
X10672150Y-63947150D01*
X10752793Y-63837882D01*
X10797646Y-63709699D01*
X10800499Y-63679273D01*
X10800500Y-63679273D01*
X10800500Y-62874034D01*
X20209500Y-62874034D01*
X20209500Y-63125965D01*
X20248908Y-63374780D01*
X20326759Y-63614379D01*
X20440639Y-63837883D01*
X20441130Y-63838845D01*
X20589207Y-64042656D01*
X20767344Y-64220793D01*
X20971155Y-64368870D01*
X21195621Y-64483241D01*
X21435215Y-64561090D01*
X21435216Y-64561090D01*
X21435219Y-64561091D01*
X21684035Y-64600500D01*
X21684038Y-64600500D01*
X21935965Y-64600500D01*
X22184780Y-64561091D01*
X22184781Y-64561090D01*
X22184785Y-64561090D01*
X22424379Y-64483241D01*
X22648845Y-64368870D01*
X22852656Y-64220793D01*
X23030793Y-64042656D01*
X23178870Y-63838845D01*
X23293241Y-63614379D01*
X23371090Y-63374785D01*
X23410500Y-63125962D01*
X23410500Y-62874038D01*
X23410500Y-62874034D01*
X34209500Y-62874034D01*
X34209500Y-63125965D01*
X34248908Y-63374780D01*
X34326759Y-63614379D01*
X34440639Y-63837883D01*
X34441130Y-63838845D01*
X34589207Y-64042656D01*
X34767344Y-64220793D01*
X34971155Y-64368870D01*
X35195621Y-64483241D01*
X35435215Y-64561090D01*
X35435216Y-64561090D01*
X35435219Y-64561091D01*
X35684035Y-64600500D01*
X35684038Y-64600500D01*
X35935965Y-64600500D01*
X36184780Y-64561091D01*
X36184781Y-64561090D01*
X36184785Y-64561090D01*
X36424379Y-64483241D01*
X36648845Y-64368870D01*
X36852656Y-64220793D01*
X37030793Y-64042656D01*
X37178870Y-63838845D01*
X37293241Y-63614379D01*
X37371090Y-63374785D01*
X37410500Y-63125962D01*
X37410500Y-62874038D01*
X37410500Y-62874034D01*
X37371091Y-62625219D01*
X37371090Y-62625215D01*
X37293241Y-62385621D01*
X37178870Y-62161155D01*
X37030793Y-61957344D01*
X36852656Y-61779207D01*
X36648845Y-61631130D01*
X36648844Y-61631129D01*
X36648842Y-61631128D01*
X36424379Y-61516759D01*
X36184780Y-61438908D01*
X35935965Y-61399500D01*
X35935962Y-61399500D01*
X35684038Y-61399500D01*
X35684035Y-61399500D01*
X35435219Y-61438908D01*
X35195620Y-61516759D01*
X34971157Y-61631128D01*
X34767345Y-61779206D01*
X34589206Y-61957345D01*
X34441128Y-62161157D01*
X34326759Y-62385620D01*
X34248908Y-62625219D01*
X34209500Y-62874034D01*
X23410500Y-62874034D01*
X23371091Y-62625219D01*
X23371090Y-62625215D01*
X23293241Y-62385621D01*
X23178870Y-62161155D01*
X23030793Y-61957344D01*
X22852656Y-61779207D01*
X22648845Y-61631130D01*
X22648844Y-61631129D01*
X22648842Y-61631128D01*
X22424379Y-61516759D01*
X22184780Y-61438908D01*
X21935965Y-61399500D01*
X21935962Y-61399500D01*
X21684038Y-61399500D01*
X21684035Y-61399500D01*
X21435219Y-61438908D01*
X21195620Y-61516759D01*
X20971157Y-61631128D01*
X20767345Y-61779206D01*
X20589206Y-61957345D01*
X20441128Y-62161157D01*
X20326759Y-62385620D01*
X20248908Y-62625219D01*
X20209500Y-62874034D01*
X10800500Y-62874034D01*
X10800500Y-62320727D01*
X10800499Y-62320725D01*
X10797646Y-62290305D01*
X10797646Y-62290301D01*
X10752793Y-62162118D01*
X10752082Y-62161155D01*
X10672154Y-62052855D01*
X10672152Y-62052853D01*
X10672150Y-62052850D01*
X10672146Y-62052847D01*
X10672144Y-62052845D01*
X10562883Y-61972207D01*
X10434703Y-61927355D01*
X10434694Y-61927353D01*
X10404274Y-61924500D01*
X10404266Y-61924500D01*
X9595734Y-61924500D01*
X9595725Y-61924500D01*
X9565305Y-61927353D01*
X9565296Y-61927355D01*
X9437116Y-61972207D01*
X9327855Y-62052845D01*
X9327845Y-62052855D01*
X9247207Y-62162116D01*
X9202355Y-62290296D01*
X9202353Y-62290305D01*
X9199500Y-62320725D01*
X500000Y-62320725D01*
X500000Y-57080253D01*
X16899500Y-57080253D01*
X16899500Y-58919746D01*
X16899501Y-58919758D01*
X16911132Y-58978227D01*
X16911134Y-58978233D01*
X16955445Y-59044548D01*
X16955448Y-59044552D01*
X17021769Y-59088867D01*
X17066231Y-59097711D01*
X17080241Y-59100498D01*
X17080246Y-59100498D01*
X17080252Y-59100500D01*
X17080253Y-59100500D01*
X18919747Y-59100500D01*
X18919748Y-59100500D01*
X18978231Y-59088867D01*
X19044552Y-59044552D01*
X19088867Y-58978231D01*
X19100500Y-58919748D01*
X19100500Y-57542256D01*
X19119407Y-57484065D01*
X19129496Y-57472252D01*
X19423952Y-57177796D01*
X19478469Y-57150019D01*
X19493956Y-57148800D01*
X22143842Y-57148800D01*
X22202033Y-57167707D01*
X22237997Y-57217207D01*
X22237997Y-57278393D01*
X22223936Y-57305987D01*
X22176663Y-57371053D01*
X22138766Y-57423214D01*
X22060125Y-57577558D01*
X22060123Y-57577561D01*
X22006598Y-57742293D01*
X22006597Y-57742297D01*
X21979500Y-57913385D01*
X21979500Y-58086614D01*
X22006597Y-58257702D01*
X22006598Y-58257706D01*
X22060123Y-58422438D01*
X22060125Y-58422441D01*
X22106403Y-58513269D01*
X22138768Y-58576788D01*
X22240586Y-58716928D01*
X22363072Y-58839414D01*
X22503212Y-58941232D01*
X22657555Y-59019873D01*
X22657557Y-59019873D01*
X22657558Y-59019874D01*
X22657561Y-59019876D01*
X22822293Y-59073401D01*
X22822297Y-59073402D01*
X22993386Y-59100500D01*
X22993389Y-59100500D01*
X23166614Y-59100500D01*
X23337702Y-59073402D01*
X23337706Y-59073401D01*
X23502438Y-59019876D01*
X23502440Y-59019874D01*
X23502445Y-59019873D01*
X23656788Y-58941232D01*
X23796928Y-58839414D01*
X23919414Y-58716928D01*
X24021232Y-58576788D01*
X24099873Y-58422445D01*
X24099874Y-58422440D01*
X24099876Y-58422438D01*
X24153401Y-58257706D01*
X24153402Y-58257702D01*
X24180500Y-58086614D01*
X24180500Y-57913385D01*
X24153402Y-57742297D01*
X24153401Y-57742293D01*
X24099876Y-57577561D01*
X24099874Y-57577558D01*
X24099873Y-57577557D01*
X24099873Y-57577555D01*
X24021232Y-57423212D01*
X23936064Y-57305989D01*
X23917158Y-57247800D01*
X23936065Y-57189609D01*
X23985565Y-57153645D01*
X24016158Y-57148800D01*
X24683842Y-57148800D01*
X24742033Y-57167707D01*
X24777997Y-57217207D01*
X24777997Y-57278393D01*
X24763936Y-57305987D01*
X24716663Y-57371053D01*
X24678766Y-57423214D01*
X24600125Y-57577558D01*
X24600123Y-57577561D01*
X24546598Y-57742293D01*
X24546597Y-57742297D01*
X24519500Y-57913385D01*
X24519500Y-58086614D01*
X24546597Y-58257702D01*
X24546598Y-58257706D01*
X24600123Y-58422438D01*
X24600125Y-58422441D01*
X24646403Y-58513269D01*
X24678768Y-58576788D01*
X24780586Y-58716928D01*
X24903072Y-58839414D01*
X25043212Y-58941232D01*
X25197555Y-59019873D01*
X25197557Y-59019873D01*
X25197558Y-59019874D01*
X25197561Y-59019876D01*
X25362293Y-59073401D01*
X25362297Y-59073402D01*
X25533386Y-59100500D01*
X25533389Y-59100500D01*
X25706614Y-59100500D01*
X25877702Y-59073402D01*
X25966491Y-59044552D01*
X26042445Y-59019873D01*
X26069180Y-59006250D01*
X26129609Y-58996677D01*
X26184126Y-59024453D01*
X26184129Y-59024455D01*
X26542333Y-59382659D01*
X26542335Y-59382662D01*
X26602938Y-59443265D01*
X26640047Y-59464689D01*
X26640049Y-59464691D01*
X26677154Y-59486114D01*
X26677161Y-59486118D01*
X26759947Y-59508300D01*
X26759949Y-59508300D01*
X38480051Y-59508300D01*
X38480053Y-59508300D01*
X38562839Y-59486118D01*
X38562841Y-59486116D01*
X38562843Y-59486116D01*
X38637057Y-59443268D01*
X38637057Y-59443267D01*
X38637062Y-59443265D01*
X39055869Y-59024456D01*
X39110386Y-58996679D01*
X39170818Y-59006250D01*
X39197557Y-59019874D01*
X39197561Y-59019876D01*
X39362293Y-59073401D01*
X39362297Y-59073402D01*
X39533386Y-59100500D01*
X39533389Y-59100500D01*
X39706614Y-59100500D01*
X39877702Y-59073402D01*
X39877706Y-59073401D01*
X40042438Y-59019876D01*
X40042440Y-59019874D01*
X40042445Y-59019873D01*
X40196788Y-58941232D01*
X40336928Y-58839414D01*
X40459414Y-58716928D01*
X40561232Y-58576788D01*
X40639873Y-58422445D01*
X40639874Y-58422440D01*
X40639876Y-58422438D01*
X40693401Y-58257706D01*
X40693402Y-58257702D01*
X40720500Y-58086614D01*
X40720500Y-57913385D01*
X40693402Y-57742297D01*
X40693401Y-57742293D01*
X40639876Y-57577561D01*
X40639874Y-57577558D01*
X40639873Y-57577557D01*
X40639873Y-57577555D01*
X40561232Y-57423212D01*
X40459414Y-57283072D01*
X40336928Y-57160586D01*
X40196788Y-57058768D01*
X40196787Y-57058767D01*
X40196785Y-57058766D01*
X40042441Y-56980125D01*
X40042438Y-56980123D01*
X39877706Y-56926598D01*
X39877702Y-56926597D01*
X39706614Y-56899500D01*
X39706611Y-56899500D01*
X39533389Y-56899500D01*
X39533386Y-56899500D01*
X39362297Y-56926597D01*
X39362293Y-56926598D01*
X39197561Y-56980123D01*
X39197558Y-56980125D01*
X39043214Y-57058766D01*
X38903073Y-57160585D01*
X38780585Y-57283073D01*
X38678766Y-57423214D01*
X38600125Y-57577558D01*
X38600123Y-57577561D01*
X38546598Y-57742293D01*
X38546597Y-57742297D01*
X38519500Y-57913385D01*
X38519500Y-58086614D01*
X38546597Y-58257702D01*
X38546598Y-58257706D01*
X38600123Y-58422438D01*
X38600125Y-58422441D01*
X38613749Y-58449180D01*
X38623320Y-58509612D01*
X38595543Y-58564128D01*
X38331370Y-58828303D01*
X38276853Y-58856081D01*
X38261366Y-58857300D01*
X38011726Y-58857300D01*
X37953535Y-58838393D01*
X37917571Y-58788893D01*
X37917571Y-58727707D01*
X37931634Y-58700109D01*
X38021228Y-58576793D01*
X38021232Y-58576788D01*
X38099873Y-58422445D01*
X38099874Y-58422440D01*
X38099876Y-58422438D01*
X38153401Y-58257706D01*
X38153402Y-58257702D01*
X38180500Y-58086614D01*
X38180500Y-57913385D01*
X38153402Y-57742297D01*
X38153401Y-57742293D01*
X38099876Y-57577561D01*
X38099874Y-57577558D01*
X38099873Y-57577557D01*
X38099873Y-57577555D01*
X38021232Y-57423212D01*
X37919414Y-57283072D01*
X37796928Y-57160586D01*
X37656788Y-57058768D01*
X37656787Y-57058767D01*
X37656785Y-57058766D01*
X37502441Y-56980125D01*
X37502438Y-56980123D01*
X37337706Y-56926598D01*
X37337702Y-56926597D01*
X37166614Y-56899500D01*
X37166611Y-56899500D01*
X36993389Y-56899500D01*
X36993386Y-56899500D01*
X36822297Y-56926597D01*
X36822293Y-56926598D01*
X36657561Y-56980123D01*
X36657551Y-56980128D01*
X36630815Y-56993750D01*
X36570383Y-57003320D01*
X36515869Y-56975543D01*
X35838126Y-56297800D01*
X33292362Y-53752035D01*
X33292359Y-53752033D01*
X33292357Y-53752031D01*
X33218142Y-53709183D01*
X33218144Y-53709183D01*
X33186021Y-53700576D01*
X33135353Y-53687000D01*
X33135351Y-53687000D01*
X22661322Y-53687000D01*
X22603131Y-53668093D01*
X22591319Y-53658004D01*
X22545315Y-53612000D01*
X22545309Y-53611996D01*
X22431189Y-53546109D01*
X22431191Y-53546109D01*
X22381799Y-53532875D01*
X22303892Y-53512000D01*
X22172108Y-53512000D01*
X22094200Y-53532875D01*
X22044809Y-53546109D01*
X21930690Y-53611996D01*
X21837496Y-53705190D01*
X21771609Y-53819309D01*
X21771608Y-53819314D01*
X21737500Y-53946608D01*
X21737500Y-54078392D01*
X21767579Y-54190651D01*
X21771609Y-54205690D01*
X21837496Y-54319809D01*
X21837498Y-54319811D01*
X21837500Y-54319814D01*
X21930686Y-54413000D01*
X21930688Y-54413001D01*
X21930690Y-54413003D01*
X22044810Y-54478890D01*
X22044808Y-54478890D01*
X22044812Y-54478891D01*
X22044814Y-54478892D01*
X22172108Y-54513000D01*
X22172110Y-54513000D01*
X22303890Y-54513000D01*
X22303892Y-54513000D01*
X22431186Y-54478892D01*
X22431188Y-54478890D01*
X22431190Y-54478890D01*
X22545309Y-54413003D01*
X22545310Y-54413002D01*
X22545314Y-54413000D01*
X22554048Y-54404266D01*
X22591319Y-54366996D01*
X22645836Y-54339219D01*
X22661322Y-54338000D01*
X32916665Y-54338000D01*
X32974856Y-54356907D01*
X32986669Y-54366996D01*
X36055543Y-57435869D01*
X36083320Y-57490386D01*
X36073750Y-57550815D01*
X36060128Y-57577551D01*
X36060123Y-57577561D01*
X36006598Y-57742293D01*
X36006597Y-57742297D01*
X35979500Y-57913385D01*
X35979500Y-58086614D01*
X36006597Y-58257702D01*
X36006598Y-58257706D01*
X36060123Y-58422438D01*
X36060125Y-58422441D01*
X36138767Y-58576787D01*
X36138771Y-58576793D01*
X36228366Y-58700109D01*
X36247274Y-58758300D01*
X36228367Y-58816490D01*
X36178867Y-58852454D01*
X36148274Y-58857300D01*
X33199500Y-58857300D01*
X33141309Y-58838393D01*
X33105345Y-58788893D01*
X33100500Y-58758300D01*
X33100500Y-57080253D01*
X33100498Y-57080241D01*
X33097711Y-57066231D01*
X33088867Y-57021769D01*
X33044552Y-56955448D01*
X33001376Y-56926598D01*
X32978233Y-56911134D01*
X32978231Y-56911133D01*
X32978228Y-56911132D01*
X32978227Y-56911132D01*
X32919758Y-56899501D01*
X32919748Y-56899500D01*
X31080252Y-56899500D01*
X31080251Y-56899500D01*
X31080241Y-56899501D01*
X31021772Y-56911132D01*
X31021766Y-56911134D01*
X30955451Y-56955445D01*
X30955445Y-56955451D01*
X30911134Y-57021766D01*
X30911132Y-57021772D01*
X30899501Y-57080241D01*
X30899500Y-57080253D01*
X30899500Y-57335444D01*
X30880593Y-57393635D01*
X30831093Y-57429599D01*
X30769907Y-57429599D01*
X30730496Y-57405448D01*
X30223329Y-56898281D01*
X29707863Y-56382815D01*
X29707860Y-56382813D01*
X29610840Y-56326798D01*
X29610842Y-56326798D01*
X29568851Y-56315547D01*
X29502618Y-56297800D01*
X19332718Y-56297800D01*
X19220681Y-56297800D01*
X19154448Y-56315546D01*
X19112458Y-56326798D01*
X19015435Y-56382815D01*
X19015436Y-56382816D01*
X18527748Y-56870504D01*
X18473231Y-56898281D01*
X18457744Y-56899500D01*
X17080252Y-56899500D01*
X17080251Y-56899500D01*
X17080241Y-56899501D01*
X17021772Y-56911132D01*
X17021766Y-56911134D01*
X16955451Y-56955445D01*
X16955445Y-56955451D01*
X16911134Y-57021766D01*
X16911132Y-57021772D01*
X16899501Y-57080241D01*
X16899500Y-57080253D01*
X500000Y-57080253D01*
X500000Y-53595725D01*
X4924500Y-53595725D01*
X4924500Y-54404274D01*
X4927353Y-54434694D01*
X4927355Y-54434703D01*
X4972207Y-54562883D01*
X5052845Y-54672144D01*
X5052847Y-54672146D01*
X5052850Y-54672150D01*
X5052853Y-54672152D01*
X5052855Y-54672154D01*
X5162116Y-54752792D01*
X5162117Y-54752792D01*
X5162118Y-54752793D01*
X5290301Y-54797646D01*
X5320725Y-54800499D01*
X5320727Y-54800500D01*
X5320734Y-54800500D01*
X6679273Y-54800500D01*
X6679273Y-54800499D01*
X6709699Y-54797646D01*
X6837882Y-54752793D01*
X6947150Y-54672150D01*
X7027793Y-54562882D01*
X7072646Y-54434699D01*
X7075499Y-54404273D01*
X7075500Y-54404273D01*
X7075500Y-53595727D01*
X7075499Y-53595725D01*
X7072646Y-53565305D01*
X7072646Y-53565301D01*
X7027793Y-53437118D01*
X6947150Y-53327850D01*
X6947146Y-53327847D01*
X6947144Y-53327845D01*
X6837883Y-53247207D01*
X6709703Y-53202355D01*
X6709694Y-53202353D01*
X6679274Y-53199500D01*
X6679266Y-53199500D01*
X5320734Y-53199500D01*
X5320725Y-53199500D01*
X5290305Y-53202353D01*
X5290296Y-53202355D01*
X5162116Y-53247207D01*
X5052855Y-53327845D01*
X5052845Y-53327855D01*
X4972207Y-53437116D01*
X4927355Y-53565296D01*
X4927353Y-53565305D01*
X4924500Y-53595725D01*
X500000Y-53595725D01*
X500000Y-39595725D01*
X4924500Y-39595725D01*
X4924500Y-40404274D01*
X4927353Y-40434694D01*
X4927355Y-40434703D01*
X4972207Y-40562883D01*
X5052845Y-40672144D01*
X5052847Y-40672146D01*
X5052850Y-40672150D01*
X5052853Y-40672152D01*
X5052855Y-40672154D01*
X5162116Y-40752792D01*
X5162117Y-40752792D01*
X5162118Y-40752793D01*
X5290301Y-40797646D01*
X5320725Y-40800499D01*
X5320727Y-40800500D01*
X5320734Y-40800500D01*
X6679273Y-40800500D01*
X6679273Y-40800499D01*
X6709699Y-40797646D01*
X6837882Y-40752793D01*
X6947150Y-40672150D01*
X7027793Y-40562882D01*
X7072646Y-40434699D01*
X7075499Y-40404273D01*
X7075500Y-40404273D01*
X7075500Y-39595727D01*
X7075499Y-39595725D01*
X7072646Y-39565305D01*
X7072646Y-39565301D01*
X7027793Y-39437118D01*
X6947150Y-39327850D01*
X6947146Y-39327847D01*
X6947144Y-39327845D01*
X6837883Y-39247207D01*
X6709703Y-39202355D01*
X6709694Y-39202353D01*
X6679274Y-39199500D01*
X6679266Y-39199500D01*
X5320734Y-39199500D01*
X5320725Y-39199500D01*
X5290305Y-39202353D01*
X5290296Y-39202355D01*
X5162116Y-39247207D01*
X5052855Y-39327845D01*
X5052845Y-39327855D01*
X4972207Y-39437116D01*
X4927355Y-39565296D01*
X4927353Y-39565305D01*
X4924500Y-39595725D01*
X500000Y-39595725D01*
X500000Y-37574908D01*
X23510900Y-37574908D01*
X23510900Y-37706692D01*
X23540979Y-37818951D01*
X23545009Y-37833990D01*
X23610896Y-37948109D01*
X23610898Y-37948111D01*
X23610900Y-37948114D01*
X23704086Y-38041300D01*
X23704088Y-38041301D01*
X23704090Y-38041303D01*
X23818210Y-38107190D01*
X23818208Y-38107190D01*
X23818212Y-38107191D01*
X23818214Y-38107192D01*
X23945508Y-38141300D01*
X23945510Y-38141300D01*
X24077290Y-38141300D01*
X24077292Y-38141300D01*
X24204586Y-38107192D01*
X24204588Y-38107190D01*
X24204590Y-38107190D01*
X24318709Y-38041303D01*
X24318709Y-38041302D01*
X24318714Y-38041300D01*
X24411900Y-37948114D01*
X24477792Y-37833986D01*
X24511900Y-37706692D01*
X24511900Y-37641634D01*
X24530807Y-37583443D01*
X24540896Y-37571630D01*
X25295530Y-36816996D01*
X25350047Y-36789219D01*
X25365534Y-36788000D01*
X27799978Y-36788000D01*
X27858169Y-36806907D01*
X27869981Y-36816996D01*
X27915984Y-36862999D01*
X27915990Y-36863003D01*
X28030110Y-36928890D01*
X28030108Y-36928890D01*
X28030112Y-36928891D01*
X28030114Y-36928892D01*
X28157408Y-36963000D01*
X28157410Y-36963000D01*
X28289190Y-36963000D01*
X28289192Y-36963000D01*
X28416486Y-36928892D01*
X28416488Y-36928890D01*
X28416490Y-36928890D01*
X28530609Y-36863003D01*
X28530609Y-36863002D01*
X28530614Y-36863000D01*
X28623800Y-36769814D01*
X28689692Y-36655686D01*
X28723800Y-36528392D01*
X28723800Y-36396608D01*
X28689692Y-36269314D01*
X28689690Y-36269311D01*
X28689690Y-36269309D01*
X28623803Y-36155190D01*
X28623801Y-36155188D01*
X28623800Y-36155186D01*
X28530614Y-36062000D01*
X28530611Y-36061998D01*
X28530609Y-36061996D01*
X28416489Y-35996109D01*
X28416491Y-35996109D01*
X28367099Y-35982875D01*
X28289192Y-35962000D01*
X28157408Y-35962000D01*
X28079500Y-35982875D01*
X28030109Y-35996109D01*
X27915990Y-36061996D01*
X27915984Y-36062000D01*
X27869981Y-36108004D01*
X27815464Y-36135781D01*
X27799978Y-36137000D01*
X25232553Y-36137000D01*
X25146847Y-36137000D01*
X25078975Y-36155186D01*
X25064057Y-36159183D01*
X25026950Y-36180608D01*
X25003421Y-36194192D01*
X24989837Y-36202035D01*
X24929234Y-36262637D01*
X24929235Y-36262638D01*
X24080569Y-37111304D01*
X24026052Y-37139081D01*
X24010565Y-37140300D01*
X23945508Y-37140300D01*
X23867600Y-37161175D01*
X23818209Y-37174409D01*
X23704090Y-37240296D01*
X23610896Y-37333490D01*
X23545009Y-37447609D01*
X23545008Y-37447614D01*
X23510900Y-37574908D01*
X500000Y-37574908D01*
X500000Y-32934108D01*
X26079500Y-32934108D01*
X26079500Y-33065892D01*
X26109579Y-33178151D01*
X26113609Y-33193190D01*
X26179496Y-33307309D01*
X26179498Y-33307311D01*
X26179500Y-33307314D01*
X26272686Y-33400500D01*
X26272688Y-33400501D01*
X26272690Y-33400503D01*
X26386810Y-33466390D01*
X26386808Y-33466390D01*
X26386812Y-33466391D01*
X26386814Y-33466392D01*
X26514108Y-33500500D01*
X26514110Y-33500500D01*
X26645890Y-33500500D01*
X26645892Y-33500500D01*
X26773186Y-33466392D01*
X26773188Y-33466390D01*
X26773190Y-33466390D01*
X26887309Y-33400503D01*
X26887309Y-33400502D01*
X26887314Y-33400500D01*
X26980500Y-33307314D01*
X27046392Y-33193186D01*
X27080500Y-33065892D01*
X27080500Y-32934108D01*
X27046392Y-32806814D01*
X27046391Y-32806812D01*
X27018763Y-32758958D01*
X27005500Y-32709459D01*
X27005500Y-28934108D01*
X27719500Y-28934108D01*
X27719500Y-29065892D01*
X27745500Y-29162926D01*
X27753609Y-29193190D01*
X27819496Y-29307309D01*
X27819498Y-29307311D01*
X27819500Y-29307314D01*
X27865505Y-29353319D01*
X27893281Y-29407834D01*
X27894500Y-29423321D01*
X27894500Y-30782853D01*
X27916682Y-30865638D01*
X27959535Y-30939862D01*
X28020138Y-31000465D01*
X28094362Y-31043318D01*
X28177147Y-31065500D01*
X28177149Y-31065500D01*
X28262852Y-31065500D01*
X28262853Y-31065500D01*
X28264875Y-31064958D01*
X28266372Y-31065036D01*
X28269285Y-31064653D01*
X28269356Y-31065192D01*
X28325977Y-31068159D01*
X28373527Y-31106663D01*
X28389500Y-31160584D01*
X28389500Y-31265892D01*
X28419579Y-31378151D01*
X28423609Y-31393190D01*
X28489496Y-31507309D01*
X28489498Y-31507311D01*
X28489500Y-31507314D01*
X28582686Y-31600500D01*
X28582688Y-31600501D01*
X28582690Y-31600503D01*
X28696810Y-31666390D01*
X28696808Y-31666390D01*
X28696812Y-31666391D01*
X28696814Y-31666392D01*
X28824108Y-31700500D01*
X28824110Y-31700500D01*
X28955890Y-31700500D01*
X28955892Y-31700500D01*
X29083186Y-31666392D01*
X29083188Y-31666390D01*
X29083190Y-31666390D01*
X29197309Y-31600503D01*
X29197309Y-31600502D01*
X29197314Y-31600500D01*
X29290500Y-31507314D01*
X29356392Y-31393186D01*
X29390500Y-31265892D01*
X29390500Y-31134108D01*
X29356392Y-31006814D01*
X29356390Y-31006811D01*
X29356390Y-31006809D01*
X29290503Y-30892690D01*
X29290499Y-30892684D01*
X29244496Y-30846681D01*
X29216719Y-30792164D01*
X29215500Y-30776678D01*
X29215500Y-25037148D01*
X29215500Y-25037147D01*
X29193318Y-24954362D01*
X29150465Y-24880138D01*
X29089862Y-24819535D01*
X29015638Y-24776682D01*
X28932853Y-24754500D01*
X28847147Y-24754500D01*
X28764362Y-24776682D01*
X28690138Y-24819535D01*
X28629535Y-24880138D01*
X28586682Y-24954362D01*
X28569145Y-25019814D01*
X28564500Y-25037148D01*
X28564500Y-28449495D01*
X28545593Y-28507686D01*
X28496093Y-28543650D01*
X28434907Y-28543650D01*
X28416006Y-28535235D01*
X28413189Y-28533609D01*
X28413191Y-28533609D01*
X28363799Y-28520375D01*
X28285892Y-28499500D01*
X28154108Y-28499500D01*
X28076200Y-28520375D01*
X28026809Y-28533609D01*
X27912690Y-28599496D01*
X27819496Y-28692690D01*
X27753609Y-28806809D01*
X27753608Y-28806814D01*
X27719500Y-28934108D01*
X27005500Y-28934108D01*
X27005500Y-26293983D01*
X27005500Y-26293982D01*
X26976503Y-26185763D01*
X26976501Y-26185760D01*
X26976501Y-26185758D01*
X26920486Y-26088739D01*
X26920485Y-26088737D01*
X26841263Y-26009515D01*
X26841260Y-26009513D01*
X26744240Y-25953498D01*
X26744242Y-25953498D01*
X26702251Y-25942247D01*
X26636018Y-25924500D01*
X26523982Y-25924500D01*
X26457748Y-25942247D01*
X26415758Y-25953498D01*
X26318739Y-26009513D01*
X26239513Y-26088739D01*
X26183498Y-26185758D01*
X26154500Y-26293983D01*
X26154500Y-32709459D01*
X26141237Y-32758958D01*
X26113608Y-32806812D01*
X26090869Y-32891676D01*
X26079500Y-32934108D01*
X500000Y-32934108D01*
X500000Y-3374034D01*
X1899500Y-3374034D01*
X1899500Y-3625965D01*
X1938908Y-3874780D01*
X2016759Y-4114379D01*
X2082532Y-4243467D01*
X2131130Y-4338845D01*
X2279207Y-4542656D01*
X2457344Y-4720793D01*
X2661155Y-4868870D01*
X2885621Y-4983241D01*
X3125215Y-5061090D01*
X3125216Y-5061090D01*
X3125219Y-5061091D01*
X3374035Y-5100500D01*
X3374038Y-5100500D01*
X3625965Y-5100500D01*
X3874780Y-5061091D01*
X3874781Y-5061090D01*
X3874785Y-5061090D01*
X4114379Y-4983241D01*
X4338845Y-4868870D01*
X4542656Y-4720793D01*
X4720793Y-4542656D01*
X4868870Y-4338845D01*
X4983241Y-4114379D01*
X5061090Y-3874785D01*
X5067616Y-3833581D01*
X5100500Y-3625965D01*
X5100500Y-3374034D01*
X5061091Y-3125219D01*
X5049485Y-3089500D01*
X4983241Y-2885621D01*
X4868870Y-2661155D01*
X4720793Y-2457344D01*
X4542656Y-2279207D01*
X4338845Y-2131130D01*
X4338844Y-2131129D01*
X4338842Y-2131128D01*
X4114379Y-2016759D01*
X3874780Y-1938908D01*
X3625965Y-1899500D01*
X3625962Y-1899500D01*
X3374038Y-1899500D01*
X3374035Y-1899500D01*
X3125219Y-1938908D01*
X2885620Y-2016759D01*
X2661157Y-2131128D01*
X2457345Y-2279206D01*
X2279206Y-2457345D01*
X2131128Y-2661157D01*
X2016759Y-2885620D01*
X1938908Y-3125219D01*
X1899500Y-3374034D01*
X500000Y-3374034D01*
X500000Y-1534108D01*
X7049500Y-1534108D01*
X7049500Y-1665892D01*
X7059567Y-1703463D01*
X7083609Y-1793190D01*
X7149496Y-1907309D01*
X7149498Y-1907311D01*
X7149500Y-1907314D01*
X7195505Y-1953319D01*
X7223281Y-2007834D01*
X7224500Y-2023321D01*
X7224500Y-15176678D01*
X7205593Y-15234869D01*
X7195504Y-15246681D01*
X7149500Y-15292684D01*
X7149496Y-15292690D01*
X7083609Y-15406809D01*
X7083608Y-15406814D01*
X7049500Y-15534108D01*
X7049500Y-15665892D01*
X7069324Y-15739877D01*
X7083609Y-15793190D01*
X7149496Y-15907309D01*
X7149498Y-15907311D01*
X7149500Y-15907314D01*
X7242686Y-16000500D01*
X7242688Y-16000501D01*
X7242690Y-16000503D01*
X7356810Y-16066390D01*
X7356808Y-16066390D01*
X7356812Y-16066391D01*
X7356814Y-16066392D01*
X7484108Y-16100500D01*
X7484110Y-16100500D01*
X7615890Y-16100500D01*
X7615892Y-16100500D01*
X7743186Y-16066392D01*
X7743188Y-16066390D01*
X7743190Y-16066390D01*
X7857309Y-16000503D01*
X7857309Y-16000502D01*
X7857314Y-16000500D01*
X7857317Y-16000496D01*
X7862460Y-15996551D01*
X7863683Y-15998145D01*
X7910013Y-15974540D01*
X7970445Y-15984111D01*
X8013710Y-16027376D01*
X8024500Y-16072321D01*
X8024500Y-23076678D01*
X8005593Y-23134869D01*
X7995504Y-23146681D01*
X7949500Y-23192684D01*
X7949496Y-23192690D01*
X7883609Y-23306809D01*
X7883608Y-23306814D01*
X7849500Y-23434108D01*
X7849500Y-23565892D01*
X7875500Y-23662926D01*
X7883609Y-23693190D01*
X7949496Y-23807309D01*
X7949498Y-23807311D01*
X7949500Y-23807314D01*
X8042686Y-23900500D01*
X8042688Y-23900501D01*
X8042690Y-23900503D01*
X8156810Y-23966390D01*
X8156808Y-23966390D01*
X8156812Y-23966391D01*
X8156814Y-23966392D01*
X8284108Y-24000500D01*
X8284110Y-24000500D01*
X8415890Y-24000500D01*
X8415892Y-24000500D01*
X8543186Y-23966392D01*
X8543188Y-23966390D01*
X8543190Y-23966390D01*
X8657309Y-23900503D01*
X8657309Y-23900502D01*
X8657314Y-23900500D01*
X8657317Y-23900496D01*
X8662460Y-23896551D01*
X8663683Y-23898145D01*
X8710013Y-23874540D01*
X8770445Y-23884111D01*
X8813710Y-23927376D01*
X8824500Y-23972321D01*
X8824500Y-28576678D01*
X8805593Y-28634869D01*
X8795504Y-28646681D01*
X8749500Y-28692684D01*
X8749496Y-28692690D01*
X8683609Y-28806809D01*
X8683608Y-28806814D01*
X8649500Y-28934108D01*
X8649500Y-29065892D01*
X8675500Y-29162926D01*
X8683609Y-29193190D01*
X8749496Y-29307309D01*
X8749498Y-29307311D01*
X8749500Y-29307314D01*
X8842686Y-29400500D01*
X8842688Y-29400501D01*
X8842690Y-29400503D01*
X8956810Y-29466390D01*
X8956808Y-29466390D01*
X8956812Y-29466391D01*
X8956814Y-29466392D01*
X9084108Y-29500500D01*
X9084110Y-29500500D01*
X9215890Y-29500500D01*
X9215892Y-29500500D01*
X9343186Y-29466392D01*
X9343188Y-29466390D01*
X9343190Y-29466390D01*
X9457309Y-29400503D01*
X9457309Y-29400502D01*
X9457314Y-29400500D01*
X9457317Y-29400496D01*
X9462460Y-29396551D01*
X9463683Y-29398145D01*
X9510013Y-29374540D01*
X9570445Y-29384111D01*
X9613710Y-29427376D01*
X9624500Y-29472321D01*
X9624500Y-29776678D01*
X9605593Y-29834869D01*
X9595504Y-29846681D01*
X9549500Y-29892684D01*
X9549496Y-29892690D01*
X9483609Y-30006809D01*
X9483608Y-30006814D01*
X9449500Y-30134108D01*
X9449500Y-30265892D01*
X9479579Y-30378151D01*
X9483609Y-30393190D01*
X9549496Y-30507309D01*
X9549498Y-30507311D01*
X9549500Y-30507314D01*
X9642686Y-30600500D01*
X9642688Y-30600501D01*
X9642690Y-30600503D01*
X9756810Y-30666390D01*
X9756808Y-30666390D01*
X9756812Y-30666391D01*
X9756814Y-30666392D01*
X9884108Y-30700500D01*
X9884110Y-30700500D01*
X10015890Y-30700500D01*
X10015892Y-30700500D01*
X10143186Y-30666392D01*
X10143188Y-30666390D01*
X10143190Y-30666390D01*
X10257309Y-30600503D01*
X10257309Y-30600502D01*
X10257314Y-30600500D01*
X10350500Y-30507314D01*
X10416392Y-30393186D01*
X10434374Y-30326075D01*
X10467697Y-30274763D01*
X10524818Y-30252836D01*
X10583919Y-30268671D01*
X10622424Y-30316221D01*
X10625623Y-30326065D01*
X10641772Y-30386337D01*
X10643609Y-30393190D01*
X10709496Y-30507309D01*
X10709498Y-30507311D01*
X10709500Y-30507314D01*
X10802686Y-30600500D01*
X10802688Y-30600501D01*
X10802690Y-30600503D01*
X10916810Y-30666390D01*
X10916808Y-30666390D01*
X10916812Y-30666391D01*
X10916814Y-30666392D01*
X11044108Y-30700500D01*
X11044110Y-30700500D01*
X11175890Y-30700500D01*
X11175892Y-30700500D01*
X11303186Y-30666392D01*
X11303188Y-30666390D01*
X11303190Y-30666390D01*
X11417309Y-30600503D01*
X11417309Y-30600502D01*
X11417314Y-30600500D01*
X11510500Y-30507314D01*
X11576392Y-30393186D01*
X11610500Y-30265892D01*
X11610500Y-30134108D01*
X11576392Y-30006814D01*
X11576390Y-30006811D01*
X11576390Y-30006809D01*
X11510503Y-29892690D01*
X11510499Y-29892684D01*
X11464496Y-29846681D01*
X11436719Y-29792164D01*
X11435500Y-29776678D01*
X11435500Y-25037148D01*
X11435500Y-25037147D01*
X11413318Y-24954362D01*
X11370465Y-24880138D01*
X11309862Y-24819535D01*
X11235638Y-24776682D01*
X11152853Y-24754500D01*
X11067147Y-24754500D01*
X10984362Y-24776682D01*
X10910138Y-24819535D01*
X10849535Y-24880138D01*
X10806682Y-24954362D01*
X10789145Y-25019814D01*
X10784500Y-25037148D01*
X10784500Y-29776678D01*
X10765593Y-29834869D01*
X10755504Y-29846681D01*
X10709500Y-29892684D01*
X10709496Y-29892690D01*
X10643609Y-30006809D01*
X10625627Y-30073922D01*
X10592303Y-30125236D01*
X10535181Y-30147163D01*
X10476081Y-30131327D01*
X10437576Y-30083777D01*
X10434373Y-30073922D01*
X10416392Y-30006814D01*
X10416390Y-30006811D01*
X10416390Y-30006809D01*
X10350503Y-29892690D01*
X10350499Y-29892684D01*
X10304496Y-29846681D01*
X10276719Y-29792164D01*
X10275500Y-29776678D01*
X10275500Y-22734108D01*
X19499500Y-22734108D01*
X19499500Y-22865892D01*
X19533608Y-22993186D01*
X19533609Y-22993188D01*
X19561236Y-23041038D01*
X19574500Y-23090539D01*
X19574500Y-24309459D01*
X19561237Y-24358958D01*
X19533608Y-24406812D01*
X19521491Y-24452035D01*
X19499500Y-24534108D01*
X19499500Y-24665892D01*
X19523242Y-24754500D01*
X19533609Y-24793190D01*
X19599496Y-24907309D01*
X19599498Y-24907311D01*
X19599500Y-24907314D01*
X19692686Y-25000500D01*
X19692688Y-25000501D01*
X19692690Y-25000503D01*
X19806810Y-25066390D01*
X19806808Y-25066390D01*
X19806812Y-25066391D01*
X19806814Y-25066392D01*
X19934108Y-25100500D01*
X19934110Y-25100500D01*
X20065890Y-25100500D01*
X20065892Y-25100500D01*
X20193186Y-25066392D01*
X20193188Y-25066390D01*
X20193190Y-25066390D01*
X20307309Y-25000503D01*
X20307309Y-25000502D01*
X20307314Y-25000500D01*
X20400500Y-24907314D01*
X20440439Y-24838138D01*
X20466390Y-24793190D01*
X20466390Y-24793188D01*
X20466392Y-24793186D01*
X20500500Y-24665892D01*
X20500500Y-24534108D01*
X20466392Y-24406814D01*
X20466391Y-24406812D01*
X20438763Y-24358958D01*
X20425500Y-24309459D01*
X20425500Y-23090539D01*
X20438764Y-23041038D01*
X20466392Y-22993186D01*
X20500500Y-22865892D01*
X20500500Y-22734108D01*
X20466392Y-22606814D01*
X20466390Y-22606811D01*
X20466390Y-22606809D01*
X20400503Y-22492690D01*
X20400501Y-22492688D01*
X20400500Y-22492686D01*
X20307314Y-22399500D01*
X20307311Y-22399498D01*
X20307309Y-22399496D01*
X20193189Y-22333609D01*
X20193191Y-22333609D01*
X20143799Y-22320375D01*
X20065892Y-22299500D01*
X19934108Y-22299500D01*
X19856200Y-22320375D01*
X19806809Y-22333609D01*
X19692690Y-22399496D01*
X19599496Y-22492690D01*
X19533609Y-22606809D01*
X19519461Y-22659611D01*
X19499500Y-22734108D01*
X10275500Y-22734108D01*
X10275500Y-20625515D01*
X18799500Y-20625515D01*
X18799500Y-20814484D01*
X18829058Y-21001113D01*
X18829060Y-21001118D01*
X18887453Y-21180832D01*
X18973240Y-21349199D01*
X19084310Y-21502073D01*
X19217927Y-21635690D01*
X19370801Y-21746760D01*
X19539168Y-21832547D01*
X19718882Y-21890940D01*
X19718883Y-21890940D01*
X19718886Y-21890941D01*
X19905516Y-21920500D01*
X19905519Y-21920500D01*
X20094484Y-21920500D01*
X20281113Y-21890941D01*
X20281114Y-21890940D01*
X20281118Y-21890940D01*
X20460832Y-21832547D01*
X20629199Y-21746760D01*
X20782073Y-21635690D01*
X20915690Y-21502073D01*
X21026760Y-21349199D01*
X21112547Y-21180832D01*
X21170940Y-21001118D01*
X21200500Y-20814481D01*
X21200500Y-20625519D01*
X21200500Y-20625515D01*
X21170941Y-20438886D01*
X21170940Y-20438882D01*
X21112547Y-20259168D01*
X21026760Y-20090801D01*
X20915690Y-19937927D01*
X20782073Y-19804310D01*
X20629199Y-19693240D01*
X20629198Y-19693239D01*
X20629196Y-19693238D01*
X20460832Y-19607453D01*
X20281113Y-19549058D01*
X20094484Y-19519500D01*
X20094481Y-19519500D01*
X19905519Y-19519500D01*
X19905516Y-19519500D01*
X19718886Y-19549058D01*
X19539167Y-19607453D01*
X19370803Y-19693238D01*
X19217928Y-19804309D01*
X19084309Y-19937928D01*
X18973238Y-20090803D01*
X18887453Y-20259167D01*
X18829058Y-20438886D01*
X18799500Y-20625515D01*
X10275500Y-20625515D01*
X10275500Y-17730010D01*
X10294407Y-17671819D01*
X10343907Y-17635855D01*
X10405093Y-17635855D01*
X10437308Y-17653484D01*
X10440342Y-17655974D01*
X10440345Y-17655977D01*
X10612402Y-17770941D01*
X10803580Y-17850130D01*
X11006535Y-17890500D01*
X11006536Y-17890500D01*
X11213464Y-17890500D01*
X11213465Y-17890500D01*
X11416420Y-17850130D01*
X11607598Y-17770941D01*
X11779655Y-17655977D01*
X11925977Y-17509655D01*
X12040941Y-17337598D01*
X12120130Y-17146420D01*
X12160500Y-16943465D01*
X12160500Y-16736535D01*
X12120130Y-16533580D01*
X12040941Y-16342402D01*
X11925977Y-16170345D01*
X11779655Y-16024023D01*
X11744455Y-16000503D01*
X11607597Y-15909058D01*
X11416418Y-15829869D01*
X11213467Y-15789500D01*
X11213465Y-15789500D01*
X11006535Y-15789500D01*
X11006532Y-15789500D01*
X10803581Y-15829869D01*
X10612402Y-15909058D01*
X10440339Y-16024026D01*
X10437301Y-16026520D01*
X10380323Y-16048818D01*
X10321121Y-16033366D01*
X10282308Y-15986067D01*
X10275500Y-15949989D01*
X10275500Y-15190010D01*
X10294407Y-15131819D01*
X10343907Y-15095855D01*
X10405093Y-15095855D01*
X10437308Y-15113484D01*
X10440342Y-15115974D01*
X10440345Y-15115977D01*
X10612402Y-15230941D01*
X10803580Y-15310130D01*
X11006535Y-15350500D01*
X11006536Y-15350500D01*
X11213464Y-15350500D01*
X11213465Y-15350500D01*
X11416420Y-15310130D01*
X11607598Y-15230941D01*
X11779655Y-15115977D01*
X11925977Y-14969655D01*
X12040941Y-14797598D01*
X12120130Y-14606420D01*
X12160500Y-14403465D01*
X12160500Y-14196535D01*
X12120130Y-13993580D01*
X12040941Y-13802402D01*
X11925977Y-13630345D01*
X11779655Y-13484023D01*
X11754400Y-13467148D01*
X11607597Y-13369058D01*
X11416418Y-13289869D01*
X11213467Y-13249500D01*
X11213465Y-13249500D01*
X11006535Y-13249500D01*
X11006532Y-13249500D01*
X10803581Y-13289869D01*
X10612402Y-13369058D01*
X10440348Y-13484020D01*
X10294020Y-13630348D01*
X10195340Y-13778035D01*
X10147290Y-13815915D01*
X10087402Y-13818660D01*
X10015892Y-13799500D01*
X9884108Y-13799500D01*
X9806200Y-13820375D01*
X9756809Y-13833609D01*
X9642690Y-13899496D01*
X9637540Y-13903449D01*
X9636316Y-13901854D01*
X9589987Y-13925460D01*
X9529555Y-13915889D01*
X9486290Y-13872624D01*
X9475500Y-13827679D01*
X9475500Y-12183321D01*
X9494407Y-12125130D01*
X9504490Y-12113323D01*
X9550500Y-12067314D01*
X9616392Y-11953186D01*
X9650500Y-11825892D01*
X9650500Y-11694108D01*
X9640432Y-11656532D01*
X10059500Y-11656532D01*
X10059500Y-11863467D01*
X10099869Y-12066418D01*
X10179058Y-12257597D01*
X10179059Y-12257598D01*
X10294023Y-12429655D01*
X10440345Y-12575977D01*
X10612402Y-12690941D01*
X10803580Y-12770130D01*
X11006535Y-12810500D01*
X11006536Y-12810500D01*
X11213464Y-12810500D01*
X11213465Y-12810500D01*
X11416420Y-12770130D01*
X11607598Y-12690941D01*
X11779655Y-12575977D01*
X11925977Y-12429655D01*
X12040941Y-12257598D01*
X12120130Y-12066420D01*
X12160500Y-11863465D01*
X12160500Y-11656535D01*
X12160499Y-11656532D01*
X27839500Y-11656532D01*
X27839500Y-11863467D01*
X27879869Y-12066418D01*
X27959058Y-12257597D01*
X27959059Y-12257598D01*
X28074023Y-12429655D01*
X28220345Y-12575977D01*
X28392402Y-12690941D01*
X28583580Y-12770130D01*
X28786535Y-12810500D01*
X28786536Y-12810500D01*
X28993464Y-12810500D01*
X28993465Y-12810500D01*
X29196420Y-12770130D01*
X29387598Y-12690941D01*
X29559655Y-12575977D01*
X29705977Y-12429655D01*
X29820941Y-12257598D01*
X29900130Y-12066420D01*
X29940500Y-11863465D01*
X29940500Y-11656535D01*
X29900130Y-11453580D01*
X29820941Y-11262402D01*
X29705977Y-11090345D01*
X29559655Y-10944023D01*
X29387598Y-10829059D01*
X29387599Y-10829059D01*
X29387597Y-10829058D01*
X29196418Y-10749869D01*
X28993467Y-10709500D01*
X28993465Y-10709500D01*
X28786535Y-10709500D01*
X28786532Y-10709500D01*
X28583581Y-10749869D01*
X28392402Y-10829058D01*
X28220348Y-10944020D01*
X28074020Y-11090348D01*
X27959058Y-11262402D01*
X27879869Y-11453581D01*
X27839500Y-11656532D01*
X12160499Y-11656532D01*
X12120130Y-11453580D01*
X12040941Y-11262402D01*
X11925977Y-11090345D01*
X11779655Y-10944023D01*
X11607598Y-10829059D01*
X11607599Y-10829059D01*
X11607597Y-10829058D01*
X11416418Y-10749869D01*
X11213467Y-10709500D01*
X11213465Y-10709500D01*
X11006535Y-10709500D01*
X11006532Y-10709500D01*
X10803581Y-10749869D01*
X10612402Y-10829058D01*
X10440348Y-10944020D01*
X10294020Y-11090348D01*
X10179058Y-11262402D01*
X10099869Y-11453581D01*
X10059500Y-11656532D01*
X9640432Y-11656532D01*
X9616392Y-11566814D01*
X9616390Y-11566811D01*
X9616390Y-11566809D01*
X9550503Y-11452690D01*
X9550501Y-11452688D01*
X9550500Y-11452686D01*
X9457314Y-11359500D01*
X9457311Y-11359498D01*
X9457309Y-11359496D01*
X9343189Y-11293609D01*
X9343191Y-11293609D01*
X9293799Y-11280375D01*
X9215892Y-11259500D01*
X9084108Y-11259500D01*
X9006200Y-11280375D01*
X8956809Y-11293609D01*
X8842690Y-11359496D01*
X8837540Y-11363449D01*
X8836316Y-11361854D01*
X8789987Y-11385460D01*
X8729555Y-11375889D01*
X8686290Y-11332624D01*
X8675500Y-11287679D01*
X8675500Y-9643321D01*
X8694407Y-9585130D01*
X8704490Y-9573323D01*
X8750500Y-9527314D01*
X8816392Y-9413186D01*
X8850500Y-9285892D01*
X8850500Y-9154108D01*
X8840432Y-9116532D01*
X10059500Y-9116532D01*
X10059500Y-9323467D01*
X10099869Y-9526418D01*
X10179058Y-9717597D01*
X10179059Y-9717598D01*
X10294023Y-9889655D01*
X10440345Y-10035977D01*
X10612402Y-10150941D01*
X10803580Y-10230130D01*
X11006535Y-10270500D01*
X11006536Y-10270500D01*
X11213464Y-10270500D01*
X11213465Y-10270500D01*
X11416420Y-10230130D01*
X11607598Y-10150941D01*
X11779655Y-10035977D01*
X11925977Y-9889655D01*
X12040941Y-9717598D01*
X12120130Y-9526420D01*
X12160500Y-9323465D01*
X12160500Y-9116535D01*
X12160499Y-9116532D01*
X27839500Y-9116532D01*
X27839500Y-9323467D01*
X27879869Y-9526418D01*
X27959058Y-9717597D01*
X27959059Y-9717598D01*
X28074023Y-9889655D01*
X28220345Y-10035977D01*
X28392402Y-10150941D01*
X28583580Y-10230130D01*
X28786535Y-10270500D01*
X28786536Y-10270500D01*
X28993464Y-10270500D01*
X28993465Y-10270500D01*
X29196420Y-10230130D01*
X29387598Y-10150941D01*
X29559655Y-10035977D01*
X29705977Y-9889655D01*
X29820941Y-9717598D01*
X29900130Y-9526420D01*
X29940500Y-9323465D01*
X29940500Y-9116535D01*
X29900130Y-8913580D01*
X29820941Y-8722402D01*
X29705977Y-8550345D01*
X29559655Y-8404023D01*
X29387598Y-8289059D01*
X29387599Y-8289059D01*
X29387597Y-8289058D01*
X29196418Y-8209869D01*
X28993467Y-8169500D01*
X28993465Y-8169500D01*
X28786535Y-8169500D01*
X28786532Y-8169500D01*
X28583581Y-8209869D01*
X28392402Y-8289058D01*
X28220348Y-8404020D01*
X28074020Y-8550348D01*
X27959058Y-8722402D01*
X27879869Y-8913581D01*
X27839500Y-9116532D01*
X12160499Y-9116532D01*
X12120130Y-8913580D01*
X12040941Y-8722402D01*
X11925977Y-8550345D01*
X11779655Y-8404023D01*
X11607598Y-8289059D01*
X11607599Y-8289059D01*
X11607597Y-8289058D01*
X11416418Y-8209869D01*
X11213467Y-8169500D01*
X11213465Y-8169500D01*
X11006535Y-8169500D01*
X11006532Y-8169500D01*
X10803581Y-8209869D01*
X10612402Y-8289058D01*
X10440348Y-8404020D01*
X10294020Y-8550348D01*
X10179058Y-8722402D01*
X10099869Y-8913581D01*
X10059500Y-9116532D01*
X8840432Y-9116532D01*
X8816392Y-9026814D01*
X8816390Y-9026811D01*
X8816390Y-9026809D01*
X8750503Y-8912690D01*
X8750501Y-8912688D01*
X8750500Y-8912686D01*
X8657314Y-8819500D01*
X8657311Y-8819498D01*
X8657309Y-8819496D01*
X8543189Y-8753609D01*
X8543191Y-8753609D01*
X8493799Y-8740375D01*
X8415892Y-8719500D01*
X8284108Y-8719500D01*
X8206200Y-8740375D01*
X8156809Y-8753609D01*
X8042690Y-8819496D01*
X8037540Y-8823449D01*
X8036316Y-8821854D01*
X7989987Y-8845460D01*
X7929555Y-8835889D01*
X7886290Y-8792624D01*
X7875500Y-8747679D01*
X7875500Y-6576532D01*
X10059500Y-6576532D01*
X10059500Y-6783467D01*
X10099869Y-6986418D01*
X10179058Y-7177597D01*
X10179059Y-7177598D01*
X10294023Y-7349655D01*
X10440345Y-7495977D01*
X10612402Y-7610941D01*
X10803580Y-7690130D01*
X11006535Y-7730500D01*
X11006536Y-7730500D01*
X11213464Y-7730500D01*
X11213465Y-7730500D01*
X11416420Y-7690130D01*
X11607598Y-7610941D01*
X11779655Y-7495977D01*
X11925977Y-7349655D01*
X12040941Y-7177598D01*
X12120130Y-6986420D01*
X12160500Y-6783465D01*
X12160500Y-6576535D01*
X12160499Y-6576532D01*
X27839500Y-6576532D01*
X27839500Y-6783467D01*
X27879869Y-6986418D01*
X27959058Y-7177597D01*
X27959059Y-7177598D01*
X28074023Y-7349655D01*
X28220345Y-7495977D01*
X28392402Y-7610941D01*
X28583580Y-7690130D01*
X28786535Y-7730500D01*
X28786536Y-7730500D01*
X28993464Y-7730500D01*
X28993465Y-7730500D01*
X29196420Y-7690130D01*
X29387598Y-7610941D01*
X29559655Y-7495977D01*
X29705977Y-7349655D01*
X29820941Y-7177598D01*
X29900130Y-6986420D01*
X29940500Y-6783465D01*
X29940500Y-6576535D01*
X29900130Y-6373580D01*
X29820941Y-6182402D01*
X29705977Y-6010345D01*
X29559655Y-5864023D01*
X29387598Y-5749059D01*
X29387599Y-5749059D01*
X29387597Y-5749058D01*
X29196418Y-5669869D01*
X28993467Y-5629500D01*
X28993465Y-5629500D01*
X28786535Y-5629500D01*
X28786532Y-5629500D01*
X28583581Y-5669869D01*
X28392402Y-5749058D01*
X28220348Y-5864020D01*
X28074020Y-6010348D01*
X27959058Y-6182402D01*
X27879869Y-6373581D01*
X27839500Y-6576532D01*
X12160499Y-6576532D01*
X12120130Y-6373580D01*
X12040941Y-6182402D01*
X11925977Y-6010345D01*
X11779655Y-5864023D01*
X11607598Y-5749059D01*
X11607599Y-5749059D01*
X11607597Y-5749058D01*
X11416418Y-5669869D01*
X11213467Y-5629500D01*
X11213465Y-5629500D01*
X11006535Y-5629500D01*
X11006532Y-5629500D01*
X10803581Y-5669869D01*
X10612402Y-5749058D01*
X10440348Y-5864020D01*
X10294020Y-6010348D01*
X10179058Y-6182402D01*
X10099869Y-6373581D01*
X10059500Y-6576532D01*
X7875500Y-6576532D01*
X7875500Y-4036532D01*
X10059500Y-4036532D01*
X10059500Y-4243467D01*
X10099869Y-4446418D01*
X10179058Y-4637597D01*
X10294020Y-4809651D01*
X10294023Y-4809655D01*
X10440345Y-4955977D01*
X10612402Y-5070941D01*
X10803580Y-5150130D01*
X11006535Y-5190500D01*
X11006536Y-5190500D01*
X11213464Y-5190500D01*
X11213465Y-5190500D01*
X11416420Y-5150130D01*
X11607598Y-5070941D01*
X11779655Y-4955977D01*
X11925977Y-4809655D01*
X12040941Y-4637598D01*
X12120130Y-4446420D01*
X12160500Y-4243465D01*
X12160500Y-4036535D01*
X12120130Y-3833580D01*
X12040941Y-3642402D01*
X11925977Y-3470345D01*
X11779655Y-3324023D01*
X11607598Y-3209059D01*
X11607599Y-3209059D01*
X11607597Y-3209058D01*
X11416418Y-3129869D01*
X11213467Y-3089500D01*
X11213465Y-3089500D01*
X11006535Y-3089500D01*
X11006532Y-3089500D01*
X10803581Y-3129869D01*
X10612402Y-3209058D01*
X10440348Y-3324020D01*
X10294020Y-3470348D01*
X10179058Y-3642402D01*
X10099869Y-3833581D01*
X10059500Y-4036532D01*
X7875500Y-4036532D01*
X7875500Y-2023321D01*
X7894407Y-1965130D01*
X7904490Y-1953323D01*
X7950500Y-1907314D01*
X7951017Y-1906418D01*
X8016390Y-1793190D01*
X8016390Y-1793188D01*
X8016392Y-1793186D01*
X8050500Y-1665892D01*
X8050500Y-1534108D01*
X8016392Y-1406814D01*
X8016390Y-1406811D01*
X8016390Y-1406809D01*
X7950503Y-1292690D01*
X7950501Y-1292688D01*
X7950500Y-1292686D01*
X7857314Y-1199500D01*
X7857311Y-1199498D01*
X7857309Y-1199496D01*
X7743189Y-1133609D01*
X7743191Y-1133609D01*
X7693799Y-1120375D01*
X7615892Y-1099500D01*
X7484108Y-1099500D01*
X7406200Y-1120375D01*
X7356809Y-1133609D01*
X7242690Y-1199496D01*
X7149496Y-1292690D01*
X7083609Y-1406809D01*
X7083608Y-1406814D01*
X7049500Y-1534108D01*
X500000Y-1534108D01*
X500000Y-599000D01*
X518907Y-540809D01*
X568407Y-504845D01*
X599000Y-500000D01*
X10000690Y-500000D01*
X10058881Y-518907D01*
G37*
%TD.AperFunction*%
%TD*%
M02*
